<?xml version="1.0" encoding="UTF-8"?><svg id="_圖層_1" xmlns="http://www.w3.org/2000/svg" xmlns:xlink="http://www.w3.org/1999/xlink" viewBox="0 0 136.06 136.06"><defs><style>.cls-1{fill:none;}.cls-2{clip-path:url(#clippath);}.cls-3,.cls-4,.cls-5{fill:#e9c6c8;}.cls-6{letter-spacing:.53em;}.cls-7{letter-spacing:.2em;}.cls-4{font-size:2.08px;}.cls-4,.cls-5{font-family:HuayuanGothic-Regular, 'Huayuan Gothic';}.cls-5{font-size:4.15px;}</style><clipPath id="clippath"><rect class="cls-1" x="10.26" y="10.26" width="115.54" height="115.54"/></clipPath></defs><g class="cls-2"><path class="cls-3" d="M45.17,76.73c-.27,3.2-.74,6.32-1.43,9.37-.69,3.04-1.52,5.63-2.5,7.77-.31-.18-.7-.4-1.17-.67-.47-.27-.97-.52-1.5-.77-.53-.24-1.04-.48-1.53-.7-.49-.22-.93-.4-1.33-.53,.98-2,1.72-4.38,2.23-7.13,.51-2.75,.9-5.53,1.17-8.33l6.07,1Zm37.27-40.06c1.15,1.47,2.43,2.93,3.83,4.4s2.88,2.87,4.43,4.2,3.14,2.54,4.77,3.63c1.62,1.09,3.26,2.01,4.9,2.77-.75,.89-1.5,1.92-2.23,3.1-.73,1.18-1.39,2.3-1.97,3.37h.6v17H62.17v-2.47l-5.33,2.33c-.09-.58-.2-1.18-.33-1.8-.13-.62-.31-1.29-.53-2l-3.4,.27v27.53h-6.67v-27l-8.8,.67-.8-6.87c.8-.04,1.63-.09,2.5-.13s1.79-.09,2.77-.13c.44-.62,.89-1.26,1.33-1.9,.44-.64,.89-1.3,1.33-1.97-.89-1.56-2.06-3.2-3.5-4.93-1.44-1.73-2.86-3.31-4.23-4.73l3.8-5.13c.27,.22,.53,.47,.8,.73,.27,.27,.53,.53,.8,.8,.93-1.87,1.83-3.84,2.7-5.93s1.57-3.98,2.1-5.67l6.73,2.33c-1.2,2.31-2.46,4.69-3.77,7.13s-2.54,4.6-3.7,6.47c.84,.98,1.56,1.89,2.13,2.73,1.11-1.87,2.15-3.73,3.13-5.6s1.84-3.62,2.6-5.27l6.27,2.87c-1.25,2.04-2.57,4.14-3.97,6.3s-2.83,4.3-4.3,6.43l5.2-2.13c.53,1.07,1.07,2.19,1.6,3.37,.53,1.18,1.02,2.36,1.47,3.53,.44,1.18,.84,2.34,1.2,3.47,.36,1.13,.64,2.19,.87,3.17v-11.8l-.53,.33c-.44-.98-1.04-2.09-1.8-3.33-.76-1.24-1.49-2.29-2.2-3.13,1.78-.98,3.53-2.15,5.27-3.53,1.73-1.38,3.38-2.83,4.93-4.37,1.56-1.53,2.97-3.09,4.23-4.67,1.27-1.58,2.32-3.06,3.17-4.43h7.2Zm-28.6,28.13c-.31-.8-.63-1.59-.97-2.37-.33-.78-.68-1.52-1.03-2.23-.62,.89-1.21,1.74-1.77,2.57-.56,.82-1.14,1.61-1.76,2.37l5.53-.33Zm4.27,10.67c.84,1.91,1.57,3.97,2.17,6.17,.6,2.2,1.01,4.14,1.23,5.83l-5.53,1.8c-.13-1.69-.49-3.65-1.07-5.9-.58-2.24-1.25-4.37-2-6.37l5.2-1.53Zm6.33,1.87h29.8v21.87h-7.27v-1.87h-15.67v2.07h-6.87v-22.07Zm6.07-23.93c-.89,.84-1.82,1.66-2.8,2.43-.98,.78-1.98,1.55-3,2.3h30.4c-1.11-.71-2.23-1.49-3.37-2.33-1.13-.84-2.28-1.73-3.43-2.67v2.2h-17.8v-1.93Zm-2.4,16.8h8.07v-7.2h-8.07v7.2Zm4.53-7c.49,.89,.94,1.87,1.37,2.93,.42,1.07,.74,1.98,.97,2.73l-3.87,1.27c-.13-.75-.39-1.68-.77-2.77-.38-1.09-.81-2.08-1.3-2.97l3.6-1.2Zm-1.33,19.13v2.67h15.67v-2.67h-15.67Zm15.67,10.07v-2.73h-15.67v2.73h15.67Zm-2.13-42.4c-1.11-1.07-2.17-2.14-3.17-3.23-1-1.09-1.88-2.14-2.63-3.17-.67,1.02-1.43,2.07-2.3,3.13s-1.81,2.16-2.83,3.27h10.93Zm5.67,13h-5.13l4.2,1.2c-.67,1.11-1.31,2.18-1.93,3.2-.62,1.02-1.18,1.91-1.67,2.67l-3.33-1.07c.44-.89,.91-1.9,1.4-3.03,.49-1.13,.87-2.12,1.13-2.97h-3.33v7.2h8.67v-7.2Z"/><text class="cls-5" transform="translate(55.52 113.32)"><tspan class="cls-6" x="0" y="0">繪圖/插</tspan><tspan class="cls-7" x="22.88" y="0">畫</tspan></text><text class="cls-4" transform="translate(84.74 34.45) rotate(51.44)"><tspan x="0" y="0">i</tspan></text><text class="cls-4" transform="translate(85.83 35.78) rotate(49.7)"><tspan x="0" y="0">l</tspan></text><text class="cls-4" transform="translate(86.98 37.11) rotate(48.05)"><tspan x="0" y="0">l</tspan></text><text class="cls-4" transform="translate(88.17 38.41) rotate(46.2)"><tspan x="0" y="0">u</tspan></text><text class="cls-4" transform="translate(89.88 40.16) rotate(44.08)"><tspan x="0" y="0">s</tspan></text><text class="cls-4" transform="translate(91.4 41.61) rotate(42.18)"><tspan x="0" y="0">t</tspan></text><text class="cls-4" transform="translate(92.84 42.89) rotate(40.28)"><tspan x="0" y="0">r</tspan></text><text class="cls-4" transform="translate(94.33 44.12) rotate(38.06)"><tspan x="0" y="0">a</tspan></text><text class="cls-4" transform="translate(96.17 45.53) rotate(35.65)"><tspan x="0" y="0">t</tspan></text><text class="cls-4" transform="translate(97.78 46.66) rotate(33.26)"><tspan x="0" y="0">i</tspan></text><text class="cls-4" transform="translate(99.27 47.61) rotate(30.1)"><tspan x="0" y="0">o</tspan></text><text class="cls-4" transform="translate(101.43 48.82) rotate(25.96)"><tspan x="0" y="0">n</tspan></text></g></svg>