<?xml version="1.0" encoding="UTF-8"?><svg id="_圖層_1" xmlns="http://www.w3.org/2000/svg" viewBox="0 0 1920 1080"><defs><style>.cls-1{fill:#f7b52c;}.cls-2{fill:#fff;}.cls-3{fill:#151231;}.cls-4{fill:#3f4d19;}.cls-5{fill:none;stroke:#231815;stroke-miterlimit:10;}.cls-6{fill:#231815;font-family:MSungHK-Bold-B5pc-H, MSungHK;font-size:26.5px;}</style></defs><rect class="cls-2" width="1920" height="1080"/><g><g><path class="cls-2" d="M407.42,483.42l-58.93-97.41v33.76l55.58,67.24c1.05-1.25,2.17-2.45,3.35-3.59Z"/><path class="cls-2" d="M396.96,498.2l-48.46-44.32v14.06l47.22,33.22c.39-1,.79-1.99,1.24-2.96Z"/><path class="cls-2" d="M401.32,490.61l-52.83-63.92v21.2l50.58,46.26c.7-1.21,1.45-2.39,2.25-3.54Z"/><path class="cls-2" d="M394.24,505.53l-45.75-32.19v9.6l45.22,24.66c.17-.7,.33-1.39,.53-2.08Z"/><path class="cls-2" d="M409.92,329.59c-11.06-9.42-17.55-23.28-17.55-37.88,0-13.35,5.3-25.49,13.89-34.43l-2.01-16.66c-11.67,5.18-22.09,12.68-30.67,21.91l22.36,86.5c2.99-7.44,7.76-14.14,13.98-19.43Z"/><path class="cls-2" d="M439.92,242v-9.37c-11.05,.26-21.64,2.43-31.43,6.22l1.77,14.68c8.11-6.78,18.41-11.03,29.67-11.53Z"/><path class="cls-2" d="M392.37,443.24c0-5.02,.78-9.95,2.24-14.64l-45.81-109.55c-.18,2.37-.3,4.75-.3,7.17v51.26l44.5,73.56c-.41-2.56-.63-5.17-.63-7.8Z"/><path class="cls-2" d="M491.89,519c0,27.44-22.32,49.76-49.76,49.76s-49.76-22.32-49.76-49.76c0-2.3,.18-4.58,.49-6.83l-44.37-24.19v26.35c0,51.63,42,93.63,93.63,93.63s93.63-42,93.63-93.63v-26.35l-44.37,24.19c.32,2.25,.49,4.53,.49,6.83Z"/><path class="cls-2" d="M406.72,408.36l-2.15-8.33c-7.77-8.96-12.2-20.5-12.2-32.56,0-3.51,.38-6.98,1.11-10.35l-23.42-90.61c-10.22,12.31-17.32,27.28-20.16,43.7l47,112.39c2.41-5.26,5.73-10.08,9.83-14.24Z"/><path class="cls-2" d="M474.33,329.59c6.22,5.29,10.99,11.99,13.98,19.43l22.36-86.5c-8.58-9.23-19-16.72-30.67-21.91l-2.01,16.66c8.59,8.95,13.89,21.08,13.89,34.43,0,14.6-6.49,28.47-17.55,37.88Z"/><path class="cls-2" d="M491.89,367.47c0,12.06-4.43,23.6-12.2,32.56l-2.15,8.33c4.1,4.16,7.42,8.99,9.83,14.24l47-112.39c-2.84-16.41-9.94-31.38-20.16-43.7l-23.42,90.61c.72,3.37,1.11,6.84,1.11,10.35Z"/><path class="cls-2" d="M442.13,214.25c-61.74,0-111.97,50.23-111.97,111.97v188.11c0,61.74,50.23,111.97,111.97,111.97s111.97-50.23,111.97-111.97v-188.11c0-61.74-50.23-111.97-111.97-111.97Zm100.26,300.08c0,55.28-44.98,100.26-100.26,100.26s-100.26-44.98-100.26-100.26v-188.11c0-55.28,44.98-100.26,100.26-100.26s100.26,44.98,100.26,100.26v188.11Z"/><path class="cls-2" d="M475.77,238.86c-9.8-3.79-20.38-5.96-31.43-6.22v9.37c11.26,.49,21.55,4.74,29.67,11.53l1.77-14.68Z"/><path class="cls-2" d="M398.99,291.71c0,13.93,6.82,27.08,18.24,35.18l3.81,2.7-3.81,2.7c-11.42,8.1-18.24,21.25-18.24,35.18s6.82,27.08,18.24,35.18l3.81,2.7-3.81,2.7c-11.42,8.1-18.24,21.25-18.24,35.18s6.82,27.08,18.24,35.18l3.81,2.7-3.81,2.7c-11.42,8.1-18.24,21.25-18.24,35.18,0,23.79,19.35,43.14,43.14,43.14s43.14-19.35,43.14-43.14c0-13.93-6.82-27.08-18.24-35.18l-3.81-2.7,3.81-2.7c11.42-8.1,18.24-21.25,18.24-35.18s-6.82-27.08-18.24-35.18l-3.81-2.7,3.81-2.7c11.42-8.1,18.24-21.25,18.24-35.18s-6.82-27.08-18.24-35.18l-3.81-2.7,3.81-2.7c11.42-8.1,18.24-21.25,18.24-35.18,0-23.79-19.35-43.14-43.14-43.14s-43.14,19.35-43.14,43.14Z"/><path class="cls-2" d="M480.18,487.01l55.58-67.24v-33.76l-58.93,97.41c1.18,1.15,2.3,2.34,3.35,3.59Z"/><path class="cls-2" d="M488.54,501.16l47.22-33.22v-14.06l-48.46,44.32c.45,.97,.86,1.96,1.24,2.96Z"/><path class="cls-2" d="M485.18,494.15l50.58-46.26v-21.2l-52.83,63.92c.8,1.15,1.55,2.33,2.25,3.54Z"/><path class="cls-2" d="M490.54,507.6l45.22-24.66v-9.6l-45.75,32.19c.19,.69,.36,1.38,.53,2.08Z"/><path class="cls-2" d="M491.89,443.24c0,2.63-.22,5.24-.63,7.8l44.5-73.56v-51.26c0-2.41-.12-4.8-.3-7.17l-45.81,109.55c1.46,4.69,2.24,9.62,2.24,14.64Z"/><g><path class="cls-3" d="M442.13,207.62c-65.39,0-118.59,53.2-118.59,118.59v188.11c0,65.39,53.2,118.59,118.59,118.59s118.59-53.2,118.59-118.59v-188.11c0-65.39-53.2-118.59-118.59-118.59Zm111.97,306.7c0,61.74-50.23,111.97-111.97,111.97s-111.97-50.23-111.97-111.97v-188.11c0-61.74,50.23-111.97,111.97-111.97s111.97,50.23,111.97,111.97v188.11Z"/><path class="cls-3" d="M442.13,225.96c-55.28,0-100.26,44.98-100.26,100.26v188.11c0,55.28,44.98,100.26,100.26,100.26s100.26-44.98,100.26-100.26v-188.11c0-55.28-44.98-100.26-100.26-100.26Zm37.88,14.66c11.67,5.18,22.09,12.68,30.67,21.91l-22.36,86.5c-2.99-7.44-7.76-14.14-13.98-19.43,11.06-9.42,17.55-23.28,17.55-37.88,0-13.35-5.3-25.49-13.89-34.43l2.01-16.66Zm-35.67-7.98c11.05,.26,21.64,2.43,31.43,6.22l-1.77,14.68c-8.11-6.78-18.41-11.03-29.67-11.53v-9.37Zm40.93,59.07c0,13.93-6.82,27.08-18.24,35.18l-3.81,2.7,3.81,2.7c11.42,8.1,18.24,21.25,18.24,35.18s-6.82,27.08-18.24,35.18l-3.81,2.7,3.81,2.7c11.42,8.1,18.24,21.25,18.24,35.18s-6.82,27.08-18.24,35.18l-3.81,2.7,3.81,2.7c11.42,8.1,18.24,21.25,18.24,35.18,0,23.79-19.35,43.14-43.14,43.14s-43.14-19.35-43.14-43.14c0-13.93,6.82-27.08,18.24-35.18l3.81-2.7-3.81-2.7c-11.42-8.1-18.24-21.25-18.24-35.18s6.82-27.08,18.24-35.18l3.81-2.7-3.81-2.7c-11.42-8.1-18.24-21.25-18.24-35.18s6.82-27.08,18.24-35.18l3.81-2.7-3.81-2.7c-11.42-8.1-18.24-21.25-18.24-35.18,0-23.79,19.35-43.14,43.14-43.14s43.14,19.35,43.14,43.14Zm-45.34-59.07v9.37c-11.26,.49-21.55,4.74-29.67,11.53l-1.77-14.68c9.8-3.79,20.38-5.96,31.43-6.22Zm-35.67,7.98l2.01,16.66c-8.59,8.95-13.89,21.08-13.89,34.43,0,14.6,6.49,28.47,17.55,37.88-6.22,5.29-10.99,11.99-13.98,19.43l-22.36-86.5c8.58-9.23,19-16.73,30.67-21.91Zm-34.2,25.9l23.42,90.61c-.72,3.37-1.11,6.84-1.11,10.35,0,12.06,4.43,23.6,12.2,32.56l2.15,8.33c-4.1,4.16-7.43,8.99-9.83,14.24l-47-112.39c2.84-16.41,9.94-31.38,20.16-43.7Zm-21.56,59.7c0-2.41,.12-4.8,.3-7.17l45.81,109.55c-1.46,4.69-2.24,9.62-2.24,14.64,0,2.63,.22,5.24,.63,7.8l-44.5-73.56v-51.26Zm0,59.79l58.93,97.41c-1.18,1.15-2.3,2.34-3.35,3.59l-55.58-67.24v-33.76Zm0,40.69l52.83,63.92c-.8,1.15-1.55,2.33-2.25,3.54l-50.58-46.26v-21.2Zm0,27.18l48.46,44.32c-.45,.97-.86,1.96-1.24,2.96l-47.22-33.22v-14.06Zm0,19.46l45.75,32.19c-.19,.69-.36,1.38-.53,2.08l-45.22-24.66v-9.6Zm187.27,40.98c0,51.63-42,93.63-93.63,93.63s-93.63-42-93.63-93.63v-26.35l44.37,24.19c-.32,2.25-.49,4.53-.49,6.83,0,27.44,22.32,49.76,49.76,49.76s49.76-22.32,49.76-49.76c0-2.3-.18-4.58-.49-6.83l44.37-24.19v26.35Zm0-31.38l-45.22,24.66c-.16-.7-.33-1.39-.53-2.08l45.75-32.19v9.6Zm0-15l-47.22,33.22c-.39-1-.79-1.99-1.24-2.96l48.46-44.32v14.06Zm0-20.05l-50.58,46.26c-.7-1.21-1.45-2.39-2.25-3.54l52.83-63.92v21.2Zm0-28.13l-55.58,67.24c-1.05-1.25-2.17-2.45-3.35-3.59l58.93-97.41v33.76Zm0-93.55v51.26l-44.5,73.56c.41-2.56,.63-5.17,.63-7.8,0-5.02-.78-9.95-2.24-14.64l45.81-109.55c.18,2.37,.3,4.75,.3,7.17Zm-1.4-16l-47,112.39c-2.41-5.25-5.73-10.08-9.83-14.24l2.15-8.33c7.77-8.96,12.2-20.5,12.2-32.56,0-3.51-.38-6.98-1.11-10.35l23.42-90.61c10.22,12.31,17.32,27.28,20.16,43.7Z"/><path class="cls-3" d="M364.6,531.94l-.22-.02c-3.26-.2-6.33-2.53-6.71-5.08-.25-1.74,.24-3.28,1.43-4.46,1.21-1.2,3.13-2.02,5.55-2.38,1.44-.21,2.77-.27,3.94-.17,2.75,.25,4.75,1.88,5.08,4.14,.44,3.04-1.51,5.83-4.98,7.11l-.21,.08,.27,1.86,7.55-1.36-.26-1.75-.22-.02c-.61-.06-1.04-.11-1.43-.22,1.22-1.81,1.65-3.78,1.33-6-.42-2.86-1.84-5.33-4-6.93-2.16-1.61-4.92-2.26-7.79-1.85-2.75,.4-5.15,1.79-6.75,3.91-1.6,2.12-2.27,4.78-1.88,7.5,.37,2.5,1.4,4.22,3.44,5.71-.47,.42-.96,.7-1.69,.98l-.2,.08,.27,1.82,7.75-1.13-.26-1.82Z"/><path class="cls-3" d="M371.97,559.41l10.76-5.59c1.38-.72,2.01-.46,2.84,1.13l.18,.35,1.66-.86-4.64-8.92-1.41,.73-.22,.18,.13,.25c.87,1.68,.73,2.3-.68,3.03l-3.97,2.06-3.87-7.45,3.97-2.06c1.41-.74,2-.48,2.88,1.21l.16,.33,1.66-.86-4.66-8.98-1.41,.73-.22,.18,.13,.25c.87,1.68,.73,2.3-.68,3.03l-10.76,5.59c-.71,.38-1.21,.47-1.61,.31-.42-.17-.8-.63-1.29-1.56l-.13-.24-1.65,.86,4.66,8.98,1.65-.86-.16-.32c-.46-.88-.61-1.46-.51-1.91,.1-.42,.46-.78,1.18-1.15l4.9-2.55,3.87,7.45-4.9,2.55c-.72,.38-1.21,.47-1.61,.31-.42-.17-.8-.63-1.29-1.56l-.13-.24-1.65,.86,4.64,8.92,1.66-.86-.18-.35c-.83-1.6-.67-2.26,.7-2.98Z"/><path class="cls-3" d="M390.26,575.4c-.73,.58-1.05,.73-1.69,1.03-.63,.28-1.32,.42-2.04,.42-.97-.03-1.66-.39-2.67-1.39l-1.12-1.11c-.77-.76-1.12-1.27-1.17-1.69-.04-.41,.19-.83,.8-1.44l3.68-3.73,1.19,1.18c1.34,1.32,1.35,1.7,.07,3.1l-.18,.2,1.32,1.3,4.89-4.96-1.33-1.32-.19,.17c-1.43,1.29-1.78,1.28-3.11-.03l-1.17-1.16,4.41-4.47,2.36,2.33c1.45,1.43,1.7,1.95,1.67,2.71-.03,.72-.32,1.51-.94,2.56l-.11,.19,1.27,1.26,3.7-4.17-11.75-11.6-1.31,1.33,.3,.3c1.33,1.31,1.39,1.98,.29,3.09l-8.52,8.63c-1.11,1.13-1.75,1.08-3.09-.25l-.3-.3-1.31,1.33,12.63,12.47,4.97-4.81-1.35-1.33-.19,.15Z"/><path class="cls-3" d="M412.97,576.23l.35,.18c1.73,.89,1.86,1.4,.89,3.37l-3.5,7.11-3.66-15.73-.03-.12-5.35-2.78-.84,1.63,.2,.14c1.68,1.13,1.87,1.56,.48,4.38l-4.4,8.81-.12,.23c-.91,1.76-1.4,1.92-3.06,1.06l-.42-.22-.86,1.65,6.86,3.55,.86-1.66-.5-.26c-1.73-.89-1.85-1.4-.86-3.39l4.4-8.85,4.25,18.46,.03,.12,1.53,.79,6.93-13.95,.13-.26c.89-1.71,1.38-1.87,3.03-1l.53,.27,.86-1.65-6.86-3.55-.86,1.66Z"/><path class="cls-3" d="M456.61,580.06c-1.76-.5-3.18-.53-6.35-.12-.64,.08-1.36,.2-2.18,.33l-6.08,.91,.24,1.87,.42-.05c.96-.12,1.56-.07,1.92,.17,.35,.23,.56,.7,.66,1.51l1.55,12.08c.2,1.56-.25,2.05-2.07,2.28l-.42,.05,.24,1.85,10.17-1.3-.24-1.85-.48,.06c-1.83,.24-2.38-.13-2.58-1.68l-.61-4.73,.97-.13c2.61-.33,4.29-.79,5.8-1.58,2.05-1.09,3.04-3.11,2.73-5.52-.25-1.96-1.67-3.55-3.7-4.16Zm-2.22,8.31c-.63,.42-1.4,.65-2.82,.83l-1.03,.13-.92-7.18c.15-.02,.26-.04,.36-.06,.1-.02,.19-.03,.28-.05,3.35-.43,4.87,.47,5.21,3.11,.18,1.43-.21,2.6-1.08,3.21Z"/><path class="cls-3" d="M476.24,591.75c-.92,.34-1.52,.42-1.94,.26-.4-.15-.7-.56-.98-1.32l-4.19-11.38c-.55-1.49-.23-2.04,1.54-2.7l.45-.16-.64-1.75-9.71,3.57,.64,1.75,.45-.16c.92-.34,1.51-.42,1.93-.27,.4,.15,.71,.55,.99,1.32l4.19,11.38c.54,1.47,.21,2.05-1.54,2.7l-.45,.17,.64,1.75,9.71-3.58-.64-1.75-.45,.17Z"/><path class="cls-3" d="M493.59,566.65l1.19-1.49-.2-.17c-.94-.83-1.34-1.35-1.57-2.09-.3-.99-.04-1.73,1.12-3.18l1.12-1.4,10.83,8.65c.6,.48,.88,.87,.93,1.27,.05,.47-.21,1.03-.85,1.83l-.28,.35,1.46,1.16,6.4-8.01-1.45-1.16-.27,.33c-.61,.77-1.08,1.15-1.52,1.23-.43,.08-.89-.11-1.52-.62l-10.83-8.65,1.36-1.7c.97-1.21,1.65-1.54,2.79-1.34,.75,.14,1.41,.42,2.2,.95l.21,.14,1.17-1.46-4.71-3.76-12.28,15.37,4.71,3.76Z"/><path class="cls-3" d="M503.43,546.94c.7-1.73,1.29-2.04,2.74-1.46l11.25,4.51c1.47,.59,1.67,1.2,.97,2.95l-.16,.39,1.73,.69,6.5-16.22,.1-.25-6.35-2.72-.71,1.76,.21,.12c.8,.44,1.07,.68,1.6,1.16,.5,.48,.9,1.06,1.18,1.72,.35,.9,.28,1.69-.24,3l-.58,1.46c-.8,2-1.3,2.13-2.74,1.55l-4.86-1.95,.63-1.55c.7-1.74,1.04-1.9,2.83-1.27l.25,.09,.69-1.72-6.47-2.59-.7,1.74,.24,.11c1.74,.81,1.87,1.13,1.17,2.87l-.61,1.53-5.82-2.34,1.23-3.07c.77-1.91,1.13-2.32,1.85-2.59,.68-.25,1.52-.29,2.72-.13l.21,.03,.66-1.66-5.27-1.8-6.04,15.07-.1,.26,1.73,.69,.16-.39Z"/><path class="cls-3" d="M525.43,528.26c.81,.62,1.16,1.27,1.08,2.06l-.05,.48,1.86,.17,.66-7.17-1.85-.17-.05,.51c-.16,1.71-.97,1.62-1.22,1.6-.08,0-.31-.06-.94-.34l-1.44-.7,.54-5.83,2.17-.64c.24-.08,.54-.1,.75-.09,.24,.02,.33,.1,.38,.17,.18,.21,.23,.7,.15,1.51l-.06,.6,1.86,.17,.88-9.6-1.86-.17-.04,.45c-.12,1.29-.42,1.65-3.39,2.5l-15.68,4.54-.16,1.68,14.17,6.96c1.09,.54,1.59,.83,2.23,1.32Zm-3.82-4.47l-5.46-2.68,5.86-1.69-.4,4.36Z"/><path class="cls-3" d="M380.73,732.58c-1.56,0-2.5-1.27-2.5-3.39,0-.63,.06-1.19,.17-1.66,.28-1.16,1.11-1.92,2.12-1.92,1.33,0,2.41,1.02,2.73,2.57h.57l-.1-2.95h-.53c-.08,.35-.14,.54-.25,.74-.66-.65-1.46-.98-2.42-.98-2.42,0-4.2,1.78-4.2,4.2s1.77,4.11,4.05,4.11c1.05,0,1.83-.34,2.56-1.14,.21,.28,.31,.53,.4,.91h.56v-3.03h-.56c-.29,1.38-1.49,2.54-2.6,2.54Z"/><path class="cls-3" d="M394,725.68h.02c.85,0,1.1,.22,1.1,.94v1.97h-3.71v-1.97c0-.73,.27-.94,1.11-.94h.04v-.54h-3.97v.54h.03c.85,0,1.1,.22,1.1,.94v5.03c0,.71-.25,.94-1.1,.94h-.03v.54h3.97v-.54h-.04c-.85,0-1.11-.23-1.11-.94v-2.41h3.71v2.41c0,.71-.25,.94-1.1,.94h-.02v.54h3.94v-.54h-.05c-.81,0-1.08-.24-1.08-.94v-5.03c0-.71,.27-.94,1.08-.94h.05v-.54h-3.94v.54Z"/><path class="cls-3" d="M408.56,731.33c-.12,.3-.3,.56-.51,.76-.31,.29-.65,.4-1.27,.4h-.65c-.91,0-1.14-.18-1.14-.93v-2.29h.81c.83,0,1,.16,1.04,1h.55v-2.66h-.56c-.05,.86-.21,1-1.04,1h-.8v-2.83h1.49c.83,0,1.11,.07,1.37,.35,.2,.23,.36,.56,.5,1.08h.53l-.11-2.08h-6.63v.54h.06c.83,0,1.1,.23,1.1,.94v5.03c0,.73-.25,.94-1.1,.94h-.06v.54h7.14l.06-2.64h-.57c-.05,.39-.1,.53-.2,.82Z"/><path class="cls-3" d="M419.38,725.68h.05c.87,0,1.07,.2,1.09,1.19l.07,3.56-.02,.02-4.53-5.31h-2.34v.54c.94,.11,1.09,.33,1.11,1.63l.06,4.09v.11c0,.88-.19,1.09-1.04,1.09h-.08v.54h2.97v-.54h-.12c-.87,0-1.06-.22-1.08-1.2l-.07-4.37,.03-.02,5.27,6.21h.55l-.11-6.35v-.12c0-.86,.19-1.07,1.04-1.07h.13v-.54h-2.97v.54Z"/><path class="cls-3" d="M447.72,725.4c-.68-.29-1.25-.38-2.56-.38-.3,0-.65,.01-1.05,.02l-2.3,.05v.56h.06c.83,0,1.09,.22,1.09,.94v5.06c0,.71-.25,.94-1.09,.94h-.06v.54h4.03v-.54h-.08c-.84,0-1.09-.23-1.09-.94v-2.09h.52c1.07,0,1.78-.1,2.43-.34,.86-.33,1.34-1.05,1.34-2.02,0-.77-.47-1.46-1.23-1.8Zm-1.26,3.3c-.29,.15-.62,.21-1.26,.21h-.54v-3.23c.2,0,.28-.01,.39-.01,1.46,0,2.09,.5,2.09,1.67,0,.64-.24,1.14-.68,1.37Z"/><path class="cls-3" d="M453.2,725.68h.09c.83,0,1.1,.22,1.1,.94v5.03c0,.71-.27,.94-1.1,.94h-.09v.54h4.06v-.54h-.08c-.85,0-1.1-.23-1.1-.94v-5.03c0-.73,.25-.94,1.1-.94h.08v-.54h-4.06v.54Z"/><path class="cls-3" d="M476.74,727.41h.57c.02-.53,.1-.82,.29-1.11,.27-.39,.6-.51,1.41-.51h.86v5.87c0,.71-.27,.94-1.1,.94h-.07v.54h4.03v-.54h-.06c-.85,0-1.1-.23-1.1-.94v-5.87h1.02c.69,0,1,.16,1.26,.62,.16,.29,.24,.59,.28,1h.56v-2.27h-7.94v2.27Z"/><path class="cls-3" d="M495.35,731.33c-.12,.3-.3,.56-.51,.76-.31,.29-.65,.4-1.27,.4h-.65c-.91,0-1.14-.18-1.14-.93v-2.29h.81c.83,0,1,.16,1.04,1h.55v-2.66h-.56c-.05,.86-.21,1-1.04,1h-.8v-2.83h1.49c.83,0,1.11,.07,1.37,.35,.2,.23,.36,.56,.5,1.08h.53l-.11-2.08h-6.63v.54h.06c.83,0,1.1,.23,1.1,.94v5.03c0,.73-.25,.94-1.1,.94h-.06v.54h7.14l.06-2.64h-.57c-.05,.39-.1,.53-.2,.82Z"/><path class="cls-3" d="M507.13,731.22l-2.44-6.24h-.55l-2.31,6.05c-.18,.47-.29,.7-.47,.99-.24,.39-.53,.58-.91,.58h-.08v.54h2.76v-.54h-.1c-.54,0-.82-.19-.82-.56,0-.1,.06-.29,.11-.44l.06-.18,.21-.52h2.59l.38,.94c.05,.12,.07,.25,.07,.35,0,.29-.2,.4-.78,.4h-.13v.54h3.77v-.54h-.07c-.63,0-.81-.21-1.27-1.38Zm-4.33-.89l1.07-2.79,1.09,2.79h-2.15Z"/><path class="cls-3" d="M444.23,512.14s6.88,9.09,17.27,14.45c0,0,.25,1.77,1.44,1.38,1.2-.39,1.17-1.33,3.49-2.4,2.32-1.07,2.8-3.45,2-3.48-.8-.03-9.84-.14-24.19-9.95Z"/><path class="cls-3" d="M466.38,541.18c-.73-.08-9.03-.79-21.42-10.78,0,0,5.57,8.82,14.68,14.45,0,0,.08,1.64,1.21,1.37,1.13-.28,1.19-1.15,3.4-1.97,2.22-.82,2.86-2.98,2.13-3.07Z"/><path class="cls-3" d="M444.27,528.47c7,.07,10,1.61,12.42,1.48,4.29-.22-.41-4-1.9-5.38-2.32-2.14-3.12-1.07-4.01-.05-.34,.39-3.07,.9-6.48,1.36,.01-.89,.03-1.55,.04-1.8,0,0,0-1.68,0-1.68,.14-2.72,3.21-1.58-.12-3.78-3.95-2.6-5.07-1.76-5.48-.9-.41,.86,1.01,5.73,1.01,6.89v1.79c-4.45,.45-8.82,.69-10,.39-2.57-.66-3.8-1.71-3.87-.23,0,0,2.39,3.36,3.82,3.65,1.28,.26,1.53-.88,8.55-1.49-1.28,1.98-6,8.11-20.18,17.52,0,0,14.28-4.22,21.68-11.64v8.72c0,.73-.35,3.38-.57,4.74-.22,1.35,.77,2.8,1.38,3.05,.61,.25,3.96-4.15,4.22-5.1,.25-.95-.68-1.6-.69-3.53,.04-1.48,.1-9.02,.16-14Z"/><path class="cls-3" d="M460.98,497.8c-.27,.3-3.53,.71-8.07,1.12,.73-1.69,1.04-2.72,1.04-2.72,0,0,3.04,.38,1.36-2.05-.71-1.03-5.43-4.91-7.55-3.64-1.62,.97,.15,2.37,.59,5.99,.1,.86,.15,1.82,.17,2.8-4.25,.33-9.02,.65-13.4,.88,.41-2.27,.48-3.6,.48-3.6,0,0,1.44-.85,.7-1.86-.74-1.01-6.68-3.42-8.35-1.69-1.27,1.32,.84,2.25,2.33,5.63,.24,.55,.47,1.13,.68,1.73-5.13,.24-9.11,.32-9.96,.13-2.79-.62-4.13-1.64-4.18-.16,0,0,2.65,3.32,4.2,3.58,1.11,.19,4.79-.74,10.59-1.53,.9,3.05,1.38,5.88,1.38,5.88,.81-2.39,1.37-4.5,1.76-6.26,1.42-.15,2.93-.29,4.55-.4,2.96-.2,6.11-.22,9.2-.13-.09,3.13-.41,5.94-.41,5.94,1.5-2.13,2.66-4.12,3.54-5.82,6.43,.32,12.21,1.03,14.97,1.5,4.55,.78,.34-3.98-1.3-5.33-2.55-2.1-3.39-1.02-4.32,.02Z"/><path class="cls-3" d="M446.63,509.69c.71-.47-4.06-4.83-6.48-5.4-2.42-.57-1.66,2.38-2.09,3.13,0,0-5.66,11.25-25.34,21.37,0,0,17.37-4.32,31.98-18.9,0,0,1.23,.27,1.94-.2Z"/><path class="cls-3" d="M421.08,428.53c1.3,.23,1.4-.98,10.02-1.52v4.33c-2.53,.23-4.82,.36-5.92,.28-.17-.24-.46-.54-.92-.95-2.36-2.08-3.25-2.08-3.52-1.5-.28,.58,.68,4.38,.68,5.17v3.74c0,.49-.24,2.28-.39,3.19-.15,.91,.52,1.89,.93,2.06,.41,.17,2.67-2.8,2.85-3.44,.17-.64-.46-1.08-.46-2.38,.04-1.45,.1-2.55,.16-3.53h0s0,0,0-.01c.08,.03,.16,.07,.23,.08,.99,.17,1.18-.62,6.37-1.13v3.39c0,2.09-.34,5.12-.4,6.26-.07,1.13,1.58,3.46,2.24,3.28,.66-.18,3.29-5.36,3.03-6.85-.23-1.31-1.57-2.71-1.9-6.28,3.25-.16,5.58,.05,7.36,.31v5.42c0,.3-2.53-.3-3.21,0-.67,.3,1.45,1.32,2.76,2.8,1.3,1.48,3.17,1.45,3.54-.67,.27-1.56,.9-5.13,1.22-6.94,.08,0,.16,0,.23,0,3.38-.2-.37-2.91-1.56-3.9-1.85-1.54-2.47-.75-3.16,0-.33,.36-3.66,.9-7.26,1.32v-4.13c6.67-.06,9.5,1.26,11.76,1.13,3.92-.23-.43-3.39-1.81-4.54-2.15-1.79-2.87-.88-3.67,0-.32,.35-3,.83-6.28,1.26v-2.47c0-.65,0-1.17,.01-1.64,5.76-.2,8.1,.93,9.92,.82,2.98-.17-.33-2.57-1.38-3.45-1.63-1.36-2.18-.67-2.79,0-.27,.3-2.81,.73-5.71,1.08,.04-.83,.09-1.36,.14-2.08,0,0,0,0,0,0,.1-1.83,2.11-1.23-.25-3.31s-3.25-2.08-3.52-1.5c-.28,.58,.68,4.38,.68,5.17v2.05c-2.06,.2-3.97,.32-5.09,.29,.71-1.17,.9-1.98,.9-1.98,.97-.07,1.83-1.18,1.27-1.82-.56-.64-5.83-2.61-5.78-1.52,.3,5.77-2.35,10.66-2.35,10.66,2.07-1.1,3.52-2.33,4.55-3.47,.21,.13,.41,.24,.59,.27,.89,.16,1.05-.58,5.91-1.02v4.29c-4.35,.48-8.85,.79-10.02,.52-2.36-.53-3.5-1.41-3.54-.15,0,0,2.23,2.82,3.54,3.05Z"/><path class="cls-3" d="M458.39,446.16c-.36,.52-6.38,1.3-13.48,1.97,.91-.8,1.46-1.57,.85-1.84-5.02-2.28-8.57-1.48-8.57-1.48,1.78,1.73,2.46,2.98,2.74,3.77-8.62,.72-17.27,1.18-18.53,.81-2.58-.75-3.83-1.99-3.86-.2,0,0,2.46,4.02,3.89,4.34,1.24,.28,5.94-1.42,13.41-2.4-4.6,9.07-17.3,14.92-17.3,14.92,5-1.36,9.12-3.28,12.44-5.25v5.61c0,.49-.32,2.28-.52,3.19-.2,.91,1.51,2.14,2.06,2.31,.07,.02,.19-.02,.34-.11,1.17-.51,3.18-3.35,7.1-5.5,4.32-2.36,8.38-3.98,8.38-3.98-6.39,.21-10.35,1.45-12.57,2.45,.04-1.88,.09-5.45,.14-7.37,3.57-2.83,5.39-5.21,5.6-5.54,.38-.61,1.39-.83,1.46-1.29,.17,0,.34,0,.51,0,.44,1.63,3.88,13.18,14.95,19.87,0,0,.3,1.9,1.36,1.52,1.06-.37,2.36-1.32,4.41-2.38,2.04-1.05,2.66-2.49,1.94-2.55-.5-.04-6.88-1.75-13.74-7.13,2.49-.8,5.46-3.19,5.46-3.19,.98,0,3.76-.42,.44-2.6-3.15-2.08-3.17,.27-3.36,.94-.53,1.81-2.26,3.22-3.53,4.04-2.69-2.23-5.4-5.03-7.83-8.53,8.47-.12,17.46,1.24,21.01,2.04,4.21,.95,.31-4.82-1.21-6.45-2.36-2.55-3.13-1.24-4,.02Z"/><path class="cls-3" d="M452.65,419.62c-2.36-2.08-3.25-2.08-3.52-1.5-.28,.58,.68,4.38,.68,5.17v8.09c0,.49-.24,2.28-.39,3.19-.15,.91,.52,1.89,.93,2.06,.41,.17,2.67-2.8,2.85-3.44,.17-.64-.46-1.08-.46-2.38,.04-1.45,.1-6.9,.16-7.88h0c.1-1.84,2.11-1.23-.25-3.31Z"/><path class="cls-3" d="M456.12,437.32c0,.19-.03,.51-.06,.9-.66-.07-1.48-.12-2.48-.11-2.91,.03-2.39,.34,0,1.82,2.39,1.48,1.71,4.74,3.31,4.74,.57,.24,3.75-3.92,3.99-4.82,.24-.9-.64-1.51-.65-3.34,.06-2.03,.14-15.47,.22-16.84h0c.14-2.57,2.96-1.73-.35-4.64-3.31-2.92-4.55-2.92-4.94-2.1-.39,.82,.96,6.14,.96,7.24v17.14Z"/><path class="cls-3" d="M457.87,364.5s.06,0,.09,0c3.89-.21-.43-3.12-1.8-4.18-2.14-1.65-2.85-.81-3.64,0-.36,.37-3.63,.91-7.3,1.35v-9.02c0-1.27,.02-2.36,.04-3.32,4.39-.16,7.54,.12,9.95,.46,.02,0,.04,0,.06,0-.43,2.59-1.21,4.53-1.95,5.92-.06,.11-.12,.23-.18,.34-.12,.21-.23,.4-.34,.58-.06,.1-.12,.2-.19,.29-.18,.27-.33,.49-.48,.68,0,0,0,0,0,0-.37,.49-.64,.76-.64,.76,0,0,6.62-2.75,8.94-5.02,1.17-1.15,1.99-2.19,2.32-3.11,.32-.89,.18-1.66-.56-2.3l-.02-.02c-.96-.94-2.32-1.9-3.03-2.45-2.59-2-3.45-.98-4.41,0-.44,.44-4.65,1.1-9.38,1.63,.04-.84,.08-1.53,.11-2.11,0,0,0,0,0,0,.11-2.11,2.45-2.24-.29-4.63-2.73-2.39-3.76-2.39-4.08-1.72-.32,.67,.79,5.86,.79,6.77v2.05c-4.62,.43-8.99,.66-10.23,.4-.06-.01-.1-.03-.16-.04,.03-.33,.07-.57,.1-.65,.26-.56,.52-2.04-1.04-2.48-1.56-.43-5.4-2.34-6.03-1.04-.56,1.14,.52,2.35,.52,3.98v20.34c0,14.51-7.17,22.79-7.17,22.79,12.81-9.07,13.33-21.06,13.34-28.46,.49,.55,2.27,2.48,3.38,2.66,1.3,.21,1.38-.91,10.05-1.41,2.75-.16,4.84-.1,6.5,.04-1.82,4.08-4.29,9.2-7,12.33-3.71-2.56-7.14-7.21-9.56-10.96,0,0,1.24,7.24,6.98,13.74-7.9,7.95-16.59,12.06-16.59,12.06,8.6-2.26,15.01-5.46,19.79-8.83,3.06,2.78,6.98,5.55,12.05,7.96,0,0,.32,2.26,1.86,1.77,1.54-.5,1.51-1.7,4.49-3.07,2.98-1.36,3.94-3.11,2.91-3.15-.63-.02-8.95-2.05-17.32-6.67,6.12-5.47,8.44-12.29,9.13-14.26Zm-16.01-2.48c-3.3,.31-6.34,.47-7.29,.27-1.94-.41-3.03-1.01-3.38-.56,0-.37,0-.74,0-1.1,0-4.24,.04-6.81,.13-9.65,.11,.04,.22,.09,.32,.11,1.47,.24,1.66-.93,10.23-1.58v12.51Z"/><path class="cls-3" d="M549.23,684.97c-.58-.02-7.08-.1-17.41-7.16,0,0,4.95,6.54,12.42,10.39,0,0,.18,1.27,1.04,.99,.86-.28,.84-.96,2.51-1.73,1.67-.77,2.01-2.48,1.44-2.51Z"/><path class="cls-3" d="M547.77,698.71c-.53-.06-6.5-.57-15.41-7.76,0,0,4.01,6.35,10.56,10.4,0,0,.06,1.18,.87,.98,.82-.2,.85-.82,2.45-1.42,1.6-.59,2.06-2.15,1.53-2.21Z"/><path class="cls-3" d="M531.85,689.56c5.04,.05,7.2,1.16,8.94,1.07,3.09-.16-.3-2.88-1.37-3.87-1.67-1.54-2.24-.77-2.89-.03-.24,.28-2.21,.65-4.66,.98,.01-.64,.02-1.12,.03-1.29v-1.21c.1-1.96,2.31-1.14-.08-2.72-2.84-1.87-3.65-1.27-3.94-.65-.29,.62,.73,4.12,.73,4.96v1.29c-3.2,.32-6.34,.5-7.2,.28-1.85-.48-2.74-1.23-2.78-.16,0,0,1.72,2.42,2.75,2.62,.92,.19,1.1-.64,6.16-1.07-.92,1.42-4.31,5.83-14.52,12.61,0,0,10.28-3.04,15.6-8.38v6.27c0,.53-.25,2.44-.41,3.41-.16,.97,.56,2.02,.99,2.2,.44,.18,2.85-2.99,3.04-3.67,.18-.68-.49-1.15-.49-2.54,.03-1.07,.07-6.49,.11-10.08Z"/><path class="cls-3" d="M515.11,669.44c-2.01-.44-2.98-1.18-3-.11,0,0,1.91,2.39,3.02,2.58,.8,.14,3.44-.53,7.62-1.1,.65,2.2,.99,4.23,.99,4.23,.58-1.72,.99-3.24,1.26-4.5,1.02-.11,2.11-.21,3.28-.29,2.13-.14,4.4-.16,6.62-.09-.06,2.25-.29,4.27-.29,4.27,1.08-1.53,1.91-2.96,2.55-4.18,4.63,.23,8.79,.74,10.77,1.08,3.27,.56,.24-2.86-.93-3.84-1.83-1.51-2.44-.73-3.11,.02-.2,.22-2.54,.51-5.8,.81,.53-1.22,.75-1.96,.75-1.96,0,0,2.19,.27,.98-1.47-.51-.74-3.91-3.53-5.43-2.62-1.16,.7,.11,1.71,.42,4.31,.08,.62,.11,1.31,.12,2.01-3.06,.24-6.49,.46-9.64,.64,.3-1.64,.34-2.59,.34-2.59,0,0,1.04-.61,.5-1.34-.54-.73-4.81-2.46-6.01-1.21-.92,.95,.6,1.62,1.68,4.05,.17,.4,.34,.82,.49,1.25-3.69,.17-6.56,.23-7.17,.09Z"/><path class="cls-3" d="M532.16,676.2s.88,.19,1.39-.15c.51-.34-2.92-3.47-4.67-3.88-1.74-.41-1.19,1.71-1.5,2.25,0,0-4.08,8.09-18.24,15.38,0,0,12.5-3.11,23.01-13.6Z"/><path class="cls-3" d="M455.81,672.23c-1.7-.38-2.52-1.02-2.55-.11,0,0,1.61,2.03,2.55,2.2,.94,.16,1.01-.71,7.21-1.09v3.11c-1.82,.17-3.47,.26-4.26,.2-.13-.17-.33-.39-.66-.68-1.7-1.5-2.34-1.5-2.54-1.08-.2,.42,.49,3.15,.49,3.72v2.69c0,.36-.17,1.64-.28,2.3-.11,.66,.38,1.36,.67,1.48,.29,.12,1.92-2.02,2.05-2.48,.12-.46-.33-.78-.33-1.71,.03-1.04,.07-1.83,.11-2.54h0s0,0,0,0c.05,.02,.11,.05,.16,.06,.72,.13,.85-.45,4.59-.81v2.44c0,1.5-.24,3.69-.29,4.5-.05,.81,1.14,2.49,1.61,2.36,.47-.13,2.37-3.86,2.18-4.93-.17-.94-1.13-1.95-1.37-4.52,2.34-.11,4.02,.03,5.3,.22v3.9c0,.22-1.82-.22-2.31,0-.48,.22,1.05,.95,1.98,2.02,.94,1.07,2.28,1.04,2.55-.49,.2-1.12,.65-3.69,.88-4.99,.06,0,.11,0,.17,0,2.43-.14-.27-2.1-1.12-2.81-1.33-1.11-1.78-.54-2.27,0-.24,.26-2.63,.65-5.22,.95v-2.97c4.8-.05,6.84,.91,8.46,.81,2.82-.16-.31-2.44-1.3-3.27-1.55-1.29-2.06-.63-2.64,0-.23,.25-2.16,.6-4.52,.91v-1.78c0-.47,0-.84,.01-1.18,4.14-.14,5.83,.67,7.14,.59,2.14-.13-.24-1.85-.99-2.48-1.17-.98-1.57-.48-2,0-.19,.21-2.02,.52-4.11,.78,.03-.6,.07-.98,.1-1.5,0,0,0,0,0,0,.07-1.32,1.52-.89-.18-2.38s-2.34-1.5-2.54-1.08c-.2,.42,.49,3.15,.49,3.72v1.47c-1.49,.14-2.86,.23-3.67,.21,.51-.84,.65-1.43,.65-1.43,.7-.05,1.31-.85,.91-1.31-.4-.46-4.2-1.88-4.16-1.09,.21,4.15-1.69,7.67-1.69,7.67,1.49-.79,2.53-1.68,3.27-2.5,.15,.1,.3,.17,.42,.2,.64,.11,.76-.42,4.25-.74v3.09c-3.13,.35-6.37,.57-7.21,.38Z"/><path class="cls-3" d="M485.53,686.99c-1.7-1.83-2.25-.89-2.88,.01-.26,.38-4.59,.93-9.7,1.42,.66-.58,1.05-1.13,.61-1.33-3.61-1.64-6.17-1.07-6.17-1.07,1.28,1.24,1.77,2.14,1.97,2.71-6.2,.51-12.42,.85-13.33,.58-1.86-.54-2.75-1.44-2.78-.14,0,0,1.77,2.89,2.8,3.12,.89,.2,4.27-1.02,9.65-1.72-3.31,6.52-12.45,10.73-12.45,10.73,3.6-.98,6.56-2.36,8.95-3.78v4.04c0,.36-.23,1.64-.38,2.3-.15,.66,1.08,1.54,1.49,1.66,.05,.02,.14-.02,.25-.08,.85-.37,2.29-2.41,5.11-3.95,3.11-1.7,6.03-2.87,6.03-2.87-4.59,.15-7.45,1.04-9.05,1.76,.03-1.35,.07-3.92,.1-5.31,2.57-2.04,3.88-3.75,4.03-3.99,.27-.44,1-.6,1.05-.93,.12,0,.25,0,.37,0,.32,1.17,2.8,9.49,10.76,14.3,0,0,.21,1.36,.98,1.1,.76-.27,1.7-.95,3.17-1.71,1.47-.76,1.91-1.79,1.39-1.84-.36-.03-4.95-1.26-9.88-5.13,1.79-.58,3.93-2.3,3.93-2.3,.7,0,2.71-.3,.32-1.87-2.27-1.49-2.28,.19-2.42,.67-.38,1.31-1.63,2.31-2.54,2.91-1.93-1.61-3.89-3.62-5.64-6.14,6.1-.09,12.56,.89,15.12,1.47,3.03,.68,.22-3.47-.87-4.64Z"/><path class="cls-3" d="M478.52,667.9c-1.7-1.5-2.34-1.5-2.54-1.08-.2,.42,.49,3.15,.49,3.72v5.82c0,.36-.17,1.64-.28,2.3-.11,.66,.38,1.36,.67,1.48,.29,.12,1.92-2.02,2.05-2.48,.12-.46-.33-.78-.33-1.71,.03-1.04,.07-4.96,.11-5.67,0,0,0,0,0,0,.07-1.32,1.52-.89-.18-2.38Z"/><path class="cls-3" d="M481.02,680.64c0,.13-.02,.37-.05,.65-.47-.05-1.06-.09-1.79-.08-2.09,.02-1.72,.24,0,1.31,1.72,1.07,1.23,3.41,2.38,3.41,.41,.17,2.7-2.82,2.87-3.47,.17-.64-.46-1.09-.47-2.4,.04-1.46,.1-11.13,.16-12.12,0,0,0,0,0,0,.1-1.85,2.13-1.24-.25-3.34-2.38-2.1-3.28-2.1-3.55-1.51-.28,.59,.69,4.42,.69,5.21v12.33Z"/><path class="cls-3" d="M429.76,699.4c-.47-.02-6.76-1.54-13.08-5.04,4.62-4.13,6.37-8.14,6.89-9.62,.02,0,.04,0,.07,0,2.94-.16-.32-2.36-1.36-3.16-1.61-1.25-2.15-.61-2.75,0-.27,.28-2.74,.69-5.52,1.02v-7.96c0-.96,.01-1.78,.03-2.51,3.31-.12,5.69,.09,7.51,.35,.01,0,.03,0,.04,0-.33,1.96-.91,3.42-1.47,4.47-.04,.09-.09,.17-.14,.26-.09,.16-.17,.3-.26,.44-.05,.07-.09,.15-.14,.22-.13,.2-.25,.37-.36,.52,0,0,0,0,0,0-.28,.37-.48,.57-.48,.57,0,0,5-2.08,6.75-3.79,.89-.87,1.5-1.66,1.75-2.35,.24-.67,.13-1.25-.43-1.74,0,0,0,0-.01-.01-.73-.71-1.75-1.43-2.29-1.85-1.95-1.51-2.6-.74-3.33,0-.33,.34-3.51,.83-7.08,1.23,.03-.63,.06-1.16,.08-1.59,0,0,0,0,0,0,.08-1.59,1.85-1.69-.22-3.5-2.07-1.81-2.84-1.81-3.08-1.3-.24,.51,.6,4.43,.6,5.11v1.55c-3.49,.32-6.79,.5-7.73,.3-.04,0-.08-.02-.12-.03,.02-.25,.05-.43,.08-.49,.2-.43,.39-1.54-.79-1.87-1.18-.33-4.07-1.76-4.55-.79-.42,.86,.39,1.78,.39,3.01v15.36c0,10.96-5.42,17.21-5.42,17.21,9.67-6.85,10.06-14.76,10.07-20.35,.37,.41,1.71,1.87,2.56,2.01,.98,.16,1.04-.69,7.59-1.06,2.08-.12,3.66-.08,4.91,.03-1.37,3.08-3.24,5.8-5.28,8.16-2.8-1.93-5.39-4.3-7.22-7.13,0,0,.94,4.32,5.27,9.23-5.97,6.01-12.53,9.11-12.53,9.11,6.49-1.71,11.34-4.12,14.95-6.67,2.31,2.1,5.27,4.19,9.1,6.01,0,0,.24,1.71,1.4,1.33,1.16-.37,1.14-1.29,3.39-2.32,2.25-1.03,2.98-2.35,2.2-2.38Zm-18.27-16.54c-2.49,.23-4.78,.35-5.51,.2-1.46-.31-2.29-.76-2.55-.42,0-.28,0-.56,0-.83,0-3.2,.03-6.29,.1-8.43,.08,.03,.16,.07,.24,.08,1.11,.18,1.25-.71,7.73-1.19v10.59Z"/><path class="cls-3" d="M356.85,686.8c6.5-.12,6,.99,7.5,.48,1.58-.55,.14-1.54-1.45-2.47-.19-.11-.37-.2-.54-.26,.02-.02,.04-.04,.06-.06,2.33-2.4,3.51-7.39,3.51-7.39,1.45-.51,.48-1.41-1.34-2.66-1.82-1.25-2.55-.54-2.9-.2-.32,.31-.63,.86-4.84,1.21v-2.11c0-.77,0-1.44,.02-2.05,6.07-.3,8.43,.95,10.27,.84,2.93-.18-.32-2.65-1.35-3.55-1.6-1.4-2.14-.69-2.74,0-.28,.32-3.07,.8-6.13,1.18,.03-.72,.07-1.31,.1-1.79,0,0,0,0,0,0,.08-1.48,1.85-1.57-.22-3.25-2.06-1.68-2.84-1.68-3.08-1.21-.24,.47,.6,4.11,.6,4.75v1.78c-2.57,.25-4.88,.37-5.58,.21-1.32-.31-2.12-.77-2.46-.58,.2-.48,.29-.81,.26-.95-.13-.49-1.58-2.17-3.62-2.63s-1.29,.86-1.77,1.13c-.39,.22-2.5,.75-3.62,.95-.63-.84-3.13-2.44-3.35-2-.38,.76,.33,2.82,.33,3.98v27.36c0,1.57-.27,3.85-.33,4.7-.05,.85,1.29,2.6,1.82,2.46s2.68-4.03,2.47-5.15c-.21-1.12-1.14-2.33-1.14-5.95v-6.28c.29,.27,.19,.61,.67,1.04,1.93,1.73,.86,7.88,4.51,7.1,5.77-1.23,3-6.23,1.57-10.75-1.02-3.23-3.4-5.78-4.33-6.68,.81-.6,1.71-1.38,2.64-2.44,1.79-2.04,3.09-4.18,3.73-5.53,0,.03-.01,.05-.01,.08,0,0,1.67,2.21,2.64,2.39,.86,.16,1.02-.57,5.58-1.03v4.13c-3.07,.17-4.2,.16-5.04,.14-.81-.83-2.4-1.78-2.57-1.17-.22,.82,.58,2.4,.68,3.37,.1,.96,.4,3.85,.52,4.97,.12,1.12,.21,2.56,.12,3.8-.02,.31,.09,.64,.28,.92l-.08,.08s.02-.02,.1-.05c.29,.42,.73,.73,1.11,.67,.38-.06,.71-.53,.98-1.09,.9-.11,.63-.18,2.4-.28-.79,1.66-3.91,8.99-12,15.38,0,0,10.29-4.99,13.5-10.91v5.55c0,1.68-.29,4.13-.35,5.05-.06,.91,1.38,2.79,1.96,2.64,.58-.14,2.88-4.33,2.65-5.53-.23-1.2-1.73-2.5-1.73-6.39v-5.96Zm0-10.16c3.29-.13,5.19-.19,5.19-.19,.32,1.54,.33,2.96,.21,4.2-.31-.33-.67-.64-1.09-.88-1.34-.77-1.58-.18-1.91,.16-.15,.15-1.11,.33-2.4,.49v-3.78Zm0,5.36c1.34,.04,2.7,.21,3.84,.58,.48,.16,.87,.24,1.2,.27-.16,.67-.34,1.22-.47,1.57-.55,.08-.82,.43-.82,.43,0,0-.18,.29-3.47,.76-.1,.01-.19,.02-.29,.03v-3.63Zm-16.53-7.57c-1.42,2.82-3.23,4.92-2.99,5.04,.13,.06,.42-.18,1.5-.84,5.11,8,1.77,9.73,.57,9.64-.71-.05-1.3-.69-2.07-1.22v-11.57c0-3.91,.25-5.48,.21-6.33l3.87-.2s.33,2.66-1.09,5.48Zm14.01,11.42c-1.78,.11-2.49,.13-3.45,.13,.08-.32,.11-.57,.09-.69-.07-.44-.81-.69-.88-1.32-.02-.17-.06-.56-.11-1.07,.31,.04,.63,0,.94-.17,.55-.28,1.86-.54,3.41-.67v3.78Zm0-5.19c-1.07,.08-2.17,.13-3.19,.14-.57,0-1-.05-1.39-.12-.1-.97-.2-1.95-.27-2.61-.04-.39-.02-.64,.02-.83,1.1-.21,2.46-.37,4.83-.49v3.91Z"/><path class="cls-3" d="M371.93,697.38c-.67-.18-7.12-1.3-14.12-9.49,0,0,2,7.07,7.04,12.63,0,0-.19,1.59,.91,1.48s1.87-1.76,4.07-2.25c2.2-.49,2.77-2.18,2.1-2.36Z"/><path class="cls-3" d="M420.18,308.26c0,2.03-.35,4.99-.42,6.1-.07,1.1,1.67,3.37,2.37,3.19,.7-.17,3.48-5.23,3.2-6.68-.28-1.45-1.48-3.02-1.48-7.72v-8.14c.37,.35,.25,.79,.88,1.35,2.5,2.25,1.11,10.22,5.84,9.21,7.49-1.59,3.9-8.09,2.04-13.94-1.33-4.19-4.42-7.49-5.62-8.67,1.05-.77,2.22-1.79,3.42-3.16,2.32-2.65,4.01-5.43,4.84-7.17,0,.04-.02,.06-.02,.11,0,0,2.16,2.86,3.43,3.1,1.12,.21,1.33-.74,7.24-1.34v5.35c-3.98,.22-5.45,.2-6.54,.18-1.05-1.08-3.12-2.3-3.33-1.52-.29,1.07,.75,3.12,.88,4.37,.13,1.25,.52,4.99,.67,6.44,.15,1.45,.28,3.32,.16,4.93-.03,.4,.12,.83,.36,1.2l-.1,.11s.03-.03,.13-.07c.37,.55,.95,.95,1.44,.88,.49-.07,.93-.69,1.27-1.41,1.17-.14,.81-.24,3.12-.36-1.02,2.15-5.08,11.65-15.56,19.95,0,0,13.35-6.48,17.51-14.16v7.2c0,2.18-.38,5.36-.45,6.55-.07,1.18,1.79,3.62,2.54,3.43,.75-.19,3.73-5.61,3.43-7.17-.3-1.56-2.24-3.24-2.24-8.29v-7.73c8.43-.15,7.79,1.29,9.72,.62,2.05-.71,.18-1.99-1.88-3.2-.25-.15-.48-.25-.7-.33,.03-.03,.05-.05,.08-.08,3.03-3.11,4.56-9.59,4.56-9.59,1.88-.67,.63-1.83-1.74-3.46-2.37-1.63-3.3-.7-3.76-.26-.42,.4-.82,1.12-6.28,1.57v-2.73c0-.99,.01-1.87,.03-2.65,7.87-.39,10.93,1.23,13.32,1.08,3.8-.23-.42-3.44-1.75-4.61-2.08-1.82-2.78-.89-3.55,0-.36,.42-3.98,1.04-7.95,1.53,.04-.94,.09-1.7,.13-2.32,0,0,0,0,0,0,.11-1.92,2.4-2.03-.28-4.21-2.68-2.18-3.69-2.18-4-1.57-.31,.61,.78,5.33,.78,6.16v2.31c-3.33,.32-6.33,.48-7.24,.27-1.71-.4-2.76-1-3.19-.75,.26-.62,.38-1.06,.34-1.23-.17-.64-2.05-2.82-4.7-3.41-2.64-.59-1.67,1.11-2.3,1.46-.5,.28-3.24,.97-4.7,1.23-.82-1.09-4.06-3.17-4.34-2.6-.49,.99,.42,3.66,.42,5.17v35.48Zm25.71-15.13c-2.31,.14-3.23,.17-4.48,.17,.1-.41,.14-.74,.12-.89-.09-.57-1.05-.89-1.14-1.71-.02-.22-.08-.73-.14-1.39,.4,.06,.81-.01,1.22-.21,.72-.36,2.41-.7,4.42-.86v4.9Zm0-6.73c-1.38,.1-2.82,.17-4.14,.18-.74,0-1.3-.06-1.8-.15-.13-1.26-.26-2.53-.35-3.38-.05-.5-.03-.83,.03-1.08,1.43-.27,3.18-.48,6.26-.64v5.07Zm3.28-5.21c4.27-.17,6.73-.25,6.73-.25,.41,1.99,.43,3.84,.28,5.45-.4-.42-.87-.83-1.42-1.14-1.74-1-2.05-.24-2.48,.21-.19,.2-1.44,.43-3.12,.63v-4.9Zm0,6.96c1.74,.06,3.5,.27,4.98,.75,.63,.21,1.13,.31,1.56,.35-.21,.87-.44,1.58-.61,2.03-.72,.1-1.06,.55-1.06,.55,0,0-.23,.38-4.49,.98-.12,.02-.25,.03-.37,.04v-4.71Zm-25.32-3.29v-5.17c0-5.08,.32-7.11,.27-8.22l5.02-.26s.43,3.46-1.42,7.11c-1.84,3.66-4.19,6.39-3.88,6.53,.16,.08,.55-.23,1.95-1.09,6.63,10.38,2.29,12.62,.74,12.51-.92-.07-1.68-.9-2.68-1.58v-9.84Z"/><path class="cls-3" d="M450.41,295.78s2.59,9.18,9.13,16.38c0,0-.24,2.06,1.18,1.92,1.43-.15,2.42-2.28,5.27-2.92,2.85-.64,3.59-2.83,2.72-3.06-.87-.23-9.24-1.68-18.31-12.31Z"/></g></g><g><text class="cls-6" transform="translate(401.77 858.72)"><tspan x="0" y="0">藏青色</tspan></text><rect class="cls-5" x="393.01" y="825.3" width="97.59" height="47.08" rx="10.13" ry="10.13"/></g></g><g><g><path class="cls-2" d="M925.29,483.42l-58.93-97.41v33.76l55.58,67.24c1.05-1.25,2.17-2.45,3.35-3.59Z"/><path class="cls-2" d="M914.83,498.2l-48.46-44.32v14.06l47.22,33.22c.39-1,.79-1.99,1.24-2.96Z"/><path class="cls-2" d="M919.19,490.61l-52.83-63.92v21.2l50.58,46.26c.7-1.21,1.45-2.39,2.25-3.54Z"/><path class="cls-2" d="M912.12,505.53l-45.75-32.19v9.6l45.22,24.66c.17-.7,.33-1.39,.53-2.08Z"/><path class="cls-2" d="M927.79,329.59c-11.06-9.42-17.55-23.28-17.55-37.88,0-13.35,5.3-25.49,13.89-34.43l-2.01-16.66c-11.67,5.18-22.09,12.68-30.67,21.91l22.36,86.5c2.99-7.44,7.76-14.14,13.98-19.43Z"/><path class="cls-2" d="M957.79,242v-9.37c-11.05,.26-21.64,2.43-31.43,6.22l1.77,14.68c8.11-6.78,18.41-11.03,29.67-11.53Z"/><path class="cls-2" d="M910.24,443.24c0-5.02,.78-9.95,2.24-14.64l-45.81-109.55c-.18,2.37-.3,4.75-.3,7.17v51.26l44.5,73.56c-.41-2.56-.63-5.17-.63-7.8Z"/><path class="cls-2" d="M1009.76,519c0,27.44-22.32,49.76-49.76,49.76s-49.76-22.32-49.76-49.76c0-2.3,.18-4.58,.49-6.83l-44.37-24.19v26.35c0,51.63,42,93.63,93.63,93.63s93.63-42,93.63-93.63v-26.35l-44.37,24.19c.32,2.25,.49,4.53,.49,6.83Z"/><path class="cls-2" d="M924.59,408.36l-2.15-8.33c-7.77-8.96-12.2-20.5-12.2-32.56,0-3.51,.38-6.98,1.11-10.35l-23.42-90.61c-10.22,12.31-17.32,27.28-20.16,43.7l47,112.39c2.41-5.26,5.73-10.08,9.83-14.24Z"/><path class="cls-2" d="M992.21,329.59c6.22,5.29,10.99,11.99,13.98,19.43l22.36-86.5c-8.58-9.23-19-16.72-30.67-21.91l-2.01,16.66c8.59,8.95,13.89,21.08,13.89,34.43,0,14.6-6.49,28.47-17.55,37.88Z"/><path class="cls-2" d="M1009.76,367.47c0,12.06-4.43,23.6-12.2,32.56l-2.15,8.33c4.1,4.16,7.42,8.99,9.83,14.24l47-112.39c-2.84-16.41-9.94-31.38-20.16-43.7l-23.42,90.61c.72,3.37,1.11,6.84,1.11,10.35Z"/><path class="cls-2" d="M960,214.25c-61.74,0-111.97,50.23-111.97,111.97v188.11c0,61.74,50.23,111.97,111.97,111.97s111.97-50.23,111.97-111.97v-188.11c0-61.74-50.23-111.97-111.97-111.97Zm100.26,300.08c0,55.28-44.98,100.26-100.26,100.26s-100.26-44.98-100.26-100.26v-188.11c0-55.28,44.98-100.26,100.26-100.26s100.26,44.98,100.26,100.26v188.11Z"/><path class="cls-2" d="M993.64,238.86c-9.8-3.79-20.38-5.96-31.43-6.22v9.37c11.26,.49,21.55,4.74,29.67,11.53l1.77-14.68Z"/><path class="cls-2" d="M916.86,291.71c0,13.93,6.82,27.08,18.24,35.18l3.81,2.7-3.81,2.7c-11.42,8.1-18.24,21.25-18.24,35.18s6.82,27.08,18.24,35.18l3.81,2.7-3.81,2.7c-11.42,8.1-18.24,21.25-18.24,35.18s6.82,27.08,18.24,35.18l3.81,2.7-3.81,2.7c-11.42,8.1-18.24,21.25-18.24,35.18,0,23.79,19.35,43.14,43.14,43.14s43.14-19.35,43.14-43.14c0-13.93-6.82-27.08-18.24-35.18l-3.81-2.7,3.81-2.7c11.42-8.1,18.24-21.25,18.24-35.18s-6.82-27.08-18.24-35.18l-3.81-2.7,3.81-2.7c11.42-8.1,18.24-21.25,18.24-35.18s-6.82-27.08-18.24-35.18l-3.81-2.7,3.81-2.7c11.42-8.1,18.24-21.25,18.24-35.18,0-23.79-19.35-43.14-43.14-43.14s-43.14,19.35-43.14,43.14Z"/><path class="cls-2" d="M998.05,487.01l55.58-67.24v-33.76l-58.93,97.41c1.18,1.15,2.3,2.34,3.35,3.59Z"/><path class="cls-2" d="M1006.41,501.16l47.22-33.22v-14.06l-48.46,44.32c.45,.97,.86,1.96,1.24,2.96Z"/><path class="cls-2" d="M1003.05,494.15l50.58-46.26v-21.2l-52.83,63.92c.8,1.15,1.55,2.33,2.25,3.54Z"/><path class="cls-2" d="M1008.41,507.6l45.22-24.66v-9.6l-45.75,32.19c.19,.69,.36,1.38,.53,2.08Z"/><path class="cls-2" d="M1009.76,443.24c0,2.63-.22,5.24-.63,7.8l44.5-73.56v-51.26c0-2.41-.12-4.8-.3-7.17l-45.81,109.55c1.46,4.69,2.24,9.62,2.24,14.64Z"/><g><path class="cls-4" d="M960,207.62c-65.39,0-118.59,53.2-118.59,118.59v188.11c0,65.39,53.2,118.59,118.59,118.59s118.59-53.2,118.59-118.59v-188.11c0-65.39-53.2-118.59-118.59-118.59Zm111.97,306.7c0,61.74-50.23,111.97-111.97,111.97s-111.97-50.23-111.97-111.97v-188.11c0-61.74,50.23-111.97,111.97-111.97s111.97,50.23,111.97,111.97v188.11Z"/><path class="cls-4" d="M960,225.96c-55.28,0-100.26,44.98-100.26,100.26v188.11c0,55.28,44.98,100.26,100.26,100.26s100.26-44.98,100.26-100.26v-188.11c0-55.28-44.98-100.26-100.26-100.26Zm37.88,14.66c11.67,5.18,22.09,12.68,30.67,21.91l-22.36,86.5c-2.99-7.44-7.76-14.14-13.98-19.43,11.06-9.42,17.55-23.28,17.55-37.88,0-13.35-5.3-25.49-13.89-34.43l2.01-16.66Zm-35.67-7.98c11.05,.26,21.64,2.43,31.43,6.22l-1.77,14.68c-8.11-6.78-18.41-11.03-29.67-11.53v-9.37Zm40.93,59.07c0,13.93-6.82,27.08-18.24,35.18l-3.81,2.7,3.81,2.7c11.42,8.1,18.24,21.25,18.24,35.18s-6.82,27.08-18.24,35.18l-3.81,2.7,3.81,2.7c11.42,8.1,18.24,21.25,18.24,35.18s-6.82,27.08-18.24,35.18l-3.81,2.7,3.81,2.7c11.42,8.1,18.24,21.25,18.24,35.18,0,23.79-19.35,43.14-43.14,43.14s-43.14-19.35-43.14-43.14c0-13.93,6.82-27.08,18.24-35.18l3.81-2.7-3.81-2.7c-11.42-8.1-18.24-21.25-18.24-35.18s6.82-27.08,18.24-35.18l3.81-2.7-3.81-2.7c-11.42-8.1-18.24-21.25-18.24-35.18s6.82-27.08,18.24-35.18l3.81-2.7-3.81-2.7c-11.42-8.1-18.24-21.25-18.24-35.18,0-23.79,19.35-43.14,43.14-43.14s43.14,19.35,43.14,43.14Zm-45.34-59.07v9.37c-11.26,.49-21.55,4.74-29.67,11.53l-1.77-14.68c9.8-3.79,20.38-5.96,31.43-6.22Zm-35.67,7.98l2.01,16.66c-8.59,8.95-13.89,21.08-13.89,34.43,0,14.6,6.49,28.47,17.55,37.88-6.22,5.29-10.99,11.99-13.98,19.43l-22.36-86.5c8.58-9.23,19-16.73,30.67-21.91Zm-34.2,25.9l23.42,90.61c-.72,3.37-1.11,6.84-1.11,10.35,0,12.06,4.43,23.6,12.2,32.56l2.15,8.33c-4.1,4.16-7.43,8.99-9.83,14.24l-47-112.39c2.84-16.41,9.94-31.38,20.16-43.7Zm-21.56,59.7c0-2.41,.12-4.8,.3-7.17l45.81,109.55c-1.46,4.69-2.24,9.62-2.24,14.64,0,2.63,.22,5.24,.63,7.8l-44.5-73.56v-51.26Zm0,59.79l58.93,97.41c-1.18,1.15-2.3,2.34-3.35,3.59l-55.58-67.24v-33.76Zm0,40.69l52.83,63.92c-.8,1.15-1.55,2.33-2.25,3.54l-50.58-46.26v-21.2Zm0,27.18l48.46,44.32c-.45,.97-.86,1.96-1.24,2.96l-47.22-33.22v-14.06Zm0,19.46l45.75,32.19c-.19,.69-.36,1.38-.53,2.08l-45.22-24.66v-9.6Zm187.27,40.98c0,51.63-42,93.63-93.63,93.63s-93.63-42-93.63-93.63v-26.35l44.37,24.19c-.32,2.25-.49,4.53-.49,6.83,0,27.44,22.32,49.76,49.76,49.76s49.76-22.32,49.76-49.76c0-2.3-.18-4.58-.49-6.83l44.37-24.19v26.35Zm0-31.38l-45.22,24.66c-.16-.7-.33-1.39-.53-2.08l45.75-32.19v9.6Zm0-15l-47.22,33.22c-.39-1-.79-1.99-1.24-2.96l48.46-44.32v14.06Zm0-20.05l-50.58,46.26c-.7-1.21-1.45-2.39-2.25-3.54l52.83-63.92v21.2Zm0-28.13l-55.58,67.24c-1.05-1.25-2.17-2.45-3.35-3.59l58.93-97.41v33.76Zm0-93.55v51.26l-44.5,73.56c.41-2.56,.63-5.17,.63-7.8,0-5.02-.78-9.95-2.24-14.64l45.81-109.55c.18,2.37,.3,4.75,.3,7.17Zm-1.4-16l-47,112.39c-2.41-5.25-5.73-10.08-9.83-14.24l2.15-8.33c7.77-8.96,12.2-20.5,12.2-32.56,0-3.51-.38-6.98-1.11-10.35l23.42-90.61c10.22,12.31,17.32,27.28,20.16,43.7Z"/><path class="cls-4" d="M882.47,531.94l-.22-.02c-3.26-.2-6.33-2.53-6.71-5.08-.25-1.74,.24-3.28,1.43-4.46,1.21-1.2,3.13-2.02,5.55-2.38,1.44-.21,2.77-.27,3.94-.17,2.75,.25,4.75,1.88,5.08,4.14,.44,3.04-1.51,5.83-4.98,7.11l-.21,.08,.27,1.86,7.55-1.36-.26-1.75-.22-.02c-.61-.06-1.04-.11-1.43-.22,1.22-1.81,1.65-3.78,1.33-6-.42-2.86-1.84-5.33-4-6.93-2.16-1.61-4.92-2.26-7.79-1.85-2.75,.4-5.15,1.79-6.75,3.91-1.6,2.12-2.27,4.78-1.88,7.5,.37,2.5,1.4,4.22,3.44,5.71-.47,.42-.96,.7-1.69,.98l-.2,.08,.27,1.82,7.75-1.13-.26-1.82Z"/><path class="cls-4" d="M889.84,559.41l10.76-5.59c1.38-.72,2.01-.46,2.84,1.13l.18,.35,1.66-.86-4.64-8.92-1.41,.73-.22,.18,.13,.25c.87,1.68,.73,2.3-.68,3.03l-3.97,2.06-3.87-7.45,3.97-2.06c1.41-.74,2-.48,2.88,1.21l.16,.33,1.66-.86-4.66-8.98-1.41,.73-.22,.18,.13,.25c.87,1.68,.73,2.3-.68,3.03l-10.76,5.59c-.71,.38-1.21,.47-1.61,.31-.42-.17-.8-.63-1.29-1.56l-.13-.24-1.65,.86,4.66,8.98,1.65-.86-.16-.32c-.46-.88-.61-1.46-.51-1.91,.1-.42,.46-.78,1.18-1.15l4.9-2.55,3.87,7.45-4.9,2.55c-.72,.38-1.21,.47-1.61,.31-.42-.17-.8-.63-1.29-1.56l-.13-.24-1.65,.86,4.64,8.92,1.66-.86-.18-.35c-.83-1.6-.67-2.26,.7-2.98Z"/><path class="cls-4" d="M908.13,575.4c-.73,.58-1.05,.73-1.69,1.03-.63,.28-1.32,.42-2.04,.42-.97-.03-1.66-.39-2.67-1.39l-1.12-1.11c-.77-.76-1.12-1.27-1.17-1.69-.04-.41,.19-.83,.8-1.44l3.68-3.73,1.19,1.18c1.34,1.32,1.35,1.7,.07,3.1l-.18,.2,1.32,1.3,4.89-4.96-1.33-1.32-.19,.17c-1.43,1.29-1.78,1.28-3.11-.03l-1.17-1.16,4.41-4.47,2.36,2.33c1.45,1.43,1.7,1.95,1.67,2.71-.03,.72-.32,1.51-.94,2.56l-.11,.19,1.27,1.26,3.7-4.17-11.75-11.6-1.31,1.33,.3,.3c1.33,1.31,1.39,1.98,.29,3.09l-8.52,8.63c-1.11,1.13-1.75,1.08-3.09-.25l-.3-.3-1.31,1.33,12.63,12.47,4.97-4.81-1.35-1.33-.19,.15Z"/><path class="cls-4" d="M930.84,576.23l.35,.18c1.73,.89,1.86,1.4,.89,3.37l-3.5,7.11-3.66-15.73-.03-.12-5.35-2.78-.84,1.63,.2,.14c1.68,1.13,1.87,1.56,.48,4.38l-4.4,8.81-.12,.23c-.91,1.76-1.4,1.92-3.06,1.06l-.42-.22-.86,1.65,6.86,3.55,.86-1.66-.5-.26c-1.73-.89-1.85-1.4-.86-3.39l4.4-8.85,4.25,18.46,.03,.12,1.53,.79,6.93-13.95,.13-.26c.89-1.71,1.38-1.87,3.03-1l.53,.27,.86-1.65-6.86-3.55-.86,1.66Z"/><path class="cls-4" d="M974.48,580.06c-1.76-.5-3.18-.53-6.35-.12-.64,.08-1.36,.2-2.18,.33l-6.08,.91,.24,1.87,.42-.05c.96-.12,1.56-.07,1.92,.17,.35,.23,.56,.7,.66,1.51l1.55,12.08c.2,1.56-.25,2.05-2.07,2.28l-.42,.05,.24,1.85,10.17-1.3-.24-1.85-.48,.06c-1.83,.24-2.38-.13-2.58-1.68l-.61-4.73,.97-.13c2.61-.33,4.29-.79,5.8-1.58,2.05-1.09,3.04-3.11,2.73-5.52-.25-1.96-1.67-3.55-3.7-4.16Zm-2.22,8.31c-.63,.42-1.4,.65-2.82,.83l-1.03,.13-.92-7.18c.15-.02,.26-.04,.36-.06,.1-.02,.19-.03,.28-.05,3.35-.43,4.87,.47,5.21,3.11,.18,1.43-.21,2.6-1.08,3.21Z"/><path class="cls-4" d="M994.11,591.75c-.92,.34-1.52,.42-1.94,.26-.4-.15-.7-.56-.98-1.32l-4.19-11.38c-.55-1.49-.23-2.04,1.54-2.7l.45-.16-.64-1.75-9.71,3.57,.64,1.75,.45-.16c.92-.34,1.51-.42,1.93-.27,.4,.15,.71,.55,.99,1.32l4.19,11.38c.54,1.47,.21,2.05-1.54,2.7l-.45,.17,.64,1.75,9.71-3.58-.64-1.75-.45,.17Z"/><path class="cls-4" d="M1011.47,566.65l1.19-1.49-.2-.17c-.94-.83-1.34-1.35-1.57-2.09-.3-.99-.04-1.73,1.12-3.18l1.12-1.4,10.83,8.65c.6,.48,.88,.87,.93,1.27,.05,.47-.21,1.03-.85,1.83l-.28,.35,1.46,1.16,6.4-8.01-1.45-1.16-.27,.33c-.61,.77-1.08,1.15-1.52,1.23-.43,.08-.89-.11-1.52-.62l-10.83-8.65,1.36-1.7c.97-1.21,1.65-1.54,2.79-1.34,.75,.14,1.41,.42,2.2,.95l.21,.14,1.17-1.46-4.71-3.76-12.28,15.37,4.71,3.76Z"/><path class="cls-4" d="M1021.3,546.94c.7-1.73,1.29-2.04,2.74-1.46l11.25,4.51c1.47,.59,1.67,1.2,.97,2.95l-.16,.39,1.73,.69,6.5-16.22,.1-.25-6.35-2.72-.71,1.76,.21,.12c.8,.44,1.07,.68,1.6,1.16,.5,.48,.9,1.06,1.18,1.72,.35,.9,.28,1.69-.24,3l-.58,1.46c-.8,2-1.3,2.13-2.74,1.55l-4.86-1.95,.63-1.55c.7-1.74,1.04-1.9,2.83-1.27l.25,.09,.69-1.72-6.47-2.59-.7,1.74,.24,.11c1.74,.81,1.87,1.13,1.17,2.87l-.61,1.53-5.82-2.34,1.23-3.07c.77-1.91,1.13-2.32,1.85-2.59,.68-.25,1.52-.29,2.72-.13l.21,.03,.66-1.66-5.27-1.8-6.04,15.07-.1,.26,1.73,.69,.16-.39Z"/><path class="cls-4" d="M1043.31,528.26c.81,.62,1.16,1.27,1.08,2.06l-.05,.48,1.86,.17,.66-7.17-1.85-.17-.05,.51c-.16,1.71-.97,1.62-1.22,1.6-.08,0-.31-.06-.94-.34l-1.44-.7,.54-5.83,2.17-.64c.24-.08,.54-.1,.75-.09,.24,.02,.33,.1,.38,.17,.18,.21,.23,.7,.15,1.51l-.06,.6,1.86,.17,.88-9.6-1.86-.17-.04,.45c-.12,1.29-.42,1.65-3.39,2.5l-15.68,4.54-.16,1.68,14.17,6.96c1.09,.54,1.59,.83,2.23,1.32Zm-3.82-4.47l-5.46-2.68,5.86-1.69-.4,4.36Z"/><path class="cls-4" d="M898.6,732.58c-1.56,0-2.5-1.27-2.5-3.39,0-.63,.06-1.19,.17-1.66,.28-1.16,1.11-1.92,2.12-1.92,1.33,0,2.41,1.02,2.73,2.57h.57l-.1-2.95h-.53c-.08,.35-.14,.54-.25,.74-.66-.65-1.46-.98-2.42-.98-2.42,0-4.2,1.78-4.2,4.2s1.77,4.11,4.05,4.11c1.05,0,1.83-.34,2.56-1.14,.21,.28,.31,.53,.4,.91h.56v-3.03h-.56c-.29,1.38-1.49,2.54-2.6,2.54Z"/><path class="cls-4" d="M911.87,725.68h.02c.85,0,1.1,.22,1.1,.94v1.97h-3.71v-1.97c0-.73,.27-.94,1.11-.94h.04v-.54h-3.97v.54h.03c.85,0,1.1,.22,1.1,.94v5.03c0,.71-.25,.94-1.1,.94h-.03v.54h3.97v-.54h-.04c-.85,0-1.11-.23-1.11-.94v-2.41h3.71v2.41c0,.71-.25,.94-1.1,.94h-.02v.54h3.94v-.54h-.05c-.81,0-1.08-.24-1.08-.94v-5.03c0-.71,.27-.94,1.08-.94h.05v-.54h-3.94v.54Z"/><path class="cls-4" d="M926.43,731.33c-.12,.3-.3,.56-.51,.76-.31,.29-.65,.4-1.27,.4h-.65c-.91,0-1.14-.18-1.14-.93v-2.29h.81c.83,0,1,.16,1.04,1h.55v-2.66h-.56c-.05,.86-.21,1-1.04,1h-.8v-2.83h1.49c.83,0,1.11,.07,1.37,.35,.2,.23,.36,.56,.5,1.08h.53l-.11-2.08h-6.63v.54h.06c.83,0,1.1,.23,1.1,.94v5.03c0,.73-.25,.94-1.1,.94h-.06v.54h7.14l.06-2.64h-.57c-.05,.39-.1,.53-.2,.82Z"/><path class="cls-4" d="M937.25,725.68h.05c.87,0,1.07,.2,1.09,1.19l.07,3.56-.02,.02-4.53-5.31h-2.34v.54c.94,.11,1.09,.33,1.11,1.63l.06,4.09v.11c0,.88-.19,1.09-1.04,1.09h-.08v.54h2.97v-.54h-.12c-.87,0-1.06-.22-1.08-1.2l-.07-4.37,.03-.02,5.27,6.21h.55l-.11-6.35v-.12c0-.86,.19-1.07,1.04-1.07h.13v-.54h-2.97v.54Z"/><path class="cls-4" d="M965.59,725.4c-.68-.29-1.25-.38-2.56-.38-.3,0-.65,.01-1.05,.02l-2.3,.05v.56h.06c.83,0,1.09,.22,1.09,.94v5.06c0,.71-.25,.94-1.09,.94h-.06v.54h4.03v-.54h-.08c-.84,0-1.09-.23-1.09-.94v-2.09h.52c1.07,0,1.78-.1,2.43-.34,.86-.33,1.34-1.05,1.34-2.02,0-.77-.47-1.46-1.23-1.8Zm-1.26,3.3c-.29,.15-.62,.21-1.26,.21h-.54v-3.23c.2,0,.28-.01,.39-.01,1.46,0,2.09,.5,2.09,1.67,0,.64-.24,1.14-.68,1.37Z"/><path class="cls-4" d="M971.07,725.68h.09c.83,0,1.1,.22,1.1,.94v5.03c0,.71-.27,.94-1.1,.94h-.09v.54h4.06v-.54h-.08c-.85,0-1.1-.23-1.1-.94v-5.03c0-.73,.25-.94,1.1-.94h.08v-.54h-4.06v.54Z"/><path class="cls-4" d="M994.61,727.41h.57c.02-.53,.1-.82,.29-1.11,.27-.39,.6-.51,1.41-.51h.86v5.87c0,.71-.27,.94-1.1,.94h-.07v.54h4.03v-.54h-.06c-.85,0-1.1-.23-1.1-.94v-5.87h1.02c.69,0,1,.16,1.26,.62,.16,.29,.24,.59,.28,1h.56v-2.27h-7.94v2.27Z"/><path class="cls-4" d="M1013.22,731.33c-.12,.3-.3,.56-.51,.76-.31,.29-.65,.4-1.27,.4h-.65c-.91,0-1.14-.18-1.14-.93v-2.29h.81c.83,0,1,.16,1.04,1h.55v-2.66h-.56c-.05,.86-.21,1-1.04,1h-.8v-2.83h1.49c.83,0,1.11,.07,1.37,.35,.2,.23,.36,.56,.5,1.08h.53l-.11-2.08h-6.63v.54h.06c.83,0,1.1,.23,1.1,.94v5.03c0,.73-.25,.94-1.1,.94h-.06v.54h7.14l.06-2.64h-.57c-.05,.39-.1,.53-.2,.82Z"/><path class="cls-4" d="M1025,731.22l-2.44-6.24h-.55l-2.31,6.05c-.18,.47-.29,.7-.47,.99-.24,.39-.53,.58-.91,.58h-.08v.54h2.76v-.54h-.1c-.54,0-.82-.19-.82-.56,0-.1,.06-.29,.11-.44l.06-.18,.21-.52h2.59l.38,.94c.05,.12,.07,.25,.07,.35,0,.29-.2,.4-.78,.4h-.13v.54h3.77v-.54h-.07c-.63,0-.81-.21-1.27-1.38Zm-4.33-.89l1.07-2.79,1.09,2.79h-2.15Z"/><path class="cls-4" d="M962.1,512.14s6.88,9.09,17.27,14.45c0,0,.25,1.77,1.44,1.38,1.2-.39,1.17-1.33,3.49-2.4,2.32-1.07,2.8-3.45,2-3.48-.8-.03-9.84-.14-24.19-9.95Z"/><path class="cls-4" d="M984.25,541.18c-.73-.08-9.03-.79-21.42-10.78,0,0,5.57,8.82,14.68,14.45,0,0,.08,1.64,1.21,1.37,1.13-.28,1.19-1.15,3.4-1.97,2.22-.82,2.86-2.98,2.13-3.07Z"/><path class="cls-4" d="M962.14,528.47c7,.07,10,1.61,12.42,1.48,4.29-.22-.41-4-1.9-5.38-2.32-2.14-3.12-1.07-4.01-.05-.34,.39-3.07,.9-6.48,1.36,.01-.89,.03-1.55,.04-1.8,0,0,0-1.68,0-1.68,.14-2.72,3.21-1.58-.12-3.78-3.95-2.6-5.07-1.76-5.48-.9-.41,.86,1.01,5.73,1.01,6.89v1.79c-4.45,.45-8.82,.69-10,.39-2.57-.66-3.8-1.71-3.87-.23,0,0,2.39,3.36,3.82,3.65,1.28,.26,1.53-.88,8.55-1.49-1.28,1.98-6,8.11-20.18,17.52,0,0,14.28-4.22,21.68-11.64v8.72c0,.73-.35,3.38-.57,4.74-.22,1.35,.77,2.8,1.38,3.05,.61,.25,3.96-4.15,4.22-5.1,.25-.95-.68-1.6-.69-3.53,.04-1.48,.1-9.02,.16-14Z"/><path class="cls-4" d="M978.85,497.8c-.27,.3-3.53,.71-8.07,1.12,.73-1.69,1.04-2.72,1.04-2.72,0,0,3.04,.38,1.36-2.05-.71-1.03-5.43-4.91-7.55-3.64-1.62,.97,.15,2.37,.59,5.99,.1,.86,.15,1.82,.17,2.8-4.25,.33-9.02,.65-13.4,.88,.41-2.27,.48-3.6,.48-3.6,0,0,1.44-.85,.7-1.86-.74-1.01-6.68-3.42-8.35-1.69-1.27,1.32,.84,2.25,2.33,5.63,.24,.55,.47,1.13,.68,1.73-5.13,.24-9.11,.32-9.96,.13-2.79-.62-4.13-1.64-4.18-.16,0,0,2.65,3.32,4.2,3.58,1.11,.19,4.79-.74,10.59-1.53,.9,3.05,1.38,5.88,1.38,5.88,.81-2.39,1.37-4.5,1.76-6.26,1.42-.15,2.93-.29,4.55-.4,2.96-.2,6.11-.22,9.2-.13-.09,3.13-.41,5.94-.41,5.94,1.5-2.13,2.66-4.12,3.54-5.82,6.43,.32,12.21,1.03,14.97,1.5,4.55,.78,.34-3.98-1.3-5.33-2.55-2.1-3.39-1.02-4.32,.02Z"/><path class="cls-4" d="M964.51,509.69c.71-.47-4.06-4.83-6.48-5.4-2.42-.57-1.66,2.38-2.09,3.13,0,0-5.66,11.25-25.34,21.37,0,0,17.37-4.32,31.98-18.9,0,0,1.23,.27,1.94-.2Z"/><path class="cls-4" d="M938.95,428.53c1.3,.23,1.4-.98,10.02-1.52v4.33c-2.53,.23-4.82,.36-5.92,.28-.17-.24-.46-.54-.92-.95-2.36-2.08-3.25-2.08-3.52-1.5-.28,.58,.68,4.38,.68,5.17v3.74c0,.49-.24,2.28-.39,3.19-.15,.91,.52,1.89,.93,2.06,.41,.17,2.67-2.8,2.85-3.44,.17-.64-.46-1.08-.46-2.38,.04-1.45,.1-2.55,.16-3.53h0s0,0,0-.01c.08,.03,.16,.07,.23,.08,.99,.17,1.18-.62,6.37-1.13v3.39c0,2.09-.34,5.12-.4,6.26-.07,1.13,1.58,3.46,2.24,3.28,.66-.18,3.29-5.36,3.03-6.85-.23-1.31-1.57-2.71-1.9-6.28,3.25-.16,5.58,.05,7.36,.31v5.42c0,.3-2.53-.3-3.21,0-.67,.3,1.45,1.32,2.76,2.8,1.3,1.48,3.17,1.45,3.54-.67,.27-1.56,.9-5.13,1.22-6.94,.08,0,.16,0,.23,0,3.38-.2-.37-2.91-1.56-3.9-1.85-1.54-2.47-.75-3.16,0-.33,.36-3.66,.9-7.26,1.32v-4.13c6.67-.06,9.5,1.26,11.76,1.13,3.92-.23-.43-3.39-1.81-4.54-2.15-1.79-2.87-.88-3.67,0-.32,.35-3,.83-6.28,1.26v-2.47c0-.65,0-1.17,.01-1.64,5.76-.2,8.1,.93,9.92,.82,2.98-.17-.33-2.57-1.38-3.45-1.63-1.36-2.18-.67-2.79,0-.27,.3-2.81,.73-5.71,1.08,.04-.83,.09-1.36,.14-2.08,0,0,0,0,0,0,.1-1.83,2.11-1.23-.25-3.31-2.36-2.08-3.25-2.08-3.52-1.5-.28,.58,.68,4.38,.68,5.17v2.05c-2.06,.2-3.97,.32-5.09,.29,.71-1.17,.9-1.98,.9-1.98,.97-.07,1.83-1.18,1.27-1.82-.56-.64-5.83-2.61-5.78-1.52,.3,5.77-2.35,10.66-2.35,10.66,2.07-1.1,3.52-2.33,4.55-3.47,.21,.13,.41,.24,.59,.27,.89,.16,1.05-.58,5.91-1.02v4.29c-4.35,.48-8.85,.79-10.02,.52-2.36-.53-3.5-1.41-3.54-.15,0,0,2.23,2.82,3.54,3.05Z"/><path class="cls-4" d="M976.26,446.16c-.36,.52-6.38,1.3-13.48,1.97,.91-.8,1.46-1.57,.85-1.84-5.02-2.28-8.57-1.48-8.57-1.48,1.78,1.73,2.46,2.98,2.74,3.77-8.62,.72-17.27,1.18-18.53,.81-2.58-.75-3.83-1.99-3.86-.2,0,0,2.46,4.02,3.89,4.34,1.24,.28,5.94-1.42,13.41-2.4-4.6,9.07-17.3,14.92-17.3,14.92,5-1.36,9.12-3.28,12.44-5.25v5.61c0,.49-.32,2.28-.52,3.19-.2,.91,1.51,2.14,2.06,2.31,.07,.02,.19-.02,.34-.11,1.17-.51,3.18-3.35,7.1-5.5,4.32-2.36,8.38-3.98,8.38-3.98-6.39,.21-10.35,1.45-12.57,2.45,.04-1.88,.09-5.45,.14-7.37,3.57-2.83,5.39-5.21,5.6-5.54,.38-.61,1.39-.83,1.46-1.29,.17,0,.34,0,.51,0,.44,1.63,3.88,13.18,14.95,19.87,0,0,.3,1.9,1.36,1.52,1.06-.37,2.36-1.32,4.41-2.38s2.66-2.49,1.94-2.55c-.5-.04-6.88-1.75-13.74-7.13,2.49-.8,5.46-3.19,5.46-3.19,.98,0,3.76-.42,.44-2.6-3.15-2.08-3.17,.27-3.36,.94-.53,1.81-2.26,3.22-3.53,4.04-2.69-2.23-5.4-5.03-7.83-8.53,8.47-.12,17.46,1.24,21.01,2.04,4.21,.95,.31-4.82-1.21-6.45-2.36-2.55-3.13-1.24-4,.02Z"/><path class="cls-4" d="M970.52,419.62c-2.36-2.08-3.25-2.08-3.52-1.5-.28,.58,.68,4.38,.68,5.17v8.09c0,.49-.24,2.28-.39,3.19-.15,.91,.52,1.89,.93,2.06,.41,.17,2.67-2.8,2.85-3.44,.17-.64-.46-1.08-.46-2.38,.04-1.45,.1-6.9,.16-7.88h0c.1-1.84,2.11-1.23-.25-3.31Z"/><path class="cls-4" d="M973.99,437.32c0,.19-.03,.51-.06,.9-.66-.07-1.48-.12-2.48-.11-2.91,.03-2.39,.34,0,1.82,2.39,1.48,1.71,4.74,3.31,4.74,.57,.24,3.75-3.92,3.99-4.82,.24-.9-.64-1.51-.65-3.34,.06-2.03,.14-15.47,.22-16.84h0c.14-2.57,2.96-1.73-.35-4.64-3.31-2.92-4.55-2.92-4.94-2.1-.39,.82,.96,6.14,.96,7.24v17.14Z"/><path class="cls-4" d="M975.74,364.5s.06,0,.09,0c3.89-.21-.43-3.12-1.8-4.18-2.14-1.65-2.85-.81-3.64,0-.36,.37-3.63,.91-7.3,1.35v-9.02c0-1.27,.02-2.36,.04-3.32,4.39-.16,7.54,.12,9.95,.46,.02,0,.04,0,.06,0-.43,2.59-1.21,4.53-1.95,5.92-.06,.11-.12,.23-.18,.34-.12,.21-.23,.4-.34,.58-.06,.1-.12,.2-.19,.29-.18,.27-.33,.49-.48,.68,0,0,0,0,0,0-.37,.49-.64,.76-.64,.76,0,0,6.62-2.75,8.94-5.02,1.17-1.15,1.99-2.19,2.32-3.11,.32-.89,.18-1.66-.56-2.3l-.02-.02c-.96-.94-2.32-1.9-3.03-2.45-2.59-2-3.45-.98-4.41,0-.44,.44-4.65,1.1-9.38,1.63,.04-.84,.08-1.53,.11-2.11,0,0,0,0,0,0,.11-2.11,2.45-2.24-.29-4.63-2.73-2.39-3.76-2.39-4.08-1.72-.32,.67,.79,5.86,.79,6.77v2.05c-4.62,.43-8.99,.66-10.23,.4-.06-.01-.1-.03-.16-.04,.03-.33,.07-.57,.1-.65,.26-.56,.52-2.04-1.04-2.48-1.56-.43-5.4-2.34-6.03-1.04-.56,1.14,.52,2.35,.52,3.98v20.34c0,14.51-7.17,22.79-7.17,22.79,12.81-9.07,13.33-21.06,13.34-28.46,.49,.55,2.27,2.48,3.38,2.66,1.3,.21,1.38-.91,10.05-1.41,2.75-.16,4.84-.1,6.5,.04-1.82,4.08-4.29,9.2-7,12.33-3.71-2.56-7.14-7.21-9.56-10.96,0,0,1.24,7.24,6.98,13.74-7.9,7.95-16.59,12.06-16.59,12.06,8.6-2.26,15.01-5.46,19.79-8.83,3.06,2.78,6.98,5.55,12.05,7.96,0,0,.32,2.26,1.86,1.77,1.54-.5,1.51-1.7,4.49-3.07,2.98-1.36,3.94-3.11,2.91-3.15-.63-.02-8.95-2.05-17.32-6.67,6.12-5.47,8.44-12.29,9.13-14.26Zm-16.01-2.48c-3.3,.31-6.34,.47-7.29,.27-1.94-.41-3.03-1.01-3.38-.56,0-.37,0-.74,0-1.1,0-4.24,.04-6.81,.13-9.65,.11,.04,.22,.09,.32,.11,1.47,.24,1.66-.93,10.23-1.58v12.51Z"/><path class="cls-4" d="M1067.1,684.97c-.58-.02-7.08-.1-17.41-7.16,0,0,4.95,6.54,12.42,10.39,0,0,.18,1.27,1.04,.99,.86-.28,.84-.96,2.51-1.73,1.67-.77,2.01-2.48,1.44-2.51Z"/><path class="cls-4" d="M1065.64,698.71c-.53-.06-6.5-.57-15.41-7.76,0,0,4.01,6.35,10.56,10.4,0,0,.06,1.18,.87,.98,.82-.2,.85-.82,2.45-1.42,1.6-.59,2.06-2.15,1.53-2.21Z"/><path class="cls-4" d="M1049.72,689.56c5.04,.05,7.2,1.16,8.94,1.07,3.09-.16-.3-2.88-1.37-3.87-1.67-1.54-2.24-.77-2.89-.03-.24,.28-2.21,.65-4.66,.98,.01-.64,.02-1.12,.03-1.29v-1.21c.1-1.96,2.31-1.14-.08-2.72-2.84-1.87-3.65-1.27-3.94-.65-.29,.62,.73,4.12,.73,4.96v1.29c-3.2,.32-6.34,.5-7.2,.28-1.85-.48-2.74-1.23-2.78-.16,0,0,1.72,2.42,2.75,2.62,.92,.19,1.1-.64,6.16-1.07-.92,1.42-4.31,5.83-14.52,12.61,0,0,10.28-3.04,15.6-8.38v6.27c0,.53-.25,2.44-.41,3.41-.16,.97,.56,2.02,.99,2.2,.44,.18,2.85-2.99,3.04-3.67,.18-.68-.49-1.15-.49-2.54,.03-1.07,.07-6.49,.11-10.08Z"/><path class="cls-4" d="M1032.98,669.44c-2.01-.44-2.98-1.18-3-.11,0,0,1.91,2.39,3.02,2.58,.8,.14,3.44-.53,7.62-1.1,.65,2.2,.99,4.23,.99,4.23,.58-1.72,.99-3.24,1.26-4.5,1.02-.11,2.11-.21,3.28-.29,2.13-.14,4.4-.16,6.62-.09-.06,2.25-.29,4.27-.29,4.27,1.08-1.53,1.91-2.96,2.55-4.18,4.63,.23,8.79,.74,10.77,1.08,3.27,.56,.24-2.86-.93-3.84-1.83-1.51-2.44-.73-3.11,.02-.2,.22-2.54,.51-5.8,.81,.53-1.22,.75-1.96,.75-1.96,0,0,2.19,.27,.98-1.47-.51-.74-3.91-3.53-5.43-2.62-1.16,.7,.11,1.71,.42,4.31,.08,.62,.11,1.31,.12,2.01-3.06,.24-6.49,.46-9.64,.64,.3-1.64,.34-2.59,.34-2.59,0,0,1.04-.61,.5-1.34-.54-.73-4.81-2.46-6.01-1.21-.92,.95,.6,1.62,1.68,4.05,.17,.4,.34,.82,.49,1.25-3.69,.17-6.56,.23-7.17,.09Z"/><path class="cls-4" d="M1050.03,676.2s.88,.19,1.39-.15c.51-.34-2.92-3.47-4.67-3.88-1.74-.41-1.19,1.71-1.5,2.25,0,0-4.08,8.09-18.24,15.38,0,0,12.5-3.11,23.01-13.6Z"/><path class="cls-4" d="M973.68,672.23c-1.7-.38-2.52-1.02-2.55-.11,0,0,1.61,2.03,2.55,2.2,.94,.16,1.01-.71,7.21-1.09v3.11c-1.82,.17-3.47,.26-4.26,.2-.13-.17-.33-.39-.66-.68-1.7-1.5-2.34-1.5-2.54-1.08-.2,.42,.49,3.15,.49,3.72v2.69c0,.36-.17,1.64-.28,2.3-.11,.66,.38,1.36,.67,1.48,.29,.12,1.92-2.02,2.05-2.48,.12-.46-.33-.78-.33-1.71,.03-1.04,.07-1.83,.11-2.54h0s0,0,0,0c.05,.02,.11,.05,.16,.06,.72,.13,.85-.45,4.59-.81v2.44c0,1.5-.24,3.69-.29,4.5-.05,.81,1.14,2.49,1.61,2.36,.47-.13,2.37-3.86,2.18-4.93-.17-.94-1.13-1.95-1.37-4.52,2.34-.11,4.02,.03,5.3,.22v3.9c0,.22-1.82-.22-2.31,0-.48,.22,1.05,.95,1.98,2.02,.94,1.07,2.28,1.04,2.55-.49,.2-1.12,.65-3.69,.88-4.99,.06,0,.11,0,.17,0,2.43-.14-.27-2.1-1.12-2.81-1.33-1.11-1.78-.54-2.27,0-.24,.26-2.63,.65-5.22,.95v-2.97c4.8-.05,6.84,.91,8.46,.81,2.82-.16-.31-2.44-1.3-3.27-1.55-1.29-2.06-.63-2.64,0-.23,.25-2.16,.6-4.52,.91v-1.78c0-.47,0-.84,.01-1.18,4.14-.14,5.83,.67,7.14,.59,2.14-.13-.24-1.85-.99-2.48-1.17-.98-1.57-.48-2,0-.19,.21-2.02,.52-4.11,.78,.03-.6,.07-.98,.1-1.5,0,0,0,0,0,0,.07-1.32,1.52-.89-.18-2.38-1.7-1.5-2.34-1.5-2.54-1.08-.2,.42,.49,3.15,.49,3.72v1.47c-1.49,.14-2.86,.23-3.67,.21,.51-.84,.65-1.43,.65-1.43,.7-.05,1.31-.85,.91-1.31-.4-.46-4.2-1.88-4.16-1.09,.21,4.15-1.69,7.67-1.69,7.67,1.49-.79,2.53-1.68,3.27-2.5,.15,.1,.3,.17,.42,.2,.64,.11,.76-.42,4.25-.74v3.09c-3.13,.35-6.37,.57-7.21,.38Z"/><path class="cls-4" d="M1003.4,686.99c-1.7-1.83-2.25-.89-2.88,.01-.26,.38-4.59,.93-9.7,1.42,.66-.58,1.05-1.13,.61-1.33-3.61-1.64-6.17-1.07-6.17-1.07,1.28,1.24,1.77,2.14,1.97,2.71-6.2,.51-12.42,.85-13.33,.58-1.86-.54-2.75-1.44-2.78-.14,0,0,1.77,2.89,2.8,3.12,.89,.2,4.27-1.02,9.65-1.72-3.31,6.52-12.45,10.73-12.45,10.73,3.6-.98,6.56-2.36,8.95-3.78v4.04c0,.36-.23,1.64-.38,2.3-.15,.66,1.08,1.54,1.49,1.66,.05,.02,.14-.02,.25-.08,.85-.37,2.29-2.41,5.11-3.95,3.11-1.7,6.03-2.87,6.03-2.87-4.59,.15-7.45,1.04-9.05,1.76,.03-1.35,.07-3.92,.1-5.31,2.57-2.04,3.88-3.75,4.03-3.99,.27-.44,1-.6,1.05-.93,.12,0,.25,0,.37,0,.32,1.17,2.8,9.49,10.76,14.3,0,0,.21,1.36,.98,1.1,.76-.27,1.7-.95,3.17-1.71,1.47-.76,1.91-1.79,1.39-1.84-.36-.03-4.95-1.26-9.88-5.13,1.79-.58,3.93-2.3,3.93-2.3,.7,0,2.71-.3,.32-1.87-2.27-1.49-2.28,.19-2.42,.67-.38,1.31-1.63,2.31-2.54,2.91-1.93-1.61-3.89-3.62-5.64-6.14,6.1-.09,12.56,.89,15.12,1.47,3.03,.68,.22-3.47-.87-4.64Z"/><path class="cls-4" d="M996.4,667.9c-1.7-1.5-2.34-1.5-2.54-1.08-.2,.42,.49,3.15,.49,3.72v5.82c0,.36-.17,1.64-.28,2.3-.11,.66,.38,1.36,.67,1.48,.29,.12,1.92-2.02,2.05-2.48,.12-.46-.33-.78-.33-1.71,.03-1.04,.07-4.96,.11-5.67,0,0,0,0,0,0,.07-1.32,1.52-.89-.18-2.38Z"/><path class="cls-4" d="M998.89,680.64c0,.13-.02,.37-.05,.65-.47-.05-1.06-.09-1.79-.08-2.09,.02-1.72,.24,0,1.31,1.72,1.07,1.23,3.41,2.38,3.41,.41,.17,2.7-2.82,2.87-3.47,.17-.64-.46-1.09-.47-2.4,.04-1.46,.1-11.13,.16-12.12,0,0,0,0,0,0,.1-1.85,2.13-1.24-.25-3.34-2.38-2.1-3.28-2.1-3.55-1.51-.28,.59,.69,4.42,.69,5.21v12.33Z"/><path class="cls-4" d="M947.63,699.4c-.47-.02-6.76-1.54-13.08-5.04,4.62-4.13,6.37-8.14,6.89-9.62,.02,0,.04,0,.07,0,2.94-.16-.32-2.36-1.36-3.16-1.61-1.25-2.15-.61-2.75,0-.27,.28-2.74,.69-5.52,1.02v-7.96c0-.96,.01-1.78,.03-2.51,3.31-.12,5.69,.09,7.51,.35,.01,0,.03,0,.04,0-.33,1.96-.91,3.42-1.47,4.47-.04,.09-.09,.17-.14,.26-.09,.16-.17,.3-.26,.44-.05,.07-.09,.15-.14,.22-.13,.2-.25,.37-.36,.52,0,0,0,0,0,0-.28,.37-.48,.57-.48,.57,0,0,5-2.08,6.75-3.79,.89-.87,1.5-1.66,1.75-2.35,.24-.67,.13-1.25-.43-1.74,0,0,0,0-.01-.01-.73-.71-1.75-1.43-2.29-1.85-1.95-1.51-2.6-.74-3.33,0-.33,.34-3.51,.83-7.08,1.23,.03-.63,.06-1.16,.08-1.59,0,0,0,0,0,0,.08-1.59,1.85-1.69-.22-3.5-2.07-1.81-2.84-1.81-3.08-1.3-.24,.51,.6,4.43,.6,5.11v1.55c-3.49,.32-6.79,.5-7.73,.3-.04,0-.08-.02-.12-.03,.02-.25,.05-.43,.08-.49,.2-.43,.39-1.54-.79-1.87-1.18-.33-4.07-1.76-4.55-.79-.42,.86,.39,1.78,.39,3.01v15.36c0,10.96-5.42,17.21-5.42,17.21,9.67-6.85,10.06-14.76,10.07-20.35,.37,.41,1.71,1.87,2.56,2.01,.98,.16,1.04-.69,7.59-1.06,2.08-.12,3.66-.08,4.91,.03-1.37,3.08-3.24,5.8-5.28,8.16-2.8-1.93-5.39-4.3-7.22-7.13,0,0,.94,4.32,5.27,9.23-5.97,6.01-12.53,9.11-12.53,9.11,6.49-1.71,11.34-4.12,14.95-6.67,2.31,2.1,5.27,4.19,9.1,6.01,0,0,.24,1.71,1.4,1.33,1.16-.37,1.14-1.29,3.39-2.32,2.25-1.03,2.98-2.35,2.2-2.38Zm-18.27-16.54c-2.49,.23-4.78,.35-5.51,.2-1.46-.31-2.29-.76-2.55-.42,0-.28,0-.56,0-.83,0-3.2,.03-6.29,.1-8.43,.08,.03,.16,.07,.24,.08,1.11,.18,1.25-.71,7.73-1.19v10.59Z"/><path class="cls-4" d="M874.73,686.8c6.5-.12,6,.99,7.5,.48,1.58-.55,.14-1.54-1.45-2.47-.19-.11-.37-.2-.54-.26,.02-.02,.04-.04,.06-.06,2.33-2.4,3.51-7.39,3.51-7.39,1.45-.51,.48-1.41-1.34-2.66-1.82-1.25-2.55-.54-2.9-.2-.32,.31-.63,.86-4.84,1.21v-2.11c0-.77,0-1.44,.02-2.05,6.07-.3,8.43,.95,10.27,.84,2.93-.18-.32-2.65-1.35-3.55-1.6-1.4-2.14-.69-2.74,0-.28,.32-3.07,.8-6.13,1.18,.03-.72,.07-1.31,.1-1.79,0,0,0,0,0,0,.08-1.48,1.85-1.57-.22-3.25-2.06-1.68-2.84-1.68-3.08-1.21-.24,.47,.6,4.11,.6,4.75v1.78c-2.57,.25-4.88,.37-5.58,.21-1.32-.31-2.12-.77-2.46-.58,.2-.48,.29-.81,.26-.95-.13-.49-1.58-2.17-3.62-2.63s-1.29,.86-1.77,1.13c-.39,.22-2.5,.75-3.62,.95-.63-.84-3.13-2.44-3.35-2-.38,.76,.33,2.82,.33,3.98v27.36c0,1.57-.27,3.85-.33,4.7-.05,.85,1.29,2.6,1.82,2.46s2.68-4.03,2.47-5.15c-.21-1.12-1.14-2.33-1.14-5.95v-6.28c.29,.27,.19,.61,.67,1.04,1.93,1.73,.86,7.88,4.51,7.1,5.77-1.23,3-6.23,1.57-10.75-1.02-3.23-3.4-5.78-4.33-6.68,.81-.6,1.71-1.38,2.64-2.44,1.79-2.04,3.09-4.18,3.73-5.53,0,.03-.01,.05-.01,.08,0,0,1.67,2.21,2.64,2.39,.86,.16,1.02-.57,5.58-1.03v4.13c-3.07,.17-4.2,.16-5.04,.14-.81-.83-2.4-1.78-2.57-1.17-.22,.82,.58,2.4,.68,3.37,.1,.96,.4,3.85,.52,4.97,.12,1.12,.21,2.56,.12,3.8-.02,.31,.09,.64,.28,.92l-.08,.08s.02-.02,.1-.05c.29,.42,.73,.73,1.11,.67,.38-.06,.71-.53,.98-1.09,.9-.11,.63-.18,2.4-.28-.79,1.66-3.91,8.99-12,15.38,0,0,10.29-4.99,13.5-10.91v5.55c0,1.68-.29,4.13-.35,5.05-.06,.91,1.38,2.79,1.96,2.64,.58-.14,2.88-4.33,2.65-5.53-.23-1.2-1.73-2.5-1.73-6.39v-5.96Zm0-10.16c3.29-.13,5.19-.19,5.19-.19,.32,1.54,.33,2.96,.21,4.2-.31-.33-.67-.64-1.09-.88-1.34-.77-1.58-.18-1.91,.16-.15,.15-1.11,.33-2.4,.49v-3.78Zm0,5.36c1.34,.04,2.7,.21,3.84,.58,.48,.16,.87,.24,1.2,.27-.16,.67-.34,1.22-.47,1.57-.55,.08-.82,.43-.82,.43,0,0-.18,.29-3.47,.76-.1,.01-.19,.02-.29,.03v-3.63Zm-16.53-7.57c-1.42,2.82-3.23,4.92-2.99,5.04,.13,.06,.42-.18,1.5-.84,5.11,8,1.77,9.73,.57,9.64-.71-.05-1.3-.69-2.07-1.22v-11.57c0-3.91,.25-5.48,.21-6.33l3.87-.2s.33,2.66-1.09,5.48Zm14.01,11.42c-1.78,.11-2.49,.13-3.45,.13,.08-.32,.11-.57,.09-.69-.07-.44-.81-.69-.88-1.32-.02-.17-.06-.56-.11-1.07,.31,.04,.63,0,.94-.17,.55-.28,1.86-.54,3.41-.67v3.78Zm0-5.19c-1.07,.08-2.17,.13-3.19,.14-.57,0-1-.05-1.39-.12-.1-.97-.2-1.95-.27-2.61-.04-.39-.02-.64,.02-.83,1.1-.21,2.46-.37,4.83-.49v3.91Z"/><path class="cls-4" d="M889.81,697.38c-.67-.18-7.12-1.3-14.12-9.49,0,0,2,7.07,7.04,12.63,0,0-.19,1.59,.91,1.48,1.1-.11,1.87-1.76,4.07-2.25,2.2-.49,2.77-2.18,2.1-2.36Z"/><path class="cls-4" d="M938.05,308.26c0,2.03-.35,4.99-.42,6.1-.07,1.1,1.67,3.37,2.37,3.19,.7-.17,3.48-5.23,3.2-6.68-.28-1.45-1.48-3.02-1.48-7.72v-8.14c.37,.35,.25,.79,.88,1.35,2.5,2.25,1.11,10.22,5.84,9.21,7.49-1.59,3.9-8.09,2.04-13.94-1.33-4.19-4.42-7.49-5.62-8.67,1.05-.77,2.22-1.79,3.42-3.16,2.32-2.65,4.01-5.43,4.84-7.17,0,.04-.02,.06-.02,.11,0,0,2.16,2.86,3.43,3.1,1.12,.21,1.33-.74,7.24-1.34v5.35c-3.98,.22-5.45,.2-6.54,.18-1.05-1.08-3.12-2.3-3.33-1.52-.29,1.07,.75,3.12,.88,4.37,.13,1.25,.52,4.99,.67,6.44,.15,1.45,.28,3.32,.16,4.93-.03,.4,.12,.83,.36,1.2l-.1,.11s.03-.03,.13-.07c.37,.55,.95,.95,1.44,.88,.49-.07,.93-.69,1.27-1.41,1.17-.14,.81-.24,3.12-.36-1.02,2.15-5.08,11.65-15.56,19.95,0,0,13.35-6.48,17.51-14.16v7.2c0,2.18-.38,5.36-.45,6.55-.07,1.18,1.79,3.62,2.54,3.43,.75-.19,3.73-5.61,3.43-7.17-.3-1.56-2.24-3.24-2.24-8.29v-7.73c8.43-.15,7.79,1.29,9.72,.62,2.05-.71,.18-1.99-1.88-3.2-.25-.15-.48-.25-.7-.33,.03-.03,.05-.05,.08-.08,3.03-3.11,4.56-9.59,4.56-9.59,1.88-.67,.63-1.83-1.74-3.46-2.37-1.63-3.3-.7-3.76-.26-.42,.4-.82,1.12-6.28,1.57v-2.73c0-.99,.01-1.87,.03-2.65,7.87-.39,10.93,1.23,13.32,1.08,3.8-.23-.42-3.44-1.75-4.61-2.08-1.82-2.78-.89-3.55,0-.36,.42-3.98,1.04-7.95,1.53,.04-.94,.09-1.7,.13-2.32,0,0,0,0,0,0,.11-1.92,2.4-2.03-.28-4.21-2.68-2.18-3.69-2.18-4-1.57s.78,5.33,.78,6.16v2.31c-3.33,.32-6.33,.48-7.24,.27-1.71-.4-2.76-1-3.19-.75,.26-.62,.38-1.06,.34-1.23-.17-.64-2.05-2.82-4.7-3.41-2.64-.59-1.67,1.11-2.3,1.46-.5,.28-3.24,.97-4.7,1.23-.82-1.09-4.06-3.17-4.34-2.6-.49,.99,.42,3.66,.42,5.17v35.48Zm25.71-15.13c-2.31,.14-3.23,.17-4.48,.17,.1-.41,.14-.74,.12-.89-.09-.57-1.05-.89-1.14-1.71-.02-.22-.08-.73-.14-1.39,.4,.06,.81-.01,1.22-.21,.72-.36,2.41-.7,4.42-.86v4.9Zm0-6.73c-1.38,.1-2.82,.17-4.14,.18-.74,0-1.3-.06-1.8-.15-.13-1.26-.26-2.53-.35-3.38-.05-.5-.03-.83,.03-1.08,1.43-.27,3.18-.48,6.26-.64v5.07Zm3.28-5.21c4.27-.17,6.73-.25,6.73-.25,.41,1.99,.43,3.84,.28,5.45-.4-.42-.87-.83-1.42-1.14-1.74-1-2.05-.24-2.48,.21-.19,.2-1.44,.43-3.12,.63v-4.9Zm0,6.96c1.74,.06,3.5,.27,4.98,.75,.63,.21,1.13,.31,1.56,.35-.21,.87-.44,1.58-.61,2.03-.72,.1-1.06,.55-1.06,.55,0,0-.23,.38-4.49,.98-.12,.02-.25,.03-.37,.04v-4.71Zm-25.32-3.29v-5.17c0-5.08,.32-7.11,.27-8.22l5.02-.26s.43,3.46-1.42,7.11c-1.84,3.66-4.19,6.39-3.88,6.53,.16,.08,.55-.23,1.95-1.09,6.63,10.38,2.29,12.62,.74,12.51-.92-.07-1.68-.9-2.68-1.58v-9.84Z"/><path class="cls-4" d="M968.29,295.78s2.59,9.18,9.13,16.38c0,0-.24,2.06,1.18,1.92,1.43-.15,2.42-2.28,5.27-2.92,2.85-.64,3.59-2.83,2.72-3.06-.87-.23-9.24-1.68-18.31-12.31Z"/></g></g><g><text class="cls-6" transform="translate(920.04 858.72)"><tspan x="0" y="0">抹綠色</tspan></text><rect class="cls-5" x="910.99" y="825.3" width="97.59" height="47.08" rx="10.13" ry="10.13"/></g></g><g><g><path class="cls-3" d="M1443.16,483.42l-58.93-97.41v33.76l55.58,67.24c1.05-1.25,2.17-2.45,3.35-3.59Z"/><path class="cls-3" d="M1432.7,498.2l-48.46-44.32v14.06l47.22,33.22c.39-1,.79-1.99,1.24-2.96Z"/><path class="cls-3" d="M1437.07,490.61l-52.83-63.92v21.2l50.58,46.26c.7-1.21,1.45-2.39,2.25-3.54Z"/><path class="cls-3" d="M1429.99,505.53l-45.75-32.19v9.6l45.22,24.66c.17-.7,.33-1.39,.53-2.08Z"/><path class="cls-3" d="M1445.66,329.59c-11.06-9.42-17.55-23.28-17.55-37.88,0-13.35,5.3-25.49,13.89-34.43l-2.01-16.66c-11.67,5.18-22.09,12.68-30.67,21.91l22.36,86.5c2.99-7.44,7.76-14.14,13.98-19.43Z"/><path class="cls-3" d="M1475.66,242v-9.37c-11.05,.26-21.64,2.43-31.43,6.22l1.77,14.68c8.11-6.78,18.41-11.03,29.67-11.53Z"/><path class="cls-3" d="M1428.11,443.24c0-5.02,.78-9.95,2.24-14.64l-45.81-109.55c-.18,2.37-.3,4.75-.3,7.17v51.26l44.5,73.56c-.41-2.56-.63-5.17-.63-7.8Z"/><path class="cls-3" d="M1527.63,519c0,27.44-22.32,49.76-49.76,49.76s-49.76-22.32-49.76-49.76c0-2.3,.18-4.58,.49-6.83l-44.37-24.19v26.35c0,51.63,42,93.63,93.63,93.63s93.63-42,93.63-93.63v-26.35l-44.37,24.19c.32,2.25,.49,4.53,.49,6.83Z"/><path class="cls-3" d="M1442.46,408.36l-2.15-8.33c-7.77-8.96-12.2-20.5-12.2-32.56,0-3.51,.38-6.98,1.11-10.35l-23.42-90.61c-10.22,12.31-17.32,27.28-20.16,43.7l47,112.39c2.41-5.26,5.73-10.08,9.83-14.24Z"/><path class="cls-3" d="M1510.08,329.59c6.22,5.29,10.99,11.99,13.98,19.43l22.36-86.5c-8.58-9.23-19-16.72-30.67-21.91l-2.01,16.66c8.59,8.95,13.89,21.08,13.89,34.43,0,14.6-6.49,28.47-17.55,37.88Z"/><path class="cls-3" d="M1527.63,367.47c0,12.06-4.43,23.6-12.2,32.56l-2.15,8.33c4.1,4.16,7.42,8.99,9.83,14.24l47-112.39c-2.84-16.41-9.94-31.38-20.16-43.7l-23.42,90.61c.72,3.37,1.11,6.84,1.11,10.35Z"/><path class="cls-3" d="M1477.87,214.25c-61.74,0-111.97,50.23-111.97,111.97v188.11c0,61.74,50.23,111.97,111.97,111.97s111.97-50.23,111.97-111.97v-188.11c0-61.74-50.23-111.97-111.97-111.97Zm100.26,300.08c0,55.28-44.98,100.26-100.26,100.26s-100.26-44.98-100.26-100.26v-188.11c0-55.28,44.98-100.26,100.26-100.26s100.26,44.98,100.26,100.26v188.11Z"/><path class="cls-3" d="M1511.51,238.86c-9.8-3.79-20.38-5.96-31.43-6.22v9.37c11.26,.49,21.55,4.74,29.67,11.53l1.77-14.68Z"/><path class="cls-3" d="M1434.73,291.71c0,13.93,6.82,27.08,18.24,35.18l3.81,2.7-3.81,2.7c-11.42,8.1-18.24,21.25-18.24,35.18s6.82,27.08,18.24,35.18l3.81,2.7-3.81,2.7c-11.42,8.1-18.24,21.25-18.24,35.18s6.82,27.08,18.24,35.18l3.81,2.7-3.81,2.7c-11.42,8.1-18.24,21.25-18.24,35.18,0,23.79,19.35,43.14,43.14,43.14s43.14-19.35,43.14-43.14c0-13.93-6.82-27.08-18.24-35.18l-3.81-2.7,3.81-2.7c11.42-8.1,18.24-21.25,18.24-35.18s-6.82-27.08-18.24-35.18l-3.81-2.7,3.81-2.7c11.42-8.1,18.24-21.25,18.24-35.18s-6.82-27.08-18.24-35.18l-3.81-2.7,3.81-2.7c11.42-8.1,18.24-21.25,18.24-35.18,0-23.79-19.35-43.14-43.14-43.14s-43.14,19.35-43.14,43.14Z"/><path class="cls-3" d="M1515.93,487.01l55.58-67.24v-33.76l-58.93,97.41c1.18,1.15,2.3,2.34,3.35,3.59Z"/><path class="cls-3" d="M1524.29,501.16l47.22-33.22v-14.06l-48.46,44.32c.45,.97,.86,1.96,1.24,2.96Z"/><path class="cls-3" d="M1520.92,494.15l50.58-46.26v-21.2l-52.83,63.92c.8,1.15,1.55,2.33,2.25,3.54Z"/><path class="cls-3" d="M1526.28,507.6l45.22-24.66v-9.6l-45.75,32.19c.19,.69,.36,1.38,.53,2.08Z"/><path class="cls-3" d="M1527.63,443.24c0,2.63-.22,5.24-.63,7.8l44.5-73.56v-51.26c0-2.41-.12-4.8-.3-7.17l-45.81,109.55c1.46,4.69,2.24,9.62,2.24,14.64Z"/><g><path class="cls-1" d="M1477.87,207.62c-65.39,0-118.59,53.2-118.59,118.59v188.11c0,65.39,53.2,118.59,118.59,118.59s118.59-53.2,118.59-118.59v-188.11c0-65.39-53.2-118.59-118.59-118.59Zm111.97,306.7c0,61.74-50.23,111.97-111.97,111.97s-111.97-50.23-111.97-111.97v-188.11c0-61.74,50.23-111.97,111.97-111.97s111.97,50.23,111.97,111.97v188.11Z"/><path class="cls-1" d="M1477.87,225.96c-55.28,0-100.26,44.98-100.26,100.26v188.11c0,55.28,44.98,100.26,100.26,100.26s100.26-44.98,100.26-100.26v-188.11c0-55.28-44.98-100.26-100.26-100.26Zm37.88,14.66c11.67,5.18,22.09,12.68,30.67,21.91l-22.36,86.5c-2.99-7.44-7.76-14.14-13.98-19.43,11.06-9.42,17.55-23.28,17.55-37.88,0-13.35-5.3-25.49-13.89-34.43l2.01-16.66Zm-35.67-7.98c11.05,.26,21.64,2.43,31.43,6.22l-1.77,14.68c-8.11-6.78-18.41-11.03-29.67-11.53v-9.37Zm40.93,59.07c0,13.93-6.82,27.08-18.24,35.18l-3.81,2.7,3.81,2.7c11.42,8.1,18.24,21.25,18.24,35.18s-6.82,27.08-18.24,35.18l-3.81,2.7,3.81,2.7c11.42,8.1,18.24,21.25,18.24,35.18s-6.82,27.08-18.24,35.18l-3.81,2.7,3.81,2.7c11.42,8.1,18.24,21.25,18.24,35.18,0,23.79-19.35,43.14-43.14,43.14s-43.14-19.35-43.14-43.14c0-13.93,6.82-27.08,18.24-35.18l3.81-2.7-3.81-2.7c-11.42-8.1-18.24-21.25-18.24-35.18s6.82-27.08,18.24-35.18l3.81-2.7-3.81-2.7c-11.42-8.1-18.24-21.25-18.24-35.18s6.82-27.08,18.24-35.18l3.81-2.7-3.81-2.7c-11.42-8.1-18.24-21.25-18.24-35.18,0-23.79,19.35-43.14,43.14-43.14s43.14,19.35,43.14,43.14Zm-45.34-59.07v9.37c-11.26,.49-21.55,4.74-29.67,11.53l-1.77-14.68c9.8-3.79,20.38-5.96,31.43-6.22Zm-35.67,7.98l2.01,16.66c-8.59,8.95-13.89,21.08-13.89,34.43,0,14.6,6.49,28.47,17.55,37.88-6.22,5.29-10.99,11.99-13.98,19.43l-22.36-86.5c8.58-9.23,19-16.73,30.67-21.91Zm-34.2,25.9l23.42,90.61c-.72,3.37-1.11,6.84-1.11,10.35,0,12.06,4.43,23.6,12.2,32.56l2.15,8.33c-4.1,4.16-7.43,8.99-9.83,14.24l-47-112.39c2.84-16.41,9.94-31.38,20.16-43.7Zm-21.56,59.7c0-2.41,.12-4.8,.3-7.17l45.81,109.55c-1.46,4.69-2.24,9.62-2.24,14.64,0,2.63,.22,5.24,.63,7.8l-44.5-73.56v-51.26Zm0,59.79l58.93,97.41c-1.18,1.15-2.3,2.34-3.35,3.59l-55.58-67.24v-33.76Zm0,40.69l52.83,63.92c-.8,1.15-1.55,2.33-2.25,3.54l-50.58-46.26v-21.2Zm0,27.18l48.46,44.32c-.45,.97-.86,1.96-1.24,2.96l-47.22-33.22v-14.06Zm0,19.46l45.75,32.19c-.19,.69-.36,1.38-.53,2.08l-45.22-24.66v-9.6Zm187.27,40.98c0,51.63-42,93.63-93.63,93.63s-93.63-42-93.63-93.63v-26.35l44.37,24.19c-.32,2.25-.49,4.53-.49,6.83,0,27.44,22.32,49.76,49.76,49.76s49.76-22.32,49.76-49.76c0-2.3-.18-4.58-.49-6.83l44.37-24.19v26.35Zm0-31.38l-45.22,24.66c-.16-.7-.33-1.39-.53-2.08l45.75-32.19v9.6Zm0-15l-47.22,33.22c-.39-1-.79-1.99-1.24-2.96l48.46-44.32v14.06Zm0-20.05l-50.58,46.26c-.7-1.21-1.45-2.39-2.25-3.54l52.83-63.92v21.2Zm0-28.13l-55.58,67.24c-1.05-1.25-2.17-2.45-3.35-3.59l58.93-97.41v33.76Zm0-93.55v51.26l-44.5,73.56c.41-2.56,.63-5.17,.63-7.8,0-5.02-.78-9.95-2.24-14.64l45.81-109.55c.18,2.37,.3,4.75,.3,7.17Zm-1.4-16l-47,112.39c-2.41-5.25-5.73-10.08-9.83-14.24l2.15-8.33c7.77-8.96,12.2-20.5,12.2-32.56,0-3.51-.38-6.98-1.11-10.35l23.42-90.61c10.22,12.31,17.32,27.28,20.16,43.7Z"/><path class="cls-1" d="M1400.34,531.94l-.22-.02c-3.26-.2-6.33-2.53-6.71-5.08-.25-1.74,.24-3.28,1.43-4.46,1.21-1.2,3.13-2.02,5.55-2.38,1.44-.21,2.77-.27,3.94-.17,2.75,.25,4.75,1.88,5.08,4.14,.44,3.04-1.51,5.83-4.98,7.11l-.21,.08,.27,1.86,7.55-1.36-.26-1.75-.22-.02c-.61-.06-1.04-.11-1.43-.22,1.22-1.81,1.65-3.78,1.33-6-.42-2.86-1.84-5.33-4-6.93s-4.92-2.26-7.79-1.85c-2.75,.4-5.15,1.79-6.75,3.91-1.6,2.12-2.27,4.78-1.88,7.5,.37,2.5,1.4,4.22,3.44,5.71-.47,.42-.96,.7-1.69,.98l-.2,.08,.27,1.82,7.75-1.13-.26-1.82Z"/><path class="cls-1" d="M1407.71,559.41l10.76-5.59c1.38-.72,2.01-.46,2.84,1.13l.18,.35,1.66-.86-4.64-8.92-1.41,.73-.22,.18,.13,.25c.87,1.68,.73,2.3-.68,3.03l-3.97,2.06-3.87-7.45,3.97-2.06c1.41-.74,2-.48,2.88,1.21l.16,.33,1.66-.86-4.66-8.98-1.41,.73-.22,.18,.13,.25c.87,1.68,.73,2.3-.68,3.03l-10.76,5.59c-.71,.38-1.21,.47-1.61,.31-.42-.17-.8-.63-1.29-1.56l-.13-.24-1.65,.86,4.66,8.98,1.65-.86-.16-.32c-.46-.88-.61-1.46-.51-1.91,.1-.42,.46-.78,1.18-1.15l4.9-2.55,3.87,7.45-4.9,2.55c-.72,.38-1.21,.47-1.61,.31-.42-.17-.8-.63-1.29-1.56l-.13-.24-1.65,.86,4.64,8.92,1.66-.86-.18-.35c-.83-1.6-.67-2.26,.7-2.98Z"/><path class="cls-1" d="M1426,575.4c-.73,.58-1.05,.73-1.69,1.03-.63,.28-1.32,.42-2.04,.42-.97-.03-1.66-.39-2.67-1.39l-1.12-1.11c-.77-.76-1.12-1.27-1.17-1.69-.04-.41,.19-.83,.8-1.44l3.68-3.73,1.19,1.18c1.34,1.32,1.35,1.7,.07,3.1l-.18,.2,1.32,1.3,4.89-4.96-1.33-1.32-.19,.17c-1.43,1.29-1.78,1.28-3.11-.03l-1.17-1.16,4.41-4.47,2.36,2.33c1.45,1.43,1.7,1.95,1.67,2.71-.03,.72-.32,1.51-.94,2.56l-.11,.19,1.27,1.26,3.7-4.17-11.75-11.6-1.31,1.33,.3,.3c1.33,1.31,1.39,1.98,.29,3.09l-8.52,8.63c-1.11,1.13-1.75,1.08-3.09-.25l-.3-.3-1.31,1.33,12.63,12.47,4.97-4.81-1.35-1.33-.19,.15Z"/><path class="cls-1" d="M1448.71,576.23l.35,.18c1.73,.89,1.86,1.4,.89,3.37l-3.5,7.11-3.66-15.73-.03-.12-5.35-2.78-.84,1.63,.2,.14c1.68,1.13,1.87,1.56,.48,4.38l-4.4,8.81-.12,.23c-.91,1.76-1.4,1.92-3.06,1.06l-.42-.22-.86,1.65,6.86,3.55,.86-1.66-.5-.26c-1.73-.89-1.85-1.4-.86-3.39l4.4-8.85,4.25,18.46,.03,.12,1.53,.79,6.93-13.95,.13-.26c.89-1.71,1.38-1.87,3.03-1l.53,.27,.86-1.65-6.86-3.55-.86,1.66Z"/><path class="cls-1" d="M1492.35,580.06c-1.76-.5-3.18-.53-6.35-.12-.64,.08-1.36,.2-2.18,.33l-6.08,.91,.24,1.87,.42-.05c.96-.12,1.56-.07,1.92,.17,.35,.23,.56,.7,.66,1.51l1.55,12.08c.2,1.56-.25,2.05-2.07,2.28l-.42,.05,.24,1.85,10.17-1.3-.24-1.85-.48,.06c-1.83,.24-2.38-.13-2.58-1.68l-.61-4.73,.97-.13c2.61-.33,4.29-.79,5.8-1.58,2.05-1.09,3.04-3.11,2.73-5.52-.25-1.96-1.67-3.55-3.7-4.16Zm-2.22,8.31c-.63,.42-1.4,.65-2.82,.83l-1.03,.13-.92-7.18c.15-.02,.26-.04,.36-.06,.1-.02,.19-.03,.28-.05,3.35-.43,4.87,.47,5.21,3.11,.18,1.43-.21,2.6-1.08,3.21Z"/><path class="cls-1" d="M1511.98,591.75c-.92,.34-1.52,.42-1.94,.26-.4-.15-.7-.56-.98-1.32l-4.19-11.38c-.55-1.49-.23-2.04,1.54-2.7l.45-.16-.64-1.75-9.71,3.57,.64,1.75,.45-.16c.92-.34,1.51-.42,1.93-.27,.4,.15,.71,.55,.99,1.32l4.19,11.38c.54,1.47,.21,2.05-1.54,2.7l-.45,.17,.64,1.75,9.71-3.58-.64-1.75-.45,.17Z"/><path class="cls-1" d="M1529.34,566.65l1.19-1.49-.2-.17c-.94-.83-1.34-1.35-1.57-2.09-.3-.99-.04-1.73,1.12-3.18l1.12-1.4,10.83,8.65c.6,.48,.88,.87,.93,1.27,.05,.47-.21,1.03-.85,1.83l-.28,.35,1.46,1.16,6.4-8.01-1.45-1.16-.27,.33c-.61,.77-1.08,1.15-1.52,1.23-.43,.08-.89-.11-1.52-.62l-10.83-8.65,1.36-1.7c.97-1.21,1.65-1.54,2.79-1.34,.75,.14,1.41,.42,2.2,.95l.21,.14,1.17-1.46-4.71-3.76-12.28,15.37,4.71,3.76Z"/><path class="cls-1" d="M1539.17,546.94c.7-1.73,1.29-2.04,2.74-1.46l11.25,4.51c1.47,.59,1.67,1.2,.97,2.95l-.16,.39,1.73,.69,6.5-16.22,.1-.25-6.35-2.72-.71,1.76,.21,.12c.8,.44,1.07,.68,1.6,1.16,.5,.48,.9,1.06,1.18,1.72,.35,.9,.28,1.69-.24,3l-.58,1.46c-.8,2-1.3,2.13-2.74,1.55l-4.86-1.95,.63-1.55c.7-1.74,1.04-1.9,2.83-1.27l.25,.09,.69-1.72-6.47-2.59-.7,1.74,.24,.11c1.74,.81,1.87,1.13,1.17,2.87l-.61,1.53-5.82-2.34,1.23-3.07c.77-1.91,1.13-2.32,1.85-2.59,.68-.25,1.52-.29,2.72-.13l.21,.03,.66-1.66-5.27-1.8-6.04,15.07-.1,.26,1.73,.69,.16-.39Z"/><path class="cls-1" d="M1561.18,528.26c.81,.62,1.16,1.27,1.08,2.06l-.05,.48,1.86,.17,.66-7.17-1.85-.17-.05,.51c-.16,1.71-.97,1.62-1.22,1.6-.08,0-.31-.06-.94-.34l-1.44-.7,.54-5.83,2.17-.64c.24-.08,.54-.1,.75-.09,.24,.02,.33,.1,.38,.17,.18,.21,.23,.7,.15,1.51l-.06,.6,1.86,.17,.88-9.6-1.86-.17-.04,.45c-.12,1.29-.42,1.65-3.39,2.5l-15.68,4.54-.16,1.68,14.17,6.96c1.09,.54,1.59,.83,2.23,1.32Zm-3.82-4.47l-5.46-2.68,5.86-1.69-.4,4.36Z"/><path class="cls-1" d="M1479.97,512.14s6.88,9.09,17.27,14.45c0,0,.25,1.77,1.44,1.38,1.2-.39,1.17-1.33,3.49-2.4,2.32-1.07,2.8-3.45,2-3.48-.8-.03-9.84-.14-24.19-9.95Z"/><path class="cls-1" d="M1502.13,541.18c-.73-.08-9.03-.79-21.42-10.78,0,0,5.57,8.82,14.68,14.45,0,0,.08,1.64,1.21,1.37,1.13-.28,1.19-1.15,3.4-1.97,2.22-.82,2.86-2.98,2.13-3.07Z"/><path class="cls-1" d="M1480.01,528.47c7,.07,10,1.61,12.42,1.48,4.29-.22-.41-4-1.9-5.38-2.32-2.14-3.12-1.07-4.01-.05-.34,.39-3.07,.9-6.48,1.36,.01-.89,.03-1.55,.04-1.8,0,0,0-1.68,0-1.68,.14-2.72,3.21-1.58-.12-3.78-3.95-2.6-5.07-1.76-5.48-.9-.41,.86,1.01,5.73,1.01,6.89v1.79c-4.45,.45-8.82,.69-10,.39-2.57-.66-3.8-1.71-3.87-.23,0,0,2.39,3.36,3.82,3.65,1.28,.26,1.53-.88,8.55-1.49-1.28,1.98-6,8.11-20.18,17.52,0,0,14.28-4.22,21.68-11.64v8.72c0,.73-.35,3.38-.57,4.74-.22,1.35,.77,2.8,1.38,3.05,.61,.25,3.96-4.15,4.22-5.1,.25-.95-.68-1.6-.69-3.53,.04-1.48,.1-9.02,.16-14Z"/><path class="cls-1" d="M1496.73,497.8c-.27,.3-3.53,.71-8.07,1.12,.73-1.69,1.04-2.72,1.04-2.72,0,0,3.04,.38,1.36-2.05-.71-1.03-5.43-4.91-7.55-3.64-1.62,.97,.15,2.37,.59,5.99,.1,.86,.15,1.82,.17,2.8-4.25,.33-9.02,.65-13.4,.88,.41-2.27,.48-3.6,.48-3.6,0,0,1.44-.85,.7-1.86-.74-1.01-6.68-3.42-8.35-1.69-1.27,1.32,.84,2.25,2.33,5.63,.24,.55,.47,1.13,.68,1.73-5.13,.24-9.11,.32-9.96,.13-2.79-.62-4.13-1.64-4.18-.16,0,0,2.65,3.32,4.2,3.58,1.11,.19,4.79-.74,10.59-1.53,.9,3.05,1.38,5.88,1.38,5.88,.81-2.39,1.37-4.5,1.76-6.26,1.42-.15,2.93-.29,4.55-.4,2.96-.2,6.11-.22,9.2-.13-.09,3.13-.41,5.94-.41,5.94,1.5-2.13,2.66-4.12,3.54-5.82,6.43,.32,12.21,1.03,14.97,1.5,4.55,.78,.34-3.98-1.3-5.33-2.55-2.1-3.39-1.02-4.32,.02Z"/><path class="cls-1" d="M1482.38,509.69c.71-.47-4.06-4.83-6.48-5.4-2.42-.57-1.66,2.38-2.09,3.13,0,0-5.66,11.25-25.34,21.37,0,0,17.37-4.32,31.98-18.9,0,0,1.23,.27,1.94-.2Z"/><path class="cls-1" d="M1456.83,428.53c1.3,.23,1.4-.98,10.02-1.52v4.33c-2.53,.23-4.82,.36-5.92,.28-.17-.24-.46-.54-.92-.95-2.36-2.08-3.25-2.08-3.52-1.5-.28,.58,.68,4.38,.68,5.17v3.74c0,.49-.24,2.28-.39,3.19-.15,.91,.52,1.89,.93,2.06,.41,.17,2.67-2.8,2.85-3.44,.17-.64-.46-1.08-.46-2.38,.04-1.45,.1-2.55,.16-3.53h0s0,0,0-.01c.08,.03,.16,.07,.23,.08,.99,.17,1.18-.62,6.37-1.13v3.39c0,2.09-.34,5.12-.4,6.26-.07,1.13,1.58,3.46,2.24,3.28,.66-.18,3.29-5.36,3.03-6.85-.23-1.31-1.57-2.71-1.9-6.28,3.25-.16,5.58,.05,7.36,.31v5.42c0,.3-2.53-.3-3.21,0-.67,.3,1.45,1.32,2.76,2.8,1.3,1.48,3.17,1.45,3.54-.67,.27-1.56,.9-5.13,1.22-6.94,.08,0,.16,0,.23,0,3.38-.2-.37-2.91-1.56-3.9-1.85-1.54-2.47-.75-3.16,0-.33,.36-3.66,.9-7.26,1.32v-4.13c6.67-.06,9.5,1.26,11.76,1.13,3.92-.23-.43-3.39-1.81-4.54-2.15-1.79-2.87-.88-3.67,0-.32,.35-3,.83-6.28,1.26v-2.47c0-.65,0-1.17,.01-1.64,5.76-.2,8.1,.93,9.92,.82,2.98-.17-.33-2.57-1.38-3.45-1.63-1.36-2.18-.67-2.79,0-.27,.3-2.81,.73-5.71,1.08,.04-.83,.09-1.36,.14-2.08,0,0,0,0,0,0,.1-1.83,2.11-1.23-.25-3.31-2.36-2.08-3.25-2.08-3.52-1.5-.28,.58,.68,4.38,.68,5.17v2.05c-2.06,.2-3.97,.32-5.09,.29,.71-1.17,.9-1.98,.9-1.98,.97-.07,1.83-1.18,1.27-1.82-.56-.64-5.83-2.61-5.78-1.52,.3,5.77-2.35,10.66-2.35,10.66,2.07-1.1,3.52-2.33,4.55-3.47,.21,.13,.41,.24,.59,.27,.89,.16,1.05-.58,5.91-1.02v4.29c-4.35,.48-8.85,.79-10.02,.52-2.36-.53-3.5-1.41-3.54-.15,0,0,2.23,2.82,3.54,3.05Z"/><path class="cls-1" d="M1494.13,446.16c-.36,.52-6.38,1.3-13.48,1.97,.91-.8,1.46-1.57,.85-1.84-5.02-2.28-8.57-1.48-8.57-1.48,1.78,1.73,2.46,2.98,2.74,3.77-8.62,.72-17.27,1.18-18.53,.81-2.58-.75-3.83-1.99-3.86-.2,0,0,2.46,4.02,3.89,4.34,1.24,.28,5.94-1.42,13.41-2.4-4.6,9.07-17.3,14.92-17.3,14.92,5-1.36,9.12-3.28,12.44-5.25v5.61c0,.49-.32,2.28-.52,3.19-.2,.91,1.51,2.14,2.06,2.31,.07,.02,.19-.02,.34-.11,1.17-.51,3.18-3.35,7.1-5.5,4.32-2.36,8.38-3.98,8.38-3.98-6.39,.21-10.35,1.45-12.57,2.45,.04-1.88,.09-5.45,.14-7.37,3.57-2.83,5.39-5.21,5.6-5.54,.38-.61,1.39-.83,1.46-1.29,.17,0,.34,0,.51,0,.44,1.63,3.88,13.18,14.95,19.87,0,0,.3,1.9,1.36,1.52,1.06-.37,2.36-1.32,4.41-2.38s2.66-2.49,1.94-2.55c-.5-.04-6.88-1.75-13.74-7.13,2.49-.8,5.46-3.19,5.46-3.19,.98,0,3.76-.42,.44-2.6-3.15-2.08-3.17,.27-3.36,.94-.53,1.81-2.26,3.22-3.53,4.04-2.69-2.23-5.4-5.03-7.83-8.53,8.47-.12,17.46,1.24,21.01,2.04,4.21,.95,.31-4.82-1.21-6.45-2.36-2.55-3.13-1.24-4,.02Z"/><path class="cls-1" d="M1488.39,419.62c-2.36-2.08-3.25-2.08-3.52-1.5-.28,.58,.68,4.38,.68,5.17v8.09c0,.49-.24,2.28-.39,3.19-.15,.91,.52,1.89,.93,2.06,.41,.17,2.67-2.8,2.85-3.44,.17-.64-.46-1.08-.46-2.38,.04-1.45,.1-6.9,.16-7.88h0c.1-1.84,2.11-1.23-.25-3.31Z"/><path class="cls-1" d="M1491.86,437.32c0,.19-.03,.51-.06,.9-.66-.07-1.48-.12-2.48-.11-2.91,.03-2.39,.34,0,1.82,2.39,1.48,1.71,4.74,3.31,4.74,.57,.24,3.75-3.92,3.99-4.82,.24-.9-.64-1.51-.65-3.34,.06-2.03,.14-15.47,.22-16.84h0c.14-2.57,2.96-1.73-.35-4.64s-4.55-2.92-4.94-2.1c-.39,.82,.96,6.14,.96,7.24v17.14Z"/><path class="cls-1" d="M1493.61,364.5s.06,0,.09,0c3.89-.21-.43-3.12-1.8-4.18-2.14-1.65-2.85-.81-3.64,0-.36,.37-3.63,.91-7.3,1.35v-9.02c0-1.27,.02-2.36,.04-3.32,4.39-.16,7.54,.12,9.95,.46,.02,0,.04,0,.06,0-.43,2.59-1.21,4.53-1.95,5.92-.06,.11-.12,.23-.18,.34-.12,.21-.23,.4-.34,.58-.06,.1-.12,.2-.19,.29-.18,.27-.33,.49-.48,.68,0,0,0,0,0,0-.37,.49-.64,.76-.64,.76,0,0,6.62-2.75,8.94-5.02,1.17-1.15,1.99-2.19,2.32-3.11,.32-.89,.18-1.66-.56-2.3l-.02-.02c-.96-.94-2.32-1.9-3.03-2.45-2.59-2-3.45-.98-4.41,0-.44,.44-4.65,1.1-9.38,1.63,.04-.84,.08-1.53,.11-2.11,0,0,0,0,0,0,.11-2.11,2.45-2.24-.29-4.63-2.73-2.39-3.76-2.39-4.08-1.72-.32,.67,.79,5.86,.79,6.77v2.05c-4.62,.43-8.99,.66-10.23,.4-.06-.01-.1-.03-.16-.04,.03-.33,.07-.57,.1-.65,.26-.56,.52-2.04-1.04-2.48-1.56-.43-5.4-2.34-6.03-1.04-.56,1.14,.52,2.35,.52,3.98v20.34c0,14.51-7.17,22.79-7.17,22.79,12.81-9.07,13.33-21.06,13.34-28.46,.49,.55,2.27,2.48,3.38,2.66,1.3,.21,1.38-.91,10.05-1.41,2.75-.16,4.84-.1,6.5,.04-1.82,4.08-4.29,9.2-7,12.33-3.71-2.56-7.14-7.21-9.56-10.96,0,0,1.24,7.24,6.98,13.74-7.9,7.95-16.59,12.06-16.59,12.06,8.6-2.26,15.01-5.46,19.79-8.83,3.06,2.78,6.98,5.55,12.05,7.96,0,0,.32,2.26,1.86,1.77,1.54-.5,1.51-1.7,4.49-3.07,2.98-1.36,3.94-3.11,2.91-3.15-.63-.02-8.95-2.05-17.32-6.67,6.12-5.47,8.44-12.29,9.13-14.26Zm-16.01-2.48c-3.3,.31-6.34,.47-7.29,.27-1.94-.41-3.03-1.01-3.38-.56,0-.37,0-.74,0-1.1,0-4.24,.04-6.81,.13-9.65,.11,.04,.22,.09,.32,.11,1.47,.24,1.66-.93,10.23-1.58v12.51Z"/><path class="cls-1" d="M1455.92,308.26c0,2.03-.35,4.99-.42,6.1-.07,1.1,1.67,3.37,2.37,3.19,.7-.17,3.48-5.23,3.2-6.68-.28-1.45-1.48-3.02-1.48-7.72v-8.14c.37,.35,.25,.79,.88,1.35,2.5,2.25,1.11,10.22,5.84,9.21,7.49-1.59,3.9-8.09,2.04-13.94-1.33-4.19-4.42-7.49-5.62-8.67,1.05-.77,2.22-1.79,3.42-3.16,2.32-2.65,4.01-5.43,4.84-7.17,0,.04-.02,.06-.02,.11,0,0,2.16,2.86,3.43,3.1,1.12,.21,1.33-.74,7.24-1.34v5.35c-3.98,.22-5.45,.2-6.54,.18-1.05-1.08-3.12-2.3-3.33-1.52-.29,1.07,.75,3.12,.88,4.37,.13,1.25,.52,4.99,.67,6.44,.15,1.45,.28,3.32,.16,4.93-.03,.4,.12,.83,.36,1.2l-.1,.11s.03-.03,.13-.07c.37,.55,.95,.95,1.44,.88,.49-.07,.93-.69,1.27-1.41,1.17-.14,.81-.24,3.12-.36-1.02,2.15-5.08,11.65-15.56,19.95,0,0,13.35-6.48,17.51-14.16v7.2c0,2.18-.38,5.36-.45,6.55s1.79,3.62,2.54,3.43c.75-.19,3.73-5.61,3.43-7.17-.3-1.56-2.24-3.24-2.24-8.29v-7.73c8.43-.15,7.79,1.29,9.72,.62,2.05-.71,.18-1.99-1.88-3.2-.25-.15-.48-.25-.7-.33,.03-.03,.05-.05,.08-.08,3.03-3.11,4.56-9.59,4.56-9.59,1.88-.67,.63-1.83-1.74-3.46-2.37-1.63-3.3-.7-3.76-.26-.42,.4-.82,1.12-6.28,1.57v-2.73c0-.99,.01-1.87,.03-2.65,7.87-.39,10.93,1.23,13.32,1.08,3.8-.23-.42-3.44-1.75-4.61-2.08-1.82-2.78-.89-3.55,0-.36,.42-3.98,1.04-7.95,1.53,.04-.94,.09-1.7,.13-2.32,0,0,0,0,0,0,.11-1.92,2.4-2.03-.28-4.21-2.68-2.18-3.69-2.18-4-1.57s.78,5.33,.78,6.16v2.31c-3.33,.32-6.33,.48-7.24,.27-1.71-.4-2.76-1-3.19-.75,.26-.62,.38-1.06,.34-1.23-.17-.64-2.05-2.82-4.7-3.41-2.64-.59-1.67,1.11-2.3,1.46-.5,.28-3.24,.97-4.7,1.23-.82-1.09-4.06-3.17-4.34-2.6-.49,.99,.42,3.66,.42,5.17v35.48Zm25.71-15.13c-2.31,.14-3.23,.17-4.48,.17,.1-.41,.14-.74,.12-.89-.09-.57-1.05-.89-1.14-1.71-.02-.22-.08-.73-.14-1.39,.4,.06,.81-.01,1.22-.21,.72-.36,2.41-.7,4.42-.86v4.9Zm0-6.73c-1.38,.1-2.82,.17-4.14,.18-.74,0-1.3-.06-1.8-.15-.13-1.26-.26-2.53-.35-3.38-.05-.5-.03-.83,.03-1.08,1.43-.27,3.18-.48,6.26-.64v5.07Zm3.28-5.21c4.27-.17,6.73-.25,6.73-.25,.41,1.99,.43,3.84,.28,5.45-.4-.42-.87-.83-1.42-1.14-1.74-1-2.05-.24-2.48,.21-.19,.2-1.44,.43-3.12,.63v-4.9Zm0,6.96c1.74,.06,3.5,.27,4.98,.75,.63,.21,1.13,.31,1.56,.35-.21,.87-.44,1.58-.61,2.03-.72,.1-1.06,.55-1.06,.55,0,0-.23,.38-4.49,.98-.12,.02-.25,.03-.37,.04v-4.71Zm-25.32-3.29v-5.17c0-5.08,.32-7.11,.27-8.22l5.02-.26s.43,3.46-1.42,7.11c-1.84,3.66-4.19,6.39-3.88,6.53,.16,.08,.55-.23,1.95-1.09,6.63,10.38,2.29,12.62,.74,12.51-.92-.07-1.68-.9-2.68-1.58v-9.84Z"/><path class="cls-1" d="M1486.16,295.78s2.59,9.18,9.13,16.38c0,0-.24,2.06,1.18,1.92,1.43-.15,2.42-2.28,5.27-2.92,2.85-.64,3.59-2.83,2.72-3.06-.87-.23-9.24-1.68-18.31-12.31Z"/></g><g><path class="cls-3" d="M1416.48,732.58c-1.56,0-2.5-1.27-2.5-3.39,0-.63,.06-1.19,.17-1.66,.28-1.16,1.11-1.92,2.12-1.92,1.33,0,2.41,1.02,2.73,2.57h.57l-.1-2.95h-.53c-.08,.35-.14,.54-.25,.74-.66-.65-1.46-.98-2.42-.98-2.42,0-4.2,1.78-4.2,4.2s1.77,4.11,4.05,4.11c1.05,0,1.83-.34,2.56-1.14,.21,.28,.31,.53,.4,.91h.56v-3.03h-.56c-.29,1.38-1.49,2.54-2.6,2.54Z"/><path class="cls-3" d="M1429.74,725.68h.02c.85,0,1.1,.22,1.1,.94v1.97h-3.71v-1.97c0-.73,.27-.94,1.11-.94h.04v-.54h-3.97v.54h.03c.85,0,1.1,.22,1.1,.94v5.03c0,.71-.25,.94-1.1,.94h-.03v.54h3.97v-.54h-.04c-.85,0-1.11-.23-1.11-.94v-2.41h3.71v2.41c0,.71-.25,.94-1.1,.94h-.02v.54h3.94v-.54h-.05c-.81,0-1.08-.24-1.08-.94v-5.03c0-.71,.27-.94,1.08-.94h.05v-.54h-3.94v.54Z"/><path class="cls-3" d="M1444.3,731.33c-.12,.3-.3,.56-.51,.76-.31,.29-.65,.4-1.27,.4h-.65c-.91,0-1.14-.18-1.14-.93v-2.29h.81c.83,0,1,.16,1.04,1h.55v-2.66h-.56c-.05,.86-.21,1-1.04,1h-.8v-2.83h1.49c.83,0,1.11,.07,1.37,.35,.2,.23,.36,.56,.5,1.08h.53l-.11-2.08h-6.63v.54h.06c.83,0,1.1,.23,1.1,.94v5.03c0,.73-.25,.94-1.1,.94h-.06v.54h7.14l.06-2.64h-.57c-.05,.39-.1,.53-.2,.82Z"/><path class="cls-3" d="M1455.12,725.68h.05c.87,0,1.07,.2,1.09,1.19l.07,3.56-.02,.02-4.53-5.31h-2.34v.54c.94,.11,1.09,.33,1.11,1.63l.06,4.09v.11c0,.88-.19,1.09-1.04,1.09h-.08v.54h2.97v-.54h-.12c-.87,0-1.06-.22-1.08-1.2l-.07-4.37,.03-.02,5.27,6.21h.55l-.11-6.35v-.12c0-.86,.19-1.07,1.04-1.07h.13v-.54h-2.97v.54Z"/><path class="cls-3" d="M1483.47,725.4c-.68-.29-1.25-.38-2.56-.38-.3,0-.65,.01-1.05,.02l-2.3,.05v.56h.06c.83,0,1.09,.22,1.09,.94v5.06c0,.71-.25,.94-1.09,.94h-.06v.54h4.03v-.54h-.08c-.84,0-1.09-.23-1.09-.94v-2.09h.52c1.07,0,1.78-.1,2.43-.34,.86-.33,1.34-1.05,1.34-2.02,0-.77-.47-1.46-1.23-1.8Zm-1.26,3.3c-.29,.15-.62,.21-1.26,.21h-.54v-3.23c.2,0,.28-.01,.39-.01,1.46,0,2.09,.5,2.09,1.67,0,.64-.24,1.14-.68,1.37Z"/><path class="cls-3" d="M1488.94,725.68h.09c.83,0,1.1,.22,1.1,.94v5.03c0,.71-.27,.94-1.1,.94h-.09v.54h4.06v-.54h-.08c-.85,0-1.1-.23-1.1-.94v-5.03c0-.73,.25-.94,1.1-.94h.08v-.54h-4.06v.54Z"/><path class="cls-3" d="M1512.48,727.41h.57c.02-.53,.1-.82,.29-1.11,.27-.39,.6-.51,1.41-.51h.86v5.87c0,.71-.27,.94-1.1,.94h-.07v.54h4.03v-.54h-.06c-.85,0-1.1-.23-1.1-.94v-5.87h1.02c.69,0,1,.16,1.26,.62,.16,.29,.24,.59,.28,1h.56v-2.27h-7.94v2.27Z"/><path class="cls-3" d="M1531.1,731.33c-.12,.3-.3,.56-.51,.76-.31,.29-.65,.4-1.27,.4h-.65c-.91,0-1.14-.18-1.14-.93v-2.29h.81c.83,0,1,.16,1.04,1h.55v-2.66h-.56c-.05,.86-.21,1-1.04,1h-.8v-2.83h1.49c.83,0,1.11,.07,1.37,.35,.2,.23,.36,.56,.5,1.08h.53l-.11-2.08h-6.63v.54h.06c.83,0,1.1,.23,1.1,.94v5.03c0,.73-.25,.94-1.1,.94h-.06v.54h7.14l.06-2.64h-.57c-.05,.39-.1,.53-.2,.82Z"/><path class="cls-3" d="M1542.87,731.22l-2.44-6.24h-.55l-2.31,6.05c-.18,.47-.29,.7-.47,.99-.24,.39-.53,.58-.91,.58h-.08v.54h2.76v-.54h-.1c-.54,0-.82-.19-.82-.56,0-.1,.06-.29,.11-.44l.06-.18,.21-.52h2.59l.38,.94c.05,.12,.07,.25,.07,.35,0,.29-.2,.4-.78,.4h-.13v.54h3.77v-.54h-.07c-.63,0-.81-.21-1.27-1.38Zm-4.33-.89l1.07-2.79,1.09,2.79h-2.15Z"/><path class="cls-3" d="M1584.98,684.97c-.58-.02-7.08-.1-17.41-7.16,0,0,4.95,6.54,12.42,10.39,0,0,.18,1.27,1.04,.99,.86-.28,.84-.96,2.51-1.73,1.67-.77,2.01-2.48,1.44-2.51Z"/><path class="cls-3" d="M1583.51,698.71c-.53-.06-6.5-.57-15.41-7.76,0,0,4.01,6.35,10.56,10.4,0,0,.06,1.18,.87,.98,.82-.2,.85-.82,2.45-1.42,1.6-.59,2.06-2.15,1.53-2.21Z"/><path class="cls-3" d="M1567.6,689.56c5.04,.05,7.2,1.16,8.94,1.07,3.09-.16-.3-2.88-1.37-3.87-1.67-1.54-2.24-.77-2.89-.03-.24,.28-2.21,.65-4.66,.98,.01-.64,.02-1.12,.03-1.29v-1.21c.1-1.96,2.31-1.14-.08-2.72-2.84-1.87-3.65-1.27-3.94-.65-.29,.62,.73,4.12,.73,4.96v1.29c-3.2,.32-6.34,.5-7.2,.28-1.85-.48-2.74-1.23-2.78-.16,0,0,1.72,2.42,2.75,2.62,.92,.19,1.1-.64,6.16-1.07-.92,1.42-4.31,5.83-14.52,12.61,0,0,10.28-3.04,15.6-8.38v6.27c0,.53-.25,2.44-.41,3.41-.16,.97,.56,2.02,.99,2.2,.44,.18,2.85-2.99,3.04-3.67,.18-.68-.49-1.15-.49-2.54,.03-1.07,.07-6.49,.11-10.08Z"/><path class="cls-3" d="M1550.85,669.44c-2.01-.44-2.98-1.18-3-.11,0,0,1.91,2.39,3.02,2.58,.8,.14,3.44-.53,7.62-1.1,.65,2.2,.99,4.23,.99,4.23,.58-1.72,.99-3.24,1.26-4.5,1.02-.11,2.11-.21,3.28-.29,2.13-.14,4.4-.16,6.62-.09-.06,2.25-.29,4.27-.29,4.27,1.08-1.53,1.91-2.96,2.55-4.18,4.63,.23,8.79,.74,10.77,1.08,3.27,.56,.24-2.86-.93-3.84-1.83-1.51-2.44-.73-3.11,.02-.2,.22-2.54,.51-5.8,.81,.53-1.22,.75-1.96,.75-1.96,0,0,2.19,.27,.98-1.47-.51-.74-3.91-3.53-5.43-2.62-1.16,.7,.11,1.71,.42,4.31,.08,.62,.11,1.31,.12,2.01-3.06,.24-6.49,.46-9.64,.64,.3-1.64,.34-2.59,.34-2.59,0,0,1.04-.61,.5-1.34-.54-.73-4.81-2.46-6.01-1.21-.92,.95,.6,1.62,1.68,4.05,.17,.4,.34,.82,.49,1.25-3.69,.17-6.56,.23-7.17,.09Z"/><path class="cls-3" d="M1567.9,676.2s.88,.19,1.39-.15c.51-.34-2.92-3.47-4.67-3.88-1.74-.41-1.19,1.71-1.5,2.25,0,0-4.08,8.09-18.24,15.38,0,0,12.5-3.11,23.01-13.6Z"/><path class="cls-3" d="M1491.55,672.23c-1.7-.38-2.52-1.02-2.55-.11,0,0,1.61,2.03,2.55,2.2,.94,.16,1.01-.71,7.21-1.09v3.11c-1.82,.17-3.47,.26-4.26,.2-.13-.17-.33-.39-.66-.68-1.7-1.5-2.34-1.5-2.54-1.08-.2,.42,.49,3.15,.49,3.72v2.69c0,.36-.17,1.64-.28,2.3-.11,.66,.38,1.36,.67,1.48,.29,.12,1.92-2.02,2.05-2.48,.12-.46-.33-.78-.33-1.71,.03-1.04,.07-1.83,.11-2.54h0s0,0,0,0c.05,.02,.11,.05,.16,.06,.72,.13,.85-.45,4.59-.81v2.44c0,1.5-.24,3.69-.29,4.5-.05,.81,1.14,2.49,1.61,2.36,.47-.13,2.37-3.86,2.18-4.93-.17-.94-1.13-1.95-1.37-4.52,2.34-.11,4.02,.03,5.3,.22v3.9c0,.22-1.82-.22-2.31,0-.48,.22,1.05,.95,1.98,2.02,.94,1.07,2.28,1.04,2.55-.49,.2-1.12,.65-3.69,.88-4.99,.06,0,.11,0,.17,0,2.43-.14-.27-2.1-1.12-2.81-1.33-1.11-1.78-.54-2.27,0-.24,.26-2.63,.65-5.22,.95v-2.97c4.8-.05,6.84,.91,8.46,.81,2.82-.16-.31-2.44-1.3-3.27-1.55-1.29-2.06-.63-2.64,0-.23,.25-2.16,.6-4.52,.91v-1.78c0-.47,0-.84,.01-1.18,4.14-.14,5.83,.67,7.14,.59,2.14-.13-.24-1.85-.99-2.48-1.17-.98-1.57-.48-2,0-.19,.21-2.02,.52-4.11,.78,.03-.6,.07-.98,.1-1.5,0,0,0,0,0,0,.07-1.32,1.52-.89-.18-2.38-1.7-1.5-2.34-1.5-2.54-1.08-.2,.42,.49,3.15,.49,3.72v1.47c-1.49,.14-2.86,.23-3.67,.21,.51-.84,.65-1.43,.65-1.43,.7-.05,1.31-.85,.91-1.31-.4-.46-4.2-1.88-4.16-1.09,.21,4.15-1.69,7.67-1.69,7.67,1.49-.79,2.53-1.68,3.27-2.5,.15,.1,.3,.17,.42,.2,.64,.11,.76-.42,4.25-.74v3.09c-3.13,.35-6.37,.57-7.21,.38Z"/><path class="cls-3" d="M1521.28,686.99c-1.7-1.83-2.25-.89-2.88,.01-.26,.38-4.59,.93-9.7,1.42,.66-.58,1.05-1.13,.61-1.33-3.61-1.64-6.17-1.07-6.17-1.07,1.28,1.24,1.77,2.14,1.97,2.71-6.2,.51-12.42,.85-13.33,.58-1.86-.54-2.75-1.44-2.78-.14,0,0,1.77,2.89,2.8,3.12,.89,.2,4.27-1.02,9.65-1.72-3.31,6.52-12.45,10.73-12.45,10.73,3.6-.98,6.56-2.36,8.95-3.78v4.04c0,.36-.23,1.64-.38,2.3-.15,.66,1.08,1.54,1.49,1.66,.05,.02,.14-.02,.25-.08,.85-.37,2.29-2.41,5.11-3.95,3.11-1.7,6.03-2.87,6.03-2.87-4.59,.15-7.45,1.04-9.05,1.76,.03-1.35,.07-3.92,.1-5.31,2.57-2.04,3.88-3.75,4.03-3.99,.27-.44,1-.6,1.05-.93,.12,0,.25,0,.37,0,.32,1.17,2.8,9.49,10.76,14.3,0,0,.21,1.36,.98,1.1,.76-.27,1.7-.95,3.17-1.71,1.47-.76,1.91-1.79,1.39-1.84-.36-.03-4.95-1.26-9.88-5.13,1.79-.58,3.93-2.3,3.93-2.3,.7,0,2.71-.3,.32-1.87-2.27-1.49-2.28,.19-2.42,.67-.38,1.31-1.63,2.31-2.54,2.91-1.93-1.61-3.89-3.62-5.64-6.14,6.1-.09,12.56,.89,15.12,1.47,3.03,.68,.22-3.47-.87-4.64Z"/><path class="cls-3" d="M1514.27,667.9c-1.7-1.5-2.34-1.5-2.54-1.08-.2,.42,.49,3.15,.49,3.72v5.82c0,.36-.17,1.64-.28,2.3-.11,.66,.38,1.36,.67,1.48,.29,.12,1.92-2.02,2.05-2.48,.12-.46-.33-.78-.33-1.71,.03-1.04,.07-4.96,.11-5.67,0,0,0,0,0,0,.07-1.32,1.52-.89-.18-2.38Z"/><path class="cls-3" d="M1516.77,680.64c0,.13-.02,.37-.05,.65-.47-.05-1.06-.09-1.79-.08-2.09,.02-1.72,.24,0,1.31,1.72,1.07,1.23,3.41,2.38,3.41,.41,.17,2.7-2.82,2.87-3.47,.17-.64-.46-1.09-.47-2.4,.04-1.46,.1-11.13,.16-12.12,0,0,0,0,0,0,.1-1.85,2.13-1.24-.25-3.34-2.38-2.1-3.28-2.1-3.55-1.51-.28,.59,.69,4.42,.69,5.21v12.33Z"/><path class="cls-3" d="M1465.5,699.4c-.47-.02-6.76-1.54-13.08-5.04,4.62-4.13,6.37-8.14,6.89-9.62,.02,0,.04,0,.07,0,2.94-.16-.32-2.36-1.36-3.16-1.61-1.25-2.15-.61-2.75,0-.27,.28-2.74,.69-5.52,1.02v-7.96c0-.96,.01-1.78,.03-2.51,3.31-.12,5.69,.09,7.51,.35,.01,0,.03,0,.04,0-.33,1.96-.91,3.42-1.47,4.47-.04,.09-.09,.17-.14,.26-.09,.16-.17,.3-.26,.44-.05,.07-.09,.15-.14,.22-.13,.2-.25,.37-.36,.52,0,0,0,0,0,0-.28,.37-.48,.57-.48,.57,0,0,5-2.08,6.75-3.79,.89-.87,1.5-1.66,1.75-2.35,.24-.67,.13-1.25-.43-1.74,0,0,0,0-.01-.01-.73-.71-1.75-1.43-2.29-1.85-1.95-1.51-2.6-.74-3.33,0-.33,.34-3.51,.83-7.08,1.23,.03-.63,.06-1.16,.08-1.59,0,0,0,0,0,0,.08-1.59,1.85-1.69-.22-3.5-2.07-1.81-2.84-1.81-3.08-1.3-.24,.51,.6,4.43,.6,5.11v1.55c-3.49,.32-6.79,.5-7.73,.3-.04,0-.08-.02-.12-.03,.02-.25,.05-.43,.08-.49,.2-.43,.39-1.54-.79-1.87-1.18-.33-4.07-1.76-4.55-.79-.42,.86,.39,1.78,.39,3.01v15.36c0,10.96-5.42,17.21-5.42,17.21,9.67-6.85,10.06-14.76,10.07-20.35,.37,.41,1.71,1.87,2.56,2.01,.98,.16,1.04-.69,7.59-1.06,2.08-.12,3.66-.08,4.91,.03-1.37,3.08-3.24,5.8-5.28,8.16-2.8-1.93-5.39-4.3-7.22-7.13,0,0,.94,4.32,5.27,9.23-5.97,6.01-12.53,9.11-12.53,9.11,6.49-1.71,11.34-4.12,14.95-6.67,2.31,2.1,5.27,4.19,9.1,6.01,0,0,.24,1.71,1.4,1.33,1.16-.37,1.14-1.29,3.39-2.32,2.25-1.03,2.98-2.35,2.2-2.38Zm-18.27-16.54c-2.49,.23-4.78,.35-5.51,.2-1.46-.31-2.29-.76-2.55-.42,0-.28,0-.56,0-.83,0-3.2,.03-6.29,.1-8.43,.08,.03,.16,.07,.24,.08,1.11,.18,1.25-.71,7.73-1.19v10.59Z"/><path class="cls-3" d="M1392.6,686.8c6.5-.12,6,.99,7.5,.48,1.58-.55,.14-1.54-1.45-2.47-.19-.11-.37-.2-.54-.26,.02-.02,.04-.04,.06-.06,2.33-2.4,3.51-7.39,3.51-7.39,1.45-.51,.48-1.41-1.34-2.66-1.82-1.25-2.55-.54-2.9-.2-.32,.31-.63,.86-4.84,1.21v-2.11c0-.77,0-1.44,.02-2.05,6.07-.3,8.43,.95,10.27,.84,2.93-.18-.32-2.65-1.35-3.55-1.6-1.4-2.14-.69-2.74,0-.28,.32-3.07,.8-6.13,1.18,.03-.72,.07-1.31,.1-1.79,0,0,0,0,0,0,.08-1.48,1.85-1.57-.22-3.25-2.06-1.68-2.84-1.68-3.08-1.21-.24,.47,.6,4.11,.6,4.75v1.78c-2.57,.25-4.88,.37-5.58,.21-1.32-.31-2.12-.77-2.46-.58,.2-.48,.29-.81,.26-.95-.13-.49-1.58-2.17-3.62-2.63s-1.29,.86-1.77,1.13c-.39,.22-2.5,.75-3.62,.95-.63-.84-3.13-2.44-3.35-2-.38,.76,.33,2.82,.33,3.98v27.36c0,1.57-.27,3.85-.33,4.7-.05,.85,1.29,2.6,1.82,2.46s2.68-4.03,2.47-5.15c-.21-1.12-1.14-2.33-1.14-5.95v-6.28c.29,.27,.19,.61,.67,1.04,1.93,1.73,.86,7.88,4.51,7.1,5.77-1.23,3-6.23,1.57-10.75-1.02-3.23-3.4-5.78-4.33-6.68,.81-.6,1.71-1.38,2.64-2.44,1.79-2.04,3.09-4.18,3.73-5.53,0,.03-.01,.05-.01,.08,0,0,1.67,2.21,2.64,2.39,.86,.16,1.02-.57,5.58-1.03v4.13c-3.07,.17-4.2,.16-5.04,.14-.81-.83-2.4-1.78-2.57-1.17-.22,.82,.58,2.4,.68,3.37,.1,.96,.4,3.85,.52,4.97,.12,1.12,.21,2.56,.12,3.8-.02,.31,.09,.64,.28,.92l-.08,.08s.02-.02,.1-.05c.29,.42,.73,.73,1.11,.67,.38-.06,.71-.53,.98-1.09,.9-.11,.63-.18,2.4-.28-.79,1.66-3.91,8.99-12,15.38,0,0,10.29-4.99,13.5-10.91v5.55c0,1.68-.29,4.13-.35,5.05s1.38,2.79,1.96,2.64c.58-.14,2.88-4.33,2.65-5.53-.23-1.2-1.73-2.5-1.73-6.39v-5.96Zm0-10.16c3.29-.13,5.19-.19,5.19-.19,.32,1.54,.33,2.96,.21,4.2-.31-.33-.67-.64-1.09-.88-1.34-.77-1.58-.18-1.91,.16-.15,.15-1.11,.33-2.4,.49v-3.78Zm0,5.36c1.34,.04,2.7,.21,3.84,.58,.48,.16,.87,.24,1.2,.27-.16,.67-.34,1.22-.47,1.57-.55,.08-.82,.43-.82,.43,0,0-.18,.29-3.47,.76-.1,.01-.19,.02-.29,.03v-3.63Zm-16.53-7.57c-1.42,2.82-3.23,4.92-2.99,5.04,.13,.06,.42-.18,1.5-.84,5.11,8,1.77,9.73,.57,9.64-.71-.05-1.3-.69-2.07-1.22v-11.57c0-3.91,.25-5.48,.21-6.33l3.87-.2s.33,2.66-1.09,5.48Zm14.01,11.42c-1.78,.11-2.49,.13-3.45,.13,.08-.32,.11-.57,.09-.69-.07-.44-.81-.69-.88-1.32-.02-.17-.06-.56-.11-1.07,.31,.04,.63,0,.94-.17,.55-.28,1.86-.54,3.41-.67v3.78Zm0-5.19c-1.07,.08-2.17,.13-3.19,.14-.57,0-1-.05-1.39-.12-.1-.97-.2-1.95-.27-2.61-.04-.39-.02-.64,.02-.83,1.1-.21,2.46-.37,4.83-.49v3.91Z"/><path class="cls-3" d="M1407.68,697.38c-.67-.18-7.12-1.3-14.12-9.49,0,0,2,7.07,7.04,12.63,0,0-.19,1.59,.91,1.48s1.87-1.76,4.07-2.25c2.2-.49,2.77-2.18,2.1-2.36Z"/></g></g><g><text class="cls-6" transform="translate(1437.81 858.72)"><tspan x="0" y="0">複合色</tspan></text><rect class="cls-5" x="1428.75" y="825.3" width="97.59" height="47.08" rx="10.13" ry="10.13"/></g></g></svg>