<?xml version="1.0" encoding="UTF-8"?><svg id="_圖層_1" xmlns="http://www.w3.org/2000/svg" viewBox="0 0 1920 1080"><defs><style>.cls-1{fill:#fff;}.cls-2{fill:#151231;}.cls-3{font-size:16px;letter-spacing:.2em;}.cls-3,.cls-4{font-family:TaipeiSansTCBeta-Regular, 'Taipei Sans TC Beta';}.cls-5{stroke:#000;}.cls-5,.cls-6{fill:none;stroke-miterlimit:10;}.cls-6{stroke:#231815;stroke-width:.25px;}.cls-4{font-size:14px;letter-spacing:.2em;}</style></defs><rect class="cls-1" width="1920" height="1080"/><g><path class="cls-1" d="M420.74,486.31l-71.46-118.12v40.94l67.4,81.55c1.28-1.52,2.64-2.97,4.06-4.36Z"/><path class="cls-1" d="M408.05,504.24l-58.77-53.75v17.05l57.26,40.29c.47-1.21,.96-2.41,1.51-3.59Z"/><path class="cls-1" d="M413.35,495.04l-64.06-77.51v25.71l61.34,56.09c.85-1.47,1.76-2.9,2.73-4.29Z"/><path class="cls-1" d="M404.76,513.12l-55.48-39.03v11.65l54.84,29.9c.2-.84,.41-1.69,.64-2.52Z"/><path class="cls-1" d="M423.77,299.77c-13.42-11.42-21.29-28.23-21.29-45.94,0-16.19,6.42-30.91,16.84-41.76l-2.43-20.2c-14.15,6.29-26.79,15.37-37.19,26.57l27.12,104.9c3.62-9.03,9.41-17.15,16.95-23.57Z"/><path class="cls-1" d="M460.15,193.55v-11.36c-13.41,.31-26.24,2.95-38.12,7.54l2.14,17.8c9.84-8.23,22.32-13.38,35.98-13.98Z"/><path class="cls-1" d="M402.48,437.58c0-6.09,.95-12.06,2.72-17.75l-55.55-132.85c-.22,2.87-.37,5.76-.37,8.69v62.17l53.96,89.2c-.5-3.11-.76-6.27-.76-9.46Z"/><path class="cls-1" d="M523.17,529.46c0,33.27-27.07,60.34-60.34,60.34s-60.35-27.07-60.35-60.34c0-2.79,.22-5.56,.6-8.29l-53.8-29.34v31.96c0,62.61,50.94,113.55,113.55,113.55s113.55-50.94,113.55-113.55v-31.96l-53.8,29.34c.38,2.73,.6,5.5,.6,8.29Z"/><path class="cls-1" d="M419.89,395.29l-2.61-10.1c-9.42-10.87-14.79-24.86-14.79-39.48,0-4.26,.47-8.46,1.34-12.55l-28.41-109.88c-12.39,14.93-21,33.08-24.45,52.99l56.99,136.29c2.92-6.37,6.95-12.22,11.92-17.27Z"/><path class="cls-1" d="M501.89,299.77c7.54,6.42,13.33,14.54,16.95,23.57l27.12-104.9c-10.41-11.2-23.04-20.28-37.19-26.57l-2.43,20.2c10.42,10.85,16.84,25.56,16.84,41.76,0,17.71-7.87,34.52-21.29,45.94Z"/><path class="cls-1" d="M523.17,345.71c0,14.62-5.37,28.62-14.79,39.48l-2.61,10.1c4.97,5.05,9,10.9,11.92,17.27l56.99-136.29c-3.44-19.9-12.06-38.06-24.45-52.99l-28.41,109.88c.88,4.09,1.34,8.29,1.34,12.55Z"/><path class="cls-1" d="M462.83,159.89c-74.87,0-135.78,60.91-135.78,135.78v228.12c0,74.87,60.91,135.78,135.78,135.78s135.78-60.91,135.78-135.78v-228.12c0-74.87-60.91-135.78-135.78-135.78Zm121.58,363.9c0,67.04-54.54,121.58-121.58,121.58s-121.58-54.54-121.58-121.58v-228.12c0-67.04,54.54-121.58,121.58-121.58s121.58,54.54,121.58,121.58v228.12Z"/><path class="cls-1" d="M503.63,189.74c-11.88-4.59-24.71-7.23-38.12-7.54v11.36c13.65,.6,26.14,5.75,35.97,13.98l2.15-17.8Z"/><path class="cls-1" d="M410.52,253.83c0,16.89,8.27,32.84,22.11,42.66l4.62,3.28-4.62,3.28c-13.85,9.82-22.11,25.77-22.11,42.66s8.27,32.84,22.11,42.66l4.62,3.28-4.62,3.28c-13.85,9.82-22.11,25.77-22.11,42.66s8.27,32.84,22.11,42.66l4.62,3.28-4.62,3.28c-13.85,9.82-22.11,25.77-22.11,42.66,0,28.84,23.47,52.31,52.31,52.31s52.31-23.47,52.31-52.31c0-16.89-8.27-32.84-22.11-42.66l-4.62-3.28,4.62-3.28c13.85-9.82,22.11-25.77,22.11-42.66s-8.27-32.84-22.11-42.66l-4.62-3.28,4.62-3.28c13.85-9.82,22.11-25.77,22.11-42.66s-8.27-32.84-22.11-42.66l-4.62-3.28,4.62-3.28c13.85-9.82,22.11-25.77,22.11-42.66,0-28.84-23.47-52.31-52.31-52.31s-52.31,23.47-52.31,52.31Z"/><path class="cls-1" d="M508.98,490.67l67.4-81.55v-40.94l-71.46,118.12c1.43,1.39,2.79,2.84,4.06,4.36Z"/><path class="cls-1" d="M519.12,507.83l57.26-40.29v-17.05l-58.77,53.75c.55,1.18,1.04,2.38,1.51,3.59Z"/><path class="cls-1" d="M515.04,499.33l61.34-56.09v-25.71l-64.06,77.51c.97,1.39,1.88,2.83,2.73,4.29Z"/><path class="cls-1" d="M521.54,515.64l54.84-29.9v-11.65l-55.48,39.03c.24,.83,.44,1.67,.64,2.52Z"/><path class="cls-1" d="M523.17,437.58c0,3.19-.26,6.35-.76,9.46l53.96-89.2v-62.17c0-2.93-.15-5.82-.37-8.69l-55.55,132.85c1.77,5.69,2.72,11.66,2.72,17.75Z"/><g><path class="cls-2" d="M462.83,151.86c-79.3,0-143.81,64.51-143.81,143.81v228.12c0,79.3,64.51,143.81,143.81,143.81s143.81-64.51,143.81-143.81v-228.12c0-79.3-64.51-143.81-143.81-143.81Zm135.78,371.93c0,74.87-60.91,135.78-135.78,135.78s-135.78-60.91-135.78-135.78v-228.12c0-74.87,60.91-135.78,135.78-135.78s135.78,60.91,135.78,135.78v228.12Z"/><path class="cls-2" d="M462.83,174.09c-67.04,0-121.58,54.54-121.58,121.58v228.12c0,67.04,54.54,121.58,121.58,121.58s121.58-54.54,121.58-121.58v-228.12c0-67.04-54.54-121.58-121.58-121.58Zm45.94,17.78c14.15,6.29,26.78,15.37,37.19,26.57l-27.12,104.9c-3.62-9.03-9.41-17.15-16.95-23.57,13.42-11.42,21.29-28.23,21.29-45.94,0-16.19-6.42-30.91-16.84-41.76l2.44-20.2Zm-43.26-9.68c13.41,.31,26.24,2.95,38.12,7.54l-2.14,17.8c-9.84-8.23-22.32-13.38-35.97-13.98v-11.36Zm49.63,71.64c0,16.89-8.27,32.84-22.11,42.66l-4.62,3.28,4.62,3.28c13.85,9.82,22.11,25.77,22.11,42.66s-8.27,32.84-22.11,42.66l-4.62,3.28,4.62,3.28c13.85,9.82,22.11,25.77,22.11,42.66s-8.27,32.84-22.11,42.66l-4.62,3.28,4.62,3.28c13.85,9.82,22.11,25.77,22.11,42.66,0,28.84-23.47,52.31-52.31,52.31s-52.31-23.47-52.31-52.31c0-16.89,8.27-32.84,22.11-42.66l4.62-3.28-4.62-3.28c-13.85-9.82-22.11-25.77-22.11-42.66s8.27-32.84,22.11-42.66l4.62-3.28-4.62-3.28c-13.85-9.82-22.11-25.77-22.11-42.66s8.27-32.84,22.11-42.66l4.62-3.28-4.62-3.28c-13.85-9.82-22.11-25.77-22.11-42.66,0-28.84,23.47-52.31,52.31-52.31s52.31,23.47,52.31,52.31Zm-54.99-71.64v11.36c-13.65,.6-26.14,5.75-35.98,13.98l-2.14-17.8c11.88-4.59,24.71-7.23,38.12-7.54Zm-43.26,9.68l2.43,20.2c-10.42,10.85-16.84,25.56-16.84,41.76,0,17.71,7.87,34.52,21.29,45.94-7.54,6.42-13.33,14.54-16.95,23.57l-27.12-104.9c10.41-11.2,23.04-20.28,37.19-26.57Zm-41.47,31.41l28.41,109.88c-.88,4.09-1.34,8.29-1.34,12.55,0,14.62,5.37,28.62,14.79,39.48l2.61,10.1c-4.97,5.05-9,10.9-11.92,17.27l-56.99-136.29c3.44-19.9,12.06-38.06,24.45-52.99Zm-26.14,72.39c0-2.93,.15-5.82,.37-8.69l55.55,132.85c-1.77,5.69-2.72,11.66-2.72,17.75,0,3.19,.26,6.35,.76,9.46l-53.96-89.2v-62.17Zm0,72.51l71.46,118.12c-1.43,1.39-2.79,2.84-4.06,4.36l-67.4-81.55v-40.94Zm0,49.34l64.06,77.51c-.97,1.39-1.88,2.83-2.73,4.29l-61.34-56.09v-25.71Zm0,32.97l58.77,53.75c-.55,1.18-1.04,2.38-1.51,3.59l-57.26-40.29v-17.05Zm0,23.6l55.48,39.03c-.24,.83-.44,1.67-.64,2.52l-54.84-29.9v-11.65Zm227.09,49.7c0,62.61-50.94,113.55-113.55,113.55s-113.55-50.94-113.55-113.55v-31.96l53.8,29.34c-.38,2.73-.6,5.5-.6,8.29,0,33.27,27.07,60.34,60.35,60.34s60.34-27.07,60.34-60.34c0-2.79-.22-5.56-.6-8.29l53.8-29.34v31.96Zm0-38.06l-54.84,29.9c-.2-.84-.41-1.69-.64-2.52l55.48-39.03v11.65Zm0-18.19l-57.26,40.29c-.47-1.21-.96-2.41-1.51-3.59l58.77-53.75v17.05Zm0-24.31l-61.34,56.09c-.85-1.47-1.76-2.9-2.73-4.29l64.06-77.51v25.71Zm0-34.11l-67.4,81.55c-1.27-1.52-2.64-2.97-4.06-4.36l71.46-118.12v40.94Zm0-113.45v62.17l-53.96,89.2c.5-3.11,.76-6.27,.76-9.46,0-6.09-.95-12.06-2.72-17.75l55.55-132.85c.22,2.87,.37,5.76,.37,8.69Zm-1.69-19.4l-56.99,136.29c-2.92-6.37-6.95-12.22-11.92-17.27l2.61-10.1c9.42-10.87,14.79-24.86,14.79-39.48,0-4.26-.47-8.46-1.34-12.55l28.41-109.88c12.39,14.93,21,33.08,24.45,52.99Z"/><path class="cls-2" d="M368.81,545.16l-.27-.02c-3.96-.25-7.68-3.07-8.13-6.16-.31-2.1,.29-3.97,1.73-5.4,1.47-1.46,3.79-2.46,6.73-2.88,1.74-.26,3.36-.32,4.78-.21,3.34,.3,5.76,2.27,6.16,5.02,.54,3.69-1.83,7.08-6.04,8.63l-.26,.09,.33,2.25,9.15-1.64-.31-2.12-.26-.02c-.74-.07-1.27-.14-1.74-.27,1.48-2.19,2.01-4.58,1.61-7.28-.51-3.47-2.23-6.46-4.85-8.41s-5.97-2.74-9.44-2.24c-3.34,.49-6.24,2.17-8.19,4.74-1.95,2.57-2.75,5.8-2.27,9.09,.44,3.03,1.7,5.12,4.17,6.92-.58,.51-1.17,.85-2.04,1.19l-.25,.09,.32,2.2,9.4-1.37-.32-2.21Z"/><path class="cls-2" d="M377.75,578.47l13.05-6.78c1.67-.87,2.44-.56,3.45,1.38l.22,.42,2.01-1.04-5.62-10.82-1.71,.88-.26,.22,.15,.3c1.06,2.03,.89,2.79-.82,3.68l-4.82,2.5-4.7-9.04,4.82-2.5c1.7-.9,2.42-.59,3.5,1.46l.2,.4,2.01-1.04-5.66-10.89-1.71,.89-.26,.22,.15,.3c1.06,2.03,.89,2.79-.82,3.68l-13.05,6.78c-.87,.46-1.47,.57-1.95,.38-.51-.2-.98-.76-1.56-1.89l-.16-.29-2,1.04,5.66,10.89,2-1.04-.2-.39c-.55-1.06-.75-1.78-.62-2.31,.12-.52,.56-.94,1.43-1.39l5.95-3.09,4.7,9.04-5.95,3.09c-.87,.45-1.47,.57-1.95,.38-.51-.2-.98-.76-1.56-1.89l-.16-.29-2,1.04,5.62,10.82,2.01-1.05-.22-.42c-1.01-1.94-.82-2.75,.85-3.61Z"/><path class="cls-2" d="M399.93,597.85c-.89,.7-1.27,.89-2.04,1.24-.76,.33-1.6,.51-2.48,.52-1.17-.04-2.02-.48-3.24-1.68l-1.36-1.34c-.94-.92-1.36-1.54-1.41-2.05-.05-.49,.22-1,.96-1.75l4.46-4.52,1.45,1.43c1.62,1.6,1.63,2.06,.09,3.76l-.21,.24,1.6,1.58,5.94-6.01-1.62-1.6-.24,.21c-1.73,1.56-2.15,1.56-3.77-.04l-1.42-1.4,5.34-5.42,2.86,2.82c1.76,1.73,2.06,2.37,2.02,3.28-.04,.88-.39,1.84-1.13,3.1l-.13,.22,1.55,1.52,4.49-5.05-14.25-14.07-1.59,1.61,.36,.36c1.61,1.59,1.69,2.4,.35,3.75l-10.33,10.47c-1.35,1.37-2.13,1.31-3.75-.3l-.37-.36-1.59,1.61,15.32,15.12,6.02-5.83-1.63-1.62-.23,.19Z"/><path class="cls-2" d="M427.47,598.86l.42,.22c2.09,1.08,2.25,1.69,1.08,4.09l-4.25,8.62-4.44-19.07-.04-.15-6.49-3.37-1.02,1.97,.25,.17c2.04,1.38,2.27,1.89,.58,5.31l-5.34,10.68-.15,.28c-1.1,2.13-1.69,2.32-3.71,1.28l-.52-.26-1.04,2.01,8.32,4.31,1.04-2.01-.61-.32c-2.09-1.09-2.25-1.7-1.04-4.11l5.34-10.73,5.15,22.39,.04,.15,1.85,.96,8.4-16.92,.16-.31c1.07-2.07,1.67-2.26,3.68-1.22l.64,.33,1.04-2.01-8.32-4.31-1.04,2.01Z"/><path class="cls-2" d="M480.39,603.51c-2.13-.61-3.86-.64-7.7-.14-.77,.1-1.66,.24-2.64,.4l-7.37,1.11,.29,2.26,.51-.06c1.17-.15,1.89-.09,2.33,.21,.43,.28,.67,.85,.8,1.83l1.88,14.65c.24,1.89-.3,2.48-2.51,2.77l-.51,.06,.29,2.25,12.34-1.58-.29-2.24-.58,.07c-2.21,.29-2.89-.15-3.13-2.04l-.73-5.73,1.17-.15c3.16-.41,5.2-.96,7.04-1.92,2.48-1.33,3.69-3.77,3.32-6.69-.3-2.37-2.02-4.31-4.49-5.04Zm-2.7,10.08c-.76,.51-1.69,.78-3.43,1.01l-1.24,.16-1.12-8.7c.18-.03,.32-.05,.44-.07,.12-.02,.22-.04,.35-.06,4.06-.52,5.9,.57,6.31,3.77,.22,1.73-.26,3.15-1.31,3.89Z"/><path class="cls-2" d="M504.19,617.68c-1.12,.41-1.84,.51-2.35,.32-.48-.18-.85-.67-1.19-1.6l-5.08-13.8c-.66-1.81-.28-2.48,1.86-3.27l.55-.2-.78-2.12-11.77,4.33,.78,2.12,.55-.2c1.12-.41,1.84-.51,2.34-.32,.49,.18,.86,.67,1.2,1.6l5.08,13.8c.66,1.79,.25,2.49-1.87,3.27l-.54,.2,.78,2.12,11.77-4.34-.78-2.12-.55,.2Z"/><path class="cls-2" d="M525.24,587.24l1.44-1.81-.24-.21c-1.14-1-1.63-1.64-1.91-2.54-.36-1.19-.04-2.09,1.36-3.85l1.36-1.7,13.13,10.49c.72,.58,1.07,1.05,1.12,1.54,.06,.56-.25,1.25-1.03,2.22l-.34,.43,1.77,1.41,7.77-9.72-1.76-1.41-.32,.4c-.74,.93-1.31,1.39-1.85,1.49-.52,.1-1.08-.14-1.84-.75l-13.13-10.49,1.64-2.06c1.17-1.47,2-1.87,3.38-1.63,.91,.16,1.71,.51,2.67,1.15l.26,.17,1.42-1.77-5.72-4.57-14.89,18.64,5.72,4.57Z"/><path class="cls-2" d="M537.17,563.35c.84-2.1,1.57-2.48,3.32-1.77l13.65,5.47c1.79,.72,2.03,1.45,1.18,3.58l-.19,.47,2.1,.84,7.89-19.66,.12-.3-7.7-3.3-.86,2.13,.26,.14c.98,.54,1.3,.82,1.94,1.4,.61,.58,1.09,1.29,1.43,2.08,.42,1.1,.34,2.05-.3,3.63l-.71,1.77c-.98,2.43-1.58,2.59-3.33,1.89l-5.89-2.36,.76-1.89c.84-2.12,1.26-2.31,3.43-1.54l.3,.1,.84-2.08-7.84-3.14-.85,2.11,.29,.13c2.11,.99,2.27,1.38,1.42,3.49l-.74,1.86-7.06-2.83,1.49-3.72c.93-2.31,1.38-2.81,2.24-3.14,.83-.3,1.85-.35,3.3-.15l.26,.03,.81-2.02-6.4-2.18-7.33,18.27-.12,.31,2.1,.84,.19-.48Z"/><path class="cls-2" d="M563.85,540.69c.98,.75,1.4,1.54,1.32,2.49l-.06,.58,2.25,.21,.79-8.69-2.25-.2-.05,.61c-.19,2.07-1.18,1.96-1.47,1.94-.1-.01-.38-.08-1.13-.41l-1.75-.85,.65-7.08,2.63-.77c.29-.09,.65-.12,.91-.11,.29,.03,.4,.12,.46,.2,.21,.25,.27,.85,.19,1.83l-.07,.72,2.25,.21,1.07-11.64-2.25-.2-.05,.54c-.14,1.56-.51,2-4.11,3.04l-19.02,5.5-.19,2.04,17.18,8.44c1.32,.65,1.93,1.01,2.71,1.6Zm-4.63-5.42l-6.63-3.25,7.11-2.04-.48,5.29Z"/><path class="cls-2" d="M388.38,788.46c-1.89,0-3.04-1.54-3.04-4.11,0-.76,.07-1.44,.21-2.01,.34-1.41,1.35-2.33,2.57-2.33,1.61,0,2.92,1.23,3.32,3.11h.69l-.12-3.58h-.65c-.1,.43-.18,.66-.31,.89-.81-.79-1.78-1.19-2.93-1.19-2.93,0-5.09,2.15-5.09,5.09s2.14,4.99,4.91,4.99c1.28,0,2.21-.41,3.11-1.38,.25,.34,.38,.65,.48,1.1h.67v-3.67h-.67c-.35,1.67-1.8,3.08-3.15,3.08Z"/><path class="cls-2" d="M404.46,780.1h.03c1.03,0,1.33,.26,1.33,1.15v2.39h-4.5v-2.39c0-.88,.32-1.15,1.35-1.15h.04v-.66h-4.81v.66h.03c1.03,0,1.33,.26,1.33,1.15v6.1c0,.87-.31,1.15-1.33,1.15h-.03v.66h4.81v-.66h-.04c-1.03,0-1.35-.28-1.35-1.15v-2.92h4.5v2.92c0,.87-.31,1.15-1.33,1.15h-.03v.66h4.78v-.66h-.06c-.98,0-1.3-.3-1.3-1.15v-6.1c0-.87,.32-1.15,1.3-1.15h.06v-.66h-4.78v.66Z"/><path class="cls-2" d="M422.12,786.95c-.15,.37-.37,.67-.62,.92-.38,.35-.79,.48-1.54,.48h-.79c-1.1,0-1.38-.22-1.38-1.13v-2.77h.98c1.01,0,1.22,.19,1.26,1.22h.66v-3.23h-.67c-.06,1.04-.25,1.22-1.26,1.22h-.97v-3.43h1.8c1.01,0,1.35,.09,1.66,.43,.25,.28,.44,.67,.6,1.3h.65l-.13-2.52h-8.04v.66h.07c1.01,0,1.34,.28,1.34,1.15v6.1c0,.88-.31,1.15-1.34,1.15h-.07v.66h8.66l.07-3.2h-.69c-.06,.47-.12,.65-.25,1Z"/><path class="cls-2" d="M435.24,780.1h.06c1.06,0,1.29,.25,1.32,1.44l.09,4.31-.03,.03-5.5-6.44h-2.83v.66c1.15,.13,1.32,.39,1.35,1.98l.07,4.96v.13c0,1.07-.24,1.32-1.26,1.32h-.1v.66h3.61v-.66h-.15c-1.06,0-1.29-.26-1.3-1.45l-.09-5.3,.03-.03,6.39,7.53h.66l-.13-7.7v-.15c0-1.04,.24-1.29,1.26-1.29h.16v-.66h-3.61v.66Z"/><path class="cls-2" d="M469.61,779.76c-.82-.35-1.51-.45-3.11-.45-.37,0-.79,.02-1.28,.03l-2.79,.06v.67h.07c1.01,0,1.32,.26,1.32,1.14v6.13c0,.87-.31,1.15-1.32,1.15h-.07v.66h4.88v-.66h-.1c-1.01,0-1.32-.28-1.32-1.15v-2.54h.63c1.29,0,2.15-.12,2.95-.41,1.04-.4,1.63-1.28,1.63-2.45,0-.94-.57-1.78-1.5-2.19Zm-1.53,4c-.35,.18-.75,.25-1.52,.25h-.66v-3.92c.25,0,.34-.02,.47-.02,1.78,0,2.54,.6,2.54,2.02,0,.78-.3,1.38-.82,1.66Z"/><path class="cls-2" d="M476.25,780.1h.1c1.01,0,1.33,.26,1.33,1.15v6.1c0,.87-.32,1.15-1.33,1.15h-.1v.66h4.93v-.66h-.1c-1.03,0-1.34-.28-1.34-1.15v-6.1c0-.88,.31-1.15,1.34-1.15h.1v-.66h-4.93v.66Z"/><path class="cls-2" d="M504.8,782.2h.69c.03-.65,.12-1,.35-1.35,.32-.47,.73-.62,1.72-.62h1.04v7.12c0,.87-.32,1.15-1.33,1.15h-.09v.66h4.88v-.66h-.07c-1.03,0-1.34-.28-1.34-1.15v-7.12h1.23c.83,0,1.22,.19,1.52,.75,.19,.35,.29,.72,.34,1.22h.67v-2.76h-9.62v2.76Z"/><path class="cls-2" d="M527.37,786.95c-.15,.37-.37,.67-.62,.92-.38,.35-.79,.48-1.54,.48h-.79c-1.1,0-1.38-.22-1.38-1.13v-2.77h.98c1.01,0,1.22,.19,1.26,1.22h.66v-3.23h-.67c-.06,1.04-.25,1.22-1.26,1.22h-.97v-3.43h1.8c1.01,0,1.35,.09,1.66,.43,.25,.28,.44,.67,.6,1.3h.65l-.13-2.52h-8.04v.66h.07c1.01,0,1.34,.28,1.34,1.15v6.1c0,.88-.31,1.15-1.34,1.15h-.07v.66h8.66l.07-3.2h-.69c-.06,.47-.12,.65-.25,1Z"/><path class="cls-2" d="M541.66,786.82l-2.96-7.57h-.66l-2.8,7.33c-.22,.57-.35,.85-.57,1.2-.29,.47-.65,.71-1.1,.71h-.1v.66h3.34v-.66h-.12c-.66,0-1-.24-1-.67,0-.12,.07-.35,.13-.53l.07-.22,.25-.63h3.14l.45,1.15c.06,.15,.09,.31,.09,.42,0,.35-.25,.49-.95,.49h-.16v.66h4.58v-.66h-.09c-.76,0-.98-.25-1.54-1.67Zm-5.25-1.09l1.29-3.39,1.32,3.39h-2.61Z"/><path class="cls-2" d="M465.38,521.15s8.34,11.02,20.94,17.52c0,0,.3,2.15,1.75,1.68,1.45-.47,1.42-1.61,4.23-2.91,2.81-1.29,3.39-4.19,2.42-4.22-.97-.04-11.93-.17-29.34-12.06Z"/><path class="cls-2" d="M492.24,556.36c-.89-.1-10.95-.96-25.97-13.08,0,0,6.75,10.7,17.8,17.53,0,0,.1,1.99,1.47,1.66,1.37-.33,1.44-1.39,4.13-2.39,2.69-1,3.47-3.62,2.58-3.72Z"/><path class="cls-2" d="M465.42,540.94c8.49,.08,12.13,1.95,15.07,1.8,5.2-.26-.5-4.85-2.31-6.52-2.81-2.6-3.78-1.3-4.86-.06-.41,.47-3.73,1.09-7.85,1.64,.02-1.09,.03-1.88,.05-2.18,0,0,0-2.04,0-2.04,.17-3.3,3.89-1.92-.14-4.58-4.79-3.16-6.14-2.14-6.64-1.09-.5,1.05,1.23,6.94,1.23,8.36v2.17c-5.4,.54-10.69,.84-12.13,.47-3.12-.8-4.61-2.07-4.69-.27,0,0,2.9,4.07,4.63,4.42,1.56,.31,1.85-1.07,10.37-1.8-1.55,2.4-7.27,9.83-24.48,21.25,0,0,17.32-5.12,26.29-14.12v10.57c0,.89-.43,4.1-.69,5.74-.27,1.64,.94,3.4,1.67,3.7,.74,.3,4.81-5.03,5.12-6.19,.31-1.15-.82-1.94-.83-4.28,.05-1.8,.12-10.94,.19-16.98Z"/><path class="cls-2" d="M485.69,503.75c-.33,.37-4.28,.86-9.78,1.36,.89-2.05,1.26-3.3,1.26-3.3,0,0,3.69,.46,1.64-2.48-.87-1.25-6.58-5.96-9.15-4.42-1.96,1.17,.18,2.88,.71,7.26,.13,1.04,.19,2.2,.21,3.39-5.15,.4-10.94,.78-16.25,1.07,.5-2.76,.58-4.36,.58-4.36,0,0,1.75-1.03,.84-2.26-.9-1.23-8.1-4.15-10.12-2.05-1.55,1.61,1.02,2.73,2.83,6.82,.29,.67,.57,1.38,.83,2.1-6.22,.29-11.05,.39-12.08,.16-3.38-.75-5.01-1.99-5.06-.19,0,0,3.22,4.02,5.09,4.34,1.35,.23,5.8-.9,12.85-1.86,1.09,3.7,1.67,7.13,1.67,7.13,.99-2.9,1.66-5.46,2.13-7.59,1.73-.19,3.56-.36,5.52-.49,3.59-.24,7.41-.26,11.16-.16-.11,3.79-.49,7.2-.49,7.2,1.82-2.58,3.22-4.99,4.29-7.05,7.8,.39,14.81,1.25,18.15,1.82,5.52,.95,.41-4.83-1.57-6.47-3.09-2.55-4.11-1.23-5.24,.03Z"/><path class="cls-2" d="M468.29,518.17c.86-.57-4.93-5.85-7.86-6.55-2.94-.7-2.01,2.89-2.53,3.79,0,0-6.87,13.64-30.73,25.92,0,0,21.06-5.24,38.78-22.92,0,0,1.49,.33,2.35-.25Z"/><path class="cls-2" d="M437.31,419.74c1.58,.28,1.69-1.19,12.15-1.84v5.25c-3.07,.28-5.85,.44-7.19,.34-.21-.29-.56-.66-1.12-1.15-2.86-2.52-3.94-2.52-4.27-1.82-.33,.71,.83,5.32,.83,6.27v4.54c0,.6-.29,2.77-.47,3.87-.18,1.1,.63,2.29,1.13,2.5,.5,.2,3.24-3.4,3.45-4.17,.21-.77-.56-1.31-.56-2.89,.05-1.75,.12-3.09,.19-4.28h0s0-.01,0-.02c.09,.03,.19,.09,.28,.1,1.2,.21,1.43-.76,7.73-1.37v4.11c0,2.53-.41,6.21-.49,7.59-.08,1.37,1.92,4.19,2.71,3.97,.8-.22,3.99-6.5,3.67-8.31-.28-1.58-1.91-3.28-2.31-7.62,3.94-.19,6.77,.06,8.92,.37v6.58c0,.37-3.07-.37-3.89,0-.81,.37,1.76,1.6,3.34,3.4,1.58,1.8,3.84,1.76,4.29-.82,.33-1.89,1.1-6.22,1.48-8.41,.09,0,.19,0,.28,0,4.1-.24-.45-3.53-1.89-4.74-2.25-1.87-2.99-.92-3.83,0-.4,.44-4.44,1.09-8.8,1.6v-5.01c8.09-.08,11.53,1.53,14.26,1.37,4.76-.28-.52-4.11-2.2-5.51-2.61-2.18-3.48-1.06-4.45,0-.38,.42-3.64,1.01-7.61,1.53v-3c0-.79,0-1.42,.02-1.99,6.98-.24,9.83,1.12,12.03,1,3.61-.21-.4-3.12-1.67-4.18-1.98-1.65-2.64-.81-3.38,0-.33,.36-3.41,.88-6.92,1.31,.05-1.01,.11-1.65,.16-2.53,0,0,0,0,0,0,.12-2.22,2.56-1.49-.3-4.02s-3.94-2.52-4.27-1.82c-.33,.71,.83,5.32,.83,6.27v2.48c-2.5,.24-4.82,.38-6.18,.35,.86-1.42,1.1-2.41,1.1-2.41,1.18-.08,2.21-1.43,1.54-2.21-.68-.78-7.07-3.17-7.01-1.84,.36,7-2.85,12.93-2.85,12.93,2.51-1.33,4.27-2.83,5.52-4.21,.25,.16,.5,.29,.71,.33,1.08,.19,1.27-.7,7.16-1.24v5.2c-5.28,.58-10.73,.95-12.15,.63-2.86-.65-4.24-1.71-4.29-.18,0,0,2.71,3.43,4.29,3.7Z"/><path class="cls-2" d="M482.55,441.13c-.44,.63-7.74,1.58-16.34,2.39,1.11-.97,1.77-1.9,1.04-2.23-6.09-2.77-10.39-1.8-10.39-1.8,2.15,2.1,2.99,3.61,3.32,4.57-10.45,.87-20.94,1.43-22.47,.99-3.13-.91-4.64-2.42-4.68-.24,0,0,2.98,4.87,4.71,5.26,1.51,.34,7.2-1.72,16.26-2.91-5.58,10.99-20.98,18.09-20.98,18.09,6.06-1.66,11.06-3.97,15.09-6.37v6.81c0,.6-.39,2.77-.64,3.87-.25,1.1,1.83,2.59,2.5,2.8,.09,.03,.24-.03,.42-.13,1.42-.62,3.86-4.06,8.61-6.66,5.24-2.86,10.16-4.83,10.16-4.83-7.74,.26-12.56,1.76-15.25,2.97,.05-2.28,.11-6.61,.17-8.94,4.33-3.43,6.54-6.32,6.79-6.72,.46-.74,1.68-1,1.77-1.57,.21,0,.41,0,.62,0,.53,1.97,4.71,15.99,18.13,24.1,0,0,.36,2.3,1.65,1.85,1.29-.45,2.87-1.61,5.35-2.89,2.48-1.28,3.23-3.02,2.35-3.09-.61-.05-8.34-2.12-16.66-8.64,3.01-.97,6.62-3.87,6.62-3.87,1.18,0,4.56-.51,.54-3.16-3.82-2.52-3.84,.33-4.08,1.14-.65,2.2-2.74,3.9-4.28,4.9-3.26-2.71-6.55-6.1-9.5-10.34,10.28-.15,21.17,1.5,25.48,2.47,5.11,1.15,.37-5.84-1.46-7.82-2.86-3.09-3.8-1.5-4.85,.02Z"/><path class="cls-2" d="M475.59,408.94c-2.86-2.52-3.94-2.52-4.27-1.82-.33,.71,.83,5.32,.83,6.27v9.81c0,.6-.29,2.77-.47,3.87-.18,1.1,.63,2.29,1.13,2.5,.5,.2,3.24-3.4,3.45-4.17,.21-.77-.56-1.31-.56-2.89,.05-1.75,.12-8.37,.19-9.55h0c.12-2.23,2.56-1.49-.3-4.02Z"/><path class="cls-2" d="M479.8,430.4c0,.23-.03,.62-.08,1.09-.8-.08-1.79-.14-3.01-.13-3.53,.04-2.89,.41,0,2.21,2.89,1.8,2.08,5.75,4.01,5.75,.7,.29,4.54-4.76,4.84-5.85,.29-1.09-.78-1.83-.79-4.05,.07-2.46,.17-18.76,.27-20.42h0c.16-3.12,3.59-2.09-.42-5.63-4.01-3.54-5.52-3.54-5.99-2.55-.47,.99,1.16,7.45,1.16,8.78v20.79Z"/><path class="cls-2" d="M481.92,342.1s.07,0,.11,0c4.72-.26-.52-3.79-2.18-5.07-2.59-2-3.45-.98-4.42,0-.44,.45-4.4,1.1-8.86,1.63v-10.94c0-1.53,.02-2.86,.05-4.03,5.32-.2,9.14,.15,12.06,.56,.02,0,.05,0,.07,0-.52,3.15-1.47,5.49-2.37,7.18-.07,.14-.14,.28-.22,.41-.14,.25-.28,.48-.41,.7-.07,.12-.15,.24-.23,.35-.21,.32-.41,.6-.58,.83,0,0,0,0,0,0-.45,.59-.77,.92-.77,.92,0,0,8.03-3.33,10.84-6.09,1.42-1.4,2.42-2.66,2.82-3.77,.39-1.08,.21-2.01-.68-2.79l-.02-.02c-1.16-1.14-2.82-2.3-3.68-2.97-3.14-2.43-4.18-1.19-5.35,0-.53,.54-5.63,1.33-11.37,1.97,.05-1.02,.09-1.86,.14-2.56,0,0,0,0,0,0,.14-2.56,2.97-2.71-.35-5.62-3.32-2.9-4.56-2.9-4.95-2.09-.39,.81,.96,7.11,.96,8.21v2.49c-5.6,.52-10.91,.81-12.41,.49-.07-.01-.12-.03-.19-.05,.04-.41,.08-.69,.13-.79,.32-.68,.63-2.48-1.26-3-1.89-.53-6.54-2.83-7.31-1.26-.68,1.38,.63,2.85,.63,4.83v24.67c0,17.6-8.7,27.63-8.7,27.63,15.53-11,16.16-25.54,16.17-34.52,.59,.66,2.75,3.01,4.1,3.23,1.57,.26,1.68-1.11,12.19-1.7,3.34-.19,5.87-.13,7.88,.04-2.21,4.95-5.2,11.16-8.48,14.95-4.5-3.11-8.65-8.74-11.59-13.29,0,0,1.5,8.78,8.46,16.66-9.59,9.64-20.12,14.63-20.12,14.63,10.43-2.74,18.21-6.62,24-10.71,3.71,3.37,8.46,6.73,14.62,9.65,0,0,.38,2.74,2.25,2.14,1.87-.6,1.83-2.06,5.44-3.72,3.62-1.65,4.78-3.78,3.53-3.83-.76-.03-10.85-2.48-21-8.09,7.42-6.63,10.23-14.91,11.07-17.29Zm-19.41-3.01c-4.01,.38-7.68,.57-8.84,.32-2.35-.49-3.68-1.23-4.1-.68,0-.45,0-.9,0-1.33,0-5.14,.05-8.26,.15-11.7,.13,.04,.26,.11,.38,.13,1.78,.29,2.01-1.13,12.41-1.91v15.17Z"/><path class="cls-2" d="M592.71,730.73c-.7-.03-8.58-.12-21.11-8.68,0,0,6,7.93,15.07,12.61,0,0,.21,1.54,1.26,1.21,1.04-.34,1.02-1.16,3.04-2.09,2.02-.93,2.44-3.01,1.74-3.04Z"/><path class="cls-2" d="M590.93,747.39c-.64-.07-7.88-.69-18.69-9.41,0,0,4.86,7.7,12.81,12.61,0,0,.07,1.43,1.06,1.19,.99-.24,1.03-1,2.97-1.72,1.94-.72,2.49-2.6,1.85-2.68Z"/><path class="cls-2" d="M571.64,736.3c6.11,.06,8.73,1.4,10.84,1.3,3.74-.19-.36-3.49-1.66-4.69-2.02-1.87-2.72-.94-3.5-.04-.29,.34-2.68,.79-5.65,1.18,.01-.78,.03-1.35,.04-1.57v-1.47c.13-2.37,2.8-1.38-.1-3.3-3.44-2.27-4.42-1.54-4.78-.79-.36,.75,.89,5,.89,6.01v1.56c-3.88,.39-7.69,.6-8.73,.34-2.24-.58-3.32-1.49-3.38-.2,0,0,2.09,2.93,3.33,3.18,1.12,.23,1.33-.77,7.47-1.3-1.11,1.73-5.23,7.07-17.61,15.29,0,0,12.46-3.69,18.92-10.16v7.61c0,.64-.31,2.95-.5,4.13-.19,1.18,.67,2.44,1.21,2.66,.53,.22,3.46-3.62,3.68-4.45,.22-.83-.59-1.39-.6-3.08,.04-1.29,.09-7.87,.14-12.22Z"/><path class="cls-2" d="M551.33,711.9c-2.43-.54-3.61-1.43-3.64-.14,0,0,2.32,2.89,3.66,3.12,.97,.17,4.18-.65,9.24-1.34,.78,2.66,1.2,5.13,1.2,5.13,.71-2.09,1.2-3.93,1.53-5.46,1.24-.13,2.56-.26,3.97-.35,2.59-.17,5.33-.19,8.03-.11-.08,2.73-.35,5.18-.35,5.18,1.31-1.86,2.32-3.59,3.09-5.07,5.61,.28,10.66,.9,13.06,1.31,3.97,.68,.3-3.47-1.13-4.65-2.22-1.83-2.95-.89-3.77,.02-.24,.26-3.08,.62-7.04,.98,.64-1.48,.91-2.38,.91-2.38,0,0,2.65,.33,1.18-1.78-.62-.9-4.74-4.29-6.59-3.18-1.41,.84,.13,2.07,.51,5.22,.09,.75,.14,1.58,.15,2.44-3.71,.29-7.87,.56-11.69,.77,.36-1.99,.42-3.14,.42-3.14,0,0,1.26-.74,.61-1.63-.65-.88-5.83-2.98-7.28-1.47-1.11,1.16,.73,1.96,2.03,4.91,.21,.48,.41,.99,.59,1.51-4.48,.21-7.95,.28-8.69,.11Z"/><path class="cls-2" d="M572.01,720.09s1.07,.24,1.69-.18c.62-.41-3.54-4.21-5.66-4.71-2.11-.5-1.45,2.08-1.82,2.73,0,0-4.94,9.82-22.11,18.65,0,0,15.15-3.77,27.9-16.49Z"/><path class="cls-2" d="M479.42,715.27c-2.06-.47-3.05-1.23-3.09-.13,0,0,1.95,2.47,3.09,2.66,1.14,.2,1.22-.86,8.74-1.33v3.77c-2.21,.2-4.21,.32-5.17,.24-.15-.21-.4-.47-.81-.83-2.06-1.82-2.83-1.82-3.08-1.31-.24,.51,.6,3.82,.6,4.51v3.27c0,.43-.21,1.99-.34,2.79-.13,.8,.46,1.65,.81,1.8,.36,.15,2.33-2.44,2.48-3,.15-.56-.4-.94-.4-2.08,.04-1.26,.09-2.22,.14-3.08h0s0,0,0-.01c.07,.02,.14,.06,.2,.07,.87,.15,1.03-.54,5.56-.99v2.96c0,1.82-.29,4.47-.35,5.46-.06,.99,1.38,3.02,1.95,2.86,.57-.16,2.87-4.68,2.64-5.98-.2-1.14-1.37-2.36-1.66-5.48,2.83-.14,4.87,.04,6.42,.27v4.73c0,.26-2.21-.27-2.8,0-.59,.26,1.27,1.15,2.41,2.44,1.14,1.3,2.76,1.27,3.09-.59,.24-1.36,.79-4.48,1.07-6.05,.07,0,.14,0,.2,0,2.95-.17-.32-2.54-1.36-3.41-1.62-1.35-2.15-.66-2.76,0-.29,.31-3.19,.79-6.34,1.15v-3.6c5.82-.06,8.29,1.1,10.26,.99,3.42-.2-.38-2.96-1.58-3.96-1.88-1.57-2.5-.77-3.2,0-.28,.3-2.62,.73-5.48,1.1v-2.16c0-.57,0-1.02,.01-1.43,5.02-.17,7.07,.81,8.65,.72,2.6-.15-.29-2.25-1.2-3.01-1.42-1.19-1.9-.58-2.43,0-.24,.26-2.45,.63-4.98,.94,.04-.73,.08-1.19,.12-1.82,0,0,0,0,0,0,.08-1.6,1.84-1.07-.22-2.89s-2.83-1.82-3.08-1.31c-.24,.51,.6,3.82,.6,4.51v1.78c-1.8,.17-3.47,.28-4.44,.25,.62-1.02,.79-1.73,.79-1.73,.85-.06,1.59-1.03,1.11-1.59-.49-.56-5.09-2.28-5.04-1.33,.26,5.04-2.05,9.3-2.05,9.3,1.8-.96,3.07-2.04,3.97-3.03,.18,.12,.36,.21,.51,.24,.78,.14,.92-.5,5.15-.89v3.74c-3.8,.42-7.72,.69-8.74,.46Z"/><path class="cls-2" d="M515.47,733.18c-2.06-2.22-2.73-1.08-3.49,.02-.31,.46-5.57,1.13-11.76,1.72,.8-.7,1.27-1.37,.75-1.61-4.38-1.99-7.48-1.29-7.48-1.29,1.55,1.51,2.15,2.6,2.39,3.29-7.52,.62-15.07,1.03-16.17,.71-2.25-.65-3.34-1.74-3.37-.17,0,0,2.15,3.5,3.39,3.78,1.08,.24,5.18-1.24,11.7-2.09-4.01,7.91-15.1,13.02-15.1,13.02,4.36-1.19,7.96-2.86,10.86-4.58v4.9c0,.43-.28,1.99-.46,2.79-.18,.8,1.31,1.86,1.8,2.01,.06,.02,.17-.02,.3-.09,1.03-.45,2.78-2.92,6.2-4.8,3.77-2.06,7.31-3.47,7.31-3.47-5.57,.19-9.03,1.26-10.97,2.14,.04-1.64,.08-4.75,.12-6.43,3.11-2.47,4.71-4.55,4.89-4.84,.33-.53,1.21-.72,1.28-1.13,.15,0,.3,0,.45,0,.38,1.42,3.39,11.5,13.05,17.34,0,0,.26,1.65,1.19,1.33,.93-.32,2.06-1.16,3.85-2.08,1.78-.92,2.32-2.17,1.69-2.23-.44-.04-6-1.53-11.99-6.22,2.17-.7,4.76-2.78,4.76-2.78,.85,0,3.28-.37,.39-2.27-2.75-1.81-2.76,.24-2.93,.82-.47,1.58-1.97,2.81-3.08,3.53-2.34-1.95-4.71-4.39-6.83-7.44,7.39-.11,15.23,1.08,18.33,1.78,3.67,.83,.27-4.2-1.05-5.63Z"/><path class="cls-2" d="M506.97,710.03c-2.06-1.82-2.84-1.82-3.08-1.31-.24,.51,.6,3.82,.6,4.51v7.06c0,.43-.21,1.99-.34,2.79-.13,.8,.46,1.65,.81,1.8,.36,.15,2.33-2.44,2.48-3,.15-.56-.4-.94-.4-2.08,.04-1.26,.09-6.02,.14-6.88,0,0,0,0,0,0,.08-1.6,1.84-1.07-.22-2.89Z"/><path class="cls-2" d="M510,725.48c0,.16-.02,.45-.06,.79-.57-.06-1.29-.1-2.17-.09-2.54,.03-2.08,.29,0,1.59,2.08,1.3,1.5,4.14,2.89,4.14,.5,.21,3.27-3.42,3.48-4.21,.21-.78-.56-1.32-.57-2.91,.05-1.77,.12-13.5,.19-14.7,0,0,0,0,0,0,.12-2.24,2.58-1.51-.3-4.05-2.88-2.54-3.97-2.54-4.31-1.83-.34,.71,.84,5.36,.84,6.32v14.96Z"/><path class="cls-2" d="M447.83,748.23c-.57-.02-8.19-1.87-15.86-6.11,5.6-5.01,7.73-9.87,8.36-11.67,.03,0,.05,0,.08,0,3.57-.19-.39-2.86-1.65-3.83-1.96-1.51-2.61-.74-3.34,0-.33,.34-3.33,.83-6.69,1.23v-9.65c0-1.16,.02-2.16,.04-3.04,4.02-.15,6.9,.11,9.11,.42,.02,0,.04,0,.05,0-.39,2.38-1.11,4.15-1.79,5.42-.05,.1-.11,.21-.16,.31-.11,.19-.21,.36-.31,.53-.06,.09-.11,.18-.17,.27-.16,.24-.31,.45-.44,.63,0,0,0,0,0,0-.34,.45-.58,.69-.58,.69,0,0,6.06-2.52,8.18-4.6,1.07-1.05,1.82-2.01,2.13-2.85,.29-.81,.16-1.52-.52-2.11,0,0-.01-.01-.02-.02-.88-.86-2.13-1.74-2.78-2.24-2.37-1.83-3.16-.9-4.04,0-.4,.41-4.25,1.01-8.59,1.49,.03-.77,.07-1.4,.1-1.93,0,0,0,0,0,0,.1-1.93,2.24-2.05-.26-4.24-2.5-2.19-3.45-2.19-3.74-1.58-.29,.61,.73,5.37,.73,6.2v1.88c-4.23,.39-8.23,.61-9.37,.37-.05-.01-.09-.02-.14-.03,.03-.31,.06-.52,.1-.59,.24-.52,.48-1.87-.95-2.27-1.43-.4-4.94-2.14-5.52-.95-.51,1.04,.48,2.16,.48,3.65v18.63c0,13.29-6.57,20.86-6.57,20.86,11.73-8.31,12.2-17.9,12.21-24.67,.44,.5,2.08,2.27,3.1,2.44,1.19,.19,1.27-.84,9.2-1.29,2.52-.14,4.44-.09,5.95,.03-1.67,3.74-3.93,7.04-6.41,9.9-3.4-2.35-6.54-5.21-8.75-8.65,0,0,1.14,5.24,6.39,11.19-7.24,7.28-15.19,11.04-15.19,11.04,7.88-2.07,13.75-5,18.13-8.09,2.8,2.54,6.39,5.08,11.04,7.29,0,0,.29,2.07,1.7,1.62,1.41-.45,1.38-1.56,4.11-2.81,2.73-1.25,3.61-2.85,2.67-2.89Zm-22.16-20.05c-3.03,.28-5.8,.43-6.68,.24-1.77-.37-2.78-.93-3.1-.51,0-.34,0-.68,0-1,0-3.88,.04-7.63,.12-10.23,.1,.03,.2,.09,.29,.1,1.34,.22,1.52-.86,9.37-1.44v12.84Z"/><path class="cls-2" d="M359.42,732.94c7.88-.14,7.28,1.21,9.09,.58,1.92-.66,.17-1.86-1.76-2.99-.23-.14-.45-.24-.65-.31,.03-.03,.05-.05,.07-.08,2.83-2.9,4.26-8.96,4.26-8.96,1.76-.62,.59-1.71-1.63-3.23-2.21-1.52-3.09-.65-3.51-.24-.39,.37-.77,1.05-5.87,1.47v-2.55c0-.93,.01-1.74,.03-2.48,7.36-.37,10.22,1.15,12.46,1.01,3.55-.22-.39-3.21-1.64-4.31-1.95-1.7-2.59-.83-3.32,0-.34,.39-3.72,.97-7.43,1.43,.04-.88,.08-1.59,.12-2.17,0,0,0,0,0,0,.1-1.79,2.24-1.9-.26-3.94-2.5-2.04-3.45-2.04-3.74-1.47-.29,.57,.73,4.99,.73,5.76v2.16c-3.11,.3-5.92,.45-6.77,.25-1.6-.38-2.58-.94-2.98-.7,.24-.58,.36-.99,.31-1.15-.16-.6-1.92-2.63-4.39-3.18-2.47-.55-1.56,1.04-2.15,1.37-.47,.26-3.03,.91-4.39,1.15-.76-1.02-3.8-2.96-4.06-2.43-.45,.92,.4,3.42,.4,4.83v33.17c0,1.9-.33,4.67-.4,5.7-.06,1.03,1.56,3.15,2.21,2.99s3.25-4.89,2.99-6.24c-.26-1.36-1.38-2.82-1.38-7.22v-7.61c.35,.32,.23,.74,.82,1.26,2.34,2.1,1.04,9.56,5.46,8.61,7-1.49,3.64-7.56,1.91-13.03-1.24-3.92-4.13-7.01-5.26-8.1,.98-.72,2.08-1.68,3.2-2.95,2.17-2.48,3.75-5.07,4.52-6.71,0,.04-.02,.06-.02,.1,0,0,2.02,2.68,3.21,2.9,1.05,.19,1.24-.7,6.77-1.25v5.01c-3.72,.2-5.1,.19-6.11,.16-.98-1.01-2.91-2.15-3.11-1.42-.27,1,.7,2.92,.83,4.08,.12,1.17,.49,4.67,.63,6.03,.14,1.36,.26,3.11,.15,4.61-.03,.38,.11,.78,.33,1.12l-.09,.1s.03-.02,.12-.07c.35,.51,.88,.89,1.35,.82,.46-.07,.87-.64,1.19-1.32,1.09-.13,.76-.22,2.91-.34-.96,2.01-4.75,10.9-14.55,18.65,0,0,12.48-6.05,16.37-13.24v6.73c0,2.04-.36,5.01-.43,6.12-.07,1.11,1.68,3.38,2.37,3.21,.7-.17,3.49-5.25,3.21-6.7-.28-1.46-2.09-3.03-2.09-7.75v-7.23Zm0-12.32c3.99-.16,6.3-.23,6.3-.23,.38,1.86,.4,3.59,.26,5.1-.38-.4-.82-.77-1.33-1.07-1.63-.93-1.91-.22-2.32,.2-.18,.18-1.34,.4-2.91,.59v-4.59Zm0,6.5c1.63,.05,3.28,.25,4.66,.7,.59,.19,1.06,.29,1.46,.33-.2,.81-.41,1.48-.57,1.9-.67,.09-.99,.52-.99,.52,0,0-.21,.35-4.2,.92-.12,.02-.23,.02-.35,.04v-4.41Zm-20.05-9.18c-1.72,3.42-3.92,5.97-3.63,6.11,.15,.07,.51-.22,1.82-1.01,6.2,9.7,2.14,11.8,.69,11.69-.86-.06-1.57-.84-2.51-1.48v-14.03c0-4.75,.3-6.64,.25-7.68l4.7-.25s.4,3.23-1.33,6.65Zm16.99,13.84c-2.16,.13-3.02,.16-4.19,.15,.09-.38,.13-.7,.11-.84-.09-.54-.98-.83-1.06-1.6-.02-.21-.07-.68-.13-1.3,.37,.05,.76-.01,1.14-.2,.67-.34,2.25-.65,4.13-.81v4.59Zm0-6.29c-1.29,.09-2.63,.16-3.87,.17-.69,0-1.22-.06-1.68-.14-.12-1.18-.25-2.36-.33-3.16-.05-.47-.02-.78,.03-1.01,1.33-.25,2.98-.45,5.85-.6v4.74Z"/><path class="cls-2" d="M377.71,745.77c-.81-.22-8.64-1.57-17.12-11.51,0,0,2.42,8.58,8.53,15.31,0,0-.23,1.93,1.11,1.79s2.26-2.14,4.93-2.73c2.67-.6,3.36-2.64,2.55-2.86Z"/><path class="cls-2" d="M436.21,273.9c0,2.46-.43,6.06-.51,7.39-.08,1.34,2.02,4.08,2.87,3.87,.84-.21,4.22-6.34,3.88-8.1-.34-1.76-1.79-3.66-1.79-9.37v-9.88c.45,.42,.3,.96,1.06,1.64,3.04,2.72,1.35,12.39,7.09,11.17,9.08-1.93,4.73-9.8,2.47-16.9-1.61-5.08-5.36-9.09-6.82-10.51,1.27-.94,2.7-2.17,4.15-3.83,2.81-3.22,4.87-6.58,5.87-8.7,0,.05-.02,.08-.02,.13,0,0,2.62,3.47,4.16,3.76,1.36,.25,1.61-.9,8.78-1.62v6.49c-4.82,.26-6.61,.24-7.93,.21-1.27-1.31-3.78-2.79-4.04-1.84-.35,1.3,.91,3.78,1.07,5.3,.16,1.52,.63,6.05,.81,7.81,.18,1.76,.34,4.03,.19,5.97-.04,.49,.14,1.01,.43,1.45l-.12,.13s.03-.03,.16-.08c.45,.67,1.15,1.15,1.75,1.06,.6-.09,1.12-.83,1.54-1.71,1.41-.17,.99-.29,3.78-.44-1.24,2.6-6.15,14.13-18.87,24.19,0,0,16.19-7.85,21.23-17.17v8.73c0,2.65-.46,6.5-.55,7.94-.09,1.44,2.17,4.38,3.08,4.16,.91-.23,4.53-6.8,4.17-8.69-.36-1.89-2.72-3.93-2.72-10.06v-9.37c10.22-.18,9.44,1.56,11.79,.75,2.49-.86,.22-2.42-2.28-3.88-.3-.18-.59-.31-.85-.41,.03-.04,.06-.06,.1-.1,3.67-3.77,5.52-11.62,5.52-11.62,2.28-.81,.76-2.22-2.11-4.19-2.87-1.97-4.01-.85-4.56-.32-.5,.49-1,1.36-7.62,1.91v-3.31c0-1.2,.01-2.26,.04-3.22,9.55-.48,13.26,1.49,16.16,1.31,4.6-.28-.51-4.17-2.13-5.59-2.52-2.21-3.37-1.08-4.31,0-.44,.51-4.83,1.26-9.64,1.85,.05-1.14,.11-2.06,.15-2.81,0,0,0,0,0,0,.13-2.33,2.91-2.47-.34-5.11-3.25-2.64-4.47-2.64-4.85-1.9-.38,.74,.94,6.47,.94,7.46v2.81c-4.04,.39-7.68,.59-8.78,.33-2.07-.49-3.34-1.22-3.87-.91,.32-.75,.46-1.28,.41-1.49-.21-.77-2.49-3.42-5.69-4.13-3.21-.72-2.02,1.35-2.78,1.77-.61,.34-3.93,1.18-5.7,1.5-.99-1.32-4.93-3.84-5.27-3.15-.59,1.2,.51,4.44,.51,6.27v43.03Zm31.18-18.35c-2.8,.17-3.91,.2-5.43,.2,.12-.5,.17-.9,.15-1.09-.11-.69-1.27-1.08-1.38-2.08-.03-.27-.09-.89-.17-1.68,.48,.07,.99-.01,1.48-.26,.87-.44,2.92-.85,5.36-1.05v5.95Zm0-8.16c-1.68,.12-3.42,.21-5.02,.22-.89,0-1.58-.07-2.18-.19-.16-1.53-.32-3.06-.43-4.1-.06-.61-.03-1.01,.04-1.31,1.73-.33,3.86-.58,7.59-.77v6.14Zm3.98-6.32c5.18-.21,8.17-.3,8.17-.3,.5,2.42,.52,4.66,.34,6.61-.49-.51-1.06-1-1.72-1.38-2.12-1.21-2.48-.29-3.01,.25-.23,.24-1.74,.52-3.78,.77v-5.95Zm0,8.44c2.11,.07,4.25,.33,6.04,.91,.76,.25,1.37,.38,1.89,.43-.26,1.06-.54,1.92-.74,2.46-.87,.12-1.28,.67-1.28,.67,0,0-.28,.46-5.45,1.19-.15,.02-.3,.03-.45,.05v-5.72Zm-30.71-3.98v-6.27c0-6.16,.39-8.62,.33-9.96l6.09-.32s.52,4.19-1.72,8.63c-2.24,4.44-5.08,7.75-4.7,7.92,.2,.09,.67-.28,2.36-1.32,8.04,12.59,2.78,15.3,.89,15.17-1.11-.08-2.04-1.09-3.25-1.92v-11.93Z"/><path class="cls-2" d="M472.88,258.76s3.14,11.13,11.07,19.86c0,0-.3,2.5,1.43,2.32,1.73-.18,2.94-2.77,6.4-3.54,3.46-.77,4.36-3.43,3.3-3.71-1.05-.28-11.2-2.04-22.2-14.93Z"/></g></g><text class="cls-3" transform="translate(224.43 894.9)"><tspan x="0" y="0">陳皮製茶是由苗栗製茶工廠第四代所創立，帶點世代交替</tspan><tspan x="48" y="43">與痞風，透過家族流傳的製茶工法與時俱進。</tspan></text><text class="cls-3" transform="translate(1235.71 894.9)"><tspan x="0" y="0">規劃排程與實際執行過程。</tspan></text><circle cx="1000.43" cy="468.98" r="21.16"/><circle cx="1174.87" cy="468.98" r="21.16"/><circle cx="1349.31" cy="468.98" r="21.16"/><circle cx="1523.75" cy="468.98" r="21.16"/><circle cx="1698.19" cy="468.98" r="21.16"/><text class="cls-4" transform="translate(951.43 279.56)"><tspan x="0" y="0">企業識別設計</tspan><tspan x="-25.2" y="33.6">由業主期望痞雅風設</tspan><tspan x="0" y="50.4">計企業識別。</tspan></text><line class="cls-5" x1="1000.43" y1="468.98" x2="1698.19" y2="468.98"/><text class="cls-4" transform="translate(1117.47 573.22)"><tspan x="0" y="0">二次設計及修正</tspan><tspan x="-16.8" y="33.6">修正業主提出的問題</tspan><tspan x="-8.4" y="50.4">並完善企業識別。</tspan></text><line class="cls-6" x1="1101.2" y1="584.63" x2="1248.53" y2="584.63"/><text class="cls-4" transform="translate(1466.35 573.22)"><tspan x="0" y="0">提案及開發過程</tspan><tspan x="-16.8" y="33.6">提案實際執行並針對</tspan><tspan x="-16.8" y="50.4">延伸商品包裝設計。</tspan></text><line class="cls-6" x1="1450.08" y1="584.63" x2="1597.41" y2="584.63"/><line class="cls-6" x1="926.77" y1="290.66" x2="1074.09" y2="290.66"/><text class="cls-4" transform="translate(1317.11 279.56)"><tspan x="0" y="0">包裝設計</tspan><tspan x="-37.93" y="33.6">於2021年中秋節禮</tspan><tspan x="0" y="50.4">盒提案。</tspan></text><line class="cls-6" x1="1275.64" y1="290.66" x2="1422.97" y2="290.66"/><text class="cls-4" transform="translate(1640.79 279.56)"><tspan x="0" y="0">完善設計及周邊</tspan><tspan x="-16.8" y="33.6">完善最後的企業識別</tspan><tspan x="-16.8" y="50.4">並根據企業識別統一</tspan><tspan x="-8.4" y="67.2">周邊包裝與產品。</tspan></text><line class="cls-6" x1="1624.52" y1="290.66" x2="1771.85" y2="290.66"/></svg>