<?xml version="1.0" encoding="UTF-8"?><svg id="_圖層_1" xmlns="http://www.w3.org/2000/svg" viewBox="0 0 1920 1080"><defs><style>.cls-1{fill:#fff;}.cls-2{fill:#978756;}.cls-3{font-size:16px;letter-spacing:.2em;}.cls-3,.cls-4{font-family:TaipeiSansTCBeta-Regular, 'Taipei Sans TC Beta';}.cls-5{stroke:#978756;}.cls-5,.cls-6{fill:none;stroke-miterlimit:10;}.cls-7{fill:#3b5d66;fill-rule:evenodd;}.cls-6{stroke:#231815;stroke-width:.25px;}.cls-4{font-size:14px;letter-spacing:.2em;}</style></defs><rect class="cls-1" width="1920" height="1080"/><g><path class="cls-7" d="M351.17,322.92v-1.96l-2.82,2.11-14.86-2.25,8.46-59.74-.61-9.93c0-35.51-27.33-34.17-50.13-46.2l-6.9,1.96,9.22,55.97-.35,53.15h-2.94l1.18,8.82-.22,5.93c-9.28,0-22.5,6.87-22.61,6.87h-13.73l-7.99-42.24c-9.13,6.16-16.02,18.32-18.65,31.34-1.54,7.57-9.76,34.48-9.76,39.41v12.79c0,11.24,9.96,24.58,21.61,24.58h11.82c1.3-15.44,28.04-25.95,41.42-30.37,15.66-5.18,37.41-14.86,56.88-14.86h26.52v17.7c0,9.11-4.49,20.66,5.95,20.66h12.74c12.96,0,16.73-31.86,16.73-46.22v-18.67c0-27.58-22.45-43.6-26.57-59.01-2.81,2.08-2.45,4.93-5.88,4.93h-3.94v18.67l1.78,28.55-14.25-5.83-.3,3.84h-11.81Z"/><path class="cls-7" d="M495.83,209.57c0,4.72,15.26,19.06,17.95,30.65,1.92-1.25,1.86-2.11,4.25-2.11,3.91,0,4.12,3.18,7.4,3.18h13.72c3.38,0,7.4-5.39,7.4-9.51v-2.11c0-13.16-14.11-27.49-27.48-27.49h-4.23c-5.4,0-19.02,2.85-19.02,7.39h0Zm151.13-20.07c-1.73,4.7-15.08,6.19-21.16,6.34,1.15-13.51,5.45-21.5-3.92-29.89-4.54-4.01-18.12-12.38-25.66-12.38-19.89,0,1.06,14.57,1.06,24.3,0,14.69-32.76,36.45-32.76,47.56v5.28c0,5.87,6.22,14.79,12.69,14.79h5.28c30.73,0,61.39-29.59,77.15-29.59,4.32,0,8.07,2.35,11.63,3.17,1.21-2.33,3.15-5.16,3.15-8.45v-5.27c0-6.79-7.63-15.87-14.78-15.87h-12.68Zm17.97,187.07c-.64,0-2.19,1.44-3.2,2.11,0,23.52-6.88,39.11-30.61,39.11h-16.93c-6.52,0-27.95-6.98-33.02-9.64l2.38-5.17c10.97,0,22.41,1.83,23.26-8.45h7.39c3.84,0,3.16,2.68,3.88,6.65l2.46-6.65,7.55-.11-2.27-3.05c6.55-.56,12.69-5.92,12.69-12.69v-4.11l-29.58-2.23h-14.81c-9.92,0-16.53,4.23-24.3,4.23-5.51,0-14.41-4.49-18.69-6.67-6.44-3.31-6.67-10.75-6.67-19.75,0-1.21,2.56-6.87,3.15-9.39l-9.47-1.17-4.35-.02-3.07,32.77c-5.52,3.7-7.79,9.51-17.95,9.51-3.84,0-5.9-.89-8.46-2.11,0-11.73,0-21.25-3-29.77-5.02-14.15-11.79-5.66-11.79-20.98v-5.27c0-7.03,16.55-33.92,21.12-37,3.08,2.06,6.35,4.42,6.35,9.53v10.56c0,5.48-3.33,12.15-4.95,15.68l9.18,16.02c.68-2.98,2.11-5.36,2.11-8.45,0-3.49-3.17-8.11-3.49-12.15l12.76-17.37,2.38,9.45c6.97-1.66,32-9.88,34.57-15.09,3.53-7.19,13.54-28.05,15.1-34.59h7.38c2.47,0,4.22,1.75,4.22,4.22v3.17c0,12.55-8.45,9.54-8.34,22.34l7.27-4.38h10.57c-.78-1.72-6.44-13.11-6.64-13.79l2.44-15.89,10.8,3.2-2.38-9.45c3.53-5.25,20.79-16.91,29.63-16.91h8.41c16.97,0,22.2,15.73,22.2,33.83l-.52,1.24,12.31,4.16-2.26,3.05h6.33v2.15l-12.69,3.93,19.03,1.34-7.39-10.58h10.56c2,7.61,11.63,5.37,11.63,17.95v7.39c0,3.59-1.88,7.42-5.27,7.42h-3.2c-4.86,0-5.99-3.19-12.68-3.19h-10.56c-8.86,0-8.47,34.37-8.47,45.46v5.27c11.89,0,24.34,6.33,24.34,17.97,0,5.29-4.23,9.47-7.43,11.63-4.67-1.1-15.21-5.28-19.01-5.28h0Zm-45.43-116.25l-4.77,.63,16.42,13.81,11.51,2.42,2.18-4.18c4.42,.1,6.36,2.14,6.36-2.11v-10.57c0-3.57-1.88-7.4-5.31-7.4-7.72,0-20.2,7.4-26.39,7.4h0Zm10.53,56.01h-7.38c-4.66,0-3.75-2.1-11.62-2.1,7.1,13.44,12.3,7.46,19.57,21.75l-12.17,15.36,9.48-1.19,18.9-.02,3.31-42.27c-10.48,.25-7.39,8.47-20.09,8.47h0Zm-69.75,33.83l41.51-2.25-10.84-24.19h3.16v-3.17c-11.47,.97-32.88,18.31-33.82,29.61h0Z"/><path class="cls-7" d="M245.17,638.1c-4.91,0-20.73,15.48-23.67,19.43-6.62,8.86-.37,24.99-.37,35.68,9.02,0,18.03-4.4,18.03-13.01v-3.02c22.72,0,53.37,2.53,71.93,7.21,15.62,3.93,44.86,27.85,50.29,27.85h8.01c9.04,0,21.83-9.07,32.84-11.26,10.47-2.05,24.98-6.3,25.28-18.81-20.25-4.7-14.75-12.06-43.08-12.03-16.94,.05-30.79-5.39-44.69-9.4-9.76-2.83-36.52-7.49-46.55-8.56-8.7-.92-16.52-1.09-25.98-1.05-6.03,0-9.66,1.62-11.12-2.92-.87-2.74-2.7-7.56-2.91-10.12h-8.01Zm28.29-11.8l-10.15-2.68-.09,2.48,8.99,1.2c3.96,.38,4.1-5.51,9.06-3.22l.9-10.03,9.11,.02c-2.41,3.59-5.02,2.68-5.02,6.01,0,2.13,.36,1.32,1,4,12.1-6.4,44.81-32.05,60.1-32.05,10.45-6.99,18.47-14.04,36.09-14.04,4.82-3.22,9.02-4.87,9.02-13.01v-5.02c0-7.73-16.56-24.06-24.06-24.06h-2c-7.47,0-11.19,5.02-19.05,5.02h-3.99c-3.63,0-5.59-.85-8.01-2.01l-6.87,3.32c-.48-14.64-13.89-28.36-29.2-28.36h-2c-11.94,0-16.21,7.01-26.05,7.01l-1.17,7.99c-.53,4.13,19.2,8.73,19.2,18.06,0,.75-4.97,5.46-6.01,7.02h6.01l3.41,5.79-6.38-1.01,.78,.99-8.18,8.95c-2.51-.33-1.37-.68-3.67-.68-1.45,0-20.22,13.53-24.38,15.69-9.37,4.92-17.7,8.46-17.7,22.37,0,7.4,6.4,20.07,14.03,20.07,10.24,0,35.9-33.41,43.83-41.34,17.58-17.58,16.1-5.52,28.92-14.17,8.89-6.03,14.15-13.65,28.43-13.65-7.71,11.53-49.12,30.5-50.09,42.1l-5-1.06-4.04,8.05h3.04v3.02h-4.01l-9,1.12,2.94,1.96-5.15,5.75,3.42,1.42-7.01,7.01h0Zm22.78-18.24l-2.23-4.91,8.25,5.95-2.77,3.16-.21-2.21-5.92,2.21,2.88-4.2h0Z"/><path class="cls-7" d="M671.39,485.4c.16,6.5,2.52,13.93,3.1,19.01,.62,5.64,.05,14.91,.06,20.98,.02,13.06-1.25,26.34-1.06,41l1.34,120.94-12.51,14.14-31.89,3.25c5.11,9.2,24.04,17.31,38.85,17.31h13.67c8.01,0,15.78-4.54,15.78-12.61,0-21.31-9.36-37.98-9.46-55.74l-.51-153.53c.46-10.78-1.76-31.56-12.1-31.56h-6.31c-6.45,0-8.67,5.73-15.78,7.37v7.35c0,2.04-.32,1.89-1.03,3.29l9.41-1.4,8.45,.21h0Zm-93.57,35.76c0-6.4,1.96-9.62,3.15-14.71-3.15-5.95-5.52-11.58-14.72-11.58-11.07,0-29.44,9.75-29.44,18.95,0,1.28,2.16,3.13,4.2,3.13h6.31c6.65,0,7.79-3.13,12.62-3.13h3.16v9.45c0,13.13-17.6,26.36-29.46,27.35v-4.2c0-4.08,5.27-3.12,5.27-12.62,0-7.07-7.49-13.7-14.72-12.64l-9.45,1.18v4.09c0,3.74,2.31,2.8,5.24,4.21,0,15.6-4.33,24.42-5.24,36.81-.48,6.25-2.74,11.66-3.17,17.87-.46,6.55-.28,13.4-1.27,19.77-1.43,9.26-4.78,28.16-5.04,37.02-.13,4.94-1.21,14.8-1.87,19.15-.7,4.74-3.38,15.65-3.38,16.59v6.33c0,7.33,3.15,7.01,3.15,17.87,2.81,1.51,6.52,5.27,8.41,5.27h3.17c5.93,0,12.59-7.76,12.59-13.68v-3.15c0-3.9-9.46-7.2-9.46-18.94v-3.15l6.49-64.13,.88-.03v6.31c3.47,2.33,13.23,9.46,17.86,9.46,11.83,0,34.31-19.77,44.17-22.08,0-9.57-5.26-16.71-5.26-24.17v-13.7c0-3.86,3.16-2.42,3.16-6.28,0-13.83-7.35-20.75-7.35-30.52v-2.11h0Zm-27.35,55.76s7.72-3.83,8.4-4.21v5.26c-1.1,1.62-1.39,3.15-4.2,3.15h-2.11c-4.59,0-8.45-2.53-9.46-6.31,4.65,.39,4.61,2.11,7.37,2.11h0Zm-24.19,15.76c0-7.22-1.74-19.97,5.27-19.97h1.04c5.07,0,16.84,11.86,16.84,14.71,0,1.56-13.54,6.85-15.79,7.37l5.64-9.24-13,7.13h0Zm145.11-83.07v21.03c-17.01,.38-13.95,14.72-34.7,14.72-1.53,2.28-3.15,3.51-3.15,7.36v7.35c5.16-.41,3.86-2.1,8.42-2.1h6.3c2.9,0,16.02,5.98,18.93,7.35-1.13,4.23-3.17,3.47-3.17,8.45v10.51h-8.41c-9.86,0-29.93,8.12-33.62,13.66,28.48,0,13.06,25.71,14.74,37.85l4.18,34.71v1.06c0,5.89-6.82,16.81-13.7,16.81h-1.04c-10.37,0-11.9-8.4-14.71-8.4-9.27,0-19.14,5.27-31.54,5.27h-6.32c-.56-6.55-12.62-12.58-12.62-25.24,0-21.88,1.77-32.79,9.46-47.32,3.91,2.06,23.56,16.81,25.25,16.81h1.05c5.56,0,7.49-4.2,10.5-4.2h2.11c2.38,0,8.26,5.28,12.64,6.31l-.16-18.39-29.29,7.87-.03-3.07-7.56-1.38,14.95-15.55c-4.43,0-10.91-.87-10.79-5.29l1.1-17.03,13.55-14.52,5.61-51.5v-4.2c0-5.05-3.15-5.46-3.15-10.51v-1.05c0-4.65,6.75-5.26,11.57-5.26h8.41c8.3,0,12.62,10.2,12.62,18.92v6.3c8.28-.17,13.44-7.35,19.97-7.35h12.62Zm-79.92,141.98c-1.28,1.89-2.08,1.85-2.08,4.2v3.15h5.22c6.05,0,8.7-3.15,11.58-3.15,3.06,0,12,7.31,16.82,8.42v-29.47c-11.83,8.67-1.78,16.84-31.54,16.84h0Z"/></g><text class="cls-3" transform="translate(224.43 894.9)"><tspan x="0" y="0">位於大稻埕中，據二代說明山海之間的理念是臺灣所販售</tspan><tspan x="9.6" y="43">的普洱茶是深耕於雲南大山，在兩座島嶼橫跨了海峽。</tspan></text><text class="cls-3" transform="translate(1235.71 894.9)"><tspan x="0" y="0">規劃排程與實際執行過程。</tspan></text><g><circle class="cls-2" cx="1000.43" cy="468.98" r="21.16"/><circle class="cls-2" cx="1174.87" cy="468.98" r="21.16"/><circle class="cls-2" cx="1349.31" cy="468.98" r="21.16"/><circle class="cls-2" cx="1523.75" cy="468.98" r="21.16"/><circle class="cls-2" cx="1698.19" cy="468.98" r="21.16"/><text class="cls-4" transform="translate(968.23 279.56)"><tspan x="0" y="0">同業分析</tspan><tspan x="-42" y="33.6">主要針對於同類別的</tspan><tspan x="-42" y="50.4">產業及商家統整優缺</tspan><tspan x="-25.2" y="67.2">與比較優劣勢。</tspan></text><text class="cls-4" transform="translate(1142.67 573.22)"><tspan x="0" y="0">確立定位</tspan><tspan x="-42" y="33.6">確定優劣勢後針對優</tspan><tspan x="-42" y="50.4">勢的部分加以凸顯並</tspan><tspan x="-42" y="67.2">改善劣勢，延伸發想</tspan><tspan x="0" y="84">關聯性。</tspan></text><text class="cls-4" transform="translate(1275.11 279.56)"><tspan x="0" y="0">初步設計及市場調查</tspan><tspan x="0" y="33.6">由關聯性延伸後設計</tspan><tspan x="0" y="50.4">幾款符合意象與概念</tspan><tspan x="0" y="67.2">的企業識別並且製作</tspan><tspan x="33.6" y="84">市場調查。</tspan></text><text class="cls-4" transform="translate(1640.79 279.56)"><tspan x="0" y="0">完善設計及周邊</tspan><tspan x="-16.8" y="33.6">完善最後的企業識別</tspan><tspan x="-16.8" y="50.4">並根據企業識別統一</tspan><tspan x="-8.4" y="67.2">周邊包裝與產品。</tspan></text><text class="cls-4" transform="translate(1466.35 573.22)"><tspan x="0" y="0">二次設計及修正</tspan><tspan x="-16.8" y="33.6">以業主及市場調查的</tspan><tspan x="-16.8" y="50.4">結果進行第二次的設</tspan><tspan x="-16.8" y="67.2">計與修改所提及的問</tspan><tspan x="33.6" y="84">題點。</tspan></text><line class="cls-5" x1="1000.43" y1="468.98" x2="1698.19" y2="468.98"/><line class="cls-6" x1="926.77" y1="290.66" x2="1074.09" y2="290.66"/><line class="cls-6" x1="1101.2" y1="584.63" x2="1248.53" y2="584.63"/><line class="cls-6" x1="1450.08" y1="584.63" x2="1597.41" y2="584.63"/><line class="cls-6" x1="1275.64" y1="290.66" x2="1422.97" y2="290.66"/><line class="cls-6" x1="1624.52" y1="290.66" x2="1771.85" y2="290.66"/></g></svg>