<?xml version="1.0" encoding="UTF-8"?><svg id="_圖層_1" xmlns="http://www.w3.org/2000/svg" xmlns:xlink="http://www.w3.org/1999/xlink" viewBox="0 0 136.06 136.06"><defs><style>.cls-1{fill:none;}.cls-2{letter-spacing:.87em;}.cls-3{clip-path:url(#clippath);}.cls-4,.cls-5,.cls-6{fill:#1f57ac;}.cls-5{font-size:2.08px;}.cls-5,.cls-6{font-family:HuayuanGothic-Regular, 'Huayuan Gothic';}.cls-6{font-size:4.15px;}</style><clipPath id="clippath"><rect class="cls-1" x="10.26" y="10.26" width="115.54" height="115.54"/></clipPath></defs><g class="cls-3"><text class="cls-6" transform="translate(38.75 106.91)"><tspan class="cls-2" x="0" y="0">企業識別系統設</tspan><tspan x="54.41" y="0">計</tspan></text><path class="cls-4" d="M71.34,37.61c1.83,2.63,3.85,5.15,6.08,7.58,2.23,2.43,4.57,4.69,7.04,6.78,2.47,2.09,5.04,3.97,7.71,5.64,2.67,1.67,5.34,3.08,8.01,4.24-1.02,1.02-1.98,2.16-2.87,3.41s-1.71,2.49-2.47,3.74c-2.58-1.42-5.19-3.07-7.81-4.94-2.63-1.87-5.14-3.84-7.55-5.91s-4.63-4.2-6.68-6.38c-2.05-2.18-3.78-4.3-5.21-6.34-1.33,2.05-2.97,4.14-4.91,6.28-1.94,2.14-4.05,4.23-6.35,6.28s-4.75,4.02-7.38,5.91c-2.63,1.89-5.32,3.62-8.08,5.18-.27-.44-.59-.96-.97-1.54-.38-.58-.8-1.16-1.27-1.74-.47-.58-.93-1.15-1.4-1.7-.47-.56-.93-1.03-1.37-1.44,2.89-1.47,5.71-3.21,8.45-5.21,2.74-2,5.3-4.12,7.68-6.34,2.38-2.23,4.53-4.5,6.44-6.81s3.5-4.54,4.74-6.68h8.15Zm1.14,53.62h23.91v7.21H39.55v-7.21h7.28v-23.17h7.81v23.17h9.48V56.58h8.35v14.29h17.9v7.01h-17.9v13.36Z"/><text class="cls-5" transform="translate(35.9 56.43) rotate(-27.58)"><tspan x="0" y="0">C</tspan></text><text class="cls-5" transform="translate(38.56 54.99) rotate(-30.48)"><tspan x="0" y="0">o</tspan></text><text class="cls-5" transform="translate(41.07 53.46) rotate(-33.03)"><tspan x="0" y="0">r</tspan></text><text class="cls-5" transform="translate(43.14 52.08) rotate(-35.5)"><tspan x="0" y="0">p</tspan></text><text class="cls-5" transform="translate(45.54 50.33) rotate(-37.58)"><tspan x="0" y="0">o</tspan></text><text class="cls-5" transform="translate(47.84 48.52) rotate(-39.44)"><tspan x="0" y="0">r</tspan></text><text class="cls-5" transform="translate(49.72 46.95) rotate(-41.28)"><tspan x="0" y="0">a</tspan></text><text class="cls-5" transform="translate(51.8 45.08) rotate(-43.16)"><tspan x="0" y="0">t</tspan></text><text class="cls-5" transform="translate(53.59 43.37) rotate(-44.84)"><tspan x="0" y="0">i</tspan></text><text class="cls-5" transform="translate(55.17 41.76) rotate(-46.81)"><tspan x="0" y="0">o</tspan></text><text class="cls-5" transform="translate(57.17 39.58) rotate(-49.23)"><tspan x="0" y="0">n</tspan></text><text class="cls-5" transform="translate(59.05 37.34) rotate(-51.56)"><tspan x="0" y="0">I</tspan></text><text class="cls-5" transform="translate(60.43 35.51) rotate(-51.57)"><tspan x="0" y="0">d</tspan></text><text class="cls-5" transform="translate(62.26 33.37) rotate(-37.79)"><tspan x="0" y="0">e</tspan></text><text class="cls-5" transform="translate(64.5 32.05) rotate(-17.4)"><tspan x="0" y="0">n</tspan></text><text class="cls-5" transform="translate(67.18 31.55) rotate(.98)"><tspan x="0" y="0">t</tspan></text><text class="cls-5" transform="translate(69.4 31.81) rotate(17.12)"><tspan x="0" y="0">i</tspan></text><text class="cls-5" transform="translate(71.38 32.46) rotate(33.95)"><tspan x="0" y="0">t</tspan></text><text class="cls-5" transform="translate(73.15 33.94) rotate(49.18)"><tspan x="0" y="0">y</tspan></text><text class="cls-5" transform="translate(74.88 36.07) rotate(49.95)"><tspan x="0" y="0">S</tspan></text><text class="cls-5" transform="translate(76.79 38.28) rotate(47.75)"><tspan x="0" y="0">y</tspan></text><text class="cls-5" transform="translate(78.66 40.31) rotate(45.83)"><tspan x="0" y="0">s</tspan></text><text class="cls-5" transform="translate(80.5 42.15) rotate(43.97)"><tspan x="0" y="0">t</tspan></text><text class="cls-5" transform="translate(82.26 43.82) rotate(42.02)"><tspan x="0" y="0">e</tspan></text><text class="cls-5" transform="translate(84.38 45.7) rotate(39.52)"><tspan x="0" y="0">m</tspan></text><text class="cls-5" transform="translate(87.22 47.97) rotate(36.67)"><tspan x="0" y="0">D</tspan></text><text class="cls-5" transform="translate(89.74 49.8) rotate(34.08)"><tspan x="0" y="0">e</tspan></text><text class="cls-5" transform="translate(92.1 51.36) rotate(31.63)"><tspan x="0" y="0">s</tspan></text><text class="cls-5" transform="translate(94.4 52.73) rotate(29.5)"><tspan x="0" y="0">i</tspan></text><text class="cls-5" transform="translate(96.38 53.82) rotate(27.12)"><tspan x="0" y="0">g</tspan></text><text class="cls-5" transform="translate(98.95 55.09) rotate(24.21)"><tspan x="0" y="0">n</tspan></text></g></svg>