<?xml version="1.0" encoding="UTF-8"?><svg id="_圖層_1" xmlns="http://www.w3.org/2000/svg" xmlns:xlink="http://www.w3.org/1999/xlink" viewBox="0 0 136.06 147.4"><defs><style>.cls-1{fill:none;}.cls-2{letter-spacing:.84em;}.cls-3{clip-path:url(#clippath);}.cls-4,.cls-5,.cls-6{fill:#56314b;}.cls-5{font-size:2.08px;}.cls-5,.cls-6{font-family:HuayuanGothic-Regular, 'Huayuan Gothic';}.cls-6{font-size:4.15px;}</style><clipPath id="clippath"><rect class="cls-1" x="10.26" y="15.93" width="115.54" height="115.54"/></clipPath></defs><g class="cls-3"><text class="cls-6" transform="translate(72.5 48.08)"><tspan class="cls-2" x="0" y="0">包裝設</tspan><tspan x="22.88" y="0">計</tspan></text><path class="cls-4" d="M84.59,97.01c1.38,0,2.49-.1,3.34-.3,.85-.2,1.52-.57,2.04-1.1,.51-.53,.9-1.29,1.17-2.27,.27-.98,.49-2.25,.67-3.81,.98,.62,2.22,1.19,3.71,1.7,1.49,.51,2.79,.86,3.91,1.03-.31,2.36-.76,4.32-1.34,5.88-.58,1.56-1.4,2.81-2.47,3.74-1.07,.94-2.44,1.59-4.11,1.97s-3.8,.57-6.38,.57h-21.77c-3.07,0-5.63-.18-7.68-.53-2.05-.36-3.67-.97-4.87-1.84-1.2-.87-2.06-2.07-2.57-3.61-.51-1.54-.77-3.46-.77-5.78v-25.11c-.76,.76-1.49,1.46-2.2,2.1-.71,.65-1.43,1.28-2.14,1.9-.36-.4-.81-.87-1.37-1.4-.56-.53-1.14-1.09-1.74-1.67-.6-.58-1.2-1.12-1.8-1.64-.6-.51-1.12-.95-1.57-1.3,1.78-1.29,3.53-2.78,5.24-4.47,1.71-1.69,3.31-3.51,4.81-5.44,1.49-1.94,2.87-3.97,4.14-6.11,1.27-2.14,2.35-4.32,3.24-6.54l8.21,2.47c-.49,1.16-1.02,2.27-1.6,3.34-.58,1.07-1.18,2.16-1.8,3.27h35.26c0,.45-.02,.87-.07,1.27v1.1c0,.38-.02,.7-.07,.97-.13,5.25-.29,9.72-.47,13.39-.18,3.67-.38,6.73-.6,9.18-.22,2.45-.49,4.36-.8,5.74-.31,1.38-.71,2.4-1.2,3.07-.67,1.02-1.39,1.74-2.17,2.14s-1.68,.69-2.7,.87c-.89,.18-2,.29-3.34,.33-1.33,.05-2.78,.02-4.34-.07-.04-1.16-.25-2.45-.6-3.87-.36-1.42-.85-2.65-1.47-3.67,2.36,.22,4.16,.29,5.41,.2,.89,.04,1.58-.29,2.07-1,.27-.36,.51-.99,.73-1.9,.22-.91,.41-2.24,.57-3.97s.3-3.94,.43-6.61c.13-2.67,.27-5.9,.4-9.68h-31.85c-.62,.89-1.26,1.74-1.9,2.54s-1.28,1.58-1.9,2.34h25.51v21.37h-20.43v6.74c0,.98,.09,1.76,.27,2.34,.18,.58,.56,1.02,1.14,1.33,.58,.31,1.39,.52,2.44,.63,1.05,.11,2.44,.17,4.17,.17h21.24Zm-29.25-25.64v7.35h12.69v-7.35h-12.69Z"/><text class="cls-5" transform="translate(41.82 76.04) rotate(90)"><tspan x="0" y="0">P</tspan><tspan x="5.06" y="0">a</tspan><tspan x="10.07" y="0">c</tspan><tspan x="14.97" y="0">k</tspan></text><text class="cls-5" transform="translate(41.82 95.98) rotate(89.82)"><tspan x="0" y="0">a</tspan></text><text class="cls-5" transform="translate(42.25 101.23) rotate(74.42)"><tspan x="0" y="0">g</tspan></text><text class="cls-5" transform="translate(45.15 106.08) rotate(32.71)"><tspan x="0" y="0">e</tspan></text><text class="cls-5" transform="translate(50.22 108.04) rotate(8.2)"><tspan x="0" y="0">D</tspan></text><text class="cls-5" transform="translate(55.6 108.51) rotate(1.24)"><tspan x="0" y="0">e</tspan></text><text class="cls-5" transform="translate(60.58 108.54)"><tspan x="0" y="0">s</tspan><tspan x="4.83" y="0">i</tspan><tspan x="9.21" y="0">g</tspan><tspan x="14.22" y="0">n</tspan></text></g></svg>