<?xml version="1.0" encoding="UTF-8"?><svg id="_圖層_1" xmlns="http://www.w3.org/2000/svg" viewBox="0 0 272.13 396.85"><defs><style>.cls-1{fill:#fff;}.cls-2{fill:#abcd2a;}.cls-3{fill:#c8c9ca;}.cls-4{fill:#3e3a39;}.cls-5{font-family:HuayuanGothic-Bold, 'Huayuan Gothic';font-size:40px;}</style></defs><rect class="cls-2" x="-2.06" y="-3.42" width="276.25" height="403.69"/><g><path class="cls-1" d="M70.59,199.25c-2.32-2.86-1.2-7.39,1.43-9.97,2.63-2.58,6.33-3.69,9.87-4.72,3.38-.98,6.88-1.97,10.36-1.45,.94,.14,1.88,.39,2.83,.35,.96-.04,1.88-.38,2.79-.7,14.92-5.29,31.05-7.15,46.79-5.4,5.81,.65,12.04,1.71,17.22-1,.7,1.13,2.06,1.63,3.34,2.01,11.33,3.36,24.11,3.66,33.38,10.98,1.32,1.04,2.61,2.34,2.86,4,.25,1.69-.68,3.39-2.02,4.44s-3.04,1.53-4.72,1.81c-2.63,.43-5.32,.41-7.99,.38-9.23-.09-18.48-.18-27.68-1-16.44-1.47-33.52-5.2-49.06,.36-4.11,1.47-7.99,3.57-12.15,4.88-4.45,1.41-9.13,1.89-13.78,2.37-1.33,.14-2.67,.27-3.98,.06-3.54-.57-6.16-3.49-8.48-6.22-.47-.07-.93-.72-1-1.19Z"/><path class="cls-1" d="M211.89,164.46l-.21,10.75,.47,2.52,1.76,.44,1.08,.23-.43,1.74-3.9,1.16-2.9,3.13-1.41,3.36-1.31,9.77-.91,9.03-.51,11.04,1.39,7.68,.55,1.64v3.55l.54,7.05,4.05,.99,.31,15.56-3.03,1.06-3.38,2.5,.31,3.74,16.16,3.42-.57-5.85-.13-3.05-.13-3.11,.61-13.49,2.72-.03-.16,14.91-1.82,.93-1.76,5.44,3.26,.78s6.84,1.19,6.94,1.04,3.1-3.07,3.1-3.07l.47-20.95,3.12-1.05,.34-9.06-1.02-16.05-.33-14.07-2.16-10.46-3.07-5.69-4.21-1.95-1.62-.9-.73-1.26s-5.95-27.48-11.47-13.4Z"/><path class="cls-4" d="M212.92,165.35l-1.44-.58-.83-.95s0-1.35,0-1.43,.24-1.49,.24-1.49c0,0-.44-2.1-.24-2.14s1.15-1.01,1.15-1.01c0,0-.3-2.94-.27-3.07s.91-1.96,1.05-2.13,3.22-2.72,3.22-2.72l3.84,.47h1.29l2.93-.82,2.32,.82,1.78,1.68,3.42-.05,2.19,2.14,.92,2.25,2.25,3.21-.59,2.92s-1.09,1.12-1.16,1.17,.48,2.71,.48,2.71l-.73,2.5-.39,3.33-2.35,1.97-2.3,2.73-3.28,.68-2.24,.12-1.81,.54-2.49-.31-3.65-.98-1.68-2.4-.28-.96,1.46-1.81-.25-1.69-1.74-1.32-.82-3.36Z"/><path class="cls-3" d="M234.48,206.06l-2.16,1.06-12.26,.69-1.91-.47-1.38,.12-4.12-.12-1.42,6.26-1.21,2.4-.12,6.25s-.37,3.31-.39,3.52-.78,1.45-.78,1.45h-1.93l-1.23-.28,.54,10.6,4.05,.99,8.58,.74,5.54-.11,8.79-.82,3.12-1.05,.34-7.53-.44-11.46-.62-9.74-.96-2.52Z"/><polygon class="cls-1" points="108.1 157.92 106.12 164.26 108.1 166.48 111.56 173.91 112.28 175.43 114.59 174.61 117.24 175.43 119.16 177.29 121.08 182.58 121.97 193.01 119.52 194.12 118.28 194.15 118.77 198 118.28 199.48 117.02 199.48 115.52 199.73 107.22 199.62 99.33 200.02 92.06 198.22 83.54 198.33 78.49 196.79 78.49 189.48 83.95 175.81 85.55 175.65 88.44 168.11 89.84 162.84 94.79 159.97 97.16 159.38 98.18 155.62 92.61 156.09 90.63 155.11 90.63 151.23 92.15 144.79 93.12 139.63 96.06 134.83 101.55 131.96 107.88 132.15 112.85 134.55 115.55 138.04 116.21 141.44 115.48 146.04 115.45 151.22 115.32 156.44 114.79 157.38 111.94 156.93 108.1 157.92"/><path class="cls-4" d="M98.18,155.62l-5.57,.47-1.98-.97,.25-4.94,1.35-6.22,1.09-4.65,2.74-4.48,5.8-2.86,5.25,.03,4.45,1.62s3.42,2.7,3.42,2.8,1.04,3.52,1.04,3.52v3.71l-.53,2.39-4.37-.44-1.59-4.21s-2.36,3.48-1.91,4.02l-6.17-.25s-.91-3.28-.73-4.21c0,0-1.72,3.07-1.24,6.56l-1.3,1.35,.37,1.33,.78,.76,.7,2.39-1.85,2.28Z"/><polygon class="cls-4" points="114.58 152.64 112.37 156.99 115.36 157.58 115.49 153.07 114.58 152.64"/><path class="cls-2" d="M83.95,175.81h1.86l.98-.52,1.84,1.19s1.01,.27,1.19,.27,2.25-.73,2.25-.73l1.25,.89,1.24,.05h1.24l6.32,1.46,2.26,7.58,2.92,4.39,2.74,.1,3.83-2.28,1.83-4.15,2.28,1.19,.79,2.8-.49,4.22,.28,4.07-.28,3.14-2.76,.25-7.08-.14-8.21,.5-6.56-1.46-4.32-.57-5.81,.28-3.41-.94-1.64-.59-.29-4.52,2.7-9.49,3.05-6.97Z"/><path class="cls-1" d="M149.17,138.56l-.4,1.76,.89,6.74,2.29,4.48,2.59,.58-.03,1.19-2.14,.48-2.99,3.56-3.97,8.88-1.75,1.12-3.11,1.91-1.99,3.42v5.18l1.23,1.13h1.66l.41,12.4,4.19,1.16,5.52-.07,7.22,.56,3.46-.92,.37-1.86,11.59-.32,5.14,.34,4.89-1.71v-5.99l-3.1-7.57,1.78-3.79-.65-4.78-3.98-7.04-5.81-6.76-4.3-2.71-1.76,.62-.44-3.5,1.96-2.35,1.62-6.93s-.17-3.47-.18-3.51-1.93-4.66-1.93-4.66l-4.67-2.23-5.81-.38-5.37,1.54-2.86,3.11-.32,4.8,.73,2.11Z"/><polygon class="cls-2" points="169.32 190.04 179.36 190.28 184.25 188.57 183.86 182.2 181.14 175.01 176.79 177.98 171.57 178.57 168.47 177.75 169.78 180.71 170.47 185.55 169.32 190.04"/><polygon class="cls-2" points="165.66 166.63 169.88 165.57 170.64 168.11 165.66 166.63"/><polygon class="cls-2" points="154.13 167.8 151.9 167.23 151.96 168.16 153.27 169.01 154.13 167.8"/><path class="cls-4" d="M149.17,138.56l1.23,.55,10.52-.58,1.58-1.39,1.53,1.97,.28,1.45,1.67,1.06-.48,1.68-1.53,1.01v.75l1.84,1.54,.17,.45,2.25-2.99,1.33-4.78v-4.01l-.98-3.94-1.93-2.35s-4.65-1.95-4.78-1.98-6.63,.2-6.63,.2l-4.27,1.74-2.12,3.42s-1.06,4.6,.31,6.21Z"/><path class="cls-1" d="M36.7,126.09l-.96,3.35-.41,3.54-.62,.92,1.63,5.17,1.96,1.32s2.27-.03,2.89-.2l-.14,1.72-3.96,2.05-3.22,4.68-1.51,.88-1.74,2.67,.14,3.13-2.19,5.68-.3,4.99,2.21,1.78-1.35,17.95,3.35,.95-1.8,9.03-1.86-.28-2.34,1.61-.33,2.6,1.43,3.18,6.08,4.52,3.9-1.91,1.46-5.74,4.39-11.19,4.02,.06,3.13,7.13,5.27,4.34-2.46,5.09,2.46,2.65,3.55-.69,2.75-4.56,2.89-5.05-.67-2.05-3.31-2.75-2.39-3.31-.04-3.02,3.51-2.1-4.05-19.75s9.37,2.22,11.6-6.78l-1.2-3.19-.34-7.81-3.72-11.48-2.6-4.66-1.88-5.58-2.4-4.12s-4.46-8.07-14.49-4.15c0,0-7.34-.88-6.36,9.4Z"/><path class="cls-2" d="M41.53,153.13l3.59,1.15,1.37-.13,1.09-.65,1.01,.81h1.13l4.82,5.82,.71,2.28-.71,1.79,3.54,.27,4.05,19.75s-11.12,8.73-33.01,1.49l1.35-17.95,4.58-2.04,3.94-6.48,2.53-6.11Z"/><path class="cls-4" d="M36.7,126.54l2.19,3.42s2.27,.97,4.93,.38,3.97-.08,3.97-.08c0,0,1.27,1.6,.34,2.86s-1.66,1.19-1.66,1.19c0,0-1.04,4.55-.28,9.96,.76,5.41,5.74,12.97,6.98,14.21s2.08,3.94,2.08,3.94l-.71,1.79s13.37,3.68,15.14-6.51l-1.2-2.2-.18-6.71-2.08-9s-2.41-6.68-4.08-8.67c0,0-1.55-7.81-6.09-12.18s-10.63-3.62-13-2.23c0,0-7.03-1.17-6.36,9.85Z"/><path class="cls-2" d="M121.14,182.91l3.4-.5,5.08,.64,4.59-.19,3.33-.27s3.06,.7,3.11,.69,.67,.8,.67,.8l.54,7.33,4.19,1.16,7.33,.27,5.41,.21,3.52-1.31,.66-1.42,8-.43,8.04,.51,5.52-1.82,.1-2.17,2.98,.41,2.13,2.56,4.45,2.45,4.73,1.5,1.37,3.06-1.27,3.28-21.48,9.7-42.63,4.25-30.78-2.9-26.54-5.38-7.45-5.95v-3.36l1.86-2.38,4.02-1.4,1.35-.1,.8-.11,.31,5,5.96,1.35,6.9-.22,7.85,1.86,10.8-.52,6.21,.41,2.56-.59-.49-4.9,3.54-1.3,.28-1.28-.97-8.92Z"/><g><g><path d="M154.65,152.74s-.08,0-.12,0c-2.44-.04-5.34-1.17-6.13-9.56-.02-.18-.04-.4-.07-.64-.14-1.28-.36-3.21,0-4.49,.09-.33,.44-.53,.77-.43,.33,.09,.53,.44,.43,.77-.29,1.05-.09,2.84,.04,4.02,.03,.25,.05,.47,.07,.66,.79,8.37,3.57,8.41,4.91,8.43,1.95,.05,4.41-.92,6.62-2.56,2.28-1.69,2.13-4.65,2.13-4.68-.02-.34,.24-.63,.58-.66,.21-.02,1.3-.18,1.32-1.39,.02-1.13-.93-1.25-1.23-1.26-.31-.01-.57-.25-.6-.56,0,0-.1-.92-.42-1.57-.15-.31-.02-.68,.29-.83,.31-.15,.68-.02,.83,.29,.25,.5,.39,1.09,.46,1.5,.2,.05,.43,.12,.67,.25,.82,.43,1.26,1.21,1.24,2.21-.03,1.54-1.06,2.25-1.9,2.51-.06,1.1-.44,3.59-2.62,5.21-2.41,1.79-5.05,2.8-7.26,2.8Z"/><path d="M166.49,151.47c-.33,0-.61-.26-.62-.59,0,0-.05-.95-.49-3.72-.04-.26,.08-.51,.31-.64,1.69-.97,3.05-4.63,3.24-8.7,.18-3.87-.71-6.98-2.35-8.13-4.14-2.92-10.45-2.25-13.42-.88-2.81,1.3-4.07,2.71-4.1,7.65,0,.34-.29,.65-.63,.62-.34,0-.62-.28-.62-.63,.03-5.55,1.65-7.31,4.82-8.78,3.33-1.54,10.08-2.25,14.66,.99,2,1.42,3.08,4.86,2.87,9.21-.17,3.64-1.32,7.87-3.5,9.48,.4,2.56,.44,3.43,.45,3.47,.02,.34-.25,.63-.59,.65,0,0-.02,0-.03,0Z"/><path d="M172.81,179.29c-1.74,0-3.45-.37-4.9-1.11-4.33-2.22-9.81-4.61-11.33-5.26-.33,.34-.88,.84-1.47,1.08-.73,2.33-1.48,2.31-1.74,2.31-.51,0-1.05-.37-1.48-1-.41-.6-.63-1.33-.62-2.04,.03-1.51,.68-3.86,2.45-5.93,2.01-2.36,4.97-2.11,6.09-1.62,.16,.06,.82,.11,1.41,.15,2.56,.17,7.89,.53,12.95,3.88,.29,.19,.37,.58,.18,.86-.19,.29-.58,.37-.86,.18-4.79-3.16-9.7-3.49-12.35-3.67-.93-.06-1.49-.1-1.83-.25-.69-.3-3.07-.55-4.64,1.29-1.55,1.82-2.13,3.91-2.15,5.15-.01,.84,.5,1.53,.78,1.72,.2-.28,.51-1,.71-1.68,.07-.23,.25-.4,.49-.44,.47-.09,1.17-.78,1.43-1.11,.18-.22,.47-.29,.73-.18,.07,.03,6.73,2.87,11.82,5.48,2.75,1.41,6.73,1.26,9.67-.37,2.44-1.35,3.9-3.54,4.13-6.18,.32-3.73-2.51-8.23-4.94-11.35-2.93-3.75-6.2-6.72-7.6-7.63-.84-.55-1.58-.74-2.19-.58-.73,.2-1.08,.85-1.08,.86-.15,.31-.53,.43-.84,.28-.31-.15-.43-.53-.28-.84,.02-.05,.6-1.16,1.87-1.5,.97-.26,2.04-.01,3.19,.74,3.27,2.13,13.75,12.58,13.1,20.13-.27,3.06-1.96,5.6-4.77,7.16-1.8,1-3.9,1.5-5.94,1.5Z"/><path d="M175.2,169.88c-.13,0-.26-.04-.38-.13-.04-.03-1.56-1.1-5.02-.96-.34,.01-.63-.25-.65-.6-.01-.34,.25-.63,.6-.65,4-.17,5.76,1.16,5.83,1.21,.27,.21,.32,.6,.11,.87-.12,.16-.31,.24-.49,.24Z"/><path d="M170.64,168.79c-.34,0-.62-.27-.62-.61-.03-2.06-3.06-6.49-4.23-8.02-.21-.27-.16-.66,.12-.87,.27-.21,.66-.15,.87,.12,.45,.6,4.44,5.92,4.48,8.75,0,.34-.27,.63-.61,.63h0Z"/><rect x="157.14" y="142.38" width="1.66" height="3.63" rx=".3" ry=".3" transform="translate(-2.81 3.14) rotate(-1.13)"/><rect x="105.17" y="146.87" width="1.66" height="3.63" rx=".3" ry=".3" transform="translate(-2.91 2.12) rotate(-1.13)"/><rect x="150.58" y="142.92" width="1.14" height="2.83" rx=".21" ry=".21" transform="translate(-2.81 3) rotate(-1.13)"/><rect x="112.72" y="147.25" width="1.14" height="2.83" rx=".21" ry=".21" transform="translate(-2.9 2.26) rotate(-1.13)"/><path d="M153.6,147.05c.13,.11,.2,.03,.27,.03,.07-.02,.14,0,.21,0,.15,.04,.32,.11,.51,.36-.2,.24-.42,.28-.65,.24-.11-.03-.23-.08-.33-.2-.1-.09-.18-.35-.01-.44Z"/><path d="M110.53,152c.1,.04,.09,.2,.06,.28-.04,.09-.09,.17-.15,.23-.12,.12-.25,.19-.39,.24-.28,.08-.56,.09-.87-.11,.21-.29,.44-.4,.67-.49,.12-.03,.23-.06,.34-.07h.17c.05-.02,.12,0,.17-.09Z"/><path d="M164.74,191.01c-.86,0-1.63-.04-2.22-.13-.34-.05-.57-.37-.52-.71,.05-.34,.37-.57,.71-.52,1.24,.19,3.98,.17,6.61-.23,1.93-.3,4.19-.15,6.36,0,.84,.06,1.67,.11,2.5,.14,2.09,.08,3.13-.47,4.06-.96,.32-.17,.62-.33,.94-.45,1.29-.48,3.21-.02,3.42,.03,.33,.08,.54,.42,.45,.76-.08,.33-.42,.53-.76,.45-.48-.12-1.89-.36-2.69-.07-.25,.09-.5,.22-.8,.38-.96,.5-2.26,1.19-4.68,1.1-.84-.03-1.69-.09-2.53-.14-2.21-.15-4.29-.28-6.09,0-1.55,.24-3.3,.37-4.77,.37Z"/><path d="M162.25,192.9s-.05,0-.07,0c-.34-.04-.59-.35-.55-.69,.11-.95,1.09-9.36,1.37-10.44,.32-1.28,2.27-2.38,2.66-2.58,.3-.16,.68-.05,.84,.26,.16,.3,.05,.68-.25,.84-.76,.41-1.9,1.23-2.04,1.79-.22,.85-1.04,7.71-1.34,10.28-.04,.32-.31,.55-.62,.55Z"/><path d="M173.89,185.04c-.28,0-.54-.19-.61-.48-.74-3.18-3.23-5.68-3.25-5.7-.24-.24-.25-.64,0-.88,.24-.24,.64-.25,.88,0,.11,.11,2.77,2.76,3.59,6.31,.08,.33-.13,.67-.47,.75-.05,.01-.09,.02-.14,.02Z"/><path d="M175,182.26c-.2,0-.4-.1-.52-.28-.01-.02-1.35-2.01-2.86-2.81-.3-.16-.42-.54-.26-.84,.16-.3,.54-.42,.84-.26,1.8,.94,3.26,3.13,3.32,3.22,.19,.29,.11,.67-.17,.86-.11,.07-.23,.1-.34,.1Z"/><path d="M184.25,189.19s-.03,0-.05,0c-.34-.03-.6-.32-.57-.67,.57-7.69-2.96-13.12-3-13.17-.19-.29-.11-.67,.17-.86,.29-.19,.67-.11,.86,.17,.16,.23,3.81,5.82,3.21,13.95-.02,.33-.3,.58-.62,.58Z"/><path d="M157.46,193.66c-.32,0-.65-.03-1.01-.1-.67-.14-1.53-.12-2.36-.11-1.16,.01-2.12,.03-2.71-.33-.93,.04-4.41,.19-6.28,0-1.15-.12-2.06-.46-2.87-.77-.72-.27-1.34-.5-1.95-.51-1.38-.02-3.78,.54-3.8,.54-.33,.08-.67-.13-.75-.46-.08-.33,.13-.67,.46-.75,.1-.02,2.57-.61,4.11-.57,.82,.01,1.57,.29,2.36,.59,.78,.29,1.58,.59,2.57,.7,2.02,.21,6.26,0,6.31-.01,.18-.01,.35,.06,.48,.19,.22,.17,1.32,.16,2.05,.15,.9-.01,1.83-.02,2.63,.14,.94,.19,1.66,0,2.56-.24,.54-.14,1.15-.31,1.87-.39,1.97-.24,3.71,.38,3.78,.41,.32,.12,.49,.47,.37,.8-.12,.32-.47,.49-.8,.37-.01,0-1.54-.55-3.21-.34-.63,.08-1.18,.22-1.7,.36-.69,.18-1.35,.36-2.12,.36Z"/><path d="M151.57,193.11h-.01c-.34,0-.62-.29-.61-.63,.26-16.66,1.52-17.17,2.05-17.39,.29-.12,.61-.06,.82,.15,.24,.24,.25,.64,0,.88-.09,.09-.2,.15-.32,.17-.3,.58-1.11,3.32-1.31,16.21,0,.34-.28,.61-.62,.61Zm1.37-16.99s0,0,0,0c0,0,0,0,0,0Z"/><path d="M142.25,170.09c-.14,0-.29-.05-.41-.15-.26-.22-.29-.62-.07-.88,.37-.43,3.71-4.23,6.14-4.28,1.88-.04,3.15,.11,3.65,.97,.48,.83-.09,1.78-.28,2.09-.18,.3-.56,.39-.85,.22-.3-.18-.39-.56-.22-.85,.3-.5,.31-.76,.27-.83-.09-.15-.54-.4-2.55-.35-1.42,.03-3.96,2.37-5.23,3.84-.12,.14-.3,.22-.47,.22Z"/><path d="M153.07,169.96c-.23,0-.46-.13-.56-.36-.34-.73-2.24-1.7-3.48-2.15-.32-.12-.49-.48-.37-.8,.12-.32,.48-.49,.8-.37,.58,.21,3.5,1.34,4.18,2.79,.15,.31,.01,.68-.3,.83-.09,.04-.18,.06-.26,.06Z"/><path d="M140.22,179.73c-.07,0-.14,0-.21-.01-1.23-.16-2.18-1.94-2.3-4.32-.18-3.51,1.54-7.71,6.91-8.98,.33-.08,.67,.13,.75,.46,.08,.33-.13,.67-.46,.75-4.63,1.1-6.11,4.7-5.96,7.71,.1,1.97,.85,3.1,1.22,3.15,1.11,.15,3.72-2.96,5.51-5.92,.14-.23,.42-.35,.68-.28,1.01,.25,1.61,.16,2.09,.09,.25-.04,.49-.08,.74-.05,.59,.06,2.43,.77,2.98,.98,.32,.13,.48,.49,.35,.81-.13,.32-.49,.48-.81,.35-1.05-.41-2.36-.87-2.64-.9-.09,0-.25,.02-.44,.04-.46,.07-1.13,.17-2.13-.01-1.02,1.63-4.05,6.15-6.3,6.15Z"/><path d="M154.51,154.77c-.09,0-.18-.02-.26-.06-.31-.14-.45-.52-.3-.83,.19-.4,.1-1.21,0-1.62-.08-.33,.12-.67,.46-.75,.33-.08,.67,.12,.75,.45,.04,.15,.36,1.52-.07,2.45-.11,.23-.33,.36-.57,.36Z"/><path d="M145.27,167.25c-.06,0-.13-.01-.19-.03-.33-.11-.5-.46-.4-.79,3.78-11.48,7.58-13.35,8-13.52,.79-.33,1.55-.31,2.26,.05,.31,.15,.43,.53,.28,.84-.15,.31-.53,.43-.84,.28-.39-.19-.78-.2-1.22-.01-2.94,1.22-6.27,9.62-7.3,12.76-.09,.26-.33,.43-.59,.43Z"/><path d="M141.88,192.17c-.32,0-.59-.25-.62-.57-.79-9.32-.25-13.04-.22-13.19,.05-.34,.37-.57,.71-.52,.34,.05,.57,.37,.52,.71,0,.04-.55,3.76,.23,12.89,.03,.34-.23,.64-.57,.67-.02,0-.04,0-.05,0Z"/><path d="M150.96,166.59c-.09,0-.19-.02-.28-.07-.31-.16-.43-.53-.27-.84,.02-.04,1.86-3.7,1.9-7.07,0-.34,.28-.62,.62-.62h0c.34,0,.62,.29,.62,.63-.04,3.66-1.95,7.46-2.03,7.62-.11,.22-.33,.34-.56,.34Z"/><path d="M159.92,139.18c-.31,0-.58-.23-.62-.55-.04-.34,.2-.65,.54-.7,2.28-.28,2.33-2.22,2.33-2.44,0-.34,.27-.63,.61-.63,.34-.02,.62,.27,.63,.61,.02,1.13-.66,3.36-3.42,3.7-.03,0-.05,0-.08,0Z"/><path d="M165.99,147.68c-.27,0-.52-.18-.6-.45-.11-.38-.38-.87-.56-.93-.32-.11-.5-.47-.38-.79,.11-.32,.47-.49,.79-.38,.9,.31,1.28,1.53,1.35,1.77,.09,.33-.1,.68-.43,.77-.06,.02-.11,.02-.17,.02Z"/><path d="M157.88,139.15s-.04,0-.06,0c-.07,0-.66-.08-1.24-.44-.82-.52-1.21-1.38-1.1-2.43,.03-.34,.34-.6,.68-.56,.34,.03,.59,.34,.56,.68-.13,1.29,1.01,1.48,1.23,1.51,.34,.04,.59,.35,.55,.69-.03,.32-.3,.56-.62,.56Z"/><path d="M154.19,139.46s-.07,0-.11,0c-.81-.14-1.43-.5-1.84-1.09-.66-.94-.49-2.08-.47-2.2,.06-.34,.38-.56,.72-.5,.34,.06,.56,.38,.51,.72-.04,.26-.18,1.59,1.29,1.84,.34,.06,.57,.38,.51,.72-.05,.3-.32,.52-.61,.52Z"/><path d="M150.3,139.73c-1.82,0-2.42-2.04-2.49-3.25-.02-.34,.24-.64,.59-.66,.34-.02,.64,.24,.66,.59,0,.02,.16,2.07,1.25,2.07,0,0,0,0,.01,0,.34,0,.62,.28,.62,.62,0,.34-.27,.62-.62,.63h-.02Z"/><path d="M169.42,190.65c-.07,0-.14-.01-.21-.04-.32-.12-.49-.48-.37-.8,2.72-7.48-.94-11.6-1.1-11.77-.23-.25-.22-.65,.04-.88,.25-.23,.64-.22,.88,.03,.18,.19,4.35,4.82,1.35,13.04-.09,.25-.33,.41-.59,.41Z"/><path d="M163.6,167.31c-.33,0-.61-.26-.62-.6-.01-.34,.26-.63,.6-.65,2.58-.1,6.22-.91,6.25-.92,.33-.08,.67,.14,.74,.47,.08,.34-.14,.67-.47,.74-.15,.03-3.78,.84-6.48,.95,0,0-.02,0-.02,0Z"/><path d="M154.2,168.36s-.01,0-.02,0c-1.65-.05-3.32-1.06-3.39-1.1-.29-.18-.39-.56-.21-.86,.18-.29,.56-.39,.86-.21,.01,0,1.46,.88,2.78,.92,.34,.01,.61,.3,.6,.64-.01,.34-.29,.6-.62,.6Z"/><path d="M156.65,141.01c.1-.26,.27-.41,.44-.5,.18-.1,.37-.12,.56-.12,.37,.04,.74,.21,.92,.71l-.02,.06c-.31-.09-.62-.14-.94-.15-.31-.03-.64-.02-.94,.06l-.02-.06Z"/><path d="M150.39,141.42c-.01-.26,.08-.43,.2-.55,.11-.13,.26-.19,.41-.22,.29-.03,.62,.08,.8,.52v.06c-.24-.02-.48-.01-.71,.03-.23,.03-.46,.08-.66,.2l-.04-.05Z"/><path d="M177.16,192.87c-.63,0-1.27-.03-1.87-.12-2.06-.3-4.2,0-4.22,0-.34,.05-.66-.19-.7-.53-.05-.34,.19-.66,.53-.7,.09-.01,2.33-.33,4.57,0,2.06,.3,4.93-.14,4.96-.14,.35-.05,.66,.18,.71,.52,.05,.34-.18,.66-.52,.71-.09,.01-1.72,.26-3.46,.26Z"/><path d="M141.61,188.4c-.06,0-.11,0-.17-.02-3.03-.84-7.22,0-7.26,0-.34,.07-.67-.15-.74-.48-.07-.34,.15-.67,.48-.74,.18-.04,4.52-.91,7.84,0,.33,.09,.53,.43,.43,.77-.08,.28-.33,.46-.6,.46Z"/><path d="M108.1,158.55c-1.57,0-4.08-.61-6.39-2.33-2.05-1.52-2.78-4.15-2.98-5.08-.56-.33-1.25-1.03-1.17-2.16,.09-1.38,1.3-2,1.93-2.13,.34-.07,.67,.14,.74,.48,.07,.34-.14,.67-.47,.74-.1,.02-.9,.24-.96,1-.05,.76,.62,1.04,.7,1.07,.21,.08,.37,.27,.4,.49,0,.03,.5,3.08,2.55,4.6,2.07,1.54,4.28,2.08,5.65,2.08,3.45,0,5.29-1.69,6.15-5.64,.95-4.34,.56-5.88,.55-5.9-.09-.33,.1-.67,.43-.77,.33-.09,.67,.09,.77,.41,.05,.18,.49,1.85-.53,6.52-.99,4.51-3.33,6.62-7.37,6.62Z"/><path d="M107.14,146.03c-1.21,0-4.37-.02-5.65-.25-.39-.07-.71-.29-.95-.63-.84-1.25-.31-4.06-.19-4.61,.07-.34,.4-.55,.74-.48,.34,.07,.55,.4,.48,.74-.24,1.16-.4,3.06,0,3.66,.06,.09,.11,.1,.13,.1,1.45,.26,5.86,.23,5.9,.23h0c.34,0,.62,.28,.62,.62,0,.34-.27,.63-.62,.63-.03,0-.21,0-.48,0Z"/><path d="M93.21,156.72c-.35,0-.71-.01-1.09-.04-.69-.05-1.23-.33-1.59-.81-.94-1.27-.42-3.69,.19-6.5,.35-1.59,.7-3.24,.82-4.77,.41-5.3,3.21-10.03,7.14-12.05,3.94-2.02,11.61-2.18,15.79,2.76,4.16,4.92,1.61,10.34,1.5,10.56-.1,.21-.32,.35-.55,.35-.14,0-3.4,.03-4.11,0-.35-.02-1.16-.05-2.35-4.53-.09-.33,.11-.67,.44-.76,.33-.09,.67,.11,.76,.44,.44,1.64,1.03,3.23,1.35,3.61,.7,.02,2.64,0,3.49,0,.46-1.19,1.63-5.19-1.48-8.87-3.76-4.45-10.71-4.28-14.27-2.46-3.56,1.82-6.1,6.16-6.47,11.04-.12,1.62-.49,3.31-.85,4.94-.5,2.3-1.02,4.68-.41,5.49,.09,.12,.26,.28,.69,.32,1.68,.13,2.98-.09,4.03-.28,.96-.17,1.73-.3,2.4-.08,.33,.11,.5,.46,.39,.79-.11,.33-.46,.5-.79,.39-.37-.12-1-.02-1.79,.12-.84,.15-1.92,.33-3.24,.33Z"/><path d="M115.16,158.09c-.07,0-.15-.01-.22-.03-.54-.17-2.37-.27-3.39-.29-.34,0-.62-.29-.61-.64,0-.34,.29-.64,.64-.61,.25,0,2.16,.05,3.26,.24,.17-1.08,.06-4.33-.17-7.12-.03-.34,.23-.64,.57-.67,.34-.03,.64,.23,.67,.57,.63,7.65-.03,8.18-.28,8.38-.14,.11-.3,.17-.47,.17Z"/><path d="M88.02,170.16s-.04,0-.06,0c-.34-.03-.59-.34-.56-.68,.02-.17,.43-4.26,2.52-7.01,1.79-2.36,5.62-3.29,6.93-3.55,.2-.94,.52-1.92,.75-2.6,.11-.32,.21-.65,.23-.75,.13-.67,.87-1.62,1.02-1.8,.22-.27,.61-.31,.88-.09,.27,.22,.31,.61,.1,.88-.33,.41-.72,1.02-.76,1.25-.04,.19-.13,.48-.28,.91-.25,.75-.62,1.87-.78,2.85-.04,.27-.25,.47-.52,.51-.05,0-4.74,.75-6.56,3.15-1.87,2.47-2.27,6.34-2.27,6.38-.03,.32-.3,.56-.62,.56Z"/><path d="M106.49,163.47c-.06,0-.13-.01-.19-.03-.33-.11-.5-.46-.4-.79l1.61-4.92c.11-.33,.46-.5,.79-.4s.5,.46,.4,.79l-1.61,4.92c-.09,.26-.33,.43-.59,.43Z"/><path d="M114.59,181.67c-.27,0-.52-.18-.6-.45-.5-1.74-1.4-2.23-1.44-2.25-.16-.09-.29-.25-.33-.43-.02-.08-1.64-7.57-5.11-12.42-1.89-2.65-4.09-1.86-4.11-1.85-.32,.12-.68-.04-.8-.36-.12-.32,.04-.68,.36-.8,1.07-.4,3.61-.44,5.56,2.29,3.29,4.61,4.94,11.22,5.26,12.63,.45,.32,1.31,1.13,1.81,2.85,.1,.33-.1,.68-.43,.77-.06,.02-.12,.02-.17,.02Z"/><path d="M108.61,191.3c-.19,0-.37,0-.56-.02-2.12-.19-3.98-3.26-5.69-9.39-1.21-4.34-1.9-8.68-1.91-8.72-.05-.34,.18-.66,.52-.71,.34-.05,.66,.18,.71,.52,1.01,6.47,3.67,16.82,6.48,17.07,1.85,.16,3.3-.72,4.18-1.48,1.64-1.42,2.81-3.73,2.92-5.75,.19-3.53,.33-5.21,.33-5.23,.02-.22,.15-.42,.35-.51,.04-.02,.69-.33,1.32-.56-.53-.6-1.86-1.54-2.92-1.21-1.13,.35-1.43,.78-1.45,.92,.02,.32-.2,.61-.53,.66-.34,.05-.66-.18-.71-.52-.02-.15-.16-1.47,2.31-2.25,1.43-.45,2.96,.35,3.91,1.25,.66,.62,.93,1.16,.82,1.61-.07,.27-.28,.48-.55,.56-.41,.11-.99,.36-1.34,.51-.05,.66-.16,2.25-.3,4.83-.13,2.37-1.44,4.97-3.35,6.63-1.37,1.19-2.93,1.81-4.55,1.81Zm4.28-15.15h0s0,0,0,0Zm0,0s0,0,0,0t0,0Z"/><path d="M112.28,186.62c-.17,0-.34-.07-.47-.21-.23-.26-.2-.65,.05-.88,1.49-1.32,.77-5.47,.37-6.96-.09-.33,.11-.67,.44-.76,.33-.09,.67,.11,.76,.44,.17,.62,1.58,6.16-.74,8.21-.12,.1-.27,.16-.41,.16Z"/><path d="M101.8,177.58c-.24,0-.47-.14-.57-.37-.26-.6-1.16-2.26-2.17-2.74-.31-.15-.45-.52-.3-.83,.15-.31,.52-.45,.83-.3,1.61,.76,2.66,3.1,2.78,3.37,.14,.32,0,.68-.32,.82-.08,.04-.17,.05-.25,.05Z"/><path d="M102.12,179.04s-.04,0-.06,0c-.13-.01-3.23-.29-5.23-.81-.92-.24-1.39-.58-1.67-.78-.02-.01-.03-.02-.04-.03-.06,.05-.16,.13-.31,.28-.25,.24-.64,.23-.88-.03-.24-.25-.23-.64,.03-.88,.73-.69,1.18-.9,1.94-.35,.23,.17,.56,.4,1.25,.58,1.9,.49,4.99,.77,5.03,.78,.34,.03,.6,.33,.56,.68-.03,.32-.3,.57-.62,.57Z"/><path d="M93.15,177.37c-.17,0-.34-.07-.47-.21-.16-.18-.69-.63-1.15-.6-.33,.02-.84,.38-1.1,.64-.25,.24-.64,.23-.88-.01-.24-.25-.23-.64,.01-.88,.1-.09,.98-.93,1.89-.98,1.16-.07,2.06,.91,2.16,1.02,.23,.26,.2,.65-.06,.88-.12,.1-.27,.16-.41,.16Z"/><path d="M88.44,176.96c-.17,0-.33-.07-.45-.2-.29-.3-1.03-.91-1.51-.85-.06,0-.22,.03-.4,.33-.17,.3-.55,.4-.85,.23-.3-.17-.4-.55-.23-.85,.4-.7,.95-.9,1.33-.94,1.21-.14,2.42,1.09,2.56,1.23,.24,.25,.22,.64-.03,.88-.12,.11-.27,.17-.43,.17Z"/><path d="M85.81,176.21c-.05,0-.11,0-.16-.02-.33-.09-.53-.43-.44-.76,2.55-9.54,7.13-12.95,7.32-13.09,.28-.2,.67-.14,.87,.14,.2,.28,.14,.67-.14,.87-.07,.05-4.44,3.36-6.85,12.41-.07,.28-.33,.46-.6,.46Z"/><path d="M78.97,197.66c-.2,0-.4-.1-.52-.27-3.54-5.21,4.84-21.68,5.2-22.38,.16-.31,.53-.43,.84-.27,.31,.16,.43,.53,.27,.84-2.35,4.58-7.87,17.3-5.27,21.11,.19,.28,.12,.67-.17,.87-.11,.07-.23,.11-.35,.11Z"/><path d="M116.55,200.63s-.09,0-.13-.01c-.34-.07-.55-.4-.48-.74,.33-1.57,.84-5.95-.81-7.26-.27-.21-.31-.61-.1-.88,.21-.27,.61-.31,.88-.1,2.54,2.03,1.39,7.84,1.25,8.5-.06,.29-.32,.49-.61,.49Z"/><path d="M118.58,200.21s-.06,0-.1,0c-.34-.05-.57-.37-.52-.71,.18-1.14,.32-3.23-.03-3.99-.39-.82-.29-2.23-.17-4.02,.09-1.27,.19-2.72,.11-4.07-.15-2.5-2-2.71-2.21-2.73-.34-.03-.6-.32-.57-.67,.02-.34,.32-.61,.66-.58,1.09,.07,3.19,.97,3.37,3.9,.09,1.43-.02,2.92-.11,4.23-.1,1.41-.2,2.87,.05,3.4,.64,1.34,.19,4.37,.14,4.71-.05,.31-.31,.53-.61,.53Z"/><path d="M122.1,193.66c-.34,0-.62-.27-.62-.61,0-.06-.12-5.83-1.18-11.29-.61-3.16-1.44-3.97-1.76-4.17-.19-.12-.31-.09-.32-.09-.31,.15-.66,0-.81-.31-.15-.31,0-.69,.32-.84,.1-.05,.63-.26,1.32,.09,1.1,.56,1.94,2.27,2.48,5.08,1.08,5.57,1.2,11.45,1.21,11.51,0,.34-.27,.63-.61,.64h-.01Z"/><path d="M119.06,194.78c-.27,0-.57-.03-.9-.1-.34-.07-.55-.4-.48-.74,.07-.34,.4-.55,.74-.48,1.03,.22,1.57-.09,2.19-.45,.41-.24,.84-.49,1.4-.58,1-.17,2.31,.29,3.18,.59,.17,.06,.37,.13,.47,.16h0c.23,0,.45,.13,.56,.35,.15,.31,.03,.68-.28,.84-.29,.14-.53,.06-1.17-.16-.66-.23-1.88-.65-2.56-.54-.34,.06-.64,.23-.98,.43-.55,.32-1.2,.69-2.17,.69Zm6.32-1.54h0Z"/><path d="M119.76,200.28c-1.3,0-2.82-.29-3.21-.37-.34-.07-.56-.4-.49-.73,.07-.34,.4-.56,.73-.49,1.16,.23,3.27,.5,3.97,.23,1.29-.5,3.1-.07,3.3-.02,.33,.08,.54,.42,.45,.75-.08,.33-.42,.54-.75,.45-.44-.11-1.77-.33-2.55-.02-.38,.15-.9,.2-1.46,.2Z"/><path d="M117.02,200.82c-.09,0-.19-.02-.27-.06-1.19-.59-2.79-.58-4.2-.57-.77,0-1.49,0-2.14-.07-.49-.06-1.68,.06-3.05,.21-3.44,.36-8.16,.86-11.06-.38-4.2-1.79-9.15-1.21-10.11-1.08-1.82,.25-4.24,.17-5.55-.84-.62-.48-3.01-.44-4.51-.26-.34,.04-.65-.2-.69-.54-.04-.34,.2-.65,.54-.69,.69-.08,4.17-.45,5.42,.51,.82,.63,2.68,.87,4.62,.6,1.42-.2,6.38-.7,10.77,1.17,2.6,1.11,7.32,.61,10.44,.28,1.57-.17,2.71-.29,3.34-.2,.56,.07,1.25,.07,1.97,.06,1.55,0,3.3-.02,4.76,.7,.31,.15,.44,.52,.28,.83-.11,.22-.33,.35-.56,.35Z"/><path d="M105.97,146.87s1.01,.14,1.78-.18c0,0-1.08,1.38-1.78,.95-.44-.27,0-.77,0-.77Z"/><path d="M113.26,147.25s.84-.04,1.07-.23c0,0-.48,1.08-1.07,.62-.46-.37,0-.39,0-.39Z"/><path d="M93.87,156.71c-.28,0-.54-.19-.61-.48-1.26-5.37,.85-11.88,.94-12.15,.11-.33,.46-.5,.79-.4,.33,.11,.5,.46,.4,.79-.02,.06-2.08,6.45-.91,11.48,.08,.33-.13,.67-.46,.75-.05,.01-.1,.02-.14,.02Z"/><path d="M119.3,178.05c-.33,0-.6-.25-.62-.58-.02-.34,.24-.64,.58-.66,5.24-.35,10.64-.52,16.06-.52,1.09,0,2.18,0,3.26,.02,.34,0,.62,.29,.61,.63,0,.34-.28,.61-.62,.61h0c-1.07-.01-2.15-.02-3.24-.02-5.39,0-10.77,.17-15.98,.52-.01,0-.03,0-.04,0Z"/><path d="M135.32,212.81c-37.45,0-66.78-8.02-66.78-18.26,0-3.76,3.94-7.33,11.39-10.32,.32-.13,.68,.03,.81,.35,.13,.32-.03,.68-.35,.81-6.94,2.79-10.6,5.96-10.6,9.16,0,9.22,30.01,17.02,65.54,17.02s65.54-7.79,65.54-17.02c0-4.09-6.23-8.23-17.1-11.37-.33-.1-.52-.44-.43-.77s.44-.52,.77-.43c11.77,3.4,18,7.74,18,12.56,0,10.24-29.34,18.26-66.79,18.26Z"/><g><path d="M204.01,207.75c-2.68-3.42-6.16-4.83-4-6.32,3.3-2.29,1.47-6.86,1.47-6.88,0,9.74-29.62,17.64-66.16,17.64s-66.16-7.9-66.16-17.64c0,0-1.84,4.59,1.47,6.88,3.31,2.29-7.41,4.37-7.41,13.87s5.1,20.48,72.11,20.48c48.23,0,63.99-5.69,69.03-12.41-.02-.08-.04-.15-.07-.23-1.01-3.65-.7-10.57-.27-15.38Z"/><path d="M135.32,236.4c-30.23,0-50.31-2.2-61.42-6.72-9.97-4.06-11.31-9.55-11.31-14.38,0-5.78,3.72-8.91,6.18-10.98,.88-.74,1.88-1.58,1.86-1.97,0-.1-.14-.25-.37-.41-2.94-2.04-2.39-5.88-1.69-7.63,.11-.28,.4-.43,.7-.38,.29,.06,.5,.31,.5,.61,0,9.23,30.01,17.02,65.54,17.02s65.54-7.79,65.54-17.02c0-.3,.21-.55,.5-.61,.3-.06,.58,.09,.7,.37,.02,.05,2.03,5.07-1.68,7.64-.25,.17-.4,.34-.4,.46-.03,.4,.85,1.22,1.7,2,.84,.78,1.89,1.75,2.84,2.96,.1,.12,.14,.28,.13,.44-.36,4.04-.8,11.38,.25,15.16l.06,.23c.05,.19,.02,.39-.1,.54-4.08,5.44-15.72,12.66-69.53,12.66Zm-66.06-39.09c-.01,1.24,.34,2.66,1.72,3.61,.57,.4,.88,.86,.9,1.37,.05,1-.94,1.83-2.3,2.98-2.29,1.92-5.74,4.83-5.74,10.03,0,6.94,0,19.85,71.48,19.85,40.14,0,61.88-3.79,68.35-11.92-1.05-3.91-.65-11.14-.29-15.29-.84-1.04-1.75-1.88-2.55-2.62-1.26-1.17-2.17-2.01-2.1-3.01,.04-.53,.34-.99,.94-1.4,1.35-.94,1.71-2.35,1.7-3.58-4.77,8.87-32.07,15.48-66.04,15.48s-61.33-6.62-66.06-15.51Z"/></g><path class="cls-1" d="M67.72,218c-.46,0-.86-.34-.92-.8-.83-5.82,5.07-10.43,5.32-10.62,.41-.31,.99-.24,1.31,.17,.31,.41,.24,1-.17,1.31-.05,.04-5.28,4.14-4.61,8.88,.07,.51-.28,.98-.79,1.06-.04,0-.09,0-.13,0Z"/><path class="cls-1" d="M70.17,223.65c-.16,0-.33-.04-.48-.13-1.37-.83-2.15-2.88-2.24-3.11-.18-.48,.07-1.02,.56-1.2,.48-.18,1.02,.07,1.2,.56h0c.23,.64,.83,1.78,1.44,2.15,.44,.27,.59,.84,.32,1.28-.18,.29-.48,.45-.8,.45Z"/><g><path d="M111.35,207.45s27.23,1.65,35.16,.35"/><path d="M136.17,209.24c-10.6,0-24.09-.81-24.88-.85-.52-.03-.91-.47-.88-.99,.03-.52,.49-.91,.99-.88,.27,.02,27.21,1.63,34.95,.36,.51-.08,.99,.26,1.07,.77,.08,.51-.26,.99-.77,1.07-2.3,.38-6.15,.51-10.48,.51Z"/></g><path d="M162.77,206.45s-.08,0-.12-.01c-.34-.07-.56-.39-.49-.73,.18-.94,1.21-5.62,3.42-5.87,1.65-.19,3.59,.84,4.42,1.54,.47,.39,.7,.73,.72,1.07,.05,.66-.71,2.3-1.17,3.22-.15,.31-.53,.43-.84,.28-.31-.15-.43-.53-.28-.84,.47-.94,.97-2.12,1.04-2.52-.34-.47-2.33-1.67-3.75-1.51-.96,.11-1.96,2.97-2.34,4.87-.06,.3-.32,.5-.61,.5Zm6.73-3.81h0Z"/><path d="M166.66,201.12c-.29,0-.55-.2-.61-.5-.12-.6-.68-3.68,.44-4.97,.45-.52,.92-.72,1.38-.59,.11,.03,.22,.08,.31,.15,.35-.51,.86-1.07,1.53-1.33,.56-.21,1.16-.18,1.73,.1,.75,.37,1.16,.86,1.21,1.46,.04,.47-.16,.87-.38,1.17,.31,.33,.64,.8,.68,1.29,.03,.34-.07,.66-.3,.92-.35,.4-.88,.58-1.38,.77-.68,.24-1.14,.43-1.3,.84-.13,.32-.49,.47-.81,.35-.32-.13-.47-.49-.35-.81,.38-.96,1.3-1.28,2.04-1.55,.36-.13,.73-.26,.87-.41,0-.12-.33-.57-.73-.88-.15-.12-.24-.31-.24-.5,0-.19,.1-.38,.25-.49,.18-.13,.42-.42,.4-.58,0-.09-.15-.26-.52-.45-.26-.13-.5-.15-.74-.06-.68,.26-1.24,1.31-1.37,1.65-.1,.26-.37,.42-.65,.39-.28-.03-.5-.24-.55-.52-.01-.06-.03-.13-.06-.2-.03,.03-.06,.06-.09,.1-.53,.61-.41,2.65-.16,3.9,.07,.34-.15,.67-.49,.74-.04,0-.08,.01-.13,.01Z"/><path d="M167.6,203.38c-.09,0-.18-.02-.26-.06-1.39-.64-3.29-.69-3.31-.69-.34,0-.62-.29-.61-.64,0-.34,.29-.61,.64-.61,.09,0,2.18,.06,3.81,.81,.31,.14,.45,.52,.3,.83-.11,.23-.33,.36-.57,.36Z"/><path d="M166.15,204.68c-.09,0-.18-.02-.26-.06-.32-.15-1.58-.28-2.57-.31-.34-.01-.61-.3-.6-.64s.3-.62,.64-.6c.39,.01,2.34,.09,3.06,.42,.31,.15,.45,.52,.3,.83-.11,.23-.33,.36-.56,.36Z"/><path d="M164.79,206.68c-.62,0-1.26-.05-1.87-.19-1.55-.35-3.37,0-3.39,0-.34,.07-.66-.15-.73-.49s.15-.66,.49-.73c.08-.02,2.1-.4,3.9,0,1.54,.35,3.45,.04,4.24-.16l.22-.06c.87-.24,2.07-.56,3.03-.17,.32,.13,.47,.49,.34,.81-.13,.32-.49,.47-.81,.34-.57-.23-1.53,.03-2.24,.22l-.22,.06c-.63,.17-1.76,.36-2.97,.36Z"/><path d="M167.81,201.45c-.32,0-.59-.24-.62-.56,0-.09-.21-2.33,1.33-3.79,.25-.24,.64-.23,.88,.02,.24,.25,.23,.64-.02,.88-1.09,1.04-.95,2.75-.95,2.77,.03,.34-.22,.65-.56,.68-.02,0-.04,0-.06,0Z"/><path d="M136.6,201.45c-.29,0-.56-.21-.61-.51l-.29-1.55-1.4,1.82c-.21,.27-.6,.32-.87,.11-.27-.21-.32-.6-.11-.87l2.25-2.92c.15-.19,.4-.28,.64-.23,.24,.06,.42,.25,.47,.49l.55,2.92c.06,.34-.16,.66-.5,.73-.04,0-.08,.01-.12,.01Z"/><path d="M139.95,201.45c-.2,0-.39-.09-.51-.26-.75-1.05-2.34-2.72-3.36-2.66-.35,0-.64-.25-.65-.59-.02-.34,.25-.64,.59-.65,2.05-.09,4.2,2.85,4.44,3.18,.2,.28,.13,.67-.15,.87-.11,.08-.24,.11-.36,.11Z"/><path d="M143.13,201.45h-12.17c-.34,0-.62-.28-.62-.62s.28-.62,.62-.62h12.17c.34,0,.62,.28,.62,.62s-.28,.62-.62,.62Z"/><path d="M139.7,203h-4.75c-.34,0-.62-.28-.62-.62s.28-.62,.62-.62h4.75c.34,0,.62,.28,.62,.62s-.28,.62-.62,.62Z"/><path d="M124.98,187.02c-.97,0-1.74-.17-1.79-.19-.33-.08-.54-.41-.47-.75,.08-.33,.41-.54,.75-.47,.01,0,1.53,.34,2.8,0,1.53-.41,3.85-.2,3.95-.19,.34,.03,.59,.33,.56,.68-.03,.34-.34,.6-.68,.56-.02,0-2.2-.2-3.51,.15-.54,.14-1.1,.19-1.61,.19Z"/><path d="M155.76,246.72c-.52,0-1.01-.16-1.45-.48-1.91-1.39-1.74-3.19-1.02-4.3,.73-1.12,1.95-1.63,2.79-1.15,.92,.52,1.46,1.64,1.26,2.59-.16,.77-.77,1.28-1.63,1.37-.73,.08-1.22-.1-1.48-.53-.4-.67,.11-1.51,.22-1.67,.19-.29,.58-.36,.86-.17,.29,.19,.36,.58,.17,.86-.05,.08-.1,.19-.13,.27,.06,0,.13,0,.23,0,.47-.05,.52-.3,.54-.39,.08-.38-.17-.97-.66-1.25-.14-.08-.72,.11-1.13,.75-.28,.43-.77,1.54,.71,2.62,.64,.47,1.37,.16,1.88-.18,1.3-.87,2.23-2.72,1.95-3.89-.18-.74-.84-1.18-1.95-1.3-1.28-.14-2.28,.13-3.05,.84-1.76,1.62-1.67,4.97-1.67,5.01,0,.25-.14,.48-.37,.59-.23,.1-.5,.06-.68-.11-1.4-1.31-10.86-6.15-14.38-7.91-.31-.15-.43-.53-.28-.84s.53-.43,.84-.28c.46,.23,10.21,5.1,13.68,7.38,.13-1.32,.58-3.42,2.01-4.75,1.04-.96,2.39-1.35,4.03-1.17,2.22,.25,2.85,1.51,3.02,2.25,.46,1.9-.92,4.18-2.46,5.22-.62,.42-1.26,.63-1.86,.63Z"/><path d="M156.98,239.88c-.07,0-.13-.01-.2-.03l-7.07-2.42c-.33-.11-.5-.47-.39-.79,.11-.33,.47-.5,.79-.39l7.07,2.42c.33,.11,.5,.47,.39,.79-.09,.26-.33,.42-.59,.42Z"/><path d="M152.96,241.41c-.1,0-.21-.03-.3-.08l-4.91-2.74c-.3-.17-.41-.55-.24-.85,.17-.3,.55-.41,.85-.24l4.91,2.74c.3,.17,.41,.55,.24,.85-.11,.2-.33,.32-.54,.32Z"/><path d="M147.24,240.85c-.09,0-.19-.02-.28-.07l-7.89-3.99c-.31-.16-.43-.53-.27-.84,.16-.31,.53-.43,.84-.27l7.89,3.99c.31,.16,.43,.53,.27,.84-.11,.22-.33,.34-.56,.34Z"/><path d="M130.96,247.06c-.07,0-.13-.01-.19-.03-.07-.02-1.68-.56-2.23-2.09-.39-1.07-.16-2.3,.69-3.67,.09-.15,.24-.25,.41-.28l8.59-1.65c.34-.06,.66,.16,.73,.49,.07,.34-.16,.66-.49,.73l-8.31,1.6c-.53,.92-.67,1.72-.44,2.35,.27,.74,1.01,1.14,1.31,1.27l13.62-2.7c.34-.07,.67,.15,.73,.49s-.15,.67-.49,.73l-13.8,2.74s-.08,.01-.12,.01Z"/><path d="M131.85,244.9c-.29,0-.55-.21-.61-.5-.07-.34,.15-.67,.49-.73l12.91-2.57c.34-.07,.67,.15,.73,.49,.07,.34-.15,.67-.49,.73l-12.91,2.57s-.08,.01-.12,.01Z"/><path d="M129.11,243.62c-.3,0-.56-.21-.61-.52-.06-.34,.17-.66,.51-.72l4.69-.81c.34-.06,.66,.17,.72,.51,.06,.34-.17,.66-.51,.72l-4.69,.81s-.07,0-.11,0Z"/><path d="M106.95,246.83c-.34,0-.69-.04-1.06-.12-.99-.21-1.78-1.03-2.16-2.24-.5-1.57-.31-3.92,1.01-5.38,.67-.74,1.9-1.52,3.9-1.08,1.48,.33,2.52,1.08,3.11,2.22,.78,1.53,.53,3.43,.21,4.7l20.07-9.26c.31-.14,.68,0,.83,.3,.14,.31,0,.68-.3,.83l-21.37,9.86c-.24,.11-.51,.06-.7-.12-.18-.18-.24-.46-.14-.69,.01-.03,1.3-3.08,.29-5.06-.41-.81-1.16-1.32-2.27-1.57-1.14-.25-2.05-.02-2.71,.7-.88,.96-1.2,2.74-.75,4.16,.15,.46,.5,1.25,1.24,1.41,1.01,.22,1.8,.05,2.3-.5,.55-.6,.71-1.66,.41-2.63-.21-.67-.64-1.06-1.19-1.07-.46-.03-.85,.24-1,.63-.29,.77-.14,1.59,.09,1.8,.02,.02,.04,.04,.14-.01,.19-.09,.22-.18,.23-.21,.06-.19-.06-.49-.12-.6-.17-.3-.07-.68,.23-.85,.3-.17,.67-.07,.85,.22,.05,.08,.47,.83,.24,1.6-.09,.3-.32,.71-.89,.98-.55,.26-1.1,.18-1.52-.2-.67-.62-.85-1.98-.41-3.15,.33-.89,1.21-1.48,2.2-1.44,.85,.02,1.91,.55,2.35,1.95,.44,1.4,.17,2.91-.68,3.84-.6,.65-1.44,.99-2.43,.99Z"/><path d="M114.68,243.21c-.24,0-.46-.14-.57-.36-.14-.31,0-.68,.31-.83l8.27-3.78c.31-.14,.68,0,.83,.31,.14,.31,0,.68-.31,.83l-8.27,3.78c-.08,.04-.17,.06-.26,.06Z"/><path d="M111.58,242.33c-.24,0-.47-.14-.57-.37-.14-.32,0-.68,.32-.82l7.2-3.15c.32-.14,.68,0,.82,.32,.14,.32,0,.68-.32,.82l-7.2,3.15c-.08,.04-.17,.05-.25,.05Z"/><path d="M106.43,239.31c-.25,0-.49-.15-.58-.4-.12-.32,.04-.68,.36-.8l4.92-1.85c.32-.12,.68,.04,.8,.36,.12,.32-.04,.68-.36,.8l-4.92,1.85c-.07,.03-.15,.04-.22,.04Z"/><path d="M112.51,239.18c-.24,0-.46-.14-.57-.37-.14-.31,0-.68,.31-.82l6.68-3.02c.31-.14,.68,0,.82,.31,.14,.31,0,.68-.31,.82l-6.68,3.02c-.08,.04-.17,.06-.26,.06Z"/><path d="M123.2,249.42c-.13,0-.26-.04-.38-.13l-4.43-3.37c-.27-.21-.33-.6-.12-.87,.21-.27,.6-.33,.87-.12l4.43,3.37c.27,.21,.33,.6,.12,.87-.12,.16-.31,.25-.5,.25Z"/><path d="M122.37,246.72c-.15,0-.29-.05-.41-.16l-1.78-1.57c-.26-.23-.28-.62-.06-.88,.23-.26,.62-.28,.88-.06l1.78,1.57c.26,.23,.28,.62,.06,.88-.12,.14-.3,.21-.47,.21Z"/><path d="M104.19,242.33h-6.43c-.17,0-.33-.07-.45-.19-.12-.12-.18-.28-.18-.45l.19-5.93c.01-.34,.29-.62,.64-.6,.34,.01,.61,.3,.6,.64l-.17,5.29h5.78c.34,0,.62,.28,.62,.62s-.28,.62-.62,.62Z"/><path d="M102.27,240.04h-4.44c-.34,0-.62-.28-.62-.62s.28-.62,.62-.62h4.44c.34,0,.62,.28,.62,.62s-.28,.62-.62,.62Z"/><path d="M106.41,237.67h-7.25c-.34,0-.62-.28-.62-.62s.28-.62,.62-.62h7.25c.34,0,.62,.28,.62,.62s-.28,.62-.62,.62Z"/><path d="M134.93,241.23c-.34,0-.62-.28-.62-.62v-2.88c0-.34,.28-.62,.62-.62s.62,.28,.62,.62v2.88c0,.34-.28,.62-.62,.62Z"/><path d="M131.74,241.85c-.08,0-.16-.02-.24-.05-.32-.14-.46-.5-.33-.82l1.17-2.73c.14-.32,.5-.47,.82-.33,.32,.14,.46,.5,.33,.82l-1.17,2.73c-.1,.24-.33,.38-.57,.38Z"/><path d="M138.04,247.51c-.29,0-.54-.2-.61-.49-.07-.34,.14-.67,.48-.74l5.43-1.19c.34-.07,.67,.14,.74,.48,.07,.34-.14,.67-.48,.74l-5.43,1.19s-.09,.01-.13,.01Z"/><path d="M143.77,248.32c-.28,0-.53-.19-.6-.47-.09-.33,.11-.67,.45-.76l3.1-.81c.34-.09,.67,.11,.76,.45s-.11,.67-.45,.76l-3.1,.81c-.05,.01-.11,.02-.16,.02Z"/><path d="M169.34,238.67s-.03,0-.05,0l-12.93-1c-.34-.03-.6-.33-.57-.67s.32-.6,.67-.57l12.93,1c.34,.03,.6,.33,.57,.67-.03,.33-.3,.57-.62,.57Z"/><path d="M170.27,236.87h-4.16c-.34,0-.62-.28-.62-.62s.28-.62,.62-.62h4.16c.34,0,.62,.28,.62,.62s-.28,.62-.62,.62Z"/><path d="M166.11,240.26s-.06,0-.1,0l-4.66-.72c-.34-.05-.57-.37-.52-.71,.05-.34,.37-.57,.71-.52l4.66,.72c.34,.05,.57,.37,.52,.71-.05,.31-.31,.53-.61,.53Z"/><path class="cls-1" d="M135.24,216.91c-12.17,0-28.08-.94-41.83-4.81-.5-.14-.79-.66-.65-1.15,.14-.5,.66-.78,1.15-.65,26.15,7.37,60.31,3.97,60.65,3.93,.51-.05,.97,.32,1.03,.83,.05,.51-.32,.97-.83,1.03-.17,.02-8.24,.82-19.52,.82Z"/><path class="cls-1" d="M84.21,216.1c-.08,0-.17-.01-.25-.04-6.15-1.73-9.16-4.02-9.29-4.12-.41-.32-.48-.9-.17-1.31,.31-.41,.9-.48,1.31-.17,.05,.04,2.91,2.18,8.65,3.8,.5,.14,.79,.66,.65,1.15-.12,.41-.49,.68-.9,.68Z"/><path class="cls-1" d="M80.01,217.53c-.08,0-.17-.01-.25-.04-4.06-1.15-6.08-2.68-6.16-2.74-.41-.32-.48-.9-.17-1.31,.32-.41,.9-.48,1.31-.17,.05,.03,1.87,1.39,5.53,2.42,.5,.14,.79,.66,.65,1.15-.12,.41-.49,.68-.9,.68Z"/><path d="M69.69,197.42c-.07,0-.13-.01-.2-.03-.33-.11-.5-.46-.39-.79,.13-.37,1.29-3.59,3.58-3.63,.62-.01,1.22-.34,1.87-.7,1.05-.57,2.36-1.29,3.99-.56,.31,.14,.45,.51,.31,.82-.14,.31-.51,.45-.82,.31-1.07-.48-1.91-.02-2.89,.51-.75,.41-1.52,.83-2.44,.85-1.21,.02-2.18,2.07-2.42,2.79-.09,.26-.33,.42-.59,.42Z"/><path d="M141.45,183.99c-.1,0-.2-.02-.29-.07-.94-.5-2.76-.83-5.13-.9-.33-.01-.83,.08-1.4,.18-1.46,.26-3.46,.63-5.86-.01-3.08-.82-7.53,0-7.57,.01-.34,.07-.66-.16-.73-.5-.06-.34,.16-.66,.5-.73,.19-.04,4.76-.88,8.12,.01,2.13,.57,3.97,.23,5.31-.01,.64-.12,1.19-.22,1.67-.2,1.81,.06,4.26,.29,5.68,1.05,.3,.16,.42,.54,.25,.84-.11,.21-.33,.33-.55,.33Z"/><path d="M199.87,199.05c-.09,0-.19-.02-.28-.07-.31-.16-.43-.53-.27-.84,.66-1.29,.35-2.39-.02-3.09-.59-1.11-1.68-1.87-2.39-1.96-1.46-.19-8.02-2.28-8.73-4.89-.35-1.29-2.92-1.3-3.79-1.2-.35,.04-.65-.21-.69-.55-.04-.34,.21-.65,.55-.69,.18-.02,4.43-.48,5.14,2.11,.43,1.59,5.82,3.74,7.68,3.98,1.22,.16,2.62,1.25,3.34,2.61,.72,1.36,.73,2.86,.02,4.23-.11,.22-.33,.34-.56,.34Z"/><g><path class="cls-1" d="M124.17,235.67s-4.57-.99-5.4-2.64-.09-2.9-1.76-4.35c0,0,2.71-.31,3.58,1.24,0,0-.43-2.59,1.38-3.31,1.81-.73,1.5-2.07,1.5-2.07,0,0,2.38,1.81,1.76,3.78s1.86,2.02,1.97,3.06c0,0-1.04-1.66-.21-3.42,0,0,.78,1.61,1.66,1.92,0,0,2.49-2.28,1.45-4.82,0,0,.61-.05,.85,.26,0,0,.44-1.09-.23-1.97,0,0,6.43,.11,5.32,7.25,0,0,2.5-.93,2.61-2.07,0,0,.94,.37,1.04,.99,0,0,2.02-1.76,3.93-1.19,0,0-.74,.73-.5,1.19,0,0,1.44-.99,3.38-.42,0,0-2.88,1.61-2.05,3.52,0,0,3.21-.77,3.26-3.11,0,0,.88,.05,1.14,.62,0,0,1.48-2.49,5.82-2.8,0,0-1.35,1.29-1.23,2.74s2.05,3.87-1.74,5.46"/><path d="M124.17,236.29s-.09,0-.13-.01c-.5-.11-4.88-1.1-5.82-2.97-.37-.73-.47-1.39-.55-1.97-.12-.84-.21-1.45-1.06-2.19-.19-.16-.26-.42-.19-.65s.28-.41,.52-.43c.09-.01,1.74-.19,3.03,.47,.13-.92,.55-2.01,1.77-2.5,1.24-.5,1.14-1.28,1.12-1.37-.05-.25,.07-.52,.29-.65,.22-.13,.5-.13,.7,.03,.11,.08,2.72,2.11,1.98,4.46-.14,.46-.08,.71,.22,.98-.01-.55,.08-1.17,.38-1.8,.1-.22,.32-.36,.56-.36h0c.24,0,.46,.14,.56,.35,.21,.43,.61,1.06,.99,1.39,.56-.66,1.63-2.2,.98-3.79-.07-.18-.06-.39,.05-.56,.1-.17,.28-.28,.48-.3,.06,0,.22-.01,.42,0,0-.23-.07-.49-.25-.72-.15-.19-.17-.45-.06-.66,.11-.21,.34-.36,.57-.34,.12,0,2.94,.07,4.71,2.18,1,1.19,1.45,2.76,1.34,4.68,.67-.37,1.22-.8,1.25-1.1,.02-.19,.13-.37,.29-.47,.17-.1,.37-.12,.55-.05,.14,.05,.63,.26,1,.65,.82-.54,2.37-1.34,3.92-.88,.21,.06,.37,.23,.43,.45,.02,.08,.02,.16,.01,.24,.66-.14,1.5-.19,2.44,.09,.24,.07,.41,.28,.44,.53,.03,.25-.1,.49-.31,.61-.02,.01-1.75,1.02-1.87,2.16,.81-.32,2.13-1.04,2.16-2.3,0-.17,.08-.33,.2-.44,.12-.11,.29-.18,.46-.16,.08,0,.59,.04,1.05,.31,.77-.84,2.54-2.25,5.83-2.49,.26-.01,.51,.13,.61,.37,.11,.24,.05,.52-.14,.7-.01,0-1.13,1.11-1.04,2.24,.02,.25,.12,.58,.23,.93,.43,1.38,1.14,3.69-2.35,5.16-.32,.13-.68-.02-.82-.33-.13-.32,.02-.68,.33-.82,2.45-1.03,2.07-2.24,1.64-3.64-.13-.42-.25-.81-.28-1.19-.06-.74,.17-1.43,.47-1.98-2.84,.61-3.86,2.22-3.91,2.3-.12,.2-.34,.31-.57,.3-.23-.01-.43-.15-.53-.36-.01-.03-.04-.05-.07-.08-.62,2.16-3.49,2.88-3.62,2.91-.3,.07-.6-.08-.72-.36-.58-1.35,.18-2.52,.98-3.3-.82,.1-1.35,.44-1.39,.46-.15,.1-.33,.13-.5,.09-.17-.04-.32-.16-.4-.32-.16-.32-.14-.65-.03-.95-1.27,.13-2.43,1.13-2.44,1.14-.17,.15-.41,.19-.62,.11-.21-.08-.37-.26-.4-.49,0-.05-.06-.12-.14-.19-.71,.98-2.29,1.62-2.67,1.76-.21,.08-.44,.04-.61-.1-.17-.14-.26-.36-.22-.58,.32-2.06,0-3.68-.94-4.8-.83-.98-1.98-1.41-2.8-1.59,.11,.77-.15,1.4-.16,1.44-.08,.21-.27,.35-.49,.38-.02,0-.05,0-.07,0,.25,2.4-1.79,4.3-1.89,4.39-.17,.16-.41,.21-.63,.13-.44-.15-.83-.5-1.15-.88,.02,.41,.12,.76,.22,1.02,.16,.2,.27,.43,.3,.71,.03,.29-.14,.56-.42,.65-.27,.09-.58-.01-.73-.26-.01-.02-.1-.17-.21-.41-.13-.11-.35-.25-.48-.33-.7-.44-1.87-1.18-1.34-2.83,.27-.87-.26-1.75-.77-2.34-.26,.52-.77,1.04-1.67,1.4-1.33,.53-1,2.61-1,2.63,.05,.3-.12,.59-.41,.69-.29,.1-.6-.02-.75-.28-.31-.55-1.02-.8-1.69-.9,.36,.64,.45,1.26,.53,1.83,.08,.53,.15,1.04,.43,1.59,.51,1.01,3.32,1.96,4.98,2.32,.34,.07,.55,.4,.48,.74-.06,.29-.32,.49-.61,.49Z"/></g><path d="M126.98,233.52c-.2,0-.39-.09-.51-.27-.2-.28-.13-.67,.16-.87,.2-.14,.07-.65,.01-.78-.13-.32,.02-.68,.34-.81,.32-.13,.68,.02,.81,.34,.24,.57,.4,1.68-.45,2.28-.11,.07-.23,.11-.35,.11Z"/><path d="M131.97,228.23s-.03,0-.05,0c-.34-.03-.6-.33-.57-.67,.08-.92-.81-1.79-.82-1.8-.25-.24-.26-.63-.02-.88,.24-.25,.63-.26,.88-.02,.05,.05,1.33,1.28,1.21,2.81-.03,.33-.3,.57-.62,.57Z"/><path d="M133.03,236.29c-.24,0-.48-.14-.58-.38-.13-.32,.02-.68,.33-.81,.06-.02,1.1-.49,.99-1.44-.04-.34,.2-.65,.55-.69,.34-.04,.65,.2,.69,.55,.23,1.9-1.66,2.71-1.74,2.74-.08,.03-.16,.05-.24,.05Z"/><path d="M139.36,232.47c-.14,0-.28-.05-.4-.14-.26-.22-.3-.61-.08-.88,.42-.5,.3-1.47,.21-1.8-.08-.33,.12-.67,.45-.76,.33-.08,.67,.12,.76,.45,.05,.18,.43,1.82-.46,2.9-.12,.15-.3,.22-.48,.22Z"/><path d="M141.92,232.11c-.32,0-.59-.25-.62-.57-.11-1.33,1.3-2.42,1.46-2.54,.28-.21,.67-.15,.87,.13,.21,.28,.15,.66-.13,.87h0c-.33,.25-1.01,.93-.96,1.43,.03,.34-.23,.64-.57,.67-.02,0-.04,0-.05,0Z"/><path d="M138.4,236.29c-.22,0-.44-.12-.55-.33-.16-.3-.05-.68,.26-.84,.2-.11,.64-.44,.7-.75,0-.05,.04-.21-.19-.47-.22-.26-.2-.65,.07-.88,.26-.22,.65-.2,.88,.07,.51,.59,.54,1.15,.47,1.51-.18,.98-1.22,1.56-1.34,1.62-.09,.05-.19,.07-.29,.07Z"/><path d="M188.16,200.66c-.41,0-.82-.03-1.23-.11-.34-.07-.81-.21-.99-.66-.21-.51,.11-.97,.44-1.46,.42-.6,.94-1.35,.74-2.34-.17-.84-.8-1.43-1.7-1.57-.83-.13-1.89,.14-2.39,1.03-.61,1.09,.02,1.98,.85,2.95,.41,.48,.71,.84,.62,1.29-.05,.24-.2,.43-.43,.55-.79,.4-3.94,.18-5.26,.06-.34-.03-.6-.33-.57-.67,.03-.34,.33-.6,.67-.57,1.44,.12,3.12,.19,4.02,.14-.72-.85-2.06-2.43-.98-4.36,.69-1.23,2.17-1.9,3.68-1.65,1.42,.23,2.46,1.21,2.73,2.56,.3,1.51-.48,2.62-.94,3.29-.04,.06-.09,.14-.14,.21,.74,.13,1.54,.06,2.39-.02,.96-.09,1.95-.18,2.98,0,.34,.06,.56,.39,.5,.73s-.39,.56-.73,.5c-.86-.16-1.72-.08-2.63,0-.53,.05-1.07,.1-1.61,.1Z"/><path d="M185.84,197.2s-.04,0-.06,0c-.34-.03-.59-.34-.56-.68,0-.02-.04-.09-.05-.1-.2-.28-.13-.67,.15-.87,.28-.2,.67-.13,.87,.15,.05,.07,.31,.47,.26,.94-.03,.32-.3,.56-.62,.56Z"/><path d="M135.32,236.4c-30.23,0-50.31-2.2-61.42-6.72-9.97-4.06-11.31-9.55-11.31-14.38,0-5.78,3.72-8.91,6.18-10.98,.88-.74,1.88-1.58,1.86-1.97,0-.1-.14-.25-.37-.41-2.94-2.04-2.39-5.88-1.69-7.63,.11-.28,.4-.43,.7-.38,.29,.06,.5,.31,.5,.61,0,9.23,30.01,17.02,65.54,17.02s65.54-7.79,65.54-17.02c0-.3,.21-.55,.5-.61,.3-.06,.58,.09,.7,.37,.02,.05,2.03,5.07-1.68,7.64-.25,.17-.4,.34-.4,.46-.03,.4,.85,1.22,1.7,2,.84,.78,1.89,1.75,2.84,2.96,.1,.12,.14,.28,.13,.44-.36,4.04-.8,11.38,.25,15.16l.06,.23c.05,.19,.02,.39-.1,.54-4.08,5.44-15.72,12.66-69.53,12.66Zm-66.06-39.09c-.01,1.24,.34,2.66,1.72,3.61,.57,.4,.88,.86,.9,1.37,.05,1-.94,1.83-2.3,2.98-2.29,1.92-5.74,4.83-5.74,10.03,0,6.94,0,19.85,71.48,19.85,40.14,0,61.88-3.79,68.35-11.92-1.05-3.91-.65-11.14-.29-15.29-.84-1.04-1.75-1.88-2.55-2.62-1.26-1.17-2.17-2.01-2.1-3.01,.04-.53,.34-.99,.94-1.4,1.35-.94,1.71-2.35,1.7-3.58-4.77,8.87-32.07,15.48-66.04,15.48s-61.33-6.62-66.06-15.51Z"/></g><g><path d="M212.4,178.49c-.23,0-.57-.09-.84-.53-.79-1.29-.45-9.83-.33-12.42,.02-.34,.31-.61,.65-.59,.34,.02,.61,.31,.59,.65-.22,4.64-.25,9.78,.04,11.33,.44-.79,1.04-2.64,1.23-3.93,.03-.22,.18-.4,.38-.49,.05-.02,1.29-.55,1.03-1.51-.29-1.05-.93-1.18-.96-1.18-.16-.03-.32-.12-.41-.25-.05-.07-1.19-1.63-1.31-3.37-.02-.34,.24-.64,.58-.66,.36-.02,.64,.24,.66,.58,.07,1.09,.69,2.14,.95,2.54,.46,.16,1.31,.64,1.69,2.01,.39,1.42-.64,2.4-1.44,2.84-.23,1.12-1.05,4.7-2.33,4.96-.05,0-.11,.02-.18,.02Zm.22-1.17h0Z"/><path d="M207.18,228.09c-1.47,0-2.46-1.03-3.5-4.79-1.58-5.71,0-18.94,.28-20.63,.11-.66,.18-1.6,.26-2.79,.18-2.43,.44-6.1,1.34-11.42,1.18-7,6.94-8.6,8.81-8.93v-.76c-1.13,.09-2.18-.31-2.24-.33-.32-.12-.48-.48-.36-.8,.12-.32,.48-.48,.8-.36,.35,.13,1.43,.42,2.18,.15,.19-.07,.4-.04,.56,.08,.16,.11,.26,.3,.27,.5l.04,2.05c0,.33-.25,.61-.58,.63-.29,.02-7.02,.61-8.26,7.98-.89,5.27-1.15,8.9-1.33,11.3-.09,1.27-.16,2.19-.28,2.9-.45,2.69-1.71,15.02-.31,20.09,1.15,4.16,1.95,4,2.96,3.8,.22-.04,.45-.09,.68-.11,.52-.05,.77-1.9,.64-3.45,0-.06,0-.11,0-.17,.22-1.13,.67-4.33,.18-5.54-.38-.94,0-1.61,.47-2.46,.65-1.17,1.74-3.12,2.17-7.69,0-.09,.04-.18,.08-.25,.23-.39,.43-.9,.43-1.08-.11-.29-.06-.69,.4-3.46,.51-3.09,1.37-8.26,.99-9.8-.08-.33,.12-.67,.45-.75,.33-.08,.67,.12,.75,.45,.41,1.65-.22,5.82-.97,10.3-.21,1.26-.42,2.56-.43,2.9,.18,.59-.19,1.42-.48,1.94-.47,4.74-1.62,6.8-2.31,8.04-.46,.83-.54,1.04-.4,1.38,.69,1.69,.05,5.43-.09,6.16,.07,.93,.21,4.5-1.76,4.71-.19,.02-.38,.06-.56,.09-.32,.06-.63,.1-.91,.1Zm6.47-22.55s0,0,0,0c0,0,0,0,0,0Z"/><path d="M235.43,209.97s-.01,0-.02,0c-.34-.01-.61-.3-.6-.64,.52-17.79-3.03-24.66-6.11-27.29-2.28-1.95-4.32-1.6-4.41-1.58-.17,.03-.34,0-.48-.11-.14-.1-.23-.25-.25-.42l-.3-2.32c-.05-.34,.2-.65,.54-.7,.34-.04,.65,.2,.7,.54l.23,1.74c.95,0,2.8,.23,4.74,1.87,3.31,2.79,7.13,9.97,6.59,28.32-.01,.34-.29,.6-.62,.6Z"/><path d="M222.25,178.8c-.41,0-.83-.11-1.22-.41-1.08,.02-4.77-.03-6.13-1.83-.38-.5-.74-1.37-.31-2.65,.11-.33,.47-.5,.79-.39,.33,.11,.5,.46,.39,.79-.21,.62-.17,1.11,.12,1.5,.94,1.25,4.16,1.39,5.32,1.33,.16,0,.34,.06,.47,.18,.66,.65,1.74-.24,1.79-.27,.19-.16,.46-.19,.67-.08,.53,.26,.8-.01,.89-.14,.15-.22,.44-.33,.69-.25,4.25,1.26,5.64-2.5,5.7-2.66,.07-.2,.24-.35,.44-.4,.81-.19,1.37-.58,1.72-1.19,.69-1.19,.38-2.97,.21-3.56-.09-.28,.04-.59,.3-.73,.49-.26,.78-.61,.89-1.06,.25-1.02-.47-2.39-.78-2.83-.09-.14-.13-.31-.1-.47s.13-.31,.26-.4c1.09-.73,1.67-1.58,1.74-2.53,.13-2.06-2.12-4.06-2.14-4.08-.23-.2-.28-.54-.12-.8,.05-.41-.43-1.96-2.07-3.05-1.7-1.13-3.24-.1-3.31-.06-.15,.1-.34,.14-.51,.09-.18-.05-.32-.17-.4-.33,0-.02-.96-1.94-2.71-2.37-1.77-.43-4.1,1.14-4.12,1.15-.24,.16-.56,.14-.78-.06-.12-.11-2.94-2.58-6.36,1.04-1.05,1.12-1.56,2.17-1.52,3.13,.04,.98,.66,1.53,.68,1.56,.16,.14,.24,.36,.2,.57-.03,.21-.17,.39-.37,.48-.74,.32-1.17,.71-1.29,1.18-.18,.69,.36,1.41,.37,1.42,.18,.23,.18,.55,0,.78-.53,.65-.76,1.21-.67,1.62,.09,.4,.51,.6,.51,.6,.26,.12,.4,.39,.36,.66,.03,.07,.21,.24,.71,.39,.23,.07,.41,.07,.54,0,.18-.11,.27-.39,.28-.44,.07-.34,.4-.56,.73-.49,.34,.07,.56,.39,.49,.73-.02,.09-.19,.85-.86,1.26-.3,.18-.81,.35-1.54,.13-1.12-.34-1.47-.89-1.57-1.31-.3-.21-.72-.6-.87-1.23-.18-.72,.04-1.51,.64-2.36-.25-.46-.54-1.24-.33-2.08,.17-.66,.6-1.2,1.29-1.64-.26-.41-.52-.99-.56-1.74-.07-1.32,.55-2.7,1.86-4.08,3.48-3.69,6.64-2.13,7.72-1.4,.84-.5,2.9-1.54,4.74-1.09,1.65,.41,2.72,1.72,3.21,2.48,.83-.36,2.42-.76,4.11,.36,1.7,1.13,2.47,2.72,2.61,3.73,.02,.18,.03,.35,.01,.5,.71,.71,2.4,2.64,2.27,4.81-.08,1.2-.68,2.25-1.81,3.14,.39,.72,.95,2.06,.65,3.31-.16,.66-.53,1.19-1.1,1.6,.17,.84,.39,2.64-.43,4.07-.48,.83-1.22,1.4-2.21,1.7-.5,1.05-2.41,4.29-6.71,3.23-.38,.33-1,.6-1.79,.36-.45,.29-1.07,.57-1.72,.57Zm-10.37-14.43s0,0,0,0c0,0,0,0,0,0Zm0,0s0,0,0,0c0,0,0,0,0,0Zm0,0h0s0,0,0,0Zm22.05-8.58s0,0,0,0c0,0,0,0,0,0Z"/><path d="M214.22,198.74c-.15,0-.3-.05-.42-.17-.25-.23-.27-.63-.03-.88,.94-1.02,1.66-3.79,1.86-4.77,.07-.34,.4-.55,.73-.49,.34,.07,.56,.4,.49,.73-.03,.16-.8,3.89-2.17,5.37-.12,.13-.29,.2-.46,.2Z"/><path d="M233.59,207.21c-.33,0-.61-.27-.62-.6-.72-22.76-6.04-24.01-6.09-24.02-.33-.06-.56-.37-.52-.7,.05-.33,.34-.57,.67-.53,.66,.07,6.43,1.35,7.19,25.21,.01,.34-.26,.63-.6,.64,0,0-.01,0-.02,0Z"/><path d="M217.03,208.19c-.21,0-.41-.1-.52-.29-.19-.3-.99-.12-1.25-.02-.32,.12-.68-.04-.8-.36-.12-.32,.04-.68,.36-.8,.72-.27,2.1-.47,2.73,.51,.19,.29,.1,.67-.19,.86-.1,.07-.22,.1-.34,.1Z"/><path d="M220.17,208.59c-.21,0-.42-.11-.53-.3-.3-.49-1.17-.37-1.17-.37-.35,.06-.66-.18-.71-.52-.05-.34,.18-.66,.52-.71,.63-.1,1.85-.01,2.44,.95,.18,.29,.09,.68-.21,.86-.1,.06-.21,.09-.32,.09Z"/><path d="M221.51,208.27c-.34,0-.62-.27-.62-.61,0-.34,.27-.63,.61-.63,.09,0,8.82-.15,10.75-.38,.35-.04,.65,.21,.69,.55,.04,.34-.21,.65-.55,.69-1.99,.23-10.51,.38-10.87,.39h-.01Z"/><path d="M221.04,239.91c-5.71,0-11.68-.53-15.34-1.85-.22-.08-.37-.27-.41-.5-.03-.18-.63-4.42-.2-10.97,.02-.34,.33-.6,.66-.58,.34,.02,.6,.32,.58,.66-.35,5.33,0,9.17,.14,10.34,8.83,2.95,27.66,1.39,29.02,0,.98-1.57-.08-21.74-.68-27.6-.27-2.68-.8-2.95-.81-2.95-.24,.24-.63,.25-.87,0-.24-.24-.24-.63,0-.88,.21-.21,.72-.51,1.29-.3,.87,.31,1.39,1.58,1.63,4,.2,1.98,2.01,26.34,.43,28.48-.91,1.24-7.97,2.15-15.45,2.15Z"/><path d="M210.53,258.52c-.34,0-.62-.27-.62-.61l-.38-19.36c0-.34,.27-.63,.61-.64h.01c.34,0,.62,.27,.62,.61l.38,19.36c0,.34-.27,.63-.61,.64h-.01Z"/><path d="M214.16,262.78c-2.52,0-5.45-.62-7.82-2.46-1.38-1.07-1.95-2.16-1.71-3.24,.54-2.41,5.16-3.49,5.68-3.6,.33-.07,.67,.14,.74,.47,.07,.34-.14,.67-.47,.74-1.68,.37-4.46,1.42-4.74,2.66-.16,.7,.6,1.46,1.26,1.98,2.83,2.2,6.73,2.47,9.44,1.99,1.42-.25,2.15-.65,2.31-.83-.06-3.9,.78-20.51,.81-21.22,.02-.34,.32-.61,.65-.59,.34,.02,.61,.31,.59,.65,0,.17-.88,17.52-.81,21.22,0,.51-.36,.95-1.09,1.32-.99,.5-2.78,.91-4.85,.91Z"/><path d="M227.13,261.64c-1.27,0-2.51-.16-3.43-.46-3.25-1.06-3.91-2.69-4.02-3.57-.13-1.04,.39-2.08,1.31-2.66,.84-.53,1.85-.54,2.63-.03,.29,.19,.37,.57,.18,.86-.19,.29-.57,.37-.86,.18-.55-.35-1.09-.09-1.3,.04-.39,.24-.81,.77-.73,1.45,.12,.99,1.28,1.92,3.17,2.54,2.01,.66,6.12,.49,7.58-.59,.41-.3,.41-.54,.4-.62-.04-2.18,.53-19.71,.56-20.46,.01-.34,.31-.62,.64-.6,.34,.01,.61,.3,.6,.64,0,.18-.6,18.25-.56,20.39,0,.44-.14,1.08-.91,1.65-1.12,.83-3.25,1.23-5.28,1.23Z"/><path d="M223.33,258.27c-.34,0-.61-.27-.62-.61l-.47-18.37c0-.34,.26-.63,.61-.64h.02c.34,0,.61,.27,.62,.61l.47,18.37c0,.34-.26,.63-.61,.64h-.02Z"/><path d="M214.28,169.82s-.03,0-.05,0l-4.77-.38c-.34-.03-.6-.33-.57-.67,.03-.34,.32-.6,.67-.57l4.77,.38c.34,.03,.6,.33,.57,.67-.03,.33-.3,.57-.62,.57Z"/><g><path d="M211.8,166.74s-2.3-.32-2.3,2.08,2.18,2.4,2.18,2.4"/><path d="M211.68,171.84c-.78,0-2.8-.54-2.8-3.02,0-.91,.28-1.62,.83-2.1,.87-.76,2.04-.62,2.17-.6,.34,.05,.58,.36,.53,.7-.05,.34-.35,.57-.7,.53-.03,0-.75-.08-1.19,.31-.27,.23-.4,.62-.4,1.15,0,1.67,1.3,1.77,1.56,1.78,.34,0,.62,.29,.62,.63,0,.34-.28,.62-.62,.62Z"/></g><g><path d="M232.73,256.16c-.03,1.27-.04,2.21-.03,2.61,.04,2.18-6,2.73-8.8,1.81-6.37-2.09-2.82-6.57-.61-5.14l-.05-1.66c-1.16-.11-2.35-.17-3.58-.18-.12,3.06-.19,5.74-.17,6.96,.03,1.31-7.81,3.1-12.75-.73-2.03-1.58-1.76-2.83-.74-3.75-2.8,1.31-4.51,3.04-4.51,4.93,0,4.1,7.97,7.42,17.79,7.42s17.79-3.32,17.79-7.42c0-1.85-1.64-3.55-4.33-4.85Z"/><path d="M219.27,269.05c-10.33,0-18.41-3.53-18.41-8.04,0-2.08,1.73-4.03,4.87-5.5,.28-.13,.61-.04,.78,.22,.17,.26,.13,.6-.1,.81-.4,.36-.59,.71-.58,1.06,.02,.5,.46,1.1,1.28,1.74,2.83,2.2,6.73,2.47,9.44,1.99,1.42-.25,2.15-.65,2.31-.83-.02-1.12,.04-3.45,.17-6.92,.01-.34,.26-.6,.63-.6,1.22,.01,2.45,.07,3.64,.19,.31,.03,.55,.29,.56,.6l.05,1.66c0,.23-.11,.45-.32,.56-.2,.11-.45,.11-.65-.02-.55-.35-1.09-.09-1.3,.04-.39,.24-.81,.77-.73,1.45,.12,.99,1.28,1.92,3.17,2.54,2.01,.66,6.12,.49,7.58-.59,.41-.3,.41-.54,.4-.62,0-.38,0-1.24,.03-2.63,0-.21,.12-.41,.3-.52,.18-.11,.41-.12,.6-.03,3.02,1.46,4.69,3.38,4.69,5.41,0,4.51-8.09,8.04-18.41,8.04Zm-14.69-11.49c-1.61,1.06-2.48,2.25-2.48,3.45,0,3.68,7.86,6.79,17.17,6.79s17.17-3.11,17.17-6.79c0-1.34-1.1-2.68-3.11-3.83-.01,.79-.02,1.32-.01,1.58,0,.44-.14,1.08-.91,1.65-1.82,1.35-6.31,1.55-8.71,.77-2.08-.68-3.1-1.59-3.59-2.39-.01,.77-.02,1.36,0,1.76,0,.51-.36,.95-1.09,1.32-2.19,1.1-8.36,1.81-12.67-1.54-1.15-.89-1.73-1.77-1.76-2.68,0-.03,0-.06,0-.09Zm15.67-3.33c-.02,.51-.04,.99-.05,1.45,.21-.29,.48-.54,.79-.73,.51-.32,1.09-.45,1.64-.39v-.21c-.79-.06-1.58-.1-2.38-.12Z"/></g></g><g><g><path d="M34.06,187.61s-.08,0-.12-.01c-4.09-.8-5.01-1.27-5.15-1.36-.18-.11-.29-.3-.29-.51-.11-3.52,.68-11.85,1.37-18.21,.04-.34,.34-.59,.69-.55,.34,.04,.59,.34,.55,.69-.94,8.66-1.41,14.73-1.37,17.64,.49,.18,1.71,.55,4.44,1.08,.34,.07,.56,.39,.49,.73-.06,.3-.32,.5-.61,.5Z"/><path d="M30.83,155.81c-.25,0-.49-.16-.58-.41-.22-.6-.37-1.25-.43-1.93-.23-2.51,2.96-5.29,3.33-5.6,.14-.12,.34-.17,.52-.14,0,0,.38,.07,.73,.13,.34,.05,.57,.37,.52,.71s-.37,.57-.71,.52c-.16-.03-.34-.05-.48-.08-.96,.87-2.81,2.88-2.67,4.34,.05,.57,.17,1.11,.36,1.61,.12,.32-.05,.68-.37,.8-.07,.03-.14,.04-.22,.04Z"/><path d="M56.7,208.37c-.34,0-.66-.07-.97-.22-.79-.38-1.33-1-1.6-1.83-.64-1.99,.47-4.76,1.03-5.95-6.11-3.17-8.24-11.32-8.33-11.68-.08-.33,.12-.67,.45-.76,.34-.08,.67,.12,.76,.45,.02,.08,2.21,8.45,8.21,11.13,.16,.07,.28,.2,.34,.37,.06,.16,.04,.34-.04,.5-.53,.97-1.78,3.86-1.23,5.56,.16,.51,.47,.86,.95,1.09,.69,.33,1.65-.29,2.34-.87,3.04-2.59,5.83-8.56,5.49-9.69-.16-.55-.96-1.21-1.81-1.9-2.01-1.65-4.77-3.92-4.28-8.31,.04-.34,.35-.59,.69-.55,.34,.04,.59,.35,.55,.69-.41,3.72,1.94,5.65,3.83,7.21,1.04,.86,1.94,1.6,2.21,2.51,.6,2.01-2.81,8.38-5.88,11-.99,.84-1.9,1.27-2.72,1.27Z"/><path d="M34.08,207.06c-1.38,0-3.14-.64-4.74-1.76-2.42-1.71-3.81-4.01-3.81-6.32,0-1.73,.85-3.17,2.26-3.87,1.2-.59,2.53-.5,3.5,.24,.27,.21,.32,.6,.11,.87-.21,.27-.6,.32-.87,.11-.58-.45-1.42-.49-2.18-.11-.98,.48-1.57,1.51-1.57,2.75,0,2.69,2.29,4.6,3.28,5.3,1.7,1.2,3.68,1.8,4.71,1.44,1.41-.5,5.21-9.27,8.07-17.45,.11-.33,.47-.5,.79-.38,.32,.11,.5,.47,.38,.79-1,2.87-6.15,17.26-8.82,18.21-.33,.12-.7,.17-1.11,.17Z"/><path d="M30.68,197.8s-.07,0-.11,0c-.34-.06-.57-.38-.51-.72l1.8-10.51c.06-.34,.38-.57,.72-.51,.34,.06,.57,.38,.51,.72l-1.8,10.51c-.05,.3-.32,.52-.61,.52Z"/><path d="M35.74,188.16c-.28,0-.54-.2-.61-.48-.89-3.91-.94-11.64-.14-22.98,.02-.34,.32-.6,.67-.58,.34,.02,.6,.32,.58,.67-.78,11.05-.74,18.87,.11,22.61,.08,.34-.13,.67-.47,.75-.05,.01-.09,.02-.14,.02Z"/><path d="M53.72,179.48c-.27,0-.52-.18-.6-.45-1.66-5.72-8.8-9.15-8.87-9.18-.31-.15-.44-.52-.3-.83,.15-.31,.52-.44,.83-.3,.31,.15,7.72,3.69,9.54,9.96,.1,.33-.09,.68-.42,.77-.06,.02-.12,.02-.17,.02Z"/><path d="M55.28,172.48c-.3,0-.56-.22-.61-.52-.12-.71-1.59-2.28-2.6-3.17-.26-.23-.28-.62-.05-.88,.23-.26,.62-.28,.88-.05,.46,.41,2.77,2.51,3,3.9,.06,.34-.17,.66-.51,.72-.03,0-.07,0-.1,0Z"/><path d="M31.65,158.24s-.08,0-.12-.01c-.34-.07-.56-.4-.49-.73,1.84-9.18,4.58-14.45,8.14-15.66,2.64-.9,4.65,.82,4.74,.89,.26,.23,.29,.62,.06,.88-.22,.26-.62,.29-.88,.06-.07-.06-1.58-1.32-3.54-.65-2.13,.74-5.13,3.89-7.31,14.72-.06,.3-.32,.5-.61,.5Z"/><path d="M30.82,168.23c-1.27,0-2.21-.45-2.79-1.33-2.11-3.2,1.8-11.11,2.25-12,.16-.31,.53-.43,.84-.27,.31,.16,.43,.53,.27,.84-1.14,2.24-3.77,8.54-2.32,10.75,.38,.57,1.04,.82,2.04,.76,5.24-.33,9.97-13.67,11.35-18.78,.09-.33,.43-.53,.76-.44,.33,.09,.53,.43,.44,.76-.01,.05-1.31,4.8-3.42,9.55-2.92,6.54-5.96,9.95-9.05,10.15-.13,0-.25,.01-.37,.01Z"/><path d="M42.46,151c-.28,0-.53-.19-.6-.47-.09-.33,.11-.67,.44-.76h0s1.19-.33,1.46-1.18c.11-.33,.46-.51,.79-.4,.33,.11,.51,.46,.4,.79-.49,1.5-2.25,1.98-2.33,2-.05,.01-.11,.02-.16,.02Z"/><path d="M45.57,154.94c-1.97,0-4.23-1.2-4.33-1.25-.3-.16-.42-.54-.25-.84,.16-.3,.54-.42,.84-.26,.02,.01,2.18,1.15,3.86,1.1,.34-.01,.63,.26,.64,.6,.01,.34-.26,.63-.6,.64-.05,0-.1,0-.16,0Z"/><path d="M48.95,156.12c-.28,0-.54-.19-.61-.48,0,0-.21-.87-.84-1.45-.01-.01-.03-.02-.04-.03-.08,.07-.19,.25-.25,.39-.13,.32-.49,.47-.81,.35-.32-.13-.47-.49-.35-.8,.07-.17,.43-1.01,1.16-1.18,.28-.06,.7-.05,1.14,.36,.9,.85,1.18,2.03,1.2,2.08,.08,.34-.13,.67-.47,.75-.05,.01-.09,.02-.14,.02Z"/><path d="M46.37,189.17c-3.66,0-7.27-.34-10.74-1.02-.34-.07-.56-.39-.49-.73,.07-.34,.39-.56,.73-.49,3.39,.66,6.93,.99,10.5,.99,9.17,0,14.21-3.1,15.15-3.94-.16-1.68-2.56-12.5-4.1-19.21-.08-.34,.13-.67,.47-.75,.34-.08,.67,.13,.75,.47,4.44,19.4,4.2,19.78,4.03,20.06-.36,.57-5.53,4.61-16.3,4.61Z"/><path d="M60.7,165.37c-.16,0-.32-.06-.44-.18-.23-.23-2.25-2.27-2.76-3.6-.12-.32,.03-.68,.35-.81,.32-.13,.68,.03,.81,.35,.36,.92,1.91,2.6,2.48,3.17,.24,.24,.24,.64,0,.88-.12,.12-.28,.18-.44,.18Z"/><path d="M62.15,164.89c-.22,0-.44-.12-.55-.33-.03-.06-.77-1.45-1.12-2.32-.13-.32,.02-.68,.34-.81,.32-.13,.68,.02,.81,.34,.33,.81,1.06,2.19,1.07,2.2,.16,.3,.05,.68-.26,.84-.09,.05-.19,.07-.29,.07Z"/><path d="M53.54,165.1c-.15,0-.3-.01-.44-.04-1.13-.2-1.87-1.07-1.78-2.11,.15-1.84,1.23-2.25,1.77-2.21,.34,.02,.6,.32,.58,.67-.02,.34-.32,.6-.67,.58-.1,.01-.37,.25-.44,1.07-.05,.61,.62,.76,.76,.78,.42,.07,1.18-.03,1.41-.86,.47-1.74-2.1-4.35-3.2-5.47-8.83-8.96-5.66-22.99-5.52-23.58,.07-.31,.36-.51,.68-.48h0s.47,.03,.79-.26c.25-.23,.38-.63,.38-1.19s-.13-.96-.38-1.19c-.27-.25-.65-.26-.77-.26-.6,.15-5.21,1.21-7.74-.06-1.06-.53-1.92-1.7-2.41-3.29-.8-2.57-.53-5.68,.7-7.93,1.88-3.43,4.51-3.21,5.32-3.04,4.2-1.58,7.96-1.47,11.17,.34,6.39,3.59,8.47,12.61,8.79,14.2,.76,.7,3.04,3.6,5.7,14.4,.86,3.49,1.17,6.53,.92,9.05-.14,1.42,.06,2.41,.57,2.79,.59,.44,1.55,.05,1.56,.05,.32-.13,.68,.02,.81,.33,.13,.32-.01,.68-.33,.81-.06,.03-1.61,.67-2.78-.19-.91-.67-1.27-1.99-1.08-3.92,.23-2.38-.06-5.28-.89-8.63-2.94-11.95-5.38-13.83-5.41-13.85-.13-.09-.24-.25-.27-.41-.02-.1-1.87-9.99-8.22-13.56-2.92-1.64-6.38-1.7-10.29-.19-.14,.05-.29,.06-.43,0-.09-.03-2.36-.72-4.07,2.4-1.07,1.96-1.31,4.69-.6,6.96,.39,1.25,1.04,2.18,1.78,2.55,1.87,.94,5.64,.28,6.94-.05,.03,0,.06-.01,.08-.02,.1-.01,1.02-.09,1.75,.56,.53,.48,.8,1.19,.8,2.13s-.27,1.65-.8,2.13c-.39,.35-.83,.49-1.17,.54-.46,2.47-2.2,14.37,5.29,21.97,2.07,2.1,4.1,4.53,3.52,6.67-.34,1.23-1.38,1.8-2.38,1.8Z"/><path d="M38.3,140.81s-.04,0-.06,0c-3.12-.32-3.53-3.98-3.73-5.74-.04-.32-.08-.72-.12-.82-.29-.66,.06-1.11,.31-1.45,.26-.35,.59-.78,.64-1.8,.11-2.16,.82-5.55,.85-5.69,.07-.34,.4-.55,.74-.48,.34,.07,.55,.4,.48,.74,0,.03-.72,3.43-.83,5.49-.07,1.4-.58,2.08-.89,2.48-.06,.09-.15,.2-.17,.24,.12,.21,.16,.58,.22,1.14,.24,2.14,.66,4.44,2.62,4.64,.34,.03,.59,.34,.56,.68-.03,.32-.3,.56-.62,.56Z"/><path d="M68.85,161.99s-.02,0-.03,0c-.06,0-1.38-.08-2.29-1.15-.68-.8-.94-1.9-.78-3.28,.39-3.35-1.63-6.86-1.65-6.89-.17-.3-.07-.68,.23-.85,.3-.17,.68-.07,.85,.22,.09,.16,2.24,3.9,1.81,7.66-.12,1.02,.05,1.81,.49,2.33,.56,.66,1.39,.71,1.4,.71,.34,.02,.61,.31,.59,.65-.02,.33-.29,.59-.62,.59Z"/><path d="M64.64,164.32s-.05,0-.07,0c-.34-.04-.59-.35-.55-.69,.08-.67-.71-2.38-1.3-3.37-.17-.3-.08-.68,.22-.85,.3-.18,.68-.08,.85,.22,.27,.46,1.62,2.82,1.46,4.15-.04,.32-.31,.55-.62,.55Z"/><rect x="38.19" y="131.54" width="1.4" height="3.16" rx=".26" ry=".26" transform="translate(9.19 -2.35) rotate(3.92)"/><path d="M39,131.54s-1.36,.06-1.81-.41c0,0,.12,.91,1.7,1.28l.11-.87Z"/><path d="M75.41,157.38c-.11,0-.23-.03-.33-.09-5.05-3.13-7.94-11.42-8.06-11.78-.11-.33,.06-.68,.39-.79,.33-.11,.68,.06,.79,.39,.03,.08,2.87,8.23,7.54,11.12,.29,.18,.38,.56,.2,.86-.12,.19-.32,.3-.53,.3Z"/></g><path d="M54.54,154.35c-.09,0-.19-.02-.28-.07-7.65-3.87-8.26-19.53-8.28-20.2-.01-.34,.26-.63,.6-.64,.34,0,.63,.26,.64,.6,0,.16,.61,15.59,7.6,19.13,.31,.16,.43,.53,.27,.84-.11,.22-.33,.34-.56,.34Z"/><g><path d="M67.61,206.66c-.95-1.16-2.94-2.39-5.72-3.44-1.86,2.8-4.24,5.16-5.89,4.37-2.25-1.08-1.38-4.28-.63-6.14-2.88-.53-6.13-.86-9.67-.86-2.57,0-5.03,.16-7.3,.44-1.29,2.75-2.56,4.95-3.42,5.26-1.54,.55-4.47-.55-6.53-2.55-1.89,1-2.98,2.19-2.98,3.45,0,3.65,16.54,8.58,27.71,8.58s17.2-5.73,14.43-9.12Z"/><path d="M53.18,216.41c-10.16,0-28.33-4.64-28.33-9.21,0-1.02,.57-2.55,3.31-4,.24-.13,.53-.09,.73,.1,2,1.94,4.71,2.83,5.89,2.41,.15-.05,1.01-.55,3.07-4.94,.09-.19,.27-.33,.49-.35,2.36-.3,4.85-.45,7.38-.45,3.38,0,6.67,.29,9.78,.87,.18,.03,.34,.15,.43,.31s.1,.36,.03,.53c-.65,1.62-1.48,4.48,.32,5.34,1.06,.51,3.11-1.16,5.1-4.15,.16-.24,.47-.34,.74-.24,2.81,1.06,4.94,2.35,5.99,3.63h0c.92,1.13,1.06,2.53,.4,3.93-1.42,2.99-6.81,6.21-15.31,6.21Zm-24.82-11.89c-1.11,.65-2.27,1.58-2.27,2.69,0,2.88,15.66,7.96,27.09,7.96,7.6,0,12.89-2.76,14.18-5.5,.46-.97,.38-1.85-.24-2.61-.84-1.03-2.65-2.14-5-3.08-1.33,1.91-4.09,5.28-6.39,4.17-1.87-.9-2.29-3.09-1.21-6.21-2.82-.48-5.78-.72-8.82-.72-2.36,0-4.67,.13-6.88,.4-2.01,4.23-3,5.04-3.63,5.27-1.71,.61-4.64-.43-6.83-2.37Z"/></g></g></g><path d="M194.98,152.74c-.08,0-.16-.01-.23-.05-.32-.13-.47-.49-.34-.81,.06-.15,6.03-14.76,18.7-29.23,11.71-13.38,31.71-29.39,60.45-29.68h0c.34,0,.62,.27,.62,.62,0,.34-.27,.63-.62,.63-28.27,.28-47.96,16.05-59.5,29.22-12.54,14.31-18.45,28.76-18.51,28.9-.1,.24-.33,.39-.58,.39Z"/><path d="M192.99,154.77c-.27,0-.51-.17-.6-.44-.08-.25-1.85-6.25,.52-10.73,.16-.3,.54-.42,.84-.26,.3,.16,.42,.54,.26,.84-2.13,4.02-.44,9.73-.43,9.79,.1,.33-.09,.68-.42,.78-.06,.02-.12,.03-.18,.03Z"/><path d="M198.46,150.77c-.23,0-.44-.12-.55-.33-.16-.31-.04-.68,.26-.84l3.74-1.95c.31-.16,.68-.04,.84,.26,.16,.31,.04,.68-.26,.84l-3.74,1.95c-.09,.05-.19,.07-.29,.07Z"/><g><path d="M189.98,163.79c-.67,0-1.37-.08-2.1-.24-.34-.07-.55-.4-.48-.74s.4-.55,.74-.48c2.14,.46,3.92,.15,5.3-.92,1.12-.87,1.86-2.14,2.34-3.39-2.35-.66-4.28-.56-5.77,.28-1.97,1.12-2.53,3.21-2.54,3.23-.09,.33-.43,.53-.76,.45-.33-.08-.53-.42-.45-.75,.03-.11,.68-2.61,3.12-4,1.82-1.03,4.1-1.16,6.79-.38,.46-1.64,.52-2.99,.52-3.02,.01-.28,.2-.51,.47-.58,.27-.07,.55,.05,.69,.29l2.58,4.39c.12,.21,.11,.48-.03,.68s-.39,.3-.63,.25l-2.76-.56c-.55,1.48-1.42,3.03-2.81,4.11-1.19,.92-2.61,1.39-4.23,1.39Zm7.42-6.69l1.26,.25-.95-1.61c-.08,.41-.18,.87-.31,1.36Z"/><path d="M192.09,163.31s-.02,0-.04,0c-.34-.02-.61-.32-.58-.66,.1-1.76-1.45-2.7-1.51-2.74-.3-.17-.39-.56-.22-.85,.17-.3,.55-.4,.85-.22,.09,.05,2.28,1.35,2.13,3.89-.02,.33-.29,.59-.62,.59Z"/><path d="M189.25,161.38c-.11,0-.21-.03-.31-.08-.3-.17-.4-.55-.23-.85,.17-.3,.56-.41,.86-.24,.3,.17,.41,.55,.23,.84v.02c-.12,.2-.33,.31-.55,.31Z"/></g></g><g><g><path d="M103.44,307.13c-.12-.12-.28-.26-.47-.4-.19-.15-.39-.29-.6-.45-.21-.15-.43-.3-.65-.45-.22-.15-.43-.28-.63-.4l.99-1.15c.19,.1,.39,.22,.62,.35,.22,.13,.44,.27,.67,.4,.22,.14,.43,.27,.62,.41,.19,.14,.36,.27,.49,.39l-1.03,1.29Zm1.54,1.53c-.31,.75-.65,1.51-1.01,2.28-.36,.77-.72,1.5-1.08,2.18l-1.5-1.03c.16-.27,.34-.58,.53-.92,.19-.34,.39-.71,.59-1.1,.2-.39,.39-.8,.59-1.21,.19-.42,.38-.83,.56-1.23l1.32,1.03Zm-.85-5.28c-.12-.12-.28-.26-.46-.41s-.38-.3-.59-.46c-.21-.16-.42-.31-.64-.47-.22-.16-.43-.29-.62-.42l1.03-1.12c.19,.11,.39,.24,.62,.37s.44,.27,.65,.41c.21,.14,.42,.28,.61,.42,.19,.14,.36,.27,.49,.4l-1.09,1.28Zm7.17,5.33c.42,.52,.9,1.01,1.44,1.47,.55,.46,1.11,.82,1.69,1.1-.09,.08-.2,.17-.3,.28-.11,.11-.21,.22-.31,.34-.1,.12-.2,.24-.29,.36-.09,.12-.17,.23-.24,.33-.54-.32-1.06-.73-1.57-1.22-.51-.49-.97-1.02-1.38-1.6v3.68h-1.66v-3.63c-.43,.59-.91,1.14-1.46,1.63-.55,.49-1.13,.89-1.76,1.2-.07-.09-.14-.2-.23-.33-.09-.12-.18-.25-.28-.37-.1-.12-.2-.24-.3-.35-.1-.11-.2-.21-.3-.28,.65-.26,1.26-.63,1.83-1.08,.57-.46,1.06-.97,1.47-1.52h-2.48v-1.5h3.51v-1.4h1.66v1.4h3.63v1.5h-2.66Zm-2.05-6.03c-.04,.51-.11,.96-.22,1.36-.11,.4-.29,.75-.55,1.05-.26,.3-.62,.56-1.08,.77-.46,.21-1.06,.39-1.8,.53-.03-.09-.07-.2-.13-.33-.06-.12-.12-.24-.2-.36-.08-.12-.15-.23-.23-.35-.08-.11-.16-.21-.23-.28,.62-.09,1.12-.19,1.49-.31,.37-.12,.66-.28,.86-.47,.21-.19,.35-.42,.42-.68,.07-.26,.12-.58,.15-.93h1.53Zm-2.37,1.08h-1.53v-2.89h8.6v2.8h-1.61v-1.37h-5.45v1.46Zm6.36,.88c.14,0,.3,0,.48-.02,.18-.01,.33-.04,.45-.08,.02,.2,.04,.43,.06,.71,.02,.27,.04,.51,.07,.69-.12,.05-.28,.08-.47,.09-.19,0-.38,.01-.57,.01h-1.39c-.37,0-.67-.03-.91-.1-.24-.07-.42-.17-.56-.32-.14-.15-.23-.34-.28-.57-.05-.24-.08-.53-.08-.88v-1.49h1.49v1.5c0,.16,.02,.28,.06,.35s.12,.11,.26,.11h1.39Z"/><path d="M119.99,311.22c-.11-.19-.26-.41-.45-.66-.19-.25-.39-.5-.61-.74v3.6h-1.59v-3.39c-.22,.47-.44,.91-.68,1.32-.24,.41-.49,.76-.75,1.05-.08-.24-.18-.5-.33-.79s-.26-.54-.37-.74c.32-.37,.64-.83,.96-1.37,.32-.55,.58-1.1,.8-1.64h-1.52v-1.44h1.88v-1.01h-1.63v-1.44h1.63v-.95c-.25,.05-.51,.08-.75,.11s-.49,.05-.74,.07c-.03-.17-.09-.38-.18-.62s-.18-.45-.28-.61c.32-.05,.64-.09,.97-.13,.33-.04,.65-.1,.97-.16v-1.46h1.59v1.08c.16-.05,.31-.09,.45-.13,.14-.04,.27-.09,.39-.13l1.15,1.18c-.59,.21-1.25,.39-1.98,.55v1.22h1.56v1.44h-1.56v1.01h1.78v1.44h-1.78v.25c.13,.11,.3,.26,.5,.45,.2,.19,.4,.38,.6,.58,.2,.2,.38,.38,.55,.55,.17,.17,.29,.29,.37,.36l-.95,1.18Zm8.6-2.63h-1.46v4.84h-1.61v-4.84h-1.47c-.06,.47-.15,.94-.27,1.4-.12,.46-.29,.9-.49,1.32-.2,.42-.45,.82-.75,1.19-.3,.37-.65,.71-1.07,1.01-.07-.08-.16-.16-.27-.25-.11-.09-.23-.19-.35-.28-.12-.09-.25-.18-.37-.26s-.23-.15-.33-.21c.36-.25,.67-.52,.92-.81s.47-.61,.65-.95c.18-.34,.32-.68,.43-1.05,.11-.36,.19-.73,.25-1.1h-1.36v-1.59h1.5c0-.1,.01-.21,.01-.3v-2.34h-1.29v-1.59h1.29v-2.55h1.61v2.55h1.35v-2.56h1.61v2.56h1.25v1.59h-1.25v2.65h1.46v1.59Zm-3.07-1.59v-2.65h-1.35v2.34c0,.1,0,.2-.01,.3h1.36Z"/><path d="M137.42,305.74c.24,.69,.52,1.34,.85,1.96,.33,.62,.72,1.19,1.15,1.7,.44,.51,.93,.98,1.48,1.38,.55,.41,1.15,.75,1.81,1.02-.1,.09-.21,.19-.33,.33-.12,.13-.23,.27-.35,.42-.11,.15-.22,.29-.32,.44-.1,.15-.18,.28-.25,.4-1.28-.6-2.35-1.41-3.2-2.43s-1.55-2.21-2.11-3.58c-.19,.6-.43,1.17-.73,1.74-.3,.56-.66,1.1-1.08,1.61-.43,.51-.92,1-1.49,1.45-.57,.45-1.23,.86-1.99,1.22-.13-.24-.31-.49-.55-.76-.23-.27-.47-.49-.72-.67,.81-.36,1.51-.77,2.1-1.24,.59-.47,1.08-.97,1.49-1.51,.41-.54,.73-1.1,.98-1.69,.25-.59,.44-1.19,.58-1.79h-4.87v-1.74h5.16c.08-.67,.12-1.32,.12-1.96,0-.63,.01-1.24,.02-1.83h1.84c0,.59-.02,1.2-.04,1.83s-.06,1.29-.13,1.95h5.57v1.74h-4.99Z"/><path d="M153.32,303.5v.99h3.1v7.28c0,.34-.04,.62-.11,.83-.07,.21-.22,.38-.43,.52-.2,.12-.44,.2-.72,.23-.28,.03-.61,.04-.99,.04-.03-.22-.08-.47-.16-.74-.08-.28-.17-.52-.28-.72,.19,0,.37,.01,.55,.01s.3,0,.38-.01c.12,0,.18-.06,.18-.18v-1.3h-1.52v2.88h-1.62v-2.88h-1.42v2.97h-1.57v-7.21c-.19,.21-.36,.42-.52,.62-.16,.21-.32,.4-.47,.57,.17,.21,.32,.4,.46,.59,.14,.18,.24,.31,.3,.39l-.89,1.12c-.09-.17-.21-.37-.34-.6-.13-.23-.28-.47-.44-.7v5.17h-1.52v-4.76c-.18,.23-.36,.44-.53,.65-.17,.21-.34,.4-.5,.57-.04-.09-.09-.21-.16-.35-.07-.14-.14-.27-.21-.41-.08-.14-.15-.26-.23-.38-.08-.12-.15-.21-.22-.26,.27-.25,.54-.55,.81-.88,.26-.33,.52-.69,.76-1.07,.25-.38,.48-.78,.69-1.19,.22-.41,.41-.82,.58-1.23h-2.35v-1.46h1.84c-.11-.25-.27-.53-.46-.84-.19-.32-.38-.6-.57-.86l1.33-.61c.23,.27,.45,.57,.67,.89,.22,.32,.39,.6,.5,.84l-1.13,.58h.91l.27-.06,.88,.52c-.17,.54-.37,1.07-.6,1.59-.23,.52-.48,1.04-.76,1.55v.06l.28,.33c.12-.2,.25-.41,.38-.64,.13-.23,.23-.43,.32-.61l.92,.65v-1.5h2.99v-.99h-3.3v-1.53h3.3v-1.77h1.62v1.77h1.8c-.21-.17-.43-.34-.68-.5-.25-.16-.48-.3-.71-.43l.92-.89c.18,.09,.36,.18,.55,.29,.19,.11,.37,.22,.55,.34,.18,.12,.34,.24,.5,.35,.15,.12,.28,.23,.4,.33l-.52,.5h.75v1.53h-3.56Zm-3.03,2.41v.95h1.42v-.95h-1.42Zm1.42,3.23v-.98h-1.42v.98h1.42Zm1.62-3.23v.95h1.52v-.95h-1.52Zm1.52,3.23v-.98h-1.52v.98h1.52Z"/><path d="M163.67,308.97c0,.31-.03,.57-.08,.77-.05,.2-.14,.36-.26,.47-.12,.11-.29,.19-.5,.24-.21,.05-.46,.07-.76,.07,0-.21-.05-.45-.11-.74-.07-.28-.15-.52-.24-.72h.57c.09,0,.13-.05,.13-.14v-4.65h-.75v9.15h-1.56v-9.15h-.71v6.25h-1.28v-7.73h1.98v-2.58h1.56v2.58h2.01v6.18Zm4.21-4.87v2.1h2.59v7.14h-1.6v-.72h-2.99v.74h-1.53v-7.15h1.9v-5.96h1.63v2.31h3.16v1.56h-3.16Zm.99,3.63h-2.99v3.36h2.99v-3.36Z"/></g><g><g><path d="M105.93,318.87c-.12,0-.24-.02-.36-.07-.12-.05-.23-.11-.32-.18l.21-.29c.08,.06,.16,.11,.24,.14,.08,.03,.16,.05,.24,.05,.09,0,.15-.02,.2-.05,.04-.03,.06-.08,.06-.14,0-.03-.01-.06-.03-.09-.02-.02-.05-.05-.08-.07s-.07-.04-.12-.06c-.04-.02-.09-.04-.14-.05-.06-.02-.11-.05-.17-.08-.06-.03-.11-.06-.15-.11-.05-.04-.08-.09-.11-.15-.03-.06-.04-.12-.04-.2,0-.08,.02-.15,.05-.22s.08-.12,.13-.17c.06-.05,.13-.09,.21-.11,.08-.03,.17-.04,.28-.04,.13,0,.24,.02,.34,.07,.1,.05,.19,.1,.26,.15l-.21,.28c-.06-.05-.13-.08-.19-.11-.06-.03-.13-.04-.19-.04-.08,0-.14,.02-.18,.05s-.06,.07-.06,.12c0,.03,0,.06,.03,.08,.02,.02,.05,.04,.08,.06,.03,.02,.07,.04,.11,.05s.09,.03,.13,.05c.06,.02,.12,.05,.18,.08s.11,.06,.16,.1c.05,.04,.09,.09,.12,.15,.03,.06,.04,.13,.04,.21,0,.08-.02,.15-.05,.22-.03,.07-.08,.13-.14,.18-.06,.05-.13,.09-.22,.12s-.19,.04-.31,.04Z"/><path d="M107,316.28h.47v.64l-.02,.33c.07-.07,.15-.13,.24-.18,.09-.05,.2-.08,.32-.08,.19,0,.33,.06,.42,.19,.09,.13,.13,.3,.13,.53v1.11h-.47v-1.05c0-.14-.02-.24-.06-.29-.04-.05-.1-.08-.19-.08-.07,0-.14,.02-.19,.05-.05,.03-.11,.08-.18,.15v1.23h-.47v-2.54Z"/><path d="M109.81,318.87c-.13,0-.24-.02-.35-.06-.11-.04-.2-.1-.28-.18-.08-.08-.14-.18-.19-.29s-.07-.25-.07-.39,.02-.27,.07-.39c.05-.12,.11-.21,.19-.29,.08-.08,.17-.14,.27-.19,.1-.04,.2-.07,.31-.07,.12,0,.23,.02,.32,.06,.09,.04,.17,.1,.23,.18s.11,.17,.14,.27c.03,.1,.05,.22,.05,.34,0,.04,0,.09,0,.13,0,.04,0,.07-.02,.09h-1.1c.02,.15,.07,.26,.16,.33,.09,.08,.2,.11,.33,.11,.07,0,.14-.01,.21-.03,.06-.02,.13-.05,.19-.09l.16,.29c-.09,.06-.19,.11-.29,.14-.11,.03-.22,.05-.33,.05Zm.29-1.12c0-.12-.03-.22-.08-.29-.06-.07-.14-.11-.25-.11-.09,0-.18,.03-.25,.1-.07,.07-.12,.16-.14,.29h.73Z"/><path d="M110.89,317.04h.38l.04,.24h0c.08-.08,.16-.14,.26-.2s.2-.08,.32-.08c.19,0,.33,.06,.42,.19,.09,.13,.13,.3,.13,.53v1.11h-.47v-1.05c0-.14-.02-.24-.06-.29-.04-.05-.1-.08-.19-.08-.07,0-.14,.02-.19,.05-.05,.03-.11,.08-.18,.15v1.23h-.47v-1.78Z"/></g><g><path d="M119.41,319.6c-.1,0-.2,0-.29-.03-.09-.02-.17-.05-.24-.08-.07-.04-.12-.09-.16-.14s-.06-.13-.06-.2c0-.07,.02-.14,.07-.21,.04-.06,.11-.12,.19-.16v-.02s-.09-.07-.12-.12c-.03-.05-.05-.11-.05-.18,0-.07,.02-.13,.06-.19,.04-.06,.09-.11,.14-.14h0c-.06-.06-.12-.12-.17-.2-.05-.08-.07-.17-.07-.28s.02-.2,.06-.28c.04-.08,.09-.15,.16-.2,.07-.05,.14-.1,.23-.12,.09-.03,.18-.04,.27-.04,.05,0,.1,0,.14,.01,.05,0,.09,.02,.12,.03h.64v.34h-.3s.04,.07,.06,.12c.01,.05,.02,.1,.02,.15,0,.1-.02,.19-.05,.26s-.09,.14-.15,.19c-.06,.05-.13,.09-.22,.11-.08,.03-.17,.04-.27,.04-.04,0-.07,0-.11-.01-.04,0-.08-.02-.12-.03-.02,.02-.04,.04-.06,.07-.01,.02-.02,.05-.02,.09,0,.05,.02,.09,.06,.11,.04,.02,.11,.04,.22,.04h.3c.22,0,.38,.03,.5,.11,.11,.07,.17,.18,.17,.34,0,.09-.02,.17-.07,.25-.05,.08-.11,.14-.19,.2-.08,.06-.19,.1-.31,.13s-.25,.05-.4,.05Zm.07-.3c.13,0,.24-.03,.33-.08,.08-.05,.13-.11,.13-.18,0-.06-.03-.11-.08-.13s-.12-.03-.22-.03h-.22c-.06,0-.1,0-.14,0-.04,0-.07-.01-.11-.02-.08,.06-.11,.13-.11,.21s.04,.13,.11,.17c.08,.04,.18,.06,.31,.06Zm-.04-1.33c.08,0,.15-.03,.2-.08s.08-.14,.08-.25-.03-.18-.08-.24c-.05-.06-.12-.08-.2-.08s-.15,.03-.2,.08c-.05,.06-.08,.14-.08,.24s.03,.19,.08,.25,.12,.08,.2,.08Z"/><path d="M121.4,318.87c-.13,0-.24-.02-.35-.06-.11-.04-.2-.1-.28-.18-.08-.08-.14-.18-.19-.29s-.07-.25-.07-.4,.02-.27,.07-.39c.05-.12,.11-.21,.19-.29,.08-.08,.17-.14,.27-.19,.1-.04,.2-.07,.31-.07,.12,0,.23,.02,.32,.06,.09,.04,.17,.1,.23,.18s.11,.16,.14,.27c.03,.1,.05,.22,.05,.34,0,.04,0,.09,0,.13,0,.04,0,.07-.02,.09h-1.1c.02,.15,.07,.26,.16,.33,.09,.08,.2,.11,.33,.11,.07,0,.14-.01,.21-.03,.06-.02,.13-.05,.19-.09l.16,.29c-.09,.06-.19,.11-.29,.15-.11,.03-.22,.05-.33,.05Zm.29-1.12c0-.12-.03-.22-.08-.29-.06-.07-.14-.11-.25-.11-.09,0-.18,.03-.25,.1-.07,.07-.12,.16-.14,.29h.73Z"/><path d="M122.48,317.04h.38l.04,.24h0c.08-.08,.16-.14,.26-.2,.09-.05,.2-.08,.32-.08,.19,0,.33,.06,.42,.19,.09,.13,.13,.3,.13,.53v1.11h-.47v-1.06c0-.14-.02-.24-.06-.29-.04-.05-.1-.08-.19-.08-.07,0-.14,.02-.19,.05-.05,.03-.11,.08-.18,.15v1.23h-.47v-1.78Z"/><path d="M125.15,319.6c-.1,0-.2,0-.29-.03-.09-.02-.17-.05-.24-.08-.07-.04-.12-.09-.16-.14s-.06-.13-.06-.2c0-.07,.02-.14,.07-.21,.04-.06,.11-.12,.19-.16v-.02s-.09-.07-.12-.12c-.03-.05-.05-.11-.05-.18,0-.07,.02-.13,.06-.19,.04-.06,.09-.11,.14-.14h0c-.06-.06-.12-.12-.17-.2-.05-.08-.07-.17-.07-.28s.02-.2,.06-.28c.04-.08,.09-.15,.16-.2,.07-.05,.14-.1,.23-.12,.09-.03,.18-.04,.27-.04,.05,0,.1,0,.14,.01,.05,0,.09,.02,.12,.03h.64v.34h-.3s.04,.07,.06,.12c.01,.05,.02,.1,.02,.15,0,.1-.02,.19-.05,.26s-.09,.14-.15,.19c-.06,.05-.13,.09-.22,.11-.08,.03-.17,.04-.27,.04-.04,0-.07,0-.11-.01-.04,0-.08-.02-.12-.03-.02,.02-.04,.04-.06,.07-.01,.02-.02,.05-.02,.09,0,.05,.02,.09,.06,.11,.04,.02,.11,.04,.22,.04h.3c.22,0,.38,.03,.5,.11,.11,.07,.17,.18,.17,.34,0,.09-.02,.17-.07,.25-.05,.08-.11,.14-.19,.2-.08,.06-.19,.1-.31,.13s-.25,.05-.4,.05Zm.07-.3c.13,0,.24-.03,.33-.08,.08-.05,.13-.11,.13-.18,0-.06-.03-.11-.08-.13s-.12-.03-.22-.03h-.22c-.06,0-.1,0-.14,0-.04,0-.07-.01-.11-.02-.08,.06-.11,.13-.11,.21s.04,.13,.11,.17c.08,.04,.18,.06,.31,.06Zm-.04-1.33c.08,0,.15-.03,.2-.08s.08-.14,.08-.25-.03-.18-.08-.24c-.05-.06-.12-.08-.2-.08s-.15,.03-.2,.08c-.05,.06-.08,.14-.08,.24s.03,.19,.08,.25,.12,.08,.2,.08Z"/></g><g><path d="M135.04,318.87c-.11,0-.21-.02-.3-.06-.09-.04-.17-.1-.23-.19-.06-.08-.11-.18-.15-.29-.03-.12-.05-.25-.05-.39s.02-.27,.06-.39c.04-.12,.1-.21,.17-.29,.07-.08,.15-.14,.24-.19s.18-.07,.28-.07c.1,0,.19,.02,.25,.05,.07,.04,.13,.08,.2,.14l-.02-.28v-.63h.47v2.54h-.38l-.04-.18h-.01c-.07,.06-.14,.12-.23,.16-.09,.04-.17,.07-.27,.07Zm.12-.39c.06,0,.12-.01,.17-.04,.05-.03,.11-.08,.16-.14v-.78c-.06-.05-.11-.08-.17-.1-.06-.02-.11-.03-.17-.03-.05,0-.1,.01-.14,.04-.04,.02-.08,.06-.12,.11-.03,.05-.06,.1-.08,.17-.02,.07-.03,.15-.03,.24,0,.19,.03,.33,.1,.42,.06,.09,.16,.14,.27,.14Z"/><path d="M136.91,318.87c-.08,0-.15-.01-.22-.04s-.12-.06-.17-.11c-.05-.05-.08-.1-.11-.17-.03-.06-.04-.13-.04-.21,0-.19,.08-.34,.25-.44s.43-.18,.78-.22c0-.09-.03-.16-.07-.22s-.12-.09-.23-.09c-.08,0-.16,.02-.25,.05s-.16,.07-.25,.12l-.17-.31c.11-.07,.22-.12,.35-.17,.13-.05,.26-.07,.4-.07,.23,0,.4,.07,.51,.2,.11,.13,.17,.33,.17,.59v1.04h-.38l-.03-.19h-.01c-.08,.07-.16,.12-.25,.17s-.18,.07-.29,.07Zm-.34-2.68l.32-.31,.55,.65-.24,.23-.63-.56Zm.5,2.31c.07,0,.13-.02,.18-.05s.11-.07,.17-.13v-.36c-.11,.01-.2,.03-.27,.05-.07,.02-.13,.05-.18,.08s-.08,.06-.1,.09c-.02,.03-.03,.07-.03,.11,0,.07,.02,.12,.07,.15s.1,.05,.17,.05Z"/></g><g><path d="M150.19,318.87c-.08,0-.16-.02-.24-.06-.08-.04-.16-.1-.23-.17h-.01l-.04,.19h-.37v-2.54h.47v.93c.06-.06,.13-.12,.22-.15,.08-.04,.17-.06,.26-.06,.11,0,.21,.02,.3,.07,.09,.04,.16,.1,.22,.18s.11,.17,.14,.29c.03,.11,.05,.24,.05,.37,0,.15-.02,.29-.06,.41-.04,.12-.1,.22-.17,.3-.07,.08-.15,.15-.24,.19s-.19,.07-.28,.07Zm-.11-.39c.11,0,.2-.05,.27-.14,.07-.09,.11-.24,.11-.43,0-.17-.03-.3-.08-.39s-.15-.14-.27-.14c-.06,0-.12,.02-.18,.05-.06,.03-.11,.08-.18,.14v.78c.06,.05,.11,.08,.17,.1,.06,.02,.11,.03,.16,.03Z"/><path d="M151.88,318.87c-.19,0-.33-.06-.42-.19-.09-.13-.13-.3-.13-.53v-1.12h.47v1.06c0,.14,.02,.23,.06,.29s.1,.08,.19,.08c.07,0,.14-.02,.19-.05,.05-.03,.11-.09,.17-.17v-1.2h.47v1.78h-.38l-.04-.26h-.01c-.08,.09-.16,.16-.25,.22s-.2,.08-.32,.08Zm-.4-2.61l.18-.17,.44,.35h.02l.45-.35,.18,.17-.4,.48h-.47l-.4-.48Z"/></g><g><path d="M163.68,318.87c-.11,0-.2-.02-.27-.05-.07-.03-.13-.08-.18-.14-.05-.06-.08-.13-.1-.21-.02-.08-.03-.17-.03-.27v-.79h-.25v-.35l.28-.02,.05-.48h.39v.48h.44v.37h-.44v.79c0,.2,.08,.3,.24,.3,.03,0,.06,0,.09-.01,.03,0,.06-.02,.08-.03l.08,.34s-.1,.03-.17,.05c-.06,.01-.13,.02-.21,.02Z"/><path d="M164.6,316.75c-.08,0-.15-.02-.2-.07-.05-.05-.08-.11-.08-.19s.03-.14,.08-.19c.05-.05,.12-.07,.2-.07s.15,.02,.2,.07c.05,.05,.07,.11,.07,.19s-.02,.14-.07,.19c-.05,.05-.12,.07-.2,.07Zm-.24,.29h.47v1.78h-.47v-1.78Z"/><path d="M166.11,318.87c-.13,0-.24-.02-.35-.06-.11-.04-.2-.1-.28-.18-.08-.08-.14-.18-.19-.29-.05-.12-.07-.25-.07-.4s.02-.27,.07-.39c.05-.12,.11-.21,.19-.29,.08-.08,.17-.14,.27-.19s.2-.07,.31-.07c.12,0,.23,.02,.32,.06,.09,.04,.17,.1,.23,.18s.11,.16,.14,.27,.05,.22,.05,.34c0,.04,0,.09,0,.13,0,.04,0,.07-.02,.09h-1.1c.02,.15,.07,.26,.16,.33s.2,.11,.33,.11c.07,0,.14-.01,.21-.03,.06-.02,.13-.05,.19-.09l.16,.29c-.09,.06-.19,.11-.29,.15-.11,.03-.22,.05-.33,.05Zm-.7-2.61l.18-.17,.45,.35h.01l.45-.35,.18,.17-.39,.48h-.48l-.4-.48Zm.98,1.49c0-.12-.03-.22-.08-.29-.06-.07-.14-.11-.26-.11-.09,0-.18,.03-.25,.1-.07,.07-.12,.16-.14,.29h.73Z"/></g></g></g><text class="cls-5" transform="translate(108.17 -18.75)"><tspan x="0" y="0">CIS</tspan></text></svg>