<?xml version="1.0" encoding="UTF-8"?><svg id="_圖層_1" xmlns="http://www.w3.org/2000/svg" xmlns:xlink="http://www.w3.org/1999/xlink" viewBox="0 0 1920 1080"><defs><style>.cls-1,.cls-2,.cls-3,.cls-4,.cls-5,.cls-6,.cls-7,.cls-8,.cls-9,.cls-10,.cls-11,.cls-12,.cls-13,.cls-14,.cls-15,.cls-16,.cls-17,.cls-18{fill:none;}.cls-19{font-size:12px;}.cls-19,.cls-20,.cls-21,.cls-22,.cls-23,.cls-24{fill:#3b5d66;}.cls-19,.cls-20,.cls-25,.cls-26,.cls-23{font-family:TaipeiSansTCBeta-Regular, 'Taipei Sans TC Beta';}.cls-2{stroke-linecap:round;stroke-linejoin:round;}.cls-2,.cls-3,.cls-4,.cls-5,.cls-6,.cls-7,.cls-8,.cls-9,.cls-11,.cls-13,.cls-14,.cls-15,.cls-16{stroke-width:1.5px;}.cls-2,.cls-12,.cls-18{stroke:#3b5d66;}.cls-27{letter-spacing:.21em;}.cls-3,.cls-4,.cls-5,.cls-6,.cls-7,.cls-8,.cls-9,.cls-10,.cls-11,.cls-12,.cls-13,.cls-14,.cls-15,.cls-16,.cls-17,.cls-18{stroke-miterlimit:10;}.cls-3,.cls-4,.cls-5,.cls-6,.cls-7,.cls-8,.cls-9,.cls-10,.cls-11,.cls-13,.cls-14,.cls-15,.cls-16,.cls-17{stroke:#231815;}.cls-20{font-size:11.02px;}.cls-4{stroke-dasharray:0 0 7.76 7.76;}.cls-28{letter-spacing:.23em;}.cls-29{clip-path:url(#clippath);}.cls-5{stroke-dasharray:0 0 7.76 7.76;}.cls-30{opacity:.1;}.cls-31{fill:#fff;}.cls-32{fill:#e50012;}.cls-33{fill:#231815;}.cls-6{stroke-dasharray:0 0 7.76 7.76;}.cls-34{letter-spacing:.04em;}.cls-35{letter-spacing:.04em;}.cls-36{letter-spacing:.04em;}.cls-7{stroke-dasharray:0 8;}.cls-25{fill:#3e3a39;font-size:19.08px;}.cls-37{letter-spacing:.07em;}.cls-38{letter-spacing:.08em;}.cls-8{stroke-dasharray:0 0 7.84 7.84;}.cls-26{font-size:16px;}.cls-9{stroke-dasharray:0 0 5.08 5.08;}.cls-22{font-family:HiraMaruPro-W4-83pv-RKSJ-H, 'Hiragino Maru Gothic Pro';font-size:10.48px;}.cls-10{stroke-width:.75px;}.cls-39{letter-spacing:.21em;}.cls-40{letter-spacing:.2em;}.cls-41{letter-spacing:.2em;}.cls-11{stroke-dasharray:0 0 5.08 5.08;}.cls-42{letter-spacing:.23em;}.cls-23{font-size:8.43px;}.cls-13{stroke-dasharray:0 0 5.3 5.3;}.cls-24{fill-rule:evenodd;}.cls-14{stroke-dasharray:0 0 7.62 7.62;}.cls-43{letter-spacing:.35em;}.cls-15{stroke-dasharray:0 0 7.76 7.76;}.cls-16{stroke-dasharray:0 0 5.08 5.08;}.cls-17{stroke-width:.25px;}.cls-18{stroke-width:.5px;}</style><clipPath id="clippath"><rect class="cls-1" x="1042.25" y="631.09" width="28.24" height="68.99"/></clipPath></defs><rect class="cls-31" width="1920" height="1080"/><text class="cls-26" transform="translate(131.5 846.52)"><tspan class="cls-27" x="0" y="0">以橫倒的茶餅為基底，結合如山脈與海浪之意象</tspan><tspan class="cls-41" x="406.02" y="0">，</tspan><tspan class="cls-27" x="0" y="43">字體選用讓整體帶點活潑且舒適的，使整體搭配</tspan><tspan class="cls-41" x="406.02" y="43">較</tspan><tspan class="cls-41"><tspan x="174.21" y="86">為統一。</tspan></tspan></text><g><g><path class="cls-21" d="M393.08,188.07c-1.33,.13-2.28,1.18-2.13,2.34,.03,.24,2.94,25.98-11.81,43.42-.79,.94-.57,2.27,.5,2.96,.43,.28,.94,.42,1.44,.42,.74,0,1.47-.3,1.95-.86,15.87-18.77,12.86-45.36,12.73-46.42-.15-1.16-1.35-2-2.67-1.87Z"/><path class="cls-21" d="M369.77,199.16c-1.34-.09-2.49,.8-2.58,1.97-.67,8.59-3.28,22.56-11.86,32.71-.79,.94-.57,2.27,.5,2.96,.43,.28,.94,.42,1.44,.42,.74,0,1.47-.3,1.95-.86,9.27-10.97,12.08-25.78,12.79-34.94,.09-1.17-.91-2.18-2.25-2.26Z"/><path class="cls-21" d="M352.08,199.16c-1.34-.09-2.49,.8-2.58,1.97-.67,8.59-3.28,22.56-11.86,32.71-.79,.94-.57,2.27,.5,2.96,.43,.28,.94,.42,1.44,.42,.74,0,1.47-.3,1.95-.86,9.27-10.97,12.08-25.78,12.79-34.94,.09-1.17-.91-2.18-2.25-2.26Z"/><path class="cls-21" d="M334.38,199.16c-1.34-.09-2.49,.8-2.58,1.97-.67,8.59-3.28,22.56-11.86,32.71-.79,.94-.57,2.27,.5,2.96,.43,.28,.94,.42,1.44,.42,.74,0,1.47-.3,1.95-.86,9.27-10.97,12.08-25.78,12.79-34.94,.09-1.17-.91-2.18-2.25-2.26Z"/><path class="cls-21" d="M316.69,199.16c-1.32-.08-2.49,.8-2.58,1.97-.67,8.59-3.28,22.56-11.86,32.71-.79,.94-.57,2.27,.5,2.96,.43,.28,.94,.42,1.44,.42,.74,0,1.47-.3,1.95-.86,9.27-10.97,12.08-25.78,12.79-34.94,.09-1.17-.91-2.18-2.25-2.26Z"/><path class="cls-21" d="M298.99,199.16c-1.33-.08-2.49,.8-2.58,1.97-.67,8.59-3.28,22.56-11.86,32.71-.79,.94-.57,2.27,.5,2.96,.43,.28,.94,.42,1.44,.42,.74,0,1.47-.3,1.95-.86,9.27-10.97,12.08-25.78,12.79-34.94,.09-1.17-.91-2.18-2.25-2.26Z"/><path class="cls-21" d="M281.3,199.16c-1.32-.08-2.49,.8-2.58,1.97-.52,6.59-2.17,15.41-6.79,23.74-1.36,2.16-2.63,2.45-5.15,3.02-.87,.2-1.85,.42-2.92,.75-2.18,.67-3.6,2.24-3.71,4.1-.11,1.73,.95,3.32,2.7,4.05,.44,.19,1.19,.42,2.18,.42,1.39,0,3.25-.45,5.39-2.14,.12-.1,.22-.2,.33-.32,2.26-2.48,3.96-5.22,5.47-7.94,.03-.05,.06-.1,.08-.14,4.93-8.92,6.69-18.27,7.24-25.26,.09-1.17-.91-2.18-2.25-2.26Z"/><path class="cls-21" d="M439.43,226.8c-2.11-2.76-6.3-4.09-11.52-3.67-8.83,.73-11.65-3.49-12.05-4.1-2.79-6.4-5.08-17.33-5.08-31.25,0-28.75-5.29-41.57-17.15-41.57-3.07,0-5.87,1.38-8.31,3.91-2.46-2.59-5.55-3.91-9.22-3.91-2.24,0-5.34,.77-8.44,4.02-2.48-2.66-5.6-4.02-9.32-4.02-2.24,0-5.34,.77-8.44,4.02-2.48-2.66-5.6-4.02-9.32-4.02-2.24,0-5.34,.77-8.44,4.02-2.48-2.66-5.6-4.02-9.32-4.02-2.24,0-5.34,.77-8.44,4.02-2.48-2.66-5.6-4.02-9.32-4.02-2.24,0-5.34,.77-8.44,4.02-2.48-2.66-5.6-4.02-9.32-4.02-10.74,0-18.25,16.9-18.25,41.1,0,1.17,1.08,2.12,2.42,2.12s2.42-.95,2.42-2.12c0-14.26,2.52-23.04,4.63-27.89,2.45-5.62,5.73-8.97,8.77-8.97,1.72,0,4.19,.4,6.48,3.56-4.5,7.38-6.97,19.12-6.97,33.3,0,1.17,1.08,2.12,2.42,2.12s2.42-.95,2.42-2.12c0-13.95,2.55-25.7,6.99-32.24,2.02-2.98,4.3-4.62,6.42-4.62,1.72,0,4.19,.4,6.48,3.56-4.5,7.38-6.97,19.12-6.97,33.3,0,1.17,1.08,2.12,2.42,2.12s2.42-.95,2.42-2.12c0-13.95,2.55-25.7,6.99-32.24,0,0,0,0,0,0,2.02-2.98,4.3-4.62,6.42-4.62,1.72,0,4.19,.4,6.48,3.56-4.5,7.38-6.97,19.12-6.97,33.3,0,1.17,1.08,2.12,2.42,2.12s2.42-.95,2.42-2.12c0-13.95,2.55-25.7,6.99-32.24,2.02-2.98,4.3-4.62,6.42-4.62,1.72,0,4.19,.4,6.48,3.56-4.5,7.38-6.97,19.12-6.97,33.3,0,1.17,1.08,2.12,2.42,2.12s2.42-.95,2.42-2.12c0-13.95,2.55-25.7,6.99-32.24,2.02-2.98,4.3-4.62,6.42-4.62,1.72,0,4.19,.4,6.48,3.56-4.5,7.38-6.97,19.12-6.97,33.3,0,1.17,1.08,2.12,2.42,2.12s2.42-.95,2.42-2.12c0-13.95,2.55-25.7,6.99-32.24,2.02-2.98,4.3-4.62,6.42-4.62,1.69,0,4.11,.38,6.37,3.41-4.43,7.2-7.09,19.03-7.09,33.45,0,1.17,1.08,2.12,2.42,2.12s2.42-.95,2.42-2.12c0-14.26,2.52-23.04,4.63-27.89,2.45-5.62,5.73-8.97,8.77-8.97,8.17,0,12.32,12.56,12.32,37.34,0,20.68,4.42,36.61,13.13,44.19,5.57,4.85,11.16,5.25,12.84,5.25h.06c3.52-.02,6.47-1.43,7.89-3.76,1.27-2.09,1.1-4.64-.43-6.65Z"/></g><text class="cls-20" transform="translate(268.06 333.48) scale(1.25 1)"><tspan class="cls-37" x="0" y="0">SHANHAI PUERHTE</tspan><tspan class="cls-36" x="111.45" y="0">A</tspan></text><g><path class="cls-21" d="M238.8,293.49c.17,2.47,.25,7.5,.25,15.11,0,.71,.42,1.06,1.26,1.06,4.68-.42,9.34-.64,13.98-.64s9.46,.12,14.89,.37c.83,0,1.25-.39,1.25-1.17-.21-3.09-.32-7.57-.32-13.43,0-2.69,.86-4.03,2.6-4.03,1.51,0,2.26,.9,2.26,2.71-.3,3.73-.44,7.12-.44,10.16,.17,3.63,.25,5.97,.25,7.04,0,1.56-.84,2.34-2.52,2.34-3.88-.28-9.86-.42-17.92-.42-5.89,0-11.68,.35-17.37,1.06-1.81,0-2.71-.8-2.71-2.39,.34-2.03,.5-4.03,.5-6.01,0-2.69-.36-6.77-1.07-12.25,0-1.34,.75-2.02,2.26-2.02,1.73,0,2.68,.84,2.85,2.52Zm18.18-12.2l-.68,29.43h-3.61l-.45-29.49c0-1.58,.74-2.37,2.23-2.37,1.67,0,2.51,.81,2.51,2.43Z"/><path class="cls-21" d="M300.82,293.78c.64,0,.96,.43,.96,1.3,0,.75-.28,1.19-.85,1.3l-9.45,4.09c-1.35,0-2.02-.78-2.02-2.34,0-1.4,.53-2.2,1.59-2.39l9.77-1.96Zm-7.96-13.65c1.57,1.28,3.44,2.68,5.6,4.18,.23,.18,.35,.38,.35,.6,0,.64-.37,.96-1.12,.96-.17,0-.48-.08-.93-.25-3.09-1.11-5.03-1.8-5.82-2.09-.99-.56-1.49-1.28-1.49-2.17,0-1.35,.71-2.03,2.12-2.03,.19,0,.61,.27,1.27,.8Zm4.88,26.97c.64,0,.96,.33,.96,.99,0,.4-.2,.83-.58,1.29-3.55,4.28-5.6,6.43-6.16,6.43-1.59,0-2.39-.47-2.39-1.41,0-1.17,.32-1.92,.96-2.26,0-.35,2.41-2.03,7.22-5.04Zm28.86-9.39c2.53,.12,4.68,.18,6.46,.18,1.29,0,2.83-.41,4.61-1.23,.36,0,.55,.46,.55,1.39,0,1.12-.54,2.3-1.62,3.56-.76,.91-1.43,1.36-2,1.36-.77,0-1.73-.25-2.9-.75-1.78-.8-3.8-1.36-6.04-1.66-2.35-.34-4.97-.5-7.87-.5s-5.98,.19-8.81,.56c-1.68,.21-4.27,1.1-7.79,2.67-1.23,0-1.84-.46-1.84-1.39,0-.63,.25-1.16,.75-1.59,.63-.73,1.44-1.09,2.44-1.09,6.76-1.19,11.93-1.79,15.5-1.79,2.42,0,5.28,.1,8.56,.3Zm-14.75-19.49c.87,0,1.3,.39,1.3,1.18,0,.46-.17,.89-.51,1.28-1.52,2.9-3.29,5.47-5.3,7.69-.8,.88-1.47,1.32-2.01,1.32-.73,0-1.49-.31-2.29-.93-.76-.59-1.14-1.21-1.14-1.86,0-.49,.36-.75,1.07-.79,1.59-.5,3.03-1.36,4.33-2.58,1.38-1.15,2.66-2.76,3.86-4.85,.3-.31,.53-.46,.7-.46Zm1.66,10.64c0,.86-.26,2.7-.79,5.52-.83,4.54-1.77,8.53-2.82,11.96l1.34,.7c.61,0,1.65-.02,3.12-.07,1.27-.05,2.36-.07,3.27-.07,2.58,0,7.26,.16,14.03,.46,.96,.05,1.44,.36,1.44,.93s-.17,1.02-.52,1.36c-.46,.46-.92,.68-1.39,.68-5.41-.37-9.45-.56-12.13-.56-5.58,0-9.05,.14-10.38,.42-.56,.34-.98,.51-1.26,.51-1.11,0-1.69-.54-1.73-1.63,0-.21,.07-.48,.2-.8,.92-1.7,1.67-3.93,2.27-6.7,.92-3.4,1.58-7.6,1.97-12.6,.04-1.09,.62-1.64,1.73-1.64s1.64,.5,1.64,1.51Zm.13-6.48c9.96,0,16.68-.06,20.16-.19,.53,0,.79,.34,.79,1.03,0,.46-.21,.91-.64,1.37-.47,.57-1.01,.86-1.63,.86-3.14-.28-8.25-.42-15.33-.42-1.44,0-3.42,.23-5.95,.7-1.15,0-1.72-.44-1.72-1.31,0-.49,.25-1,.74-1.54,.46-.46,.97-.68,1.54-.68l2.04,.19Zm12.31,5.3c.46,0,1.23-.11,2.32-.35,1.46,0,2.18,.52,2.18,1.55,0,.44-.09,1.14-.28,2.13-.37,1.64-.74,4.42-1.11,8.34-.25,2.62-.43,5.83-.55,9.65,0,2.83-.55,4.91-1.66,6.21-1.11,1.53-2.92,2.29-5.44,2.29l.14-4.27c1.37,0,2.3-.47,2.79-1.4,.49-.75,.73-1.77,.73-3.07,.49-5.59,.98-11.55,1.47-17.89,0-.37-.31-.56-.93-.56-5.41,0-9.65,.29-12.72,.86-.84,0-1.25-.43-1.25-1.29,0-1.22,.46-1.93,1.37-2.13,.76-.1,1.4-.15,1.91-.15h6.56l4.46,.09Zm-5.68,15.49c.34,.16,.52,.4,.52,.72,0,.41-.48,.91-1.43,1.47-.71,.45-1.49,.68-2.32,.68-.32,0-.59-.27-.81-.82-.25-.66-.5-1.78-.76-3.34,0-.34,.21-.52,.64-.52,1.38,.96,2.77,1.57,4.15,1.81Zm1.95-9.74c.32,.15,.48,.36,.48,.66,0,.38-.44,.83-1.31,1.35-.65,.41-1.36,.62-2.12,.62-.34,0-.62-.25-.86-.74-.27-.6-.54-1.61-.81-3.03,0-.32,.19-.47,.58-.47,1.35,.86,2.69,1.4,4.04,1.62Zm-2.63,19.57l1.97,.23-.14,4.27c-.96,0-1.51-.31-1.63-.93-.25-.83-.63-1.8-1.13-2.92,0-.43,.31-.65,.93-.65Z"/><path class="cls-21" d="M367.08,307.12c10.76,1.98,18.07,2.96,21.94,2.96,2.05,0,3.76-.43,5.13-1.28,.88-.57,1.49-.85,1.83-.85,.46,0,.69,.35,.69,1.06,0,1.46-.76,3.12-2.27,4.99-1.42,1.77-2.71,2.65-3.89,2.65-.73,0-1.52-.14-2.36-.41-11.18-3.4-18.88-5.56-23.09-6.48-3.54-.86-5.82-1.3-6.83-1.3-1.8,0-3.87,1.05-6.21,3.14-.66,.52-1.44,.79-2.34,.79-1.24,0-1.86-.55-1.86-1.65,0-.45,1.66-1.81,4.99-4.09,1.01-.85,2.32-1.27,3.92-1.27,.67,0,4.12,.57,10.34,1.71Zm16.8-20.5c1.26,.17,1.73,.29,2.3,.29,1.33,0,1.99,.64,1.99,1.91,0,.75-1.26,1.62-3.79,2.62-5.15,2.49-11.03,5.8-17.64,9.91-1.65,1-4.27,2.68-7.87,5.05-.87,.62-1.41,.93-1.6,.93-1.06,0-1.59-.35-1.59-1.05,0-.47-3.83,1.2-2.86,.41,3.7-2.84,15.72-10.19,27.44-17.45-6.18,0-12.33,.19-18.45,.57-2.21,.21-4.77,.67-7.69,1.38-1.08,0-1.63-.46-1.63-1.39,0-.74,.4-1.42,1.19-2.04,.76-.62,1.59-.93,2.49-.93,5.19-.25,10.3-.37,15.32-.37,3.99,0,7.82-.29,12.38,.17Zm-11.58-5.84c-.45,2.67-.73,5-.84,7h-3.04c-.08-2.44-.36-4.73-.84-6.86,0-1.66,.75-2.49,2.25-2.49,1.65,0,2.48,.78,2.48,2.34Z"/><path class="cls-21" d="M416.28,282.22v13.7c0,4.21-.31,7.9-.92,11.06-.86,2.93-1.78,5.09-2.77,6.5-.98,1.52-1.97,2.28-2.95,2.28-.89,0-1.73-.25-2.52-.74-.71-.54-1.06-1.16-1.06-1.87,0-.45,.35-.8,1.05-1.07,1.54-1.12,2.77-2.58,3.69-4.4,.77-1.68,1.31-3.84,1.61-6.5,.46-2.65,.69-6.08,.69-10.27,0-2.28-.08-5.34-.25-9.19,0-1.09,.48-1.64,1.45-1.64,1.32,0,1.98,.71,1.98,2.14Zm9.6-1.78c.46,0,1.2-.13,2.23-.39,1.12,0,1.67,.46,1.67,1.38,0,.41-.06,.87-.17,1.39-.3,2.12-.51,5.48-.63,10.09,0,.93-.51,1.39-1.53,1.39-.83,0-1.25-.46-1.25-1.39l.09-9.76c0-.29-.37-.43-1.12-.43-2.75,0-5.9,.04-9.46,.13-.92,0-1.38-.36-1.38-1.08,0-1.06,.73-1.59,2.2-1.59,1.59,0,4.7,.09,9.34,.26Zm-.84,11.01c.72,0,1.38,.1,1.97,.31,.47,.16,.7,.5,.7,1,0,.75-.33,1.12-.99,1.12-5.05,0-8.64,.25-10.79,.75-.92,0-1.38-.46-1.38-1.37,0-.33,.19-.71,.56-1.12,.46-.5,1.02-.75,1.68-.75l8.25,.06Zm0-5.73c.72,0,1.38,.1,1.97,.31,.47,.17,.7,.5,.7,1,0,.75-.33,1.12-.99,1.12-4.95,0-8.48,.25-10.58,.75-.92,0-1.38-.46-1.38-1.37,0-.33,.19-.71,.56-1.12,.46-.5,1.02-.75,1.68-.75l8.04,.06Zm.52,13.11c4.72,0,8.64,.06,11.76,.17,.75-.26,1.28-.39,1.57-.39,1.05,0,1.57,.72,1.57,2.16-.3,3.14-.45,6.93-.45,11.37,0,1.32-.54,1.98-1.62,1.98l-1.64-2.85c.48-.27,.73-1.13,.73-2.6,.12-1.87,.18-4.2,.18-7,0-.11-.35-.2-1.04-.26-1.18-.06-3.19-.09-6.04-.09-1.59,0-3.05,.03-4.37,.1-.66,.07-.99,.37-.99,.89-.06,2.86-.09,5.54-.09,8.05,0,.52,.27,.78,.82,.78l-2.36,3.06c-.87,0-1.31-.59-1.31-1.77,.23-.67,.35-1.49,.35-2.46,0-2.03-.14-5.49-.43-10.38,0-.89,.55-1.34,1.64-1.34,.37,0,.95,.19,1.73,.56Zm11.2,12.45l1.64,2.85c-2.12-.23-4.77-.35-7.95-.35-1.53,0-3.82,.14-6.87,.43l2.37-3.07c1.39-.05,2.82-.08,4.28-.08,2.53,0,4.7,.07,6.53,.21Zm-.67-6.45c.72,0,1.38,.1,1.97,.31,.47,.16,.7,.5,.7,1,0,.75-.33,1.12-.99,1.12-5.84,0-10.01,.25-12.49,.75-.92,0-1.38-.46-1.38-1.37,0-.33,.19-.71,.56-1.12,.46-.5,1.02-.75,1.68-.75l9.95,.06Zm1.88-23.13c0,2.41-.12,5.3-.37,8.67,0,.46,.28,.69,.84,.69,1.17-.2,2.58-.3,4.22-.3,.9,0,2.74,.07,5.52,.22,.52,0,.78,.29,.78,.86,0,.7-.21,1.19-.63,1.46-.47,.23-1,.35-1.61,.35-1.46-.17-2.65-.26-3.58-.26-1.56,0-3.15,.13-4.75,.4-.83,.18-1.54,.42-2.14,.74-.23,.13-.41,.2-.55,.2-.93,0-1.39-.4-1.39-1.21,0-.41,.09-1.17,.27-2.27,.1-1.17,.15-2.44,.15-3.8,0-.76-.05-1.84-.13-3.21-.22-1.42-.33-2.37-.33-2.87,0-.87,.51-1.3,1.53-1.3,1.45,0,2.18,.54,2.18,1.63Zm8.44-1.17c.57,0,1.53-.15,2.89-.44,1.36,0,2.04,.42,2.04,1.27-.6,4.78-.9,10.65-.9,17.6,0,3.48,.19,8.37,.58,14.67,0,1.56-.71,2.34-2.12,2.34-.57,0-1.02-.29-1.36-.86-.23-.8-.34-1.82-.34-3.07,0-12.33,.14-21.92,.42-28.76,0-.34-.5-.52-1.49-.52-3.75,0-7.13,.07-10.14,.2v-2.59l10.41,.16Zm-.13,4.98c.72,0,1.38,.1,1.97,.31,.47,.16,.7,.5,.7,1,0,.75-.33,1.12-.99,1.12-4.95,0-8.48,.25-10.58,.75-.92,0-1.38-.46-1.38-1.37,0-.33,.19-.71,.56-1.12,.46-.5,1.02-.75,1.68-.75l8.04,.06Z"/></g></g><g><g class="cls-30"><path class="cls-32" d="M387.35,459.28c-1.33,.13-2.28,1.18-2.13,2.34,.03,.24,2.94,25.98-11.81,43.42-.79,.94-.57,2.27,.5,2.96,.43,.28,.94,.42,1.44,.42,.74,0,1.47-.3,1.95-.86,15.87-18.77,12.86-45.36,12.73-46.42-.15-1.16-1.35-2-2.67-1.87Z"/><path class="cls-32" d="M364.03,470.36c-1.34-.09-2.49,.8-2.58,1.97-.67,8.59-3.28,22.56-11.86,32.71-.79,.94-.57,2.27,.5,2.96,.43,.28,.94,.42,1.44,.42,.74,0,1.47-.3,1.95-.86,9.27-10.97,12.08-25.78,12.79-34.94,.09-1.17-.91-2.18-2.25-2.26Z"/><path class="cls-32" d="M346.34,470.36c-1.34-.09-2.49,.8-2.58,1.97-.67,8.59-3.28,22.56-11.86,32.71-.79,.94-.57,2.27,.5,2.96,.43,.28,.94,.42,1.44,.42,.74,0,1.47-.3,1.95-.86,9.27-10.97,12.08-25.78,12.79-34.94,.09-1.17-.91-2.18-2.25-2.26Z"/><path class="cls-32" d="M328.64,470.36c-1.34-.09-2.49,.8-2.58,1.97-.67,8.59-3.28,22.56-11.86,32.71-.79,.94-.57,2.27,.5,2.96,.43,.28,.94,.42,1.44,.42,.74,0,1.47-.3,1.95-.86,9.27-10.97,12.08-25.78,12.79-34.94,.09-1.17-.91-2.18-2.25-2.26Z"/><path class="cls-32" d="M310.95,470.36c-1.32-.08-2.49,.8-2.58,1.97-.67,8.59-3.28,22.56-11.86,32.71-.79,.94-.57,2.27,.5,2.96,.43,.28,.94,.42,1.44,.42,.74,0,1.47-.3,1.95-.86,9.27-10.97,12.08-25.78,12.79-34.94,.09-1.17-.91-2.18-2.25-2.26Z"/><path class="cls-32" d="M293.25,470.36c-1.33-.08-2.49,.8-2.58,1.97-.67,8.59-3.28,22.56-11.86,32.71-.79,.94-.57,2.27,.5,2.96,.43,.28,.94,.42,1.44,.42,.74,0,1.47-.3,1.95-.86,9.27-10.97,12.08-25.78,12.79-34.94,.09-1.17-.91-2.18-2.25-2.26Z"/><path class="cls-32" d="M275.56,470.36c-1.32-.08-2.49,.8-2.58,1.97-.52,6.59-2.17,15.41-6.79,23.74-1.36,2.16-2.63,2.45-5.15,3.02-.87,.2-1.85,.42-2.92,.75-2.18,.67-3.6,2.24-3.71,4.1-.11,1.73,.95,3.32,2.7,4.05,.44,.19,1.19,.42,2.18,.42,1.39,0,3.25-.45,5.39-2.14,.12-.1,.22-.2,.33-.32,2.26-2.48,3.96-5.22,5.47-7.94,.03-.05,.06-.1,.08-.14,4.93-8.92,6.69-18.27,7.24-25.26,.09-1.17-.91-2.18-2.25-2.26Z"/><path class="cls-32" d="M433.7,498c-2.11-2.76-6.3-4.09-11.52-3.67-8.83,.73-11.65-3.49-12.05-4.1-2.79-6.4-5.08-17.33-5.08-31.25,0-28.75-5.29-41.57-17.15-41.57-3.07,0-5.87,1.38-8.31,3.91-2.46-2.59-5.55-3.91-9.22-3.91-2.24,0-5.34,.77-8.44,4.02-2.48-2.66-5.6-4.02-9.32-4.02-2.24,0-5.34,.77-8.44,4.02-2.48-2.66-5.6-4.02-9.32-4.02-2.24,0-5.34,.77-8.44,4.02-2.48-2.66-5.6-4.02-9.32-4.02-2.24,0-5.34,.77-8.44,4.02-2.48-2.66-5.6-4.02-9.32-4.02-2.24,0-5.34,.77-8.44,4.02-2.48-2.66-5.6-4.02-9.32-4.02-10.74,0-18.25,16.9-18.25,41.1,0,1.17,1.08,2.12,2.42,2.12s2.42-.95,2.42-2.12c0-14.26,2.52-23.04,4.63-27.89,2.45-5.62,5.73-8.97,8.77-8.97,1.72,0,4.19,.4,6.48,3.56-4.5,7.38-6.97,19.12-6.97,33.3,0,1.17,1.08,2.12,2.42,2.12s2.42-.95,2.42-2.12c0-13.95,2.55-25.7,6.99-32.24,2.02-2.98,4.3-4.62,6.42-4.62,1.72,0,4.19,.4,6.48,3.56-4.5,7.38-6.97,19.12-6.97,33.3,0,1.17,1.08,2.12,2.42,2.12s2.42-.95,2.42-2.12c0-13.95,2.55-25.7,6.99-32.24,0,0,0,0,0,0,2.02-2.98,4.3-4.62,6.42-4.62,1.72,0,4.19,.4,6.48,3.56-4.5,7.38-6.97,19.12-6.97,33.3,0,1.17,1.08,2.12,2.42,2.12s2.42-.95,2.42-2.12c0-13.95,2.55-25.7,6.99-32.24,2.02-2.98,4.3-4.62,6.42-4.62,1.72,0,4.19,.4,6.48,3.56-4.5,7.38-6.97,19.12-6.97,33.3,0,1.17,1.08,2.12,2.42,2.12s2.42-.95,2.42-2.12c0-13.95,2.55-25.7,6.99-32.24,2.02-2.98,4.3-4.62,6.42-4.62,1.72,0,4.19,.4,6.48,3.56-4.5,7.38-6.97,19.12-6.97,33.3,0,1.17,1.08,2.12,2.42,2.12s2.42-.95,2.42-2.12c0-13.95,2.55-25.7,6.99-32.24,2.02-2.98,4.3-4.62,6.42-4.62,1.69,0,4.11,.38,6.37,3.41-4.43,7.2-7.09,19.03-7.09,33.45,0,1.17,1.08,2.12,2.42,2.12s2.42-.95,2.42-2.12c0-14.26,2.52-23.04,4.63-27.89,2.45-5.62,5.73-8.97,8.77-8.97,8.17,0,12.32,12.56,12.32,37.34,0,20.68,4.42,36.61,13.13,44.19,5.57,4.85,11.16,5.25,12.84,5.25h.06c3.52-.02,6.47-1.43,7.89-3.76,1.27-2.09,1.1-4.64-.43-6.65Z"/></g><g><g><path class="cls-3" d="M378.92,426.52c-.6,1.1-1.18,2.3-1.73,3.61"/><path class="cls-14" d="M374.77,437.34c-1.99,7.4-3.17,16.52-3.17,26.4,0,11.57,1.61,22.11,4.26,30.05"/><path class="cls-3" d="M377.19,497.35c.54,1.3,1.12,2.51,1.73,3.61"/></g><g><path class="cls-3" d="M378.92,500.96c.69,1.26,1.43,2.38,2.19,3.34"/><path class="cls-8" d="M387.54,508.4c.15,.01,.29,.02,.44,.02,9.04,0,16.37-20,16.37-44.68s-7.33-44.68-16.37-44.68c-1.4,0-2.76,.48-4.06,1.39"/><path class="cls-3" d="M381.11,423.18c-.76,.96-1.49,2.08-2.19,3.34"/></g><g><path class="cls-3" d="M361.14,425.94c-.63,1.08-1.23,2.28-1.79,3.57"/><path class="cls-6" d="M356.79,436.84c-2.07,7.48-3.3,16.8-3.3,26.9,0,11.85,1.69,22.61,4.45,30.61"/><path class="cls-3" d="M359.34,497.96c.57,1.3,1.17,2.49,1.79,3.57"/></g><g><path class="cls-3" d="M361.14,425.94c.73-1.25,1.49-2.35,2.28-3.28"/><path class="cls-13" d="M367.6,419.49c.74-.28,1.5-.43,2.26-.43,1.77,0,3.47,.77,5.06,2.18"/><path class="cls-3" d="M376.73,423.18c.76,.96,1.49,2.08,2.19,3.34"/></g><g><path class="cls-3" d="M378.92,500.96c-.69,1.26-1.43,2.38-2.19,3.34"/><path class="cls-13" d="M372.74,507.73c-.93,.45-1.89,.69-2.88,.69-1.58,0-3.11-.61-4.55-1.75"/><path class="cls-3" d="M363.42,504.82c-.8-.93-1.56-2.03-2.28-3.28"/></g><g><path class="cls-3" d="M361.14,501.54c-.72,1.25-1.49,2.35-2.28,3.28"/><path class="cls-9" d="M354.88,507.91c-.81,.33-1.63,.51-2.47,.51-1.61,0-3.17-.64-4.64-1.82"/><path class="cls-3" d="M345.97,504.82c-.8-.93-1.56-2.03-2.28-3.28"/></g><g><path class="cls-3" d="M343.68,425.94c-.63,1.08-1.23,2.28-1.79,3.57"/><path class="cls-5" d="M339.34,436.84c-2.07,7.48-3.3,16.8-3.3,26.9,0,11.85,1.69,22.61,4.45,30.61"/><path class="cls-3" d="M341.89,497.96c.57,1.3,1.17,2.49,1.79,3.57"/></g><g><path class="cls-3" d="M361.14,425.94c-.72-1.25-1.49-2.35-2.28-3.28"/><path class="cls-9" d="M354.88,419.57c-.81-.33-1.63-.51-2.47-.51-1.61,0-3.17,.64-4.64,1.82"/><path class="cls-3" d="M345.97,422.66c-.8,.93-1.56,2.03-2.28,3.28"/></g><g><path class="cls-3" d="M326.23,425.94c.72-1.25,1.49-2.35,2.28-3.28"/><path class="cls-16" d="M332.49,419.57c.81-.33,1.63-.51,2.47-.51,1.61,0,3.17,.64,4.64,1.82"/><path class="cls-3" d="M341.4,422.66c.8,.93,1.56,2.03,2.28,3.28"/></g><g><path class="cls-3" d="M326.23,425.94c-.63,1.08-1.23,2.28-1.79,3.57"/><path class="cls-5" d="M321.89,436.84c-2.07,7.48-3.3,16.8-3.3,26.9,0,11.85,1.69,22.61,4.45,30.61"/><path class="cls-3" d="M324.44,497.96c.57,1.3,1.17,2.49,1.79,3.57"/></g><g><path class="cls-3" d="M343.68,501.54c-.72,1.25-1.49,2.35-2.28,3.28"/><path class="cls-16" d="M337.43,507.91c-.81,.33-1.63,.51-2.47,.51-1.61,0-3.17-.64-4.64-1.82"/><path class="cls-3" d="M328.51,504.82c-.8-.93-1.56-2.03-2.28-3.28"/></g><g><path class="cls-3" d="M326.23,501.54c-.73,1.25-1.49,2.35-2.28,3.28"/><path class="cls-11" d="M319.98,507.91c-.81,.33-1.63,.51-2.47,.51-1.61,0-3.17-.64-4.64-1.82"/><path class="cls-3" d="M311.06,504.82c-.8-.93-1.56-2.03-2.28-3.28"/></g><g><path class="cls-3" d="M308.78,425.94c-.63,1.08-1.23,2.28-1.79,3.57"/><path class="cls-4" d="M304.44,436.84c-2.07,7.48-3.3,16.8-3.3,26.9,0,11.85,1.69,22.61,4.45,30.61"/><path class="cls-3" d="M306.99,497.96c.57,1.3,1.17,2.49,1.79,3.57"/></g><g><path class="cls-3" d="M326.23,425.94c-.73-1.25-1.49-2.35-2.28-3.28"/><path class="cls-11" d="M319.98,419.57c-.81-.33-1.63-.51-2.47-.51-1.61,0-3.17,.64-4.64,1.82"/><path class="cls-3" d="M311.06,422.66c-.8,.93-1.56,2.03-2.28,3.28"/></g><g><path class="cls-3" d="M308.78,501.54c-.72,1.25-1.49,2.35-2.28,3.28"/><path class="cls-16" d="M302.52,507.91c-.81,.33-1.63,.51-2.47,.51-1.61,0-3.17-.64-4.64-1.82"/><path class="cls-3" d="M293.61,504.82c-.8-.93-1.56-2.03-2.28-3.28"/></g><g><path class="cls-3" d="M291.33,425.94c.72-1.25,1.49-2.35,2.28-3.28"/><path class="cls-16" d="M297.58,419.57c.81-.33,1.63-.51,2.47-.51,1.61,0,3.17,.64,4.64,1.82"/><path class="cls-3" d="M306.5,422.66c.8,.93,1.56,2.03,2.28,3.28"/></g><g><path class="cls-3" d="M291.33,425.94c-.63,1.08-1.23,2.28-1.79,3.57"/><path class="cls-5" d="M286.98,436.84c-2.07,7.48-3.3,16.8-3.3,26.9,0,11.85,1.69,22.61,4.45,30.61"/><path class="cls-3" d="M289.53,497.96c.57,1.3,1.17,2.49,1.79,3.57"/></g><g><path class="cls-3" d="M291.33,425.94c-.73-1.25-1.49-2.35-2.28-3.28"/><path class="cls-15" d="M282.46,419.06c-8.98,.2-16.23,20.13-16.23,44.68s7.33,44.68,16.37,44.68c1.21,0,2.4-.36,3.54-1.05"/><path class="cls-3" d="M289.04,504.82c.8-.93,1.56-2.03,2.28-3.28"/></g></g><text class="cls-19" transform="translate(306.15 545.9)"><tspan x="0" y="0">橫倒的茶餅</tspan></text><text class="cls-19" transform="translate(306.15 754.79)"><tspan x="0" y="0">山脈與海浪</tspan></text><path class="cls-7" d="M250.06,721.47s21.92,2.06,25.5-35.86,18.66-80.22,42.46-91.86c23.8-11.63,61.36-4.4,72.32,22.74,10.96,27.14,9.39,76.6,17.32,88.14,7.93,11.55,23.8,16.86,23.8,16.86"/><g class="cls-30"><path class="cls-32" d="M387.35,674.29c-1.33,.13-2.28,1.18-2.13,2.34,.03,.24,2.94,25.98-11.81,43.42-.79,.94-.57,2.27,.5,2.96,.43,.28,.94,.42,1.44,.42,.74,0,1.47-.3,1.95-.86,15.87-18.77,12.86-45.36,12.73-46.42-.15-1.16-1.35-2-2.67-1.87Z"/><path class="cls-32" d="M364.03,685.38c-1.34-.09-2.49,.8-2.58,1.97-.67,8.59-3.28,22.56-11.86,32.71-.79,.94-.57,2.27,.5,2.96,.43,.28,.94,.42,1.44,.42,.74,0,1.47-.3,1.95-.86,9.27-10.97,12.08-25.78,12.79-34.94,.09-1.17-.91-2.18-2.25-2.26Z"/><path class="cls-32" d="M346.34,685.38c-1.34-.09-2.49,.8-2.58,1.97-.67,8.59-3.28,22.56-11.86,32.71-.79,.94-.57,2.27,.5,2.96,.43,.28,.94,.42,1.44,.42,.74,0,1.47-.3,1.95-.86,9.27-10.97,12.08-25.78,12.79-34.94,.09-1.17-.91-2.18-2.25-2.26Z"/><path class="cls-32" d="M328.64,685.38c-1.34-.09-2.49,.8-2.58,1.97-.67,8.59-3.28,22.56-11.86,32.71-.79,.94-.57,2.27,.5,2.96,.43,.28,.94,.42,1.44,.42,.74,0,1.47-.3,1.95-.86,9.27-10.97,12.08-25.78,12.79-34.94,.09-1.17-.91-2.18-2.25-2.26Z"/><path class="cls-32" d="M310.95,685.38c-1.32-.08-2.49,.8-2.58,1.97-.67,8.59-3.28,22.56-11.86,32.71-.79,.94-.57,2.27,.5,2.96,.43,.28,.94,.42,1.44,.42,.74,0,1.47-.3,1.95-.86,9.27-10.97,12.08-25.78,12.79-34.94,.09-1.17-.91-2.18-2.25-2.26Z"/><path class="cls-32" d="M293.25,685.38c-1.33-.08-2.49,.8-2.58,1.97-.67,8.59-3.28,22.56-11.86,32.71-.79,.94-.57,2.27,.5,2.96,.43,.28,.94,.42,1.44,.42,.74,0,1.47-.3,1.95-.86,9.27-10.97,12.08-25.78,12.79-34.94,.09-1.17-.91-2.18-2.25-2.26Z"/><path class="cls-32" d="M275.56,685.38c-1.32-.08-2.49,.8-2.58,1.97-.52,6.59-2.17,15.41-6.79,23.74-1.36,2.16-2.63,2.45-5.15,3.02-.87,.2-1.85,.42-2.92,.75-2.18,.67-3.6,2.24-3.71,4.1-.11,1.73,.95,3.32,2.7,4.05,.44,.19,1.19,.42,2.18,.42,1.39,0,3.25-.45,5.39-2.14,.12-.1,.22-.2,.33-.32,2.26-2.48,3.96-5.22,5.47-7.94,.03-.05,.06-.1,.08-.14,4.93-8.92,6.69-18.27,7.24-25.26,.09-1.17-.91-2.18-2.25-2.26Z"/><path class="cls-32" d="M433.7,713.02c-2.11-2.76-6.3-4.09-11.52-3.67-8.83,.73-11.65-3.49-12.05-4.1-2.79-6.4-5.08-17.33-5.08-31.25,0-28.75-5.29-41.57-17.15-41.57-3.07,0-5.87,1.38-8.31,3.91-2.46-2.59-5.55-3.91-9.22-3.91-2.24,0-5.34,.77-8.44,4.02-2.48-2.66-5.6-4.02-9.32-4.02-2.24,0-5.34,.77-8.44,4.02-2.48-2.66-5.6-4.02-9.32-4.02-2.24,0-5.34,.77-8.44,4.02-2.48-2.66-5.6-4.02-9.32-4.02-2.24,0-5.34,.77-8.44,4.02-2.48-2.66-5.6-4.02-9.32-4.02-2.24,0-5.34,.77-8.44,4.02-2.48-2.66-5.6-4.02-9.32-4.02-10.74,0-18.25,16.9-18.25,41.1,0,1.17,1.08,2.12,2.42,2.12s2.42-.95,2.42-2.12c0-14.26,2.52-23.04,4.63-27.89,2.45-5.62,5.73-8.97,8.77-8.97,1.72,0,4.19,.4,6.48,3.56-4.5,7.38-6.97,19.12-6.97,33.3,0,1.17,1.08,2.12,2.42,2.12s2.42-.95,2.42-2.12c0-13.95,2.55-25.7,6.99-32.24,2.02-2.98,4.3-4.62,6.42-4.62,1.72,0,4.19,.4,6.48,3.56-4.5,7.38-6.97,19.12-6.97,33.3,0,1.17,1.08,2.12,2.42,2.12s2.42-.95,2.42-2.12c0-13.95,2.55-25.7,6.99-32.24,0,0,0,0,0,0,2.02-2.98,4.3-4.62,6.42-4.62,1.72,0,4.19,.4,6.48,3.56-4.5,7.38-6.97,19.12-6.97,33.3,0,1.17,1.08,2.12,2.42,2.12s2.42-.95,2.42-2.12c0-13.95,2.55-25.7,6.99-32.24,2.02-2.98,4.3-4.62,6.42-4.62,1.72,0,4.19,.4,6.48,3.56-4.5,7.38-6.97,19.12-6.97,33.3,0,1.17,1.08,2.12,2.42,2.12s2.42-.95,2.42-2.12c0-13.95,2.55-25.7,6.99-32.24,2.02-2.98,4.3-4.62,6.42-4.62,1.72,0,4.19,.4,6.48,3.56-4.5,7.38-6.97,19.12-6.97,33.3,0,1.17,1.08,2.12,2.42,2.12s2.42-.95,2.42-2.12c0-13.95,2.55-25.7,6.99-32.24,2.02-2.98,4.3-4.62,6.42-4.62,1.69,0,4.11,.38,6.37,3.41-4.43,7.2-7.09,19.03-7.09,33.45,0,1.17,1.08,2.12,2.42,2.12s2.42-.95,2.42-2.12c0-14.26,2.52-23.04,4.63-27.89,2.45-5.62,5.73-8.97,8.77-8.97,8.17,0,12.32,12.56,12.32,37.34,0,20.68,4.42,36.61,13.13,44.19,5.57,4.85,11.16,5.25,12.84,5.25h.06c3.52-.02,6.47-1.43,7.89-3.76,1.27-2.09,1.1-4.64-.43-6.65Z"/></g><path class="cls-7" d="M428.55,718.51s-23.88,3.36-26.18-37.28c-2.3-40.64-4.23-51.56-18.25-46.28-14.01,5.29-18.51,47.6-4.23,45.48s1.32-24.33,7.67-28.56"/><path class="cls-7" d="M379.27,638.58s-7.76-9.24-16.39,0c-8.64,9.24-12.69,40.26-1.41,41.67,11.28,1.41,9.75-12.51,9.75-12.51"/><path class="cls-7" d="M362.05,638.58s-7.76-9.24-16.39,0c-8.64,9.24-12.69,40.26-1.41,41.67,11.28,1.41,9.75-12.51,9.75-12.51"/><path class="cls-7" d="M344.82,638.58s-7.76-9.24-16.39,0c-8.64,9.24-12.69,40.26-1.41,41.67,11.28,1.41,9.75-12.51,9.75-12.51"/><path class="cls-7" d="M327.6,638.58s-7.76-9.24-16.39,0c-8.64,9.24-12.69,40.26-1.41,41.67,11.28,1.41,9.75-12.51,9.75-12.51"/><path class="cls-7" d="M310.37,638.58s-7.76-9.24-16.39,0c-8.64,9.24-12.69,40.26-1.41,41.67,11.28,1.41,9.75-12.51,9.75-12.51"/><path class="cls-7" d="M293.15,638.58s-7.76-9.24-16.39,0c-8.64,9.24-12.69,40.26-1.41,41.67,11.28,1.41,9.75-12.51,9.75-12.51"/><path class="cls-7" d="M277.81,680.3s-5.02,38.27-20.62,38.27"/></g><text class="cls-26" transform="translate(1365.23 846.52)"><tspan class="cls-42" x="0" y="0">以上三下三方式排列對稱，將7片中的中間抽調</tspan><tspan class="cls-41" x="407.27" y="0">改</tspan><tspan class="cls-41"><tspan x="31.53" y="43">為文字LOGO而上面為山下面為海之意象。</tspan></tspan></text><g><g><g><path class="cls-24" d="M1504.35,238.06v-.28l-.4,.3-2.11-.32,1.2-8.5-.09-1.41c0-5.05-3.89-4.86-7.13-6.57l-.98,.28,1.31,7.96-.05,7.56h-.42l.17,1.26-.03,.84c-1.32,0-3.2,.98-3.22,.98h-1.95l-1.14-6.01c-1.3,.88-2.28,2.61-2.65,4.46-.22,1.08-1.39,4.91-1.39,5.61v1.82c0,1.6,1.42,3.5,3.07,3.5h1.68c.19-2.2,3.99-3.69,5.89-4.32,2.23-.74,5.32-2.11,8.09-2.11h3.77v2.52c0,1.3-.64,2.94,.85,2.94h1.81c1.84,0,2.38-4.53,2.38-6.58v-2.66c0-3.92-3.19-6.2-3.78-8.4-.4,.3-.35,.7-.84,.7h-.56v2.66l.25,4.06-2.03-.83-.04,.55h-1.68Z"/><path class="cls-24" d="M1537.81,224.58c0,.67,2.17,2.71,2.55,4.36,.27-.18,.26-.3,.6-.3,.56,0,.59,.45,1.05,.45h1.95c.48,0,1.05-.77,1.05-1.35v-.3c0-1.87-2.01-3.91-3.91-3.91h-.6c-.77,0-2.71,.41-2.71,1.05h0Zm21.5-2.85c-.25,.67-2.15,.88-3.01,.9,.16-1.92,.78-3.06-.56-4.25-.65-.57-2.58-1.76-3.65-1.76-2.83,0,.15,2.07,.15,3.46,0,2.09-4.66,5.19-4.66,6.77v.75c0,.84,.88,2.1,1.81,2.1h.75c4.37,0,8.73-4.21,10.98-4.21,.61,0,1.15,.33,1.65,.45,.17-.33,.45-.73,.45-1.2v-.75c0-.97-1.09-2.26-2.1-2.26h-1.8Zm2.56,26.62c-.09,0-.31,.21-.46,.3,0,3.35-.98,5.57-4.36,5.57h-2.41c-.93,0-3.98-.99-4.7-1.37l.34-.74c1.56,0,3.19,.26,3.31-1.2h1.05c.55,0,.45,.38,.55,.95l.35-.95,1.07-.02-.32-.43c.93-.08,1.81-.84,1.81-1.81v-.58l-4.21-.32h-2.11c-1.41,0-2.35,.6-3.46,.6-.78,0-2.05-.64-2.66-.95-.92-.47-.95-1.53-.95-2.81,0-.17,.36-.98,.45-1.34l-1.35-.17h-.62s-.44,4.66-.44,4.66c-.78,.53-1.11,1.35-2.55,1.35-.55,0-.84-.13-1.2-.3,0-1.67,0-3.02-.43-4.24-.71-2.01-1.68-.8-1.68-2.98v-.75c0-1,2.35-4.83,3-5.26,.44,.29,.9,.63,.9,1.36v1.5c0,.78-.47,1.73-.7,2.23l1.31,2.28c.1-.42,.3-.76,.3-1.2,0-.5-.45-1.15-.5-1.73l1.82-2.47,.34,1.34c.99-.24,4.55-1.41,4.92-2.15,.5-1.02,1.93-3.99,2.15-4.92h1.05c.35,0,.6,.25,.6,.6v.45c0,1.79-1.2,1.36-1.19,3.18l1.03-.62h1.5c-.11-.24-.92-1.86-.94-1.96l.35-2.26,1.54,.45-.34-1.34c.5-.75,2.96-2.41,4.22-2.41h1.2c2.42,0,3.16,2.24,3.16,4.81l-.07,.18,1.75,.59-.32,.43h.9v.31l-1.81,.56,2.71,.19-1.05-1.51h1.5c.28,1.08,1.65,.76,1.65,2.55v1.05c0,.51-.27,1.06-.75,1.06h-.46c-.69,0-.85-.45-1.8-.45h-1.5c-1.26,0-1.21,4.89-1.21,6.47v.75c1.69,0,3.46,.9,3.46,2.56,0,.75-.6,1.35-1.06,1.65-.66-.16-2.16-.75-2.7-.75h0Zm-6.46-16.54l-.68,.09,2.34,1.97,1.64,.34,.31-.6c.63,.01,.91,.3,.91-.3v-1.5c0-.51-.27-1.05-.75-1.05-1.1,0-2.87,1.05-3.76,1.05h0Zm1.5,7.97h-1.05c-.66,0-.53-.3-1.65-.3,1.01,1.91,1.75,1.06,2.78,3.09l-1.73,2.19,1.35-.17h2.69s.47-6.02,.47-6.02c-1.49,.04-1.05,1.2-2.86,1.2h0Zm-9.92,4.81l5.91-.32-1.54-3.44h.45v-.45c-1.63,.14-4.68,2.6-4.81,4.21h0Z"/><path class="cls-24" d="M1594.41,238.97c-.7,0-2.95,2.2-3.37,2.76-.94,1.26-.05,3.56-.05,5.08,1.28,0,2.57-.63,2.57-1.85v-.43c3.23,0,7.59,.36,10.23,1.03,2.22,.56,6.38,3.96,7.15,3.96h1.14c1.29,0,3.11-1.29,4.67-1.6,1.49-.29,3.55-.9,3.6-2.68-2.88-.67-2.1-1.72-6.13-1.71-2.41,0-4.38-.77-6.36-1.34-1.39-.4-5.2-1.07-6.62-1.22-1.24-.13-2.35-.15-3.7-.15-.86,0-1.37,.23-1.58-.42-.12-.39-.38-1.08-.41-1.44h-1.14Zm4.02-1.68l-1.44-.38v.35s1.27,.17,1.27,.17c.56,.05,.58-.78,1.29-.46l.13-1.43h1.3c-.34,.51-.71,.38-.71,.86,0,.3,.05,.19,.14,.57,1.72-.91,6.37-4.56,8.55-4.56,1.49-.99,2.63-2,5.13-2,.69-.46,1.28-.69,1.28-1.85v-.71c0-1.1-2.36-3.42-3.42-3.42h-.28c-1.06,0-1.59,.71-2.71,.71h-.57c-.52,0-.8-.12-1.14-.29l-.98,.47c-.07-2.08-1.98-4.04-4.15-4.04h-.28c-1.7,0-2.31,1-3.71,1l-.17,1.14c-.07,.59,2.73,1.24,2.73,2.57,0,.11-.71,.78-.86,1h.86l.48,.82-.91-.14,.11,.14-1.16,1.27c-.36-.05-.19-.1-.52-.1-.21,0-2.88,1.92-3.47,2.23-1.33,.7-2.52,1.2-2.52,3.18,0,1.05,.91,2.85,2,2.85,1.46,0,5.11-4.75,6.24-5.88,2.5-2.5,2.29-.79,4.12-2.02,1.27-.86,2.01-1.94,4.05-1.94-1.1,1.64-6.99,4.34-7.13,5.99l-.71-.15-.58,1.15h.43v.43h-.57l-1.28,.16,.42,.28-.73,.82,.49,.2-1,1h0Zm3.24-2.59l-.32-.7,1.17,.85-.39,.45-.03-.31-.84,.31,.41-.6h0Z"/><path class="cls-24" d="M1664.41,219.77c.02,.93,.36,1.98,.44,2.71,.09,.8,0,2.12,0,2.98,0,1.86-.18,3.75-.15,5.83l.19,17.21-1.78,2.01-4.54,.46c.73,1.31,3.42,2.46,5.53,2.46h1.94c1.14,0,2.24-.65,2.24-1.79,0-3.03-1.33-5.4-1.35-7.93l-.07-21.84c.06-1.53-.25-4.49-1.72-4.49h-.9c-.92,0-1.23,.81-2.25,1.05v1.05c0,.29-.05,.27-.15,.47l1.34-.2,1.2,.03h0Zm-13.31,5.09c0-.91,.28-1.37,.45-2.09-.45-.85-.79-1.65-2.09-1.65-1.58,0-4.19,1.39-4.19,2.7,0,.18,.31,.45,.6,.45h.9c.95,0,1.11-.45,1.8-.45h.45v1.34c0,1.87-2.5,3.75-4.19,3.89v-.6c0-.58,.75-.44,.75-1.8,0-1.01-1.07-1.95-2.09-1.8l-1.34,.17v.58c0,.53,.33,.4,.75,.6,0,2.22-.62,3.47-.75,5.24-.07,.89-.39,1.66-.45,2.54-.06,.93-.04,1.91-.18,2.81-.2,1.32-.68,4.01-.72,5.27-.02,.7-.17,2.11-.27,2.72-.1,.67-.48,2.23-.48,2.36v.9c0,1.04,.45,1,.45,2.54,.4,.21,.93,.75,1.2,.75h.45c.84,0,1.79-1.1,1.79-1.95v-.45c0-.55-1.35-1.02-1.35-2.69v-.45l.92-9.12h.13s0,.89,0,.89c.49,.33,1.88,1.35,2.54,1.35,1.68,0,4.88-2.81,6.28-3.14,0-1.36-.75-2.38-.75-3.44v-1.95c0-.55,.45-.34,.45-.89,0-1.97-1.05-2.95-1.05-4.34v-.3h0Zm-3.89,7.93s1.1-.55,1.2-.6v.75c-.16,.23-.2,.45-.6,.45h-.3c-.65,0-1.2-.36-1.35-.9,.66,.06,.66,.3,1.05,.3h0Zm-3.44,2.24c0-1.03-.25-2.84,.75-2.84h.15c.72,0,2.4,1.69,2.4,2.09,0,.22-1.93,.97-2.25,1.05l.8-1.32-1.85,1.01h0Zm20.65-11.82v2.99c-2.42,.05-1.98,2.09-4.94,2.09-.22,.33-.45,.5-.45,1.05v1.05c.73-.06,.55-.3,1.2-.3h.9c.41,0,2.28,.85,2.69,1.05-.16,.6-.45,.49-.45,1.2v1.5h-1.2c-1.4,0-4.26,1.16-4.78,1.94,4.05,0,1.86,3.66,2.1,5.38l.6,4.94v.15c0,.84-.97,2.39-1.95,2.39h-.15c-1.48,0-1.69-1.2-2.09-1.2-1.32,0-2.72,.75-4.49,.75h-.9c-.08-.93-1.8-1.79-1.8-3.59,0-3.11,.25-4.67,1.35-6.73,.56,.29,3.35,2.39,3.59,2.39h.15c.79,0,1.06-.6,1.49-.6h.3c.34,0,1.18,.75,1.8,.9l-.02-2.62-4.17,1.12v-.44s-1.08-.2-1.08-.2l2.13-2.21c-.63,0-1.55-.12-1.54-.75l.16-2.42,1.93-2.07,.8-7.33v-.6c0-.72-.45-.78-.45-1.5v-.15c0-.66,.96-.75,1.65-.75h1.2c1.18,0,1.8,1.45,1.8,2.69v.9c1.18-.02,1.91-1.05,2.84-1.05h1.8Zm-11.37,20.2c-.18,.27-.3,.26-.3,.6v.45h.74c.86,0,1.24-.45,1.65-.45,.44,0,1.71,1.04,2.39,1.2v-4.19c-1.68,1.23-.25,2.4-4.49,2.4h0Z"/></g><text class="cls-23" transform="translate(1473.4 264.09) scale(1.65 1)"><tspan class="cls-43" x="0" y="0">SHANHAI PUERHTE</tspan><tspan class="cls-34" x="120.12" y="0">A</tspan></text></g><g><rect class="cls-21" x="1583.27" y="291.01" width="1.41" height="5.61"/><rect class="cls-21" x="1583.27" y="279.79" width="1.41" height="5.61"/><rect class="cls-21" x="1583.27" y="324.67" width="1.41" height="5.61"/><rect class="cls-21" x="1583.27" y="302.23" width="1.41" height="5.61"/><rect class="cls-21" x="1583.27" y="313.45" width="1.41" height="5.61"/><rect class="cls-21" x="1583.27" y="201.26" width="1.41" height="5.61"/><path class="cls-21" d="M1665.7,179.64c0-2.61-2.08-5-6.21-7.14,4.12-2.14,6.21-4.54,6.21-7.15,0-11.83-44.68-18.03-88.82-18.03-8.66,0-17.22,.23-25.43,.7-1.55,.09-2.72,1.16-2.61,2.4,.04,.51,.31,.96,.7,1.32v.02s30.18,27.11,30.18,27.11c-.95,0-1.88,.02-2.84,.02-8.84,0-17.57-.25-25.96-.74-21.41-1.25-39.48-4.06-49.57-7.7-7.12-2.57-7.67-4.55-7.67-5.1,0-1.24-1.26-2.24-2.81-2.24s-2.81,1-2.81,2.24c0,2.61,2.09,5,6.21,7.14-4.13,2.14-6.21,4.54-6.21,7.14,0,2.91,2.61,5.56,7.77,7.89-5.16,2.33-7.77,4.98-7.77,7.89,0,11.83,44.68,18.03,88.82,18.03,2.15,0,4.27-.03,6.38-.06v4.7h1.41v-4.71h0v-4.49c-2.57,.04-5.16,.07-7.79,.07-50.79,0-83.2-8.02-83.2-13.54,0-1.25,2.34-3.32,8.78-5.48,15.88,4.77,44.19,7.73,74.42,7.73,2.63,0,5.22-.02,7.79-.07v-4.49h0v-3.07h-1.41v3.08c-2.11,.03-4.23,.05-6.38,.05-30.25,0-58.39-2.96-73.44-7.73-7.2-2.28-9.76-4.5-9.76-5.81,0-.52,.5-2.32,6.57-4.69,10.95,3.69,28.69,6.41,50.25,7.67,8.52,.5,17.4,.75,26.37,.75,2.15,0,4.27-.02,6.38-.05v1.11h1.41v-1.12h0v-4.49l-29.9-26.47c7.18-.35,14.6-.54,22.11-.54,22.77,0,44.15,1.62,60.19,4.57,18.16,3.33,23.01,7.21,23.01,8.97,0,1.46-2.87,3.37-7.67,5.1-3.4,1.22-7.73,2.37-12.88,3.4-1.39,.28-3.46-.47-5.65-1.27-2.99-1.09-6.38-2.33-10.21-1.86-3.07,.37-5.86,2.12-8.56,3.82-2.44,1.54-4.97,3.12-7.07,3.28-1.55,.11-2.69,1.2-2.55,2.44,.13,1.17,1.36,2.04,2.8,2.04,.08,0,.17,0,.26,0,3.77-.27,7.1-2.37,10.05-4.22,2.12-1.33,4.32-2.71,5.92-2.91,2.19-.27,4.54,.6,7.03,1.5,2.97,1.08,6.05,2.2,9.36,1.54,4.9-.98,9.13-2.07,12.62-3.24,6.06,2.36,6.56,4.16,6.56,4.68,0,1.31-2.56,3.53-9.75,5.81-3.03,.96-6.66,1.87-10.79,2.69-1.39,.28-3.46-.47-5.66-1.27-2.99-1.09-6.38-2.32-10.21-1.86-3.07,.37-5.86,2.12-8.56,3.82-2.44,1.54-4.97,3.12-7.07,3.28-1.55,.11-2.69,1.2-2.55,2.44,.13,1.17,1.36,2.04,2.8,2.04,.08,0,.17,0,.26,0,3.77-.27,7.1-2.37,10.05-4.22,2.12-1.33,4.32-2.72,5.92-2.91,2.19-.27,4.54,.6,7.03,1.5,2.97,1.08,6.05,2.2,9.36,1.54,3.91-.78,7.38-1.64,10.41-2.55,6.43,2.16,8.77,4.23,8.77,5.48,0,1.63-4.33,5.26-20.54,8.5-1.4,.28-3.47-.48-5.66-1.27-2.99-1.09-6.38-2.33-10.21-1.86-3.07,.37-5.86,2.12-8.56,3.82-2.44,1.54-4.97,3.12-7.07,3.28-1.55,.11-2.69,1.2-2.55,2.44,.13,1.17,1.36,2.04,2.8,2.04,.08,0,.17,0,.26,0,3.77-.27,7.1-2.37,10.05-4.22,2.12-1.33,4.32-2.71,5.92-2.91,2.19-.26,4.54,.6,7.03,1.51,2.97,1.08,6.04,2.2,9.36,1.55,16.46-3.29,24.8-7.61,24.8-12.85,0-2.91-2.61-5.56-7.77-7.89,5.15-2.33,7.77-4.98,7.77-7.89Z"/><path class="cls-21" d="M1665.7,286.52c0-3.28-3.28-6.22-9.75-8.74-1.4-.55-3.08-.08-3.76,1.03-.68,1.11-.1,2.46,1.29,3,4.13,1.61,6.59,3.37,6.59,4.7,0,1.5-2.46,3.25-7.19,4.98-.28,.1-.57,.21-.87,.31-11.3,3.9-34.25,7.62-67.24,8.18-.04,0-.07,0-.11,.01v4.46c.06,0,.11,.01,.17,.01h.06c25.96-.44,53.22-3.21,68.51-8.39,4.18,1.63,6.67,3.36,6.67,4.73s-2.56,3.52-9.75,5.8c-.01,0-.03,0-.04,.01,0,0-.01,0-.02,0-13.69,4.33-38.16,7.19-65.49,7.65-.04,0-.07,0-.11,.01v4.46c.06,0,.11,.01,.17,.01h.06c27.32-.46,51.98-3.32,66.42-7.66,6.43,2.16,8.76,4.23,8.76,5.49,0,4.99-26.82,12.65-75.3,13.47-.04,0-.07,0-.11,.01v4.46c.06,0,.11,.01,.17,.01h.06c38.92-.66,80.81-6.55,80.81-17.96,0-2.92-2.61-5.56-7.76-7.9,5.15-2.33,7.76-4.97,7.76-7.89,0-2.63-2.12-5.05-6.31-7.2,4-2.07,6.31-4.43,6.31-7.09Z"/><path class="cls-21" d="M1584.67,273.05v-4.49c-2.57-.04-5.17-.06-7.79-.06-44.14,0-88.82,6.19-88.82,18.03,0,2.61,2.1,4.99,6.21,7.13-4.13,2.14-6.21,4.54-6.21,7.16,0,2.92,2.62,5.55,7.76,7.88-5.15,2.33-7.76,4.98-7.76,7.9,0,4.98,7.54,9.13,22.41,12.35,4.08,.89,8.3-.25,12.38-1.34,3.74-1,7.61-2.04,11.49-1.64,1.46,.15,3.05,.67,4.72,1.37,0,0,0,0,.01,0,4.17,1.26,13.09,3.57,19.26,2.42-3.76-.15-7.78-2.14-11.68-4.06-3.75-1.85-7.63-3.77-11.59-4.18-5.16-.53-9.86,.73-14,1.84-3.58,.96-6.67,1.79-9.12,1.26-13.48-2.92-18.26-6.15-18.26-8.02,0-1.25,2.33-3.32,8.74-5.48,2.39,.72,5.06,1.4,8.04,2.05,4.09,.89,8.31-.25,12.38-1.34,3.74-1,7.61-2.04,11.49-1.64,1.46,.15,3.05,.67,4.72,1.37,0,0,0,0,.01,0,4.17,1.26,13.09,3.57,19.26,2.42-3.76-.15-7.78-2.14-11.68-4.06-3.75-1.85-7.63-3.77-11.59-4.18-5.16-.54-9.86,.73-14,1.84-3.58,.96-6.67,1.79-9.11,1.26-13.48-2.92-18.26-6.15-18.26-8.02,0-1.35,2.44-3.07,6.56-4.68,2.9,.98,6.3,1.9,10.23,2.75,4.08,.88,8.3-.25,12.38-1.34,3.74-1,7.61-2.04,11.49-1.64,1.46,.15,3.05,.67,4.72,1.37,0,0,.01,0,.02,0,4.17,1.26,13.09,3.57,19.26,2.42-3.76-.15-7.78-2.14-11.68-4.06-3.75-1.85-7.63-3.77-11.59-4.18-5.15-.54-9.86,.73-14,1.84-3.58,.96-6.68,1.79-9.11,1.26-13.48-2.92-18.26-6.15-18.26-8.02,0-1.76,4.85-5.64,23.01-8.97,16.05-2.94,37.42-4.57,60.19-4.57,2.15,0,4.27,.02,6.38,.05v1.14h1.41v-1.13h0Z"/></g></g><g><g class="cls-30"><g><rect class="cls-32" x="1583.25" y="500.21" width="1.41" height="5.61"/><path class="cls-32" d="M1665.68,478.59c0-2.61-2.08-5-6.21-7.14,4.12-2.14,6.21-4.54,6.21-7.15,0-11.83-44.68-18.03-88.82-18.03-8.66,0-17.22,.23-25.43,.7-1.55,.09-2.72,1.16-2.61,2.4,.04,.51,.31,.96,.7,1.32v.02s30.18,27.11,30.18,27.11c-.95,0-1.88,.02-2.84,.02-8.84,0-17.57-.25-25.96-.74-21.41-1.25-39.48-4.06-49.57-7.7-7.12-2.57-7.67-4.55-7.67-5.1,0-1.24-1.26-2.24-2.81-2.24s-2.81,1-2.81,2.24c0,2.61,2.09,5,6.21,7.14-4.13,2.14-6.21,4.54-6.21,7.14,0,2.91,2.61,5.56,7.77,7.89-5.16,2.33-7.77,4.98-7.77,7.89,0,11.83,44.68,18.03,88.82,18.03,2.15,0,4.27-.03,6.38-.06v4.7h1.41v-4.71h0v-4.49c-2.57,.04-5.16,.07-7.79,.07-50.79,0-83.2-8.02-83.2-13.54,0-1.25,2.34-3.32,8.78-5.48,15.88,4.77,44.19,7.73,74.42,7.73,2.63,0,5.22-.02,7.79-.07v-4.49h0v-3.07h-1.41v3.08c-2.11,.03-4.23,.05-6.38,.05-30.25,0-58.39-2.96-73.44-7.73-7.2-2.28-9.76-4.5-9.76-5.81,0-.52,.5-2.32,6.57-4.69,10.95,3.69,28.69,6.41,50.25,7.67,8.52,.5,17.4,.75,26.37,.75,2.15,0,4.27-.02,6.38-.05v1.11h1.41v-1.12h0v-4.49l-29.9-26.47c7.18-.35,14.6-.54,22.11-.54,22.77,0,44.15,1.62,60.19,4.57,18.16,3.33,23.01,7.21,23.01,8.97,0,1.46-2.87,3.37-7.67,5.1-3.4,1.22-7.73,2.37-12.88,3.4-1.39,.28-3.46-.47-5.65-1.27-2.99-1.09-6.38-2.33-10.21-1.86-3.07,.37-5.86,2.12-8.56,3.82-2.44,1.54-4.97,3.12-7.07,3.28-1.55,.11-2.69,1.2-2.55,2.44,.13,1.17,1.36,2.04,2.8,2.04,.08,0,.17,0,.26,0,3.77-.27,7.1-2.37,10.05-4.22,2.12-1.33,4.32-2.71,5.92-2.91,2.19-.27,4.54,.6,7.03,1.5,2.97,1.08,6.05,2.2,9.36,1.54,4.9-.98,9.13-2.07,12.62-3.24,6.06,2.36,6.56,4.16,6.56,4.68,0,1.31-2.56,3.53-9.75,5.81-3.03,.96-6.66,1.87-10.79,2.69-1.39,.28-3.46-.47-5.66-1.27-2.99-1.09-6.38-2.32-10.21-1.86-3.07,.37-5.86,2.12-8.56,3.82-2.44,1.54-4.97,3.12-7.07,3.28-1.55,.11-2.69,1.2-2.55,2.44,.13,1.17,1.36,2.04,2.8,2.04,.08,0,.17,0,.26,0,3.77-.27,7.1-2.37,10.05-4.22,2.12-1.33,4.32-2.72,5.92-2.91,2.19-.27,4.54,.6,7.03,1.5,2.97,1.08,6.05,2.2,9.36,1.54,3.91-.78,7.38-1.64,10.41-2.55,6.43,2.16,8.77,4.23,8.77,5.48,0,1.63-4.33,5.26-20.54,8.5-1.4,.28-3.47-.48-5.66-1.27-2.99-1.09-6.38-2.33-10.21-1.86-3.07,.37-5.86,2.12-8.56,3.82-2.44,1.54-4.97,3.12-7.07,3.28-1.55,.11-2.69,1.2-2.55,2.44,.13,1.17,1.36,2.04,2.8,2.04,.08,0,.17,0,.26,0,3.77-.27,7.1-2.37,10.05-4.22,2.12-1.33,4.32-2.71,5.92-2.91,2.19-.26,4.54,.6,7.03,1.51,2.97,1.08,6.04,2.2,9.36,1.55,16.46-3.29,24.8-7.61,24.8-12.85,0-2.91-2.61-5.56-7.77-7.89,5.15-2.33,7.77-4.98,7.77-7.89Z"/></g><g><rect class="cls-32" x="1583.25" y="660.39" width="1.41" height="5.61"/><rect class="cls-32" x="1583.25" y="649.17" width="1.41" height="5.61"/><rect class="cls-32" x="1583.25" y="694.05" width="1.41" height="5.61"/><rect class="cls-32" x="1583.25" y="671.61" width="1.41" height="5.61"/><rect class="cls-32" x="1583.25" y="682.83" width="1.41" height="5.61"/><path class="cls-32" d="M1665.68,655.91c0-3.28-3.28-6.22-9.75-8.74-1.4-.55-3.08-.08-3.76,1.03-.68,1.11-.1,2.46,1.29,3,4.13,1.61,6.59,3.37,6.59,4.7,0,1.5-2.46,3.25-7.19,4.98-.28,.1-.57,.21-.87,.31-11.3,3.9-34.25,7.62-67.24,8.18-.04,0-.07,0-.11,.01v4.46c.06,0,.11,.01,.17,.01h.06c25.96-.44,53.22-3.21,68.51-8.39,4.18,1.63,6.67,3.36,6.67,4.73s-2.56,3.52-9.75,5.8c-.01,0-.03,0-.04,.01,0,0-.01,0-.02,0-13.69,4.33-38.16,7.19-65.49,7.65-.04,0-.07,0-.11,.01v4.46c.06,0,.11,.01,.17,.01h.06c27.32-.46,51.98-3.32,66.42-7.66,6.43,2.16,8.76,4.23,8.76,5.49,0,4.99-26.82,12.65-75.3,13.47-.04,0-.07,0-.11,.01v4.46c.06,0,.11,.01,.17,.01h.06c38.92-.66,80.81-6.55,80.81-17.96,0-2.92-2.61-5.56-7.76-7.9,5.15-2.33,7.76-4.97,7.76-7.89,0-2.63-2.12-5.05-6.31-7.2,4-2.07,6.31-4.43,6.31-7.09Z"/><path class="cls-32" d="M1584.65,642.43v-4.49c-2.57-.04-5.17-.06-7.79-.06-44.14,0-88.82,6.19-88.82,18.03,0,2.61,2.1,4.99,6.21,7.13-4.13,2.14-6.21,4.54-6.21,7.16,0,2.92,2.62,5.55,7.76,7.88-5.15,2.33-7.76,4.98-7.76,7.9,0,4.98,7.54,9.13,22.41,12.35,4.08,.89,8.3-.25,12.38-1.34,3.74-1,7.61-2.04,11.49-1.64,1.46,.15,3.05,.67,4.72,1.37,0,0,0,0,.01,0,4.17,1.26,13.09,3.57,19.26,2.42-3.76-.15-7.78-2.14-11.68-4.06-3.75-1.85-7.63-3.77-11.59-4.18-5.16-.53-9.86,.73-14,1.84-3.58,.96-6.67,1.79-9.12,1.26-13.48-2.92-18.26-6.15-18.26-8.02,0-1.25,2.33-3.32,8.74-5.48,2.39,.72,5.06,1.4,8.04,2.05,4.09,.89,8.31-.25,12.38-1.34,3.74-1,7.61-2.04,11.49-1.64,1.46,.15,3.05,.67,4.72,1.37,0,0,0,0,.01,0,4.17,1.26,13.09,3.57,19.26,2.42-3.76-.15-7.78-2.14-11.68-4.06-3.75-1.85-7.63-3.77-11.59-4.18-5.16-.54-9.86,.73-14,1.84-3.58,.96-6.67,1.79-9.11,1.26-13.48-2.92-18.26-6.15-18.26-8.02,0-1.35,2.44-3.07,6.56-4.68,2.9,.98,6.3,1.9,10.23,2.75,4.08,.88,8.3-.25,12.38-1.34,3.74-1,7.61-2.04,11.49-1.64,1.46,.15,3.05,.67,4.72,1.37,0,0,.01,0,.02,0,4.17,1.26,13.09,3.57,19.26,2.42-3.76-.15-7.78-2.14-11.68-4.06-3.75-1.85-7.63-3.77-11.59-4.18-5.15-.54-9.86,.73-14,1.84-3.58,.96-6.68,1.79-9.11,1.26-13.48-2.92-18.26-6.15-18.26-8.02,0-1.76,4.85-5.64,23.01-8.97,16.05-2.94,37.42-4.57,60.19-4.57,2.15,0,4.27,.02,6.38,.05v1.14h1.41v-1.13h0Z"/></g></g><text class="cls-19" transform="translate(1570.86 548.19)"><tspan x="0" y="0">山</tspan></text><text class="cls-19" transform="translate(1570.86 754.79)"><tspan x="0" y="0">海</tspan></text></g><text class="cls-26" transform="translate(690.6 846.52)"><tspan class="cls-28" x="0" y="0">以原始圖檔修改並以左三右四的交錯使視覺在虛實之間有7片</tspan><tspan class="cls-41" x="522.18" y="0">茶</tspan><tspan class="cls-39" x="0" y="43">餅一般，有如小山丘的凸起下方以竹編做簡化之意向以小山丘</tspan><tspan class="cls-40" x="522.18" y="43">和</tspan><tspan class="cls-41"><tspan x="126.69" y="86">茶餅的圖形中增加細節與層次感。</tspan></tspan></text><g><g class="cls-30"><path class="cls-32" d="M1096.53,665.39c-4.89-1.58-10.8-.88-17.07-.13-4.09,.49-8.33,1-12.4,.86-.73-.04-1.21,.49-1.23,1.15-.02,.66,.49,1.21,1.15,1.23,4.25,.14,8.58-.38,12.76-.88,5.99-.72,11.65-1.4,16.05,.03,.4,.13,.66,.25,.82,.34-1.7,1.53-11.68,4.37-23.75,5.01-2.42,.12-5.25-.75-8-1.59-2.73-.84-5.56-1.71-8.2-1.71-1.17,0-3.41,.59-6.51,1.4-4.64,1.21-10.99,2.88-15.57,2.9-2.04,.01-4.1,.02-6.19,.02-40.61,0-65.28-2.09-68.02-3.64-.19-.4-.6-.68-1.08-.68-.66,0-1.19,.53-1.19,1.19,0,.7,0,1.45,2.9,2.19-2.9,1.02-2.9,2.06-2.9,2.56,0,.35,.11,.88,.66,1.42,3.75,3.7,27.74,5.67,68.2,5.67,5.89,0,12.12-.04,18.7-.13,.66,0,1.19-.55,1.18-1.21,0-.66-.57-1.21-1.21-1.18-69.71,.9-82.45-3.18-84.75-4.53,1.14-.52,3.82-1.18,6.51-1.57,2.97,.34,6.89,.68,12.08,1,13.08,.82,30.45,1.27,48.93,1.27,2.09,0,4.16,0,6.2-.02,4.88-.03,11.4-1.73,16.16-2.98,2.59-.68,5.04-1.32,5.9-1.32,2.28,0,4.94,.82,7.5,1.6,2.95,.91,6.01,1.83,8.83,1.7,8.86-.47,25.62-3.07,26.17-7.22,.16-1.22-.73-2.16-2.63-2.77Z"/><path class="cls-32" d="M1096.53,651.51c-4.89-1.59-10.8-.88-17.07-.13-4.09,.49-8.33,1-12.4,.86-.73-.05-1.21,.49-1.23,1.15-.02,.66,.49,1.21,1.15,1.23,4.25,.14,8.58-.38,12.76-.88,5.99-.72,11.65-1.4,16.05,.03,.4,.13,.66,.25,.82,.34-1.7,1.53-11.68,4.37-23.75,5.01-2.29,.12-4.72-.66-7.29-1.48-2.8-.9-5.7-1.82-8.91-1.82-3.01,0-6.49,.98-10.16,2.01-3.97,1.12-8.08,2.27-11.91,2.29-2.04,.01-4.1,.02-6.19,.02-40.61,0-65.28-2.09-68.02-3.64-.19-.4-.6-.68-1.08-.68-.66,0-1.19,.53-1.19,1.19,0,.7,0,1.45,2.9,2.19-2.9,1.02-2.9,2.06-2.9,2.56,0,.35,.11,.88,.66,1.42,3.75,3.7,27.74,5.67,68.2,5.67,5.89,0,12.12-.04,18.7-.13,.66,0,1.19-.55,1.18-1.21,0-.66-.57-1.24-1.21-1.18-69.71,.9-82.45-3.18-84.75-4.53,1.14-.52,3.82-1.18,6.51-1.57,2.97,.34,6.89,.68,12.08,1,13.07,.82,30.45,1.27,48.93,1.27,2.09,0,4.16,0,6.2-.02,4.16-.02,8.42-1.22,12.55-2.38,3.51-.99,6.83-1.92,9.52-1.92,2.84,0,5.56,.87,8.19,1.71,2.79,.89,5.43,1.74,8.14,1.59,8.86-.47,25.62-3.07,26.17-7.22,.16-1.22-.73-2.16-2.63-2.77Z"/><path class="cls-32" d="M958.1,647.88c0,.35,.11,.88,.66,1.42,3.75,3.7,27.74,5.67,68.2,5.67,5.89,0,12.12-.04,18.7-.13,.66,0,1.19-.55,1.18-1.21,0-.66-.57-1.26-1.21-1.18-69.71,.9-82.45-3.18-84.75-4.53,1.16-.54,3.94-1.21,6.69-1.59,.11-.02,.21-.07,.31-.11,2.91,.32,6.68,.64,11.58,.95,13.08,.82,30.45,1.27,48.93,1.27,2.09,0,4.16,0,6.2-.02,4.16-.02,8.42-1.22,12.55-2.38,3.51-.99,6.84-1.92,9.52-1.92,2.84,0,5.56,.87,8.19,1.71,2.79,.89,5.43,1.74,8.14,1.59,8.86-.47,25.62-3.07,26.17-7.22,.16-1.22-.73-2.16-2.63-2.77-.38-.12-.77-.23-1.16-.33,0,0,0,0,0,0-1.46-.36-3.06-.56-4.89-.61-.01,0-.02,0-.03,0-.64,0-1.17,.51-1.19,1.16-.02,.66,.5,1.21,1.16,1.23,1.66,.05,3.1,.22,4.39,.54,0,0,0,0,0,0,.34,.08,.67,.18,.99,.28,.4,.13,.66,.25,.82,.34-1.7,1.53-11.68,4.37-23.75,5.01-2.29,.12-4.72-.66-7.29-1.48-2.8-.9-5.7-1.82-8.91-1.82-3.01,0-6.48,.98-10.16,2.01-3.97,1.12-8.08,2.27-11.92,2.29-2.04,.01-4.1,.02-6.19,.02-40.61,0-65.28-2.09-68.02-3.64-.19-.4-.6-.68-1.08-.68-.66,0-1.19,.53-1.19,1.19,0,.73,0,1.5,3.24,2.28-3.22,1.05-3.24,2.16-3.24,2.67Z"/><path class="cls-32" d="M1095.81,678.32c-3.46-1.96-9.24-.97-15.93,.17-4.29,.73-8.72,1.49-12.86,1.52-.66,0-1.19,.54-1.18,1.2,0,.66,.54,1.18,1.19,1.18h0c4.33-.03,8.86-.81,13.24-1.56,5.98-1.02,11.63-1.99,14.35-.45,1.07,.61,1.25,.99,1.27,.99h0c-.96,2.74-24.94,6.53-67.51,6.53s-65.28-2.09-68.02-3.64c-.19-.4-.6-.68-1.08-.68-.66,0-1.19,.53-1.19,1.19,0,1.36,0,2.91,21.36,4.24,13.08,.82,30.45,1.27,48.93,1.27,6.92,0,67.69-.23,69.82-8.31,.35-1.33-.46-2.57-2.41-3.67Z"/><path class="cls-32" d="M1057.56,666.61v-5.05c0-.66-.53-1.19-1.19-1.19s-1.19,.53-1.19,1.19v5.05c0,.66,.53,1.19,1.19,1.19s1.19-.53,1.19-1.19Z"/><path class="cls-32" d="M1055.18,647.25v5.05c0,.66,.53,1.19,1.19,1.19s1.19-.53,1.19-1.19v-5.05c0-.66-.53-1.19-1.19-1.19s-1.19,.53-1.19,1.19Z"/><path class="cls-32" d="M1057.56,683.75v-7.16c0-.66-.53-1.19-1.19-1.19s-1.19,.53-1.19,1.19v7.16c0,.66,.53,1.19,1.19,1.19s1.19-.53,1.19-1.19Z"/></g><g class="cls-29"><g><path class="cls-32" d="M1096.53,665.39c-4.89-1.58-10.8-.88-17.07-.13-4.09,.49-8.33,1-12.4,.86-.73-.04-1.21,.49-1.23,1.15-.02,.66,.49,1.21,1.15,1.23,4.25,.14,8.58-.38,12.76-.88,5.99-.72,11.65-1.4,16.05,.03,.4,.13,.66,.25,.82,.34-1.7,1.53-11.68,4.37-23.75,5.01-2.42,.12-5.25-.75-8-1.59-2.73-.84-5.56-1.71-8.2-1.71-1.17,0-3.41,.59-6.51,1.4-4.64,1.21-10.99,2.88-15.57,2.9-2.04,.01-4.1,.02-6.19,.02-40.61,0-65.28-2.09-68.02-3.64-.19-.4-.6-.68-1.08-.68-.66,0-1.19,.53-1.19,1.19,0,.7,0,1.45,2.9,2.19-2.9,1.02-2.9,2.06-2.9,2.56,0,.35,.11,.88,.66,1.42,3.75,3.7,27.74,5.67,68.2,5.67,5.89,0,12.12-.04,18.7-.13,.66,0,1.19-.55,1.18-1.21,0-.66-.57-1.21-1.21-1.18-69.71,.9-82.45-3.18-84.75-4.53,1.14-.52,3.82-1.18,6.51-1.57,2.97,.34,6.89,.68,12.08,1,13.08,.82,30.45,1.27,48.93,1.27,2.09,0,4.16,0,6.2-.02,4.88-.03,11.4-1.73,16.16-2.98,2.59-.68,5.04-1.32,5.9-1.32,2.28,0,4.94,.82,7.5,1.6,2.95,.91,6.01,1.83,8.83,1.7,8.86-.47,25.62-3.07,26.17-7.22,.16-1.22-.73-2.16-2.63-2.77Z"/><path class="cls-32" d="M1096.53,651.51c-4.89-1.59-10.8-.88-17.07-.13-4.09,.49-8.33,1-12.4,.86-.73-.05-1.21,.49-1.23,1.15-.02,.66,.49,1.21,1.15,1.23,4.25,.14,8.58-.38,12.76-.88,5.99-.72,11.65-1.4,16.05,.03,.4,.13,.66,.25,.82,.34-1.7,1.53-11.68,4.37-23.75,5.01-2.29,.12-4.72-.66-7.29-1.48-2.8-.9-5.7-1.82-8.91-1.82-3.01,0-6.49,.98-10.16,2.01-3.97,1.12-8.08,2.27-11.91,2.29-2.04,.01-4.1,.02-6.19,.02-40.61,0-65.28-2.09-68.02-3.64-.19-.4-.6-.68-1.08-.68-.66,0-1.19,.53-1.19,1.19,0,.7,0,1.45,2.9,2.19-2.9,1.02-2.9,2.06-2.9,2.56,0,.35,.11,.88,.66,1.42,3.75,3.7,27.74,5.67,68.2,5.67,5.89,0,12.12-.04,18.7-.13,.66,0,1.19-.55,1.18-1.21,0-.66-.57-1.24-1.21-1.18-69.71,.9-82.45-3.18-84.75-4.53,1.14-.52,3.82-1.18,6.51-1.57,2.97,.34,6.89,.68,12.08,1,13.07,.82,30.45,1.27,48.93,1.27,2.09,0,4.16,0,6.2-.02,4.16-.02,8.42-1.22,12.55-2.38,3.51-.99,6.83-1.92,9.52-1.92,2.84,0,5.56,.87,8.19,1.71,2.79,.89,5.43,1.74,8.14,1.59,8.86-.47,25.62-3.07,26.17-7.22,.16-1.22-.73-2.16-2.63-2.77Z"/><path class="cls-32" d="M958.1,647.88c0,.35,.11,.88,.66,1.42,3.75,3.7,27.74,5.67,68.2,5.67,5.89,0,12.12-.04,18.7-.13,.66,0,1.19-.55,1.18-1.21,0-.66-.57-1.26-1.21-1.18-69.71,.9-82.45-3.18-84.75-4.53,1.16-.54,3.94-1.21,6.69-1.59,.11-.02,.21-.07,.31-.11,2.91,.32,6.68,.64,11.58,.95,13.08,.82,30.45,1.27,48.93,1.27,2.09,0,4.16,0,6.2-.02,4.16-.02,8.42-1.22,12.55-2.38,3.51-.99,6.84-1.92,9.52-1.92,2.84,0,5.56,.87,8.19,1.71,2.79,.89,5.43,1.74,8.14,1.59,8.86-.47,25.62-3.07,26.17-7.22,.16-1.22-.73-2.16-2.63-2.77-.38-.12-.77-.23-1.16-.33,0,0,0,0,0,0-1.46-.36-3.06-.56-4.89-.61-.01,0-.02,0-.03,0-.64,0-1.17,.51-1.19,1.16-.02,.66,.5,1.21,1.16,1.23,1.66,.05,3.1,.22,4.39,.54,0,0,0,0,0,0,.34,.08,.67,.18,.99,.28,.4,.13,.66,.25,.82,.34-1.7,1.53-11.68,4.37-23.75,5.01-2.29,.12-4.72-.66-7.29-1.48-2.8-.9-5.7-1.82-8.91-1.82-3.01,0-6.48,.98-10.16,2.01-3.97,1.12-8.08,2.27-11.92,2.29-2.04,.01-4.1,.02-6.19,.02-40.61,0-65.28-2.09-68.02-3.64-.19-.4-.6-.68-1.08-.68-.66,0-1.19,.53-1.19,1.19,0,.73,0,1.5,3.24,2.28-3.22,1.05-3.24,2.16-3.24,2.67Z"/><path class="cls-32" d="M1095.81,678.32c-3.46-1.96-9.24-.97-15.93,.17-4.29,.73-8.72,1.49-12.86,1.52-.66,0-1.19,.54-1.18,1.2,0,.66,.54,1.18,1.19,1.18h0c4.33-.03,8.86-.81,13.24-1.56,5.98-1.02,11.63-1.99,14.35-.45,1.07,.61,1.25,.99,1.27,.99h0c-.96,2.74-24.94,6.53-67.51,6.53s-65.28-2.09-68.02-3.64c-.19-.4-.6-.68-1.08-.68-.66,0-1.19,.53-1.19,1.19,0,1.36,0,2.91,21.36,4.24,13.08,.82,30.45,1.27,48.93,1.27,6.92,0,67.69-.23,69.82-8.31,.35-1.33-.46-2.57-2.41-3.67Z"/><path class="cls-32" d="M1057.56,666.61v-5.05c0-.66-.53-1.19-1.19-1.19s-1.19,.53-1.19,1.19v5.05c0,.66,.53,1.19,1.19,1.19s1.19-.53,1.19-1.19Z"/><path class="cls-32" d="M1055.18,647.25v5.05c0,.66,.53,1.19,1.19,1.19s1.19-.53,1.19-1.19v-5.05c0-.66-.53-1.19-1.19-1.19s-1.19,.53-1.19,1.19Z"/><path class="cls-32" d="M1057.56,683.75v-7.16c0-.66-.53-1.19-1.19-1.19s-1.19,.53-1.19,1.19v7.16c0,.66,.53,1.19,1.19,1.19s1.19-.53,1.19-1.19Z"/></g></g><g class="cls-30"><path class="cls-32" d="M1031.15,493.56c-4.89-1.58-10.8-.88-17.07-.13-4.09,.49-8.33,1-12.4,.86-.73-.04-1.21,.49-1.23,1.15-.02,.66,.49,1.21,1.15,1.23,4.25,.14,8.58-.38,12.76-.88,5.99-.72,11.65-1.4,16.05,.03,.4,.13,.66,.25,.82,.34-1.7,1.53-11.68,4.37-23.75,5.01-2.42,.12-5.25-.75-8-1.59-2.73-.84-5.56-1.71-8.2-1.71-1.17,0-3.41,.59-6.51,1.4-4.64,1.21-10.99,2.88-15.57,2.9-2.04,.01-4.1,.02-6.19,.02-40.61,0-65.28-2.09-68.02-3.64-.19-.4-.6-.68-1.08-.68-.66,0-1.19,.53-1.19,1.19,0,.7,0,1.45,2.9,2.19-2.9,1.02-2.9,2.06-2.9,2.56,0,.35,.11,.88,.66,1.42,3.75,3.7,27.74,5.67,68.2,5.67,5.89,0,12.12-.04,18.7-.13,.66,0,1.19-.55,1.18-1.21,0-.66-.57-1.21-1.21-1.18-69.71,.9-82.45-3.18-84.75-4.53,1.14-.52,3.82-1.18,6.51-1.57,2.97,.34,6.89,.68,12.08,1,13.08,.82,30.45,1.27,48.93,1.27,2.09,0,4.16,0,6.2-.02,4.88-.03,11.4-1.73,16.16-2.98,2.59-.68,5.04-1.32,5.9-1.32,2.28,0,4.94,.82,7.5,1.6,2.95,.91,6.01,1.83,8.83,1.7,8.86-.47,25.62-3.07,26.17-7.22,.16-1.22-.73-2.16-2.63-2.77Z"/><path class="cls-32" d="M1031.15,479.67c-4.89-1.59-10.8-.88-17.07-.13-4.09,.49-8.33,1-12.4,.86-.73-.05-1.21,.49-1.23,1.15-.02,.66,.49,1.21,1.15,1.23,4.25,.14,8.58-.38,12.76-.88,5.99-.72,11.65-1.4,16.05,.03,.4,.13,.66,.25,.82,.34-1.7,1.53-11.68,4.37-23.75,5.01-2.29,.12-4.72-.66-7.29-1.48-2.8-.9-5.7-1.82-8.91-1.82-3.01,0-6.49,.98-10.16,2.01-3.97,1.12-8.08,2.27-11.91,2.29-2.04,.01-4.1,.02-6.19,.02-40.61,0-65.28-2.09-68.02-3.64-.19-.4-.6-.68-1.08-.68-.66,0-1.19,.53-1.19,1.19,0,.7,0,1.45,2.9,2.19-2.9,1.02-2.9,2.06-2.9,2.56,0,.35,.11,.88,.66,1.42,3.75,3.7,27.74,5.67,68.2,5.67,5.89,0,12.12-.04,18.7-.13,.66,0,1.19-.55,1.18-1.21,0-.66-.57-1.24-1.21-1.18-69.71,.9-82.45-3.18-84.75-4.53,1.14-.52,3.82-1.18,6.51-1.57,2.97,.34,6.89,.68,12.08,1,13.07,.82,30.45,1.27,48.93,1.27,2.09,0,4.16,0,6.2-.02,4.16-.02,8.42-1.22,12.55-2.38,3.51-.99,6.83-1.92,9.52-1.92,2.84,0,5.56,.87,8.19,1.71,2.79,.89,5.43,1.74,8.14,1.59,8.86-.47,25.62-3.07,26.17-7.22,.16-1.22-.73-2.16-2.63-2.77Z"/><path class="cls-32" d="M892.72,476.04c0,.35,.11,.88,.66,1.42,3.75,3.7,27.74,5.67,68.2,5.67,5.89,0,12.12-.04,18.7-.13,.66,0,1.19-.55,1.18-1.21,0-.66-.57-1.26-1.21-1.18-69.71,.9-82.45-3.18-84.75-4.53,1.16-.54,3.94-1.21,6.69-1.59,.11-.02,.21-.07,.31-.11,2.91,.32,6.68,.64,11.58,.95,13.08,.82,30.45,1.27,48.93,1.27,2.09,0,4.16,0,6.2-.02,4.16-.02,8.42-1.22,12.55-2.38,3.51-.99,6.84-1.92,9.52-1.92,2.84,0,5.56,.87,8.19,1.71,2.79,.89,5.43,1.74,8.14,1.59,8.86-.47,25.62-3.07,26.17-7.22,.16-1.22-.73-2.16-2.63-2.77-.38-.12-.77-.23-1.16-.33,0,0,0,0,0,0-1.46-.36-3.06-.56-4.89-.61-.01,0-.02,0-.03,0-.64,0-1.17,.51-1.19,1.16-.02,.66,.5,1.21,1.16,1.23,1.66,.05,3.1,.22,4.39,.54,0,0,0,0,0,0,.34,.08,.67,.18,.99,.28,.4,.13,.66,.25,.82,.34-1.7,1.53-11.68,4.37-23.75,5.01-2.29,.12-4.72-.66-7.29-1.48-2.8-.9-5.7-1.82-8.91-1.82-3.01,0-6.48,.98-10.16,2.01-3.97,1.12-8.08,2.27-11.92,2.29-2.04,.01-4.1,.02-6.19,.02-40.61,0-65.28-2.09-68.02-3.64-.19-.4-.6-.68-1.08-.68-.66,0-1.19,.53-1.19,1.19,0,.73,0,1.5,3.24,2.28-3.22,1.05-3.24,2.16-3.24,2.67Z"/><path class="cls-32" d="M1030.42,506.48c-3.46-1.96-9.24-.97-15.93,.17-4.29,.73-8.72,1.49-12.86,1.52-.66,0-1.19,.54-1.18,1.2,0,.66,.54,1.18,1.19,1.18h0c4.33-.03,8.86-.81,13.24-1.56,5.98-1.02,11.63-1.99,14.35-.45,1.07,.61,1.25,.99,1.27,.99h0c-.96,2.74-24.94,6.53-67.51,6.53s-65.28-2.09-68.02-3.64c-.19-.4-.6-.68-1.08-.68-.66,0-1.19,.53-1.19,1.19,0,1.36,0,2.91,21.36,4.24,13.08,.82,30.45,1.27,48.93,1.27,6.92,0,67.69-.23,69.82-8.31,.35-1.33-.46-2.57-2.41-3.67Z"/><path class="cls-32" d="M992.18,494.77v-5.05c0-.66-.53-1.19-1.19-1.19s-1.19,.53-1.19,1.19v5.05c0,.66,.53,1.19,1.19,1.19s1.19-.53,1.19-1.19Z"/><path class="cls-32" d="M989.79,475.42v5.05c0,.66,.53,1.19,1.19,1.19s1.19-.53,1.19-1.19v-5.05c0-.66-.53-1.19-1.19-1.19s-1.19,.53-1.19,1.19Z"/><path class="cls-32" d="M992.18,511.91v-7.16c0-.66-.53-1.19-1.19-1.19s-1.19,.53-1.19,1.19v7.16c0,.66,.53,1.19,1.19,1.19s1.19-.53,1.19-1.19Z"/></g><g><line class="cls-18" x1="896.74" y1="665.72" x2="878.87" y2="665.72"/><polygon class="cls-21" points="895.75 664.27 901.17 665.72 895.75 667.18 895.75 664.27"/></g><g><line class="cls-18" x1="947.37" y1="665.72" x2="929.51" y2="665.72"/><polygon class="cls-21" points="946.38 664.27 951.8 665.72 946.38 667.18 946.38 664.27"/></g><g><path class="cls-10" d="M889.2,479.89c-1.42-.49-4.2-1.83-4.2-4.78,0-3.97,2.51-5.73,2.51-5.73"/><polygon class="cls-33" points="888.13 478.24 888.99 479.82 887.4 480.67 888.44 480.98 890.02 480.13 889.16 478.55 888.13 478.24"/></g><g><path class="cls-10" d="M889.2,493.67c-1.42-.49-4.2-1.83-4.2-4.78,0-3.97,2.51-5.73,2.51-5.73"/><polygon class="cls-33" points="888.13 492.02 888.99 493.6 887.4 494.45 888.44 494.76 890.02 493.91 889.16 492.33 888.13 492.02"/></g><g><path class="cls-10" d="M889.2,507.45c-1.42-.49-4.2-1.83-4.2-4.78,0-3.97,2.51-5.73,2.51-5.73"/><polygon class="cls-33" points="888.13 505.8 888.99 507.38 887.4 508.24 888.44 508.54 890.02 507.69 889.16 506.11 888.13 505.8"/></g><g><path class="cls-10" d="M1037.31,488.95c1.42-.49,4.2-1.83,4.2-4.78,0-3.97-2.51-5.73-2.51-5.73"/><polygon class="cls-33" points="1039.11 489.74 1037.53 488.88 1038.38 487.3 1037.35 487.61 1036.49 489.19 1038.07 490.05 1039.11 489.74"/></g><g><path class="cls-10" d="M1037.31,475.17c1.42-.49,4.2-1.83,4.2-4.78,0-3.97-2.51-5.73-2.51-5.73"/><polygon class="cls-33" points="1039.11 475.95 1037.53 475.1 1038.38 473.52 1037.35 473.83 1036.49 475.41 1038.07 476.26 1039.11 475.95"/></g><g><path class="cls-10" d="M1037.31,502.73c1.42-.49,4.2-1.83,4.2-4.78,0-3.97-2.51-5.73-2.51-5.73"/><polygon class="cls-33" points="1039.11 503.52 1037.53 502.66 1038.38 501.08 1037.35 501.39 1036.49 502.97 1038.07 503.83 1039.11 503.52"/></g><g><path class="cls-10" d="M1037.31,516.51c1.42-.49,4.2-1.83,4.2-4.78,0-3.97-2.51-5.73-2.51-5.73"/><polygon class="cls-33" points="1039.11 517.3 1037.53 516.44 1038.38 514.86 1037.35 515.17 1036.49 516.75 1038.07 517.61 1039.11 517.3"/></g><text class="cls-25" transform="translate(884.72 457.73)"><tspan x="0" y="0">3</tspan></text><text class="cls-25" transform="translate(1031.2 455.44)"><tspan x="0" y="0">4</tspan></text><g><path class="cls-17" d="M836.95,686.15c.42-.01,.89-.02,1.43-.02"/><path class="cls-17" d="M841.73,714.44c-.67-14.09,.8-22.81,.94-25.35,.13-2.55,.54-2.95-4.29-2.95"/><path class="cls-17" d="M836.72,656.78c.47-.02,1.02-.03,1.66-.03"/><path class="cls-17" d="M841.73,685.06c-.67-14.09,.8-22.81,.94-25.35,.13-2.55,.54-2.95-4.29-2.95"/><path class="cls-17" d="M837.42,627.39c.29,0,.61,0,.95,0"/><path class="cls-17" d="M841.73,655.68c-.67-14.09,.8-22.81,.94-25.35,.13-2.55,.54-2.95-4.29-2.95"/><path class="cls-17" d="M835.02,626.3c.67-14.09-.8-22.81-.94-25.35-.13-2.55-.54-2.95,4.29-2.95"/><path class="cls-17" d="M841.73,626.3c-.67-14.09,.8-22.81,.94-25.35,.13-2.55,.54-2.95-4.29-2.95"/><path class="cls-17" d="M851.5,686.17c.52-.03,1.13-.04,1.88-.04"/><path class="cls-17" d="M856.73,714.44c-.67-14.09,.8-22.81,.94-25.35,.13-2.55,.54-2.95-4.29-2.95"/><path class="cls-17" d="M834.8,697.42c-2.9,0-2.66,.24-2.58,1.77,.08,1.53,.97,6.78,.56,15.25"/><path class="cls-17" d="M834.8,697.42s.03,0,.05,0"/><path class="cls-17" d="M836.82,714.44c-.4-8.47,.48-13.72,.56-15.25,.08-1.52,.32-1.77-2.53-1.77"/><path class="cls-17" d="M834.8,679.69c-2.9,0-2.66,.24-2.58,1.78,.08,1.53,.97,6.78,.56,15.25"/><path class="cls-17" d="M834.8,679.69c.13,0,.26,0,.38,0"/><path class="cls-17" d="M836.95,686.15c-.19,2.6-.34,6.13-.13,10.56"/><path class="cls-17" d="M836.95,686.15c.18-2.37,.4-3.96,.44-4.69,.08-1.46,.29-1.75-2.2-1.77"/><path class="cls-17" d="M834.8,661.96c-.18,0-.35,0-.51,0"/><path class="cls-17" d="M834.3,661.96c-2.37,.03-2.15,.33-2.07,1.77,.08,1.53,.97,6.78,.56,15.25"/><path class="cls-17" d="M836.82,678.98c-.4-8.47,.48-13.72,.56-15.25,.08-1.53,.32-1.77-2.58-1.77"/><path class="cls-17" d="M834.8,644.23c-2.9,0-2.66,.24-2.58,1.77,.08,1.53,.97,6.78,.56,15.25"/><path class="cls-17" d="M836.72,656.78c0-5.86,.6-9.53,.67-10.78,.08-1.47,.3-1.75-2.25-1.77"/><path class="cls-17" d="M834.8,644.23c.12,0,.22,0,.33,0"/><path class="cls-17" d="M836.72,656.78c0,1.37,.03,2.86,.1,4.47"/><path class="cls-17" d="M834.8,626.5c-2.9,0-2.66,.24-2.58,1.78,.08,1.53,.97,6.78,.56,15.25"/><path class="cls-17" d="M836.82,643.53c-.4-8.47,.48-13.72,.56-15.25,.02-.37,.05-.66,.04-.89"/><path class="cls-17" d="M837.42,627.39c-.02-.74-.41-.88-2.62-.88"/><path class="cls-17" d="M852.63,656.76c.24,0,.48,0,.75,0"/><path class="cls-17" d="M856.73,685.06c-.67-14.09,.8-22.81,.94-25.35,.13-2.55,.54-2.95-4.29-2.95"/><path class="cls-17" d="M856.73,655.68c-.67-14.09,.8-22.81,.94-25.35,.13-2.47,.5-2.92-3.86-2.95"/><path class="cls-17" d="M848.44,689.29c-4.35-.17-4,.2-3.98,2.5,.03,2.3,1.04,10.22-.07,22.89"/><path class="cls-17" d="M850.44,714.92c-.09-12.72,1.55-20.53,1.76-22.82,.2-2.17,.54-2.6-3.1-2.78"/><path class="cls-17" d="M848.44,689.29c.24,0,.45,.02,.66,.03"/><path class="cls-17" d="M845.46,688.2c1.11-12.67,.1-20.58,.07-22.89-.03-2.28-.36-2.67,3.86-2.51"/><path class="cls-17" d="M849.39,662.81s.07,0,.11,0"/><path class="cls-17" d="M851.5,686.17c0,.74,0,1.49,0,2.27"/><path class="cls-17" d="M851.5,686.17c.1-11.38,1.56-18.4,1.76-20.55,.21-2.29,.59-2.64-3.76-2.82"/><path class="cls-17" d="M849.67,636.3c-3.39-.08-3.1,.4-3.08,2.53,.03,2.3,1.04,10.22-.07,22.89"/><path class="cls-17" d="M849.67,636.3c.28,0,.57,.02,.9,.03"/><path class="cls-17" d="M852.63,656.76c.29-9.65,1.52-15.66,1.7-17.62,.21-2.29,.59-2.64-3.76-2.82"/><path class="cls-17" d="M852.63,656.76c-.05,1.63-.08,3.36-.06,5.2"/><path class="cls-17" d="M847.58,635.24c1.11-12.67,.1-20.58,.07-22.89-.02-1.93-.26-2.51,2.24-2.54"/><path class="cls-17" d="M851.63,609.85c-.7-.03-1.26-.04-1.74-.03"/><path class="cls-17" d="M851.63,609.85c4.35,.17,3.98,.52,3.76,2.82-.16,1.76-1.16,6.76-1.58,14.72"/><path class="cls-17" d="M853.63,635.48c-.02-2.98,.05-5.67,.18-8.1"/><path class="cls-17" d="M824.61,674.49s5.54,8.94,8.18,22.22"/><path class="cls-17" d="M862.32,659.36s-4.64,3.63-5.54,10.59"/><path class="cls-17" d="M826.23,621.5s5.47,5.23,6.42,11.4"/><path class="cls-17" d="M850.76,704.48s7.4-12.76,17.73-16.28"/><path class="cls-17" d="M825.97,676.97s-1.52-6.43,2.73-9.65c0,0,1.23,6.57-1.93,9.26"/><path class="cls-17" d="M828.93,683.57s-3.77-3.58-8.73-1.17c0,0,1.74,4.09,7.58,1.81"/><path class="cls-17" d="M863.06,690.98s-2.41-6.23,1.61-9.99c0,0,1.95,4.49-.67,8.65"/><path class="cls-17" d="M853.81,700.04s4.62-1.68,7.03,2.08c0,0-2.63,1.32-6.1-.87"/><path class="cls-17" d="M867.54,688.55s5.71-.65,8.33,5.45c0,0-6.14,1.08-8.33-4.23"/><path class="cls-17" d="M858.48,664.39s2.63-2.12,6.12,.27c0,0-1.88,1.83-5.37,.7"/><path class="cls-17" d="M861.18,660.46s-1.41-4.48,1.14-6.43c0,0,1.14,2.85-.42,5.33"/></g><line class="cls-17" x1="910.02" y1="699.67" x2="910.02" y2="714.44"/><line class="cls-17" x1="912.89" y1="690.77" x2="912.89" y2="714.44"/><line class="cls-17" x1="912.89" y1="662.65" x2="912.89" y2="686.32"/><line class="cls-17" x1="912.89" y1="634.53" x2="912.89" y2="658.2"/><line class="cls-17" x1="912.89" y1="606.41" x2="912.89" y2="630.08"/><line class="cls-17" x1="922.01" y1="690.77" x2="922.01" y2="714.44"/><line class="cls-17" x1="922.01" y1="662.65" x2="922.01" y2="686.32"/><line class="cls-17" x1="922.01" y1="634.53" x2="922.01" y2="658.2"/><line class="cls-17" x1="919.9" y1="692.41" x2="919.9" y2="714.44"/><line class="cls-17" x1="919.9" y1="666.23" x2="919.9" y2="688.26"/><line class="cls-17" x1="919.9" y1="640.05" x2="919.9" y2="662.08"/><line class="cls-17" x1="919.9" y1="613.87" x2="919.9" y2="635.9"/><line class="cls-17" x1="910.02" y1="683.38" x2="910.02" y2="698.16"/><line class="cls-17" x1="910.02" y1="667.1" x2="910.02" y2="681.87"/><line class="cls-17" x1="910.02" y1="650.81" x2="910.02" y2="665.58"/><line class="cls-17" x1="910.02" y1="634.53" x2="910.02" y2="649.3"/><rect class="cls-17" x="1042.25" y="631.09" width="28.24" height="68.99"/><text class="cls-19" transform="translate(927.25 548.19)"><tspan x="0" y="0">左三右四曲線</tspan></text><text class="cls-19" transform="translate(915.25 754.79)"><tspan x="0" y="0">簡化之意象性竹節</tspan></text></g><g><g><g><path class="cls-24" d="M720.25,171.47v-.4l-.58,.43-3.04-.46,1.73-12.24-.13-2.04c0-7.28-5.6-7-10.27-9.47l-1.41,.4,1.89,11.47-.07,10.89h-.6l.24,1.81-.04,1.22c-1.9,0-4.61,1.41-4.63,1.41h-2.81l-1.64-8.65c-1.87,1.26-3.28,3.75-3.82,6.42-.32,1.55-2,7.07-2,8.08v2.62c0,2.3,2.04,5.04,4.43,5.04h2.42c.27-3.16,5.75-5.32,8.49-6.22,3.21-1.06,7.67-3.05,11.65-3.05h5.43v3.63c0,1.87-.92,4.23,1.22,4.23h2.61c2.66,0,3.43-6.53,3.43-9.47v-3.83c0-5.65-4.6-8.93-5.44-12.09-.58,.43-.5,1.01-1.21,1.01h-.81v3.83l.37,5.85-2.92-1.2-.06,.79h-2.42Z"/><path class="cls-24" d="M691.9,285.7c0,.97,3.13,3.91,3.68,6.28,.39-.26,.38-.43,.87-.43,.8,0,.84,.65,1.52,.65h2.81c.69,0,1.52-1.1,1.52-1.95v-.43c0-2.7-2.89-5.63-5.63-5.63h-.87c-1.11,0-3.9,.58-3.9,1.51h0Zm30.97-4.11c-.35,.96-3.09,1.27-4.34,1.3,.23-2.77,1.12-4.4-.8-6.12-.93-.82-3.71-2.54-5.26-2.54-4.07,0,.22,2.99,.22,4.98,0,3.01-6.71,7.47-6.71,9.74v1.08c0,1.2,1.27,3.03,2.6,3.03h1.08c6.3,0,12.58-6.06,15.81-6.06,.88,0,1.65,.48,2.38,.65,.25-.48,.65-1.06,.65-1.73v-1.08c0-1.39-1.56-3.25-3.03-3.25h-2.6Zm3.68,38.33c-.13,0-.45,.3-.66,.43,0,4.82-1.41,8.01-6.27,8.01h-3.47c-1.34,0-5.73-1.43-6.77-1.98l.49-1.06c2.25,0,4.59,.37,4.77-1.73h1.51c.79,0,.65,.55,.8,1.36l.5-1.36,1.55-.02-.47-.62c1.34-.12,2.6-1.21,2.6-2.6v-.84l-6.06-.46h-3.04c-2.03,0-3.39,.87-4.98,.87-1.13,0-2.95-.92-3.83-1.37-1.32-.68-1.37-2.2-1.37-4.05,0-.25,.52-1.41,.65-1.92l-1.94-.24h-.89s-.63,6.71-.63,6.71c-1.13,.76-1.6,1.95-3.68,1.95-.79,0-1.21-.18-1.73-.43,0-2.4,0-4.35-.61-6.1-1.03-2.9-2.42-1.16-2.42-4.3v-1.08c0-1.44,3.39-6.95,4.33-7.58,.63,.42,1.3,.91,1.3,1.95v2.16c0,1.12-.68,2.49-1.01,3.21l1.88,3.28c.14-.61,.43-1.1,.43-1.73,0-.72-.65-1.66-.72-2.49l2.61-3.56,.49,1.94c1.43-.34,6.56-2.02,7.08-3.09,.72-1.47,2.77-5.75,3.09-7.09h1.51c.51,0,.87,.36,.87,.86v.65c0,2.57-1.73,1.96-1.71,4.58l1.49-.9h2.17c-.16-.35-1.32-2.69-1.36-2.83l.5-3.26,2.21,.65-.49-1.94c.72-1.08,4.26-3.47,6.07-3.47h1.72c3.48,0,4.55,3.22,4.55,6.93l-.11,.25,2.52,.85-.46,.62h1.3v.44l-2.6,.8,3.9,.28-1.51-2.17h2.16c.41,1.56,2.38,1.1,2.38,3.68v1.51c0,.73-.38,1.52-1.08,1.52h-.66c-1,0-1.23-.65-2.6-.65h-2.16c-1.82,0-1.74,7.04-1.74,9.31v1.08c2.44,0,4.99,1.3,4.99,3.68,0,1.08-.87,1.94-1.52,2.38-.96-.22-3.12-1.08-3.89-1.08h0Zm-9.31-23.82l-.98,.13,3.36,2.83,2.36,.5,.45-.86c.91,.02,1.3,.44,1.3-.43v-2.17c0-.73-.39-1.52-1.09-1.52-1.58,0-4.14,1.52-5.41,1.52h0Zm2.16,11.48h-1.51c-.95,0-.77-.43-2.38-.43,1.46,2.75,2.52,1.53,4.01,4.46l-2.49,3.15,1.94-.24h3.87s.68-8.67,.68-8.67c-2.15,.05-1.51,1.73-4.12,1.73h0Zm-14.29,6.93l8.5-.46-2.22-4.96h.65v-.65c-2.35,.2-6.74,3.75-6.93,6.07h0Z"/><path class="cls-24" d="M835.6,172.78c-1.01,0-4.25,3.17-4.85,3.98-1.36,1.82-.08,5.12-.08,7.31,1.85,0,3.69-.9,3.69-2.67v-.62c4.66,0,10.93,.52,14.74,1.48,3.2,.8,9.19,5.71,10.3,5.71h1.64c1.85,0,4.47-1.86,6.73-2.31,2.14-.42,5.12-1.29,5.18-3.85-4.15-.96-3.02-2.47-8.83-2.47-3.47,.01-6.31-1.1-9.16-1.93-2-.58-7.48-1.53-9.54-1.75-1.78-.19-3.39-.22-5.32-.22-1.23,0-1.98,.33-2.28-.6-.18-.56-.55-1.55-.6-2.07h-1.64Zm5.8-2.42l-2.08-.55-.02,.51,1.84,.24c.81,.08,.84-1.13,1.86-.66l.18-2.05h1.87c-.49,.74-1.03,.55-1.03,1.23,0,.44,.07,.27,.21,.82,2.48-1.31,9.18-6.57,12.31-6.57,2.14-1.43,3.78-2.88,7.39-2.88,.99-.66,1.85-1,1.85-2.67v-1.03c0-1.58-3.39-4.93-4.93-4.93h-.41c-1.53,0-2.29,1.03-3.9,1.03h-.82c-.74,0-1.15-.17-1.64-.41l-1.41,.68c-.1-3-2.85-5.81-5.98-5.81h-.41c-2.45,0-3.32,1.44-5.34,1.44l-.24,1.64c-.11,.85,3.93,1.79,3.93,3.7,0,.15-1.02,1.12-1.23,1.44h1.23l.7,1.19-1.31-.21,.16,.2-1.68,1.83c-.51-.07-.28-.14-.75-.14-.3,0-4.14,2.77-4.99,3.21-1.92,1.01-3.63,1.73-3.63,4.58,0,1.52,1.31,4.11,2.87,4.11,2.1,0,7.36-6.85,8.98-8.47,3.6-3.6,3.3-1.13,5.93-2.9,1.82-1.23,2.9-2.8,5.83-2.8-1.58,2.36-10.06,6.25-10.26,8.63l-1.02-.22-.83,1.65h.62v.62h-.82l-1.84,.23,.6,.4-1.06,1.18,.7,.29-1.44,1.44h0Zm4.67-3.74l-.46-1.01,1.69,1.22-.57,.65-.04-.45-1.21,.45,.59-.86h0Z"/><path class="cls-24" d="M866.3,278.78c.03,1.33,.52,2.85,.64,3.9,.13,1.16,.01,3.05,.01,4.3,0,2.68-.26,5.4-.22,8.4l.28,24.78-2.56,2.9-6.53,.67c1.05,1.89,4.92,3.55,7.96,3.55h2.8c1.64,0,3.23-.93,3.23-2.58,0-4.37-1.92-7.78-1.94-11.42l-.1-31.46c.09-2.21-.36-6.47-2.48-6.47h-1.29c-1.32,0-1.78,1.17-3.23,1.51v1.51c0,.42-.07,.39-.21,.67l1.93-.29,1.73,.04h0Zm-19.17,7.33c0-1.31,.4-1.97,.65-3.01-.65-1.22-1.13-2.37-3.02-2.37-2.27,0-6.03,2-6.03,3.88,0,.26,.44,.64,.86,.64h1.29c1.36,0,1.6-.64,2.59-.64h.65v1.94c0,2.69-3.61,5.4-6.04,5.6v-.86c0-.84,1.08-.64,1.08-2.59,0-1.45-1.53-2.81-3.02-2.59l-1.94,.24v.84c0,.77,.47,.57,1.07,.86,0,3.2-.89,5-1.07,7.54-.1,1.28-.56,2.39-.65,3.66-.09,1.34-.06,2.75-.26,4.05-.29,1.9-.98,5.77-1.03,7.59-.03,1.01-.25,3.03-.38,3.92-.14,.97-.69,3.21-.69,3.4v1.3c0,1.5,.65,1.44,.65,3.66,.58,.31,1.34,1.08,1.72,1.08h.65c1.22,0,2.58-1.59,2.58-2.8v-.65c0-.8-1.94-1.48-1.94-3.88v-.65l1.33-13.14h.18s0,1.29,0,1.29c.71,.48,2.71,1.94,3.66,1.94,2.42,0,7.03-4.05,9.05-4.52,0-1.96-1.08-3.42-1.08-4.95v-2.81c0-.79,.65-.5,.65-1.29,0-2.83-1.51-4.25-1.51-6.25v-.43h0Zm-5.6,11.42s1.58-.79,1.72-.86v1.08c-.22,.33-.29,.65-.86,.65h-.43c-.94,0-1.73-.52-1.94-1.29,.95,.08,.94,.43,1.51,.43h0Zm-4.96,3.23c0-1.48-.36-4.09,1.08-4.09h.21c1.04,0,3.45,2.43,3.45,3.01,0,.32-2.77,1.4-3.24,1.51l1.16-1.89-2.66,1.46h0Zm29.73-17.02v4.31c-3.48,.08-2.86,3.02-7.11,3.02-.31,.47-.65,.72-.65,1.51v1.51c1.06-.08,.79-.43,1.73-.43h1.29c.59,0,3.28,1.23,3.88,1.51-.23,.87-.65,.71-.65,1.73v2.15h-1.72c-2.02,0-6.13,1.66-6.89,2.8,5.84,0,2.68,5.27,3.02,7.75l.86,7.11v.22c0,1.21-1.4,3.45-2.81,3.45h-.21c-2.13,0-2.44-1.72-3.01-1.72-1.9,0-3.92,1.08-6.46,1.08h-1.29c-.11-1.34-2.59-2.58-2.59-5.17,0-4.48,.36-6.72,1.94-9.7,.8,.42,4.83,3.45,5.17,3.45h.22c1.14,0,1.53-.86,2.15-.86h.43c.49,0,1.69,1.08,2.59,1.29l-.03-3.77-6,1.61v-.63s-1.56-.28-1.56-.28l3.06-3.19c-.91,0-2.24-.18-2.21-1.08l.22-3.49,2.78-2.98,1.15-10.55v-.86c0-1.03-.65-1.12-.65-2.15v-.22c0-.95,1.38-1.08,2.37-1.08h1.72c1.7,0,2.58,2.09,2.58,3.88v1.29c1.7-.03,2.75-1.51,4.09-1.51h2.59Zm-16.37,29.09c-.26,.39-.43,.38-.43,.86v.65h1.07c1.24,0,1.78-.65,2.37-.65,.63,0,2.46,1.5,3.45,1.73v-6.04c-2.42,1.78-.36,3.45-6.46,3.45h0Z"/></g><g><path class="cls-21" d="M778.55,227.09c-7.48,0-14.96-.1-22.25-.3-.88-.02-1.58-.76-1.56-1.65,.02-.88,.75-1.61,1.65-1.56,12.84,.35,26.41,.39,39.19,.13,1.98-.04,3.13-1.23,4.99-3.32,2.28-2.56,5.12-5.76,11.07-5.76,4.54,0,7.78,2.8,10.39,5.05,1.66,1.43,3.24,2.77,4.38,2.7,5.14-.35,9.99-.76,14.44-1.21,.89-.09,1.67,.55,1.76,1.43,.09,.88-.55,1.67-1.43,1.76-4.48,.46-9.38,.87-14.55,1.22-2.48,.17-4.53-1.6-6.7-3.48-2.43-2.1-4.94-4.27-8.29-4.27-4.51,0-6.53,2.27-8.67,4.68-1.89,2.12-3.84,4.32-7.31,4.39-5.58,.12-11.34,.18-17.1,.18Z"/><path class="cls-21" d="M864.3,220.59c-.7,0-1.34-.46-1.54-1.17-.24-.85,.26-1.74,1.11-1.98,3.79-1.07,4.9-1.92,5.21-2.24-.42-.45-2.38-1.89-10.79-3.53-.87-.17-1.44-1.01-1.27-1.88,.17-.87,1.01-1.44,1.88-1.27,11.87,2.3,13.47,4.67,13.47,6.68,0,2.19-2.35,3.84-7.63,5.32-.14,.04-.29,.06-.43,.06Z"/><path class="cls-21" d="M716.09,224.37c-.05,0-.11,0-.17,0-10.4-1.07-18.33-2.36-23.56-3.83-.85-.24-1.35-1.12-1.11-1.98,.24-.85,1.13-1.35,1.98-1.11,4.99,1.4,12.95,2.69,23.02,3.73,.88,.09,1.52,.88,1.43,1.76-.09,.83-.78,1.44-1.59,1.44Z"/><path class="cls-21" d="M714.06,231.71c-.06,0-.12,0-.18,0-9.41-1.03-16.65-2.24-21.53-3.61-.85-.24-1.35-1.12-1.11-1.98,.24-.85,1.13-1.35,1.98-1.11,4.64,1.31,11.9,2.52,21.01,3.51,.88,.1,1.52,.89,1.42,1.77-.09,.82-.78,1.43-1.59,1.43Z"/><path class="cls-21" d="M709.91,238.78c-.07,0-.13,0-.2-.01-7.41-.92-13.25-1.97-17.36-3.13-.85-.24-1.35-1.13-1.11-1.98s1.12-1.35,1.98-1.11c3.95,1.11,9.63,2.13,16.88,3.03,.88,.11,1.5,.91,1.39,1.79-.1,.81-.79,1.41-1.59,1.41Z"/><path class="cls-21" d="M703.78,244.96c-.08,0-.16,0-.25-.02-4.54-.7-8.3-1.47-11.17-2.27-.85-.24-1.35-1.13-1.11-1.98,.24-.85,1.12-1.35,1.98-1.11,2.74,.77,6.38,1.51,10.79,2.19,.88,.14,1.48,.95,1.34,1.83-.12,.79-.8,1.36-1.58,1.36Z"/><path class="cls-21" d="M841.01,224.37c-.81,0-1.51-.61-1.59-1.44-.09-.88,.55-1.67,1.43-1.76,10.07-1.03,18.03-2.32,23.02-3.73,.85-.24,1.74,.26,1.98,1.11,.24,.85-.26,1.74-1.11,1.98-5.24,1.47-13.16,2.76-23.56,3.83-.06,0-.11,0-.17,0Z"/><path class="cls-21" d="M778.55,234.64c-9.66,0-19.21-.17-28.39-.5-.88-.03-1.58-.77-1.54-1.66,.03-.89,.79-1.57,1.66-1.54,9.14,.33,18.65,.5,28.27,.5,7.39,0,14.75-.1,21.87-.29,1.53-.04,3.43-.78,5.28-1.49,1.98-.77,4.03-1.56,5.93-1.64,2.21-.08,4.09,.62,5.75,1.25,1.5,.57,2.8,1.07,4.2,.98,6.96-.41,13.45-.92,19.27-1.52,.88-.09,1.67,.55,1.76,1.43,.09,.88-.55,1.67-1.43,1.76-5.87,.6-12.4,1.12-19.41,1.53-2.08,.12-3.83-.54-5.53-1.19-1.5-.57-2.92-1.12-4.48-1.04-1.38,.06-3.17,.75-4.91,1.42-2.1,.81-4.27,1.65-6.35,1.71-7.15,.19-14.54,.29-21.95,.29Z"/><path class="cls-21" d="M841.01,231.92c-.81,0-1.51-.61-1.59-1.44-.09-.88,.55-1.67,1.43-1.76,10.07-1.03,18.03-2.32,23.02-3.73,.85-.24,1.74,.26,1.98,1.11,.24,.85-.26,1.74-1.11,1.98-5.24,1.47-13.17,2.76-23.56,3.83-.06,0-.11,0-.17,0Z"/><path class="cls-21" d="M864.3,228.15c-.7,0-1.34-.46-1.54-1.17-.24-.85,.26-1.74,1.11-1.98,4.31-1.21,5.16-2.15,5.3-2.34,.05-.84,.75-1.5,1.6-1.5s1.6,.72,1.6,1.6c0,2.19-2.35,3.83-7.63,5.32-.15,.04-.29,.06-.44,.06Z"/><path class="cls-21" d="M864.3,235.7c-.7,0-1.34-.46-1.54-1.17-.24-.85,.26-1.74,1.11-1.98,4.31-1.21,5.16-2.15,5.3-2.34,.05-.84,.75-1.5,1.6-1.5s1.6,.72,1.6,1.6c0,2.19-2.35,3.84-7.63,5.32-.14,.04-.29,.06-.43,.06Z"/><path class="cls-21" d="M778.55,242.2c-12.39,0-24.43-.27-35.76-.8-.88-.04-1.57-.79-1.53-1.68,.04-.88,.78-1.56,1.68-1.53,11.29,.53,23.27,.8,35.61,.8,37.36,0,71.64-2.59,85.32-6.44,.85-.24,1.74,.26,1.98,1.11,.24,.85-.26,1.74-1.11,1.98-14.15,3.98-47.98,6.56-86.19,6.56Z"/><path class="cls-21" d="M778.55,249.75c-15.57,0-30.98-.44-44.56-1.28-.88-.05-1.56-.81-1.5-1.7,.05-.88,.8-1.54,1.7-1.5,13.52,.83,28.86,1.27,44.37,1.27,23.68,0,46.16-1,63.31-2.81,24.28-2.57,27.05-5.58,27.31-5.96,.05-.84,.75-1.5,1.6-1.5s1.6,.72,1.6,1.6c0,2.33-2.52,3.99-8.44,5.55-4.72,1.24-11.45,2.36-19.99,3.31-17.48,1.95-40.7,3.02-65.39,3.02Z"/></g><g><path class="cls-21" d="M757.09,172.27l-.5-.29c-.33-.19-.61-.48-.82-.87s-.37-.86-.46-1.43l1.3-.85c.1,.46,.25,.81,.46,1.05s.46,.36,.76,.36,.55-.1,.72-.3c.17-.2,.26-.48,.26-.85v-.51c0-.26-.05-.48-.15-.65s-.23-.3-.39-.4c-.16-.1-.37-.21-.63-.32-.01-.01-.02-.02-.03-.02s-.02,0-.02-.01l-.07-.02c-.43-.19-.77-.39-1.04-.59-.27-.2-.5-.52-.69-.94-.19-.42-.28-.99-.28-1.7v-.32c0-.67,.09-1.24,.28-1.72s.46-.84,.82-1.09c.36-.25,.79-.38,1.3-.38,.39,0,.73,.09,1.02,.28,.29,.18,.54,.46,.74,.83,.2,.37,.34,.83,.44,1.38l-1.24,.86c-.1-.44-.24-.77-.42-1-.18-.23-.39-.34-.62-.34-.3,0-.53,.09-.69,.28-.16,.19-.24,.45-.24,.78v.39c0,.29,.05,.52,.16,.7,.11,.18,.24,.32,.4,.42,.16,.1,.38,.22,.65,.36,.03,0,.05,.01,.07,.03,.02,.01,.04,.03,.06,.04,.02,0,.04,.01,.05,.02s.03,.01,.05,.02c.39,.18,.71,.38,.97,.58,.26,.21,.47,.51,.64,.92,.17,.41,.26,.95,.26,1.62v.5c0,.67-.1,1.24-.29,1.72-.19,.48-.47,.84-.84,1.09-.37,.25-.81,.38-1.32,.38h-.66Z"/><path class="cls-21" d="M763.44,160.54h1.39v11.61h-1.39v-11.61Zm.65,4.89h3.57v1.97h-3.57v-1.97Zm2.67-4.89h1.39v11.61h-1.39v-11.61Z"/><path class="cls-21" d="M773.43,160.54h.93l2.42,11.61h-1.45l-1.44-7.76-1.44,7.76h-1.45l2.42-11.61Zm-1.07,7.8h3.11v1.98h-3.11v-1.98Z"/><path class="cls-21" d="M779.75,160.54h1.41l2.37,8.31-.14,.26v-8.58h1.31v11.6h-1.43l-2.35-8.03,.13-.26v8.29h-1.3v-11.6Z"/><path class="cls-21" d="M788.24,160.54h1.39v11.61h-1.39v-11.61Zm.65,4.89h3.57v1.97h-3.57v-1.97Zm2.67-4.89h1.39v11.61h-1.39v-11.61Z"/><path class="cls-21" d="M798.23,160.54h.93l2.42,11.61h-1.45l-1.44-7.76-1.44,7.76h-1.45l2.42-11.61Zm-1.07,7.8h3.11v1.98h-3.11v-1.98Z"/><path class="cls-21" d="M805.86,172.15h-1.42v-11.61h1.42v11.61Z"/></g><g><path class="cls-21" d="M752.06,299.38h1.39v11.61h-1.39v-11.61Zm.64,5.1h1.93c.14,0,.26-.05,.37-.14,.11-.1,.19-.24,.25-.42s.09-.39,.09-.63v-.69c0-.24-.03-.46-.09-.65s-.14-.33-.25-.43c-.11-.1-.23-.15-.37-.15h-1.93v-2h1.93c.44,0,.82,.12,1.14,.37,.32,.25,.57,.6,.74,1.07,.17,.46,.26,1.01,.26,1.64v.99c0,.62-.09,1.16-.26,1.62s-.42,.81-.74,1.05c-.32,.25-.7,.37-1.14,.37h-1.93v-2Z"/><path class="cls-21" d="M760.95,310.69c-.35-.28-.62-.7-.8-1.24s-.28-1.2-.28-1.96v-8.11h1.4v8.16c0,.47,.08,.84,.25,1.11s.4,.4,.7,.4,.54-.13,.71-.4,.25-.63,.25-1.11v-8.16h1.4v8.11c0,.76-.09,1.41-.28,1.96-.19,.54-.46,.96-.81,1.24-.35,.28-.78,.43-1.27,.43s-.92-.14-1.27-.43Z"/><path class="cls-21" d="M767.9,299.38h1.39v11.61h-1.39v-11.61Zm.56,0h3.78v2.02h-3.78v-2.02Zm0,4.84h3.35v2h-3.35v-2Zm0,4.75h3.78v2.02h-3.78v-2.02Z"/><path class="cls-21" d="M775.45,299.38h1.38v11.62h-1.38v-11.62Zm.59,4.82h2.05c.13,0,.25-.04,.35-.13,.1-.09,.18-.21,.23-.37,.05-.16,.08-.35,.08-.56v-.65c0-.22-.03-.42-.08-.59-.05-.17-.13-.3-.22-.38-.1-.09-.22-.13-.35-.13h-2.05v-2h2.07c.43,0,.79,.12,1.11,.37,.31,.24,.55,.6,.72,1.06,.17,.46,.25,1,.25,1.63v.68c0,.63-.08,1.18-.25,1.65s-.41,.82-.72,1.07c-.31,.25-.68,.38-1.11,.38h-2.07v-2Zm1.36,1.64l1.39-.37,1.67,5.52h-1.6l-1.46-5.15Z"/><path class="cls-21" d="M783.7,299.38h1.39v11.61h-1.39v-11.61Zm.65,4.89h3.57v1.97h-3.57v-1.97Zm2.67-4.89h1.39v11.61h-1.39v-11.61Z"/><path class="cls-21" d="M791.57,299.38h4.8v2h-4.8v-2Zm1.7,.97h1.4v10.64h-1.4v-10.64Z"/><path class="cls-21" d="M799.31,299.38h1.39v11.61h-1.39v-11.61Zm.56,0h3.78v2.02h-3.78v-2.02Zm0,4.84h3.35v2h-3.35v-2Zm0,4.75h3.78v2.02h-3.78v-2.02Z"/><path class="cls-21" d="M808.71,299.38h.93l2.42,11.61h-1.45l-1.44-7.76-1.44,7.76h-1.45l2.42-11.61Zm-1.07,7.8h3.11v1.98h-3.11v-1.98Z"/></g></g><g><g><path class="cls-24" d="M1034.93,289.15v-.32l-.46,.35-2.44-.37,1.39-9.82-.1-1.63c0-5.84-4.49-5.62-8.24-7.59l-1.13,.32,1.52,9.2-.06,8.74h-.48l.19,1.45-.04,.98c-1.52,0-3.7,1.13-3.72,1.13h-2.26l-1.31-6.94c-1.5,1.01-2.63,3.01-3.07,5.15-.25,1.24-1.6,5.67-1.6,6.48v2.1c0,1.85,1.64,4.04,3.55,4.04h1.94c.21-2.54,4.61-4.26,6.81-4.99,2.57-.85,6.15-2.44,9.35-2.44h4.36v2.91c0,1.5-.74,3.39,.98,3.39h2.09c2.13,0,2.75-5.24,2.75-7.6v-3.07c0-4.53-3.69-7.17-4.37-9.7-.46,.34-.4,.81-.97,.81h-.65v3.07l.29,4.69-2.34-.96-.05,.63h-1.94Z"/><path class="cls-24" d="M1073.59,273.58c0,.78,2.51,3.13,2.95,5.04,.32-.21,.31-.35,.7-.35,.64,0,.68,.52,1.22,.52h2.26c.56,0,1.22-.89,1.22-1.56v-.35c0-2.16-2.32-4.52-4.52-4.52h-.69c-.89,0-3.13,.47-3.13,1.21h0Zm24.84-3.3c-.28,.77-2.48,1.02-3.48,1.04,.19-2.22,.9-3.53-.64-4.91-.75-.66-2.98-2.03-4.22-2.03-3.27,0,.17,2.39,.17,3.99,0,2.41-5.38,5.99-5.38,7.82v.87c0,.96,1.02,2.43,2.09,2.43h.87c5.05,0,10.09-4.86,12.68-4.86,.71,0,1.33,.39,1.91,.52,.2-.38,.52-.85,.52-1.39v-.87c0-1.12-1.25-2.61-2.43-2.61h-2.08Zm2.95,30.74c-.11,0-.36,.24-.53,.35,0,3.87-1.13,6.43-5.03,6.43h-2.78c-1.07,0-4.59-1.15-5.43-1.58l.39-.85c1.8,0,3.68,.3,3.82-1.39h1.21c.63,0,.52,.44,.64,1.09l.4-1.09,1.24-.02-.37-.5c1.08-.09,2.09-.97,2.09-2.09v-.67l-4.86-.37h-2.43c-1.63,0-2.72,.69-3.99,.69-.91,0-2.37-.74-3.07-1.1-1.06-.54-1.1-1.77-1.1-3.25,0-.2,.42-1.13,.52-1.54l-1.56-.19h-.71s-.51,5.38-.51,5.38c-.91,.61-1.28,1.56-2.95,1.56-.63,0-.97-.15-1.39-.35,0-1.93,0-3.49-.49-4.89-.82-2.33-1.94-.93-1.94-3.45v-.87c0-1.16,2.72-5.57,3.47-6.08,.51,.34,1.04,.73,1.04,1.57v1.74c0,.9-.55,2-.81,2.58l1.51,2.63c.11-.49,.35-.88,.35-1.39,0-.57-.52-1.33-.57-2l2.1-2.85,.39,1.55c1.15-.27,5.26-1.62,5.68-2.48,.58-1.18,2.23-4.61,2.48-5.68h1.21c.41,0,.69,.29,.69,.69v.52c0,2.06-1.39,1.57-1.37,3.67l1.2-.72h1.74c-.13-.28-1.06-2.15-1.09-2.27l.4-2.61,1.78,.53-.39-1.55c.58-.86,3.42-2.78,4.87-2.78h1.38c2.79,0,3.65,2.58,3.65,5.56l-.09,.2,2.02,.68-.37,.5h1.04v.35l-2.09,.65,3.13,.22-1.21-1.74h1.74c.33,1.25,1.91,.88,1.91,2.95v1.21c0,.59-.31,1.22-.87,1.22h-.53c-.8,0-.98-.52-2.08-.52h-1.73c-1.46,0-1.39,5.65-1.39,7.47v.87c1.95,0,4,1.04,4,2.95,0,.87-.7,1.56-1.22,1.91-.77-.18-2.5-.87-3.12-.87h0Zm-7.47-19.11l-.78,.1,2.7,2.27,1.89,.4,.36-.69c.73,.02,1.05,.35,1.05-.35v-1.74c0-.59-.31-1.22-.87-1.22-1.27,0-3.32,1.22-4.34,1.22h0Zm1.73,9.21h-1.21c-.77,0-.62-.34-1.91-.34,1.17,2.21,2.02,1.23,3.22,3.57l-2,2.52,1.56-.2h3.11s.54-6.95,.54-6.95c-1.72,.04-1.21,1.39-3.3,1.39h0Zm-11.46,5.56l6.82-.37-1.78-3.97h.52v-.52c-1.89,.16-5.4,3.01-5.56,4.87h0Z"/><path class="cls-24" d="M1138.96,290.2c-.81,0-3.41,2.54-3.89,3.19-1.09,1.46-.06,4.11-.06,5.86,1.48,0,2.96-.72,2.96-2.14v-.5c3.73,0,8.77,.42,11.82,1.19,2.57,.65,7.37,4.58,8.26,4.58h1.32c1.49,0,3.59-1.49,5.4-1.85,1.72-.34,4.11-1.03,4.15-3.09-3.33-.77-2.42-1.98-7.08-1.98-2.78,0-5.06-.89-7.35-1.54-1.6-.47-6-1.23-7.65-1.41-1.43-.15-2.72-.18-4.27-.17-.99,0-1.59,.27-1.83-.48-.14-.45-.44-1.24-.48-1.66h-1.32Zm4.65-1.94l-1.67-.44-.02,.41,1.48,.2c.65,.06,.67-.91,1.49-.53l.15-1.65h1.5c-.4,.59-.82,.44-.82,.99,0,.35,.06,.22,.16,.66,1.99-1.05,7.36-5.27,9.88-5.27,1.72-1.15,3.03-2.31,5.93-2.31,.79-.53,1.48-.8,1.48-2.14v-.83c0-1.27-2.72-3.95-3.95-3.95h-.33c-1.23,0-1.84,.83-3.13,.83h-.66c-.6,0-.92-.14-1.32-.33l-1.13,.54c-.08-2.41-2.28-4.66-4.8-4.66h-.33c-1.96,0-2.66,1.15-4.28,1.15l-.19,1.31c-.09,.68,3.16,1.43,3.16,2.97,0,.12-.82,.9-.99,1.15h.99l.56,.95-1.05-.17,.13,.16-1.34,1.47c-.41-.05-.22-.11-.6-.11-.24,0-3.32,2.22-4.01,2.58-1.54,.81-2.91,1.39-2.91,3.68,0,1.22,1.05,3.3,2.31,3.3,1.68,0,5.9-5.49,7.2-6.79,2.89-2.89,2.65-.91,4.75-2.33,1.46-.99,2.32-2.24,4.67-2.24-1.27,1.89-8.07,5.01-8.23,6.92l-.82-.17-.66,1.32h.5v.5h-.66l-1.48,.18,.48,.32-.85,.94,.56,.23-1.15,1.15h0Zm3.74-3l-.37-.81,1.36,.98-.45,.52-.03-.36-.97,.36,.47-.69h0Z"/><path class="cls-24" d="M1219.81,268.03c.03,1.07,.41,2.29,.51,3.12,.1,.93,0,2.45,0,3.45,0,2.15-.2,4.33-.17,6.74l.22,19.88-2.06,2.32-5.24,.53c.84,1.51,3.95,2.84,6.38,2.84h2.25c1.32,0,2.59-.75,2.59-2.07,0-3.5-1.54-6.24-1.56-9.16l-.08-25.23c.07-1.77-.29-5.19-1.99-5.19h-1.04c-1.06,0-1.43,.94-2.59,1.21v1.21c0,.33-.05,.31-.17,.54l1.55-.23,1.39,.03h0Zm-15.38,5.88c0-1.05,.32-1.58,.52-2.42-.52-.98-.91-1.9-2.42-1.9-1.82,0-4.84,1.6-4.84,3.11,0,.21,.36,.51,.69,.51h1.04c1.09,0,1.28-.51,2.07-.51h.52v1.55c0,2.16-2.89,4.33-4.84,4.49v-.69c0-.67,.87-.51,.87-2.07,0-1.16-1.23-2.25-2.42-2.08l-1.55,.19v.67c0,.61,.38,.46,.86,.69,0,2.56-.71,4.01-.86,6.05-.08,1.03-.45,1.92-.52,2.94-.07,1.08-.05,2.2-.21,3.25-.24,1.52-.79,4.63-.83,6.08-.02,.81-.2,2.43-.31,3.15-.12,.78-.56,2.57-.56,2.73v1.04c0,1.2,.52,1.15,.52,2.94,.46,.25,1.07,.87,1.38,.87h.52c.98,0,2.07-1.28,2.07-2.25v-.52c0-.64-1.55-1.18-1.55-3.11v-.52l1.07-10.54h.15s0,1.03,0,1.03c.57,.38,2.17,1.55,2.94,1.55,1.94,0,5.64-3.25,7.26-3.63,0-1.57-.86-2.75-.86-3.97v-2.25c0-.63,.52-.4,.52-1.03,0-2.27-1.21-3.41-1.21-5.02v-.35h0Zm-4.49,9.16s1.27-.63,1.38-.69v.86c-.18,.27-.23,.52-.69,.52h-.35c-.75,0-1.39-.42-1.56-1.04,.76,.06,.76,.35,1.21,.35h0Zm-3.98,2.59c0-1.19-.29-3.28,.87-3.28h.17c.83,0,2.77,1.95,2.77,2.42,0,.26-2.23,1.13-2.59,1.21l.93-1.52-2.14,1.17h0Zm23.85-13.65v3.46c-2.79,.06-2.29,2.42-5.7,2.42-.25,.38-.52,.58-.52,1.21v1.21c.85-.07,.63-.34,1.38-.34h1.03c.48,0,2.63,.98,3.11,1.21-.19,.69-.52,.57-.52,1.39v1.73h-1.38c-1.62,0-4.92,1.33-5.53,2.25,4.68,0,2.15,4.23,2.42,6.22l.69,5.7v.17c0,.97-1.12,2.76-2.25,2.76h-.17c-1.7,0-1.96-1.38-2.42-1.38-1.52,0-3.15,.87-5.18,.87h-1.04c-.09-1.08-2.07-2.07-2.07-4.15,0-3.6,.29-5.39,1.56-7.78,.64,.34,3.87,2.76,4.15,2.76h.17c.91,0,1.23-.69,1.72-.69h.35c.39,0,1.36,.87,2.08,1.04l-.03-3.02-4.81,1.29v-.5s-1.25-.23-1.25-.23l2.46-2.56c-.73,0-1.79-.14-1.77-.87l.18-2.8,2.23-2.39,.92-8.46v-.69c0-.83-.52-.9-.52-1.73v-.17c0-.76,1.11-.86,1.9-.86h1.38c1.36,0,2.07,1.68,2.07,3.11v1.04c1.36-.03,2.21-1.21,3.28-1.21h2.07Zm-13.13,23.33c-.21,.31-.34,.3-.34,.69v.52h.86c1,0,1.43-.52,1.9-.52,.5,0,1.97,1.2,2.76,1.38v-4.84c-1.94,1.43-.29,2.77-5.18,2.77h0Z"/></g><text class="cls-22" transform="translate(1040.15 329.76) scale(1.25 1)"><tspan class="cls-38" x="0" y="0">SHANHAI PUERHTE</tspan><tspan class="cls-35" x="117.78" y="0">A</tspan></text><g><path class="cls-2" d="M1179.65,202.32c16.37,.58,33.89-5.55,46.24-1.33,11.4,3.9-13.03,11.52-36.87,12.84-8.01,.45-17.71-5.52-25.82-5.52-4.3,0-22.99,7.12-35.03,7.2-3.24,.02-6.52,.03-9.84,.03-60.57,0-109.68-3.23-109.68-7.22"/><path class="cls-2" d="M1179.65,179.08c16.37,.58,33.89-5.55,46.24-1.33,11.4,3.9-13.03,11.52-36.87,12.84-8.01,.45-16.26-5.52-25.82-5.52s-22.99,7.12-35.03,7.2c-3.24,.02-6.52,.03-9.84,.03-60.57,0-109.68-3.23-109.68-7.22"/><path class="cls-2" d="M1224.18,153.67c.58,.15,1.15,.32,1.71,.51,11.4,3.9-13.03,11.52-36.87,12.84-8.01,.45-16.26-5.52-25.82-5.52s-22.99,7.12-35.03,7.2c-3.24,.02-6.52,.03-9.84,.03-60.57,0-109.68-3.23-109.68-7.22"/><path class="cls-2" d="M1216.82,152.71c2.59,.08,5.06,.36,7.37,.96"/><path class="cls-2" d="M1021.52,165.22s-12.87,1.88-12.87,4.55,13.03,11.35,137.05,9.67"/><path class="cls-2" d="M1021.52,188.46s-12.87,1.88-12.87,4.55,13.03,11.35,137.05,9.67"/><path class="cls-2" d="M1021.52,211.7s-12.87,1.88-12.87,4.55,13.03,11.35,137.05,9.67"/><path class="cls-2" d="M1179.65,225.56c16.72-.13,36.54-7.99,44.75-3.1,17.52,10.45-45.5,16.31-106.07,16.31s-109.68-3.23-109.68-7.22"/><line class="cls-2" x1="1162.73" y1="192.68" x2="1162.73" y2="201.13"/><line class="cls-2" x1="1162.73" y1="168.72" x2="1162.73" y2="177.18"/><line class="cls-2" x1="1162.73" y1="217.82" x2="1162.73" y2="229.81"/></g></g><g><line class="cls-12" x1="961.06" y1="233.76" x2="915.17" y2="233.76"/><polygon class="cls-21" points="959.08 230.86 969.92 233.76 959.08 236.67 959.08 230.86"/></g></g></svg>