<?xml version="1.0" encoding="UTF-8"?><svg id="_圖層_1" xmlns="http://www.w3.org/2000/svg" xmlns:xlink="http://www.w3.org/1999/xlink" viewBox="0 0 136.06 147.4"><defs><style>.cls-1{fill:none;}.cls-2{clip-path:url(#clippath);}.cls-3,.cls-4,.cls-5{fill:#3b3b3b;}.cls-6{letter-spacing:.53em;}.cls-7{letter-spacing:.2em;}.cls-4{font-size:2.08px;}.cls-4,.cls-5{font-family:HuayuanGothic-Regular, 'Huayuan Gothic';}.cls-5{font-size:4.15px;}</style><clipPath id="clippath"><rect class="cls-1" x="10.26" y="15.93" width="115.54" height="115.54"/></clipPath></defs><g class="cls-2"><path class="cls-3" d="M98.46,57.17v1.4c-.04,.4-.07,.8-.07,1.2v.93c-.13,6.8-.29,12.57-.47,17.3-.18,4.73-.38,8.66-.6,11.77-.22,3.11-.51,5.52-.87,7.23-.36,1.71-.8,2.94-1.33,3.7-.76,1.11-1.55,1.89-2.37,2.34-.82,.44-1.79,.78-2.9,1-1.02,.22-2.26,.33-3.7,.33s-2.97-.02-4.57-.07c-.09-1.11-.33-2.38-.73-3.8-.4-1.42-.93-2.69-1.6-3.8,1.47,.13,2.8,.22,4,.27,1.2,.04,2.11,.07,2.73,.07,.49,0,.91-.08,1.27-.23,.36-.15,.69-.45,1-.9,.36-.44,.67-1.32,.93-2.63,.27-1.31,.5-3.21,.7-5.7,.2-2.49,.37-5.62,.5-9.4,.13-3.78,.24-8.35,.33-13.73h-6c-.22,4.44-.61,8.64-1.17,12.6s-1.4,7.62-2.53,11c-1.13,3.38-2.62,6.48-4.47,9.3s-4.17,5.34-6.97,7.57c-.49-.8-1.17-1.69-2.03-2.67-.87-.98-1.74-1.84-2.63-2.6-4.85,.49-9.56,.97-14.13,1.43-4.58,.47-8.67,.86-12.27,1.17l-.93-6.67c1.87-.13,3.94-.28,6.23-.43,2.29-.16,4.72-.32,7.3-.5v-4h-11.73v-5.6h11.73v-2.6h-11.47v-20.6h11.47v-2.6h-13.13v-5.73h13.13v-2.67c-1.96,.13-3.87,.25-5.73,.33-1.87,.09-3.71,.16-5.53,.2-.13-.8-.37-1.74-.7-2.83-.33-1.09-.68-2.01-1.03-2.77,2.49-.13,5.03-.3,7.63-.5,2.6-.2,5.15-.44,7.67-.73,2.51-.29,4.92-.6,7.23-.93,2.31-.33,4.38-.7,6.2-1.1l3.46,5.93c-1.78,.36-3.68,.69-5.7,1-2.02,.31-4.12,.58-6.3,.8v3.27h12.8v3.67h6.27c.04-2.22,.07-4.48,.07-6.77v-7.17h7.6v7.13c0,2.31-.04,4.58-.13,6.8h13.53Zm-52.53,12.6h5.2v-2.93h-5.2v2.93Zm5.2,7.73v-3h-5.2v3h5.2Zm7.2,16.53c1.91-.13,3.83-.28,5.77-.43s3.88-.32,5.83-.5c1.29-1.82,2.38-3.78,3.27-5.87,.89-2.09,1.61-4.32,2.17-6.7s.97-4.91,1.23-7.6c.27-2.69,.47-5.52,.6-8.5h-6.07v-5.2h-12.8v2.6h11.8v20.6h-11.8v2.6h12.07v5.6h-12.07v3.4Zm5.2-24.27v-2.93h-5.2v2.93h5.2Zm-5.2,4.73v3h5.2v-3h-5.2Z"/><text class="cls-5" transform="translate(54.52 114.3)"><tspan class="cls-6" x="0" y="0">動態/逐</tspan><tspan class="cls-7" x="22.88" y="0">格</tspan></text><text class="cls-4" transform="translate(38.64 106.71) rotate(-5.01)"><tspan x="0" y="0">S</tspan></text><text class="cls-4" transform="translate(41.48 106.46) rotate(-5.25)"><tspan x="0" y="0">t</tspan></text><text class="cls-4" transform="translate(43.87 106.24) rotate(-5.45)"><tspan x="0" y="0">o</tspan></text><text class="cls-4" transform="translate(46.77 105.96) rotate(-5.63)"><tspan x="0" y="0">p</tspan></text><text class="cls-4" transform="translate(49.71 105.67) rotate(-5.79)"><tspan x="0" y="0">m</tspan></text><text class="cls-4" transform="translate(53.25 105.31) rotate(-5.83)"><tspan x="0" y="0">o</tspan></text><text class="cls-4" transform="translate(56.11 105.02) rotate(-5.81)"><tspan x="0" y="0">t</tspan></text><text class="cls-4" transform="translate(58.53 104.77) rotate(-5.79)"><tspan x="0" y="0">i</tspan></text><text class="cls-4" transform="translate(60.75 104.54) rotate(-5.76)"><tspan x="0" y="0">o</tspan></text><text class="cls-4" transform="translate(63.68 104.25) rotate(-5.74)"><tspan x="0" y="0">n</tspan></text></g></svg>