<?xml version="1.0" encoding="UTF-8"?><svg id="_圖層_1" xmlns="http://www.w3.org/2000/svg" viewBox="0 0 1920 1080"><defs><style>.cls-1{fill:#9e9f9f;}.cls-2{fill:#dbdcdc;}.cls-3{fill:#c8c9c9;}.cls-4{fill:#3e3a39;}.cls-5{fill:#727171;}</style></defs><rect class="cls-4" x="-2" y="-2" width="1924" height="1084"/><g><path class="cls-5" d="M959.92,470.79c-13.09-.02-23.91-10.85-23.87-23.89,.05-13.24,10.8-23.83,24.16-23.81,13.03,.02,23.97,11.07,23.73,23.98-.24,13.24-10.88,23.73-24.03,23.71Z"/><path class="cls-1" d="M1063.86,366.99c-.05,13.3-10.54,23.71-23.88,23.69-13.26-.02-23.86-10.77-23.8-24.13,.06-13.01,10.98-23.7,24.11-23.61,13.16,.09,23.63,10.77,23.58,24.05Z"/><path class="cls-5" d="M879.88,470.79c-13.09-.01-23.88-10.8-23.86-23.86,.02-13.24,10.74-23.84,24.1-23.83,13.11,.01,23.74,10.76,23.69,23.95-.05,13.13-10.76,23.75-23.93,23.74Z"/><path class="cls-2" d="M1063.81,527.24c.48,12.56-10.6,23.81-24.09,23.72-12.81-.09-23.73-11.1-23.57-24.13,.17-13.49,11.23-23.68,24.21-23.7,12.27-.01,24.24,11.27,23.45,24.11Z"/><path class="cls-3" d="M1063.82,446.96c.56,12.85-10.95,23.91-23.69,23.85-13.27-.07-24.05-10.7-23.98-23.91,.08-13.8,11.54-24,24.31-23.86,12.87,.15,24.01,11.61,23.35,23.92Z"/><path d="M879.83,390.71c-13.18-.07-23.78-10.73-23.76-23.9,.02-13.14,10.73-23.86,23.83-23.87,13.24,0,23.91,10.76,23.86,24.07-.06,13.18-10.75,23.77-23.93,23.71Z"/><path class="cls-5" d="M960.09,390.7c-13.12,.06-23.87-10.55-24.04-23.72-.16-12.93,10.69-23.92,23.74-24.05,13.17-.13,23.97,10.57,24.14,23.89,.16,12.94-10.7,23.82-23.84,23.87Z"/><path class="cls-1" d="M880.06,503.21c13.21,.04,23.81,10.65,23.82,23.85,.02,13.08-10.95,23.94-24.2,23.82-12.06-.11-23.58-9.35-23.62-23.81-.04-14.71,11.9-24.14,23.99-23.87Z"/><path class="cls-3" d="M960.07,503.24c13.32-.13,23.94,10.43,23.84,23.69-.11,14.49-11.36,23.97-23.96,23.97-13.21,0-23.86-10.65-23.86-23.83,0-13.66,10.87-24.06,23.98-23.83Z"/><g><path class="cls-3" d="M1093.49,684.7c-3.28-1.59-6.24-3.67-8.95-6.11-1-.9-.95-1.39,.03-2.33,2.25-2.16,4.35-4.48,6.44-6.8,1.1-1.23,1.21-2.69-.07-3.83-1.39-1.23-2.46-.28-3.37,.87-1.79,2.25-3.84,4.26-5.89,6.27-1.1,1.08-1.68,.86-2.45-.34-1.56-2.42-2.9-4.93-4.1-7.54-.76-1.65-.06-1.76,1.33-1.75,5.07,.05,10.14,0,15.21,.04,1.79,.02,3.32-.26,3.29-2.46-.03-2.07-1.53-2.31-3.19-2.3-4.9,.02-9.8,0-14.7,0q-3.74,0-3.87-3.62c-.02-.59-.1-1.18-.18-1.76-.18-1.24-.86-2.06-2.16-2.04-1.44,.02-2.08,.99-2.19,2.31-.08,.92-.13,1.87-.01,2.78,.26,1.96-.59,2.4-2.44,2.36-5.57-.12-11.15-.03-16.73-.05-1.77,0-3.37,.26-3.29,2.47,.06,2,1.54,2.31,3.23,2.29,4.8-.04,9.59-.01,15.06-.01-.88,.76-1.24,1.1-1.63,1.4-4.49,3.36-9.42,5.9-14.7,7.73-1.99,.69-3.45,1.67-2.59,4.01,.93,2.52,2.66,1.29,4.16,.62,2.73-1.22,5.44-2.49,8.43-3.87,0,3.4-.02,6.5,.01,9.59,.01,1.16-.46,1.64-1.61,1.78-2.01,.25-4,.61-5.99,.99-1.59,.31-1.91,1.56-1.75,2.89,.17,1.43,.93,2.35,2.57,2.07,8.07-1.38,16.05-3.16,23.87-5.59,1.72-.54,2.06-2.02,1.67-3.49-.42-1.57-1.65-1.54-3.06-1.12-3.15,.94-6.34,1.73-9.51,2.59-1.26,.34-2.06,.32-2-1.42,.12-3.29,.05-6.59,.02-9.89,0-.91,.21-1.63,.97-2.2,2.3-1.7,4.38-3.66,6.36-5.66,.62,.32,.61,.87,.79,1.33,4.03,10.52,10.53,18.96,20.57,24.4,1.57,.85,3.17,1.56,4.23-.68,.95-1.99,0-3.11-1.79-3.98Z"/><path class="cls-3" d="M847.21,675.76c.01-1.03-.57-1.75-1.11-2.48-1.98-2.67-3.98-5.32-6.18-8.25,2.57,0,4.75-.03,6.93,0,1.83,.03,2.91-.67,2.88-2.65-.03-1.85-1.06-2.49-2.79-2.44-2.03,.05-4.06-.06-6.08,.04-1.35,.06-1.85-.43-1.71-1.75,.08-.75,.09-1.53,0-2.28-.21-1.65,.57-2.01,2.05-1.94,2.19,.1,4.39,.04,6.59,.02,1.6-.02,2.56-.76,2.51-2.47-.04-1.58-.95-2.25-2.45-2.26-.76,0-1.53-.08-2.28,.01-1.67,.21-1.79-.56-1.36-1.89,1.04-3.21,1.87-6.49,2.33-9.82,.16-1.16,.59-1.37,1.58-1.35,1.8,.03,2.28-1.15,2.23-2.68-.05-1.51-.84-2.34-2.38-2.36-1.1-.02-2.2,.04-3.3-.02-1.76-.09-3.89,.71-5.16-.34-1.09-.91-.24-3.02-.39-4.6-.12-1.37-.52-2.62-2.1-2.68-1.63-.06-1.93,1.23-2.22,2.56-.37,1.67,.88,4-.73,4.89-1.36,.75-3.46,.17-5.24,.18-.34,0-.68,.02-1.01,0-1.62-.13-2.65,.59-2.82,2.2-.16,1.54,.57,2.69,2.19,2.82,1.06,.09,1.35,.41,1.5,1.47,.38,2.67,.98,5.31,1.52,7.95,.7,3.46,.71,3.51-2.91,3.63-1.6,.05-2.65,.6-2.66,2.3-.02,1.82,1.08,2.49,2.79,2.46,1.69-.03,3.39,.11,5.07-.04,1.79-.15,2.49,.49,2.25,2.26-.09,.66-.07,1.36,0,2.03,.14,1.38-.51,1.74-1.78,1.68-1.86-.08-3.72,.05-5.58-.04-1.83-.08-2.72,.82-2.74,2.52-.01,1.73,.96,2.6,2.73,2.58,1.85-.03,3.71,0,5.98,0-1.87,5.03-4.49,9.21-7.59,13.11-.81,1.01-1.59,1.99-1.42,3.39,.12,.96,.42,1.89,1.39,2.26,1.06,.41,1.74-.28,2.29-1.1,.81-1.19,1.68-2.33,2.42-3.55,1.35-2.22,2.62-4.48,4.29-7.35,0,1.94-.01,3.12,0,4.29,.05,4.22,.09,8.44,.17,12.66,.03,1.4,.78,2.27,2.21,2.19,1.3-.07,1.9-1,1.96-2.23,.06-1.43,.06-2.87,.06-4.31,0-4.34,0-8.67,0-13.01,1.86,1.81,3.18,3.74,4.55,5.65,.53,.74,1.08,1.65,2.22,1.24,1.15-.42,1.26-1.42,1.28-2.5Zm-9.52-26.39c-2.32,.22-3.17-.46-3.37-2.86-.23-2.83-.99-5.63-1.68-8.4-.38-1.51,.02-1.98,1.52-1.85,1.17,.1,2.36,.02,3.54,.02q5.3,0,3.99,5.29c-.49,1.95-1.11,3.87-1.58,5.83-.32,1.32-.95,1.84-2.41,1.97Z"/><path class="cls-3" d="M872.08,647.32c-4.39,.09-8.79-.03-13.18,.06-1.52,.03-2.12-.34-2.01-1.96,.17-2.69,.27-5.41,.16-8.1-.08-1.85,.6-2.44,2.38-2.7,4.26-.62,8.43-1.7,12.39-3.44,1.84-.81,2.06-2.36,1.42-4.02-.67-1.73-1.97-1.42-3.36-.86-4.47,1.83-9.14,2.97-13.92,3.55-2.25,.27-3.03,1.53-3.09,3.54-.03,.93,0,1.86,0,2.79-.26,16.36,.3,32.81-6.49,48.31-.69,1.57-.26,3.44,1.46,4.12,1.99,.79,2.27-1.25,2.78-2.43,3.77-8.72,5.11-17.97,5.7-27.35,.39-6.27,.3-6.19,6.52-6.21,1.89,0,2.19,.68,2.16,2.35-.1,5.24-.04,10.48-.04,15.72s-.03,10.14,.02,15.22c.01,1.76-.59,4.24,2.2,4.21,2.59-.03,2.07-2.45,2.08-4.12,.04-10.14,.09-20.29-.03-30.43-.03-2.24,.45-3.27,2.86-2.92,2,.29,3.05-.8,3-2.78-.05-1.87-1.1-2.59-2.99-2.55Z"/><path class="cls-3" d="M1068.81,635.76c-2.35,.05-4.69,.5-7.03,.83-1.76,.25-2.13,1.57-1.88,3,.23,1.36,.98,2.23,2.66,1.96,2.66-.42,5.4-.46,8.02-1.03,2.03-.44,2.73,.28,3.54,2.01,2.29,4.85,5.26,9.26,9.84,12.28,2.21,1.46,4.8,2.89,7.25,1.03,2.78-2.12,4.01-5.33,4.02-8.87,0-.96-.52-1.78-1.67-1.89-1.14-.11-1.67,.48-1.93,1.54-.18,.73-.52,1.42-.83,2.11-1.3,2.98-2.34,3.33-4.94,1.43-3.57-2.61-5.75-6.28-7.73-10.34,1.13-.2,2.03-.39,2.95-.51,3.68-.46,7.37-.91,11.05-1.31,1.69-.19,2.32-1.22,2.32-2.74,0-1.27-.69-2.07-1.95-2.24-.64-.09-1.29-.01-2.17-.01,1.39-2.55,.37-4.07-1.9-5.15-1.29-.61-2.48-1.42-3.71-2.16-1.31-.79-2.6-1.02-3.46,.55-.88,1.6-.43,2.87,1.22,3.77,1.74,.95,3.43,2.01,5.14,3.02l-.21,.48c-3.09,.37-6.18,.68-9.25,1.12-1.49,.22-2.37-.1-2.7-1.7-.39-1.9-.97-3.75-1.4-5.64-.32-1.41-.98-2.39-2.57-2.12-1.6,.27-1.96,1.54-1.8,2.88,.2,1.67,.44,3.37,.98,4.95,.64,1.91,.43,2.72-1.83,2.77Z"/><path class="cls-3" d="M938.17,659.31c14.51-.06,29.02-.05,43.54,0,2.18,0,3.06-.93,3.06-3.03,0-2.18-1.09-2.89-3.19-2.87-7.17,.08-14.34,.03-21.52,.03s-14.51,.05-21.77-.03c-2.04-.02-3.03,.81-3.07,2.76-.03,1.93,.64,3.15,2.95,3.15Z"/><path class="cls-3" d="M1049.54,644.87c1.07-.94,2.14-1.86,3.6-3.13,0,3.99,.02,7.52,0,11.05-.01,1.57,.23,3.07,2.15,3.04,1.89-.02,2.17-1.55,2.18-3.09,0-3.71,.13-7.43-.04-11.14-.14-3.14,.24-5.97,2.39-8.46,.92-1.06,1.49-2.44,2.13-3.71,.73-1.45,.66-2.87-.9-3.71-1.68-.9-2.45,.41-3.12,1.63-2.76,5.02-6.47,9.24-10.84,12.9-.6,.5-1.13,1.01-1.37,1.76-.42,1.3-.3,2.64,.72,3.52,1.12,.96,2.18,.15,3.1-.66Z"/><path class="cls-3" d="M986.71,730.55c-.03-.34-.07-.68-.1-1.02,1.45-1.36,1.3-2.79,.07-4.15-.79-.86-5.65-1.39-6.25-.71-.23,.26-.26,.77-.26,1.16-.02,3.19-.01,6.39-.01,9.58,0,.59-.06,1.27,.81,1.25,1.59-.05,3.19,.22,4.76-.22,1.46-.41,2.23-1.52,2.47-2.84,.22-1.23-.07-2.48-1.49-3.04Zm-4.08-5.27c1.57,.24,3.82-.26,3.87,2.16,.05,2.39-2.11,2.1-3.74,2.33-1.94,.26-1.71-1-1.6-2.22,.13-.97-.67-2.59,1.47-2.27Zm4.09,9.41c-.61,.77-4.78,1.6-5.21,.92-.84-1.33-.36-2.94-.32-4.41,.03-1.05,1.03-.53,1.61-.59,.75-.08,1.51,0,2.27,0,.16,.08,.31,.16,.47,.23,.13,.07,.26,.13,.39,.2,.08,.04,.15,.07,.23,.11,.9,1.07,1.65,2.18,.56,3.54Z"/><path class="cls-3" d="M1070.16,730.74c.54,1.62,2.65-.2,2.78,1.53,.08,1.03,.58,2.35-.43,3.1-.85,.62-1.96,.83-3.13,.44-2.1-.7-3.3-2.6-3.24-5.41,.05-2.79,1.38-4.55,3.57-5.18,1.35-.39,2.33,.71,4.01,.59-2.34-1.9-4.58-2-6.43-.56-2.09,1.62-2.84,5.46-1.64,8.39,.99,2.43,3.04,3.57,5.66,3.14,2.61-.42,3.62-2.11,2.56-5.36-.59-1.82-2.34-.67-3.71-.67Z"/><path class="cls-3" d="M893.68,725.37c1.28,.07,2.76,.58,4.58-.92-2.56,0-4.46,.02-6.35,0-.98-.02-1.04,.57-1.04,1.31,.02,3.21,.02,6.42,0,9.63,0,.77,.1,1.31,1.06,1.29,1.98-.03,3.96-.01,5.94-.01,0-.26,0-.51,0-.77-1.42-.45-2.92-.1-4.38-.21-.55-.04-1.39,.22-1.46-.57-.13-1.34-.35-2.8,.06-4.02,.37-1.09,1.8-.31,2.74-.51,.62-.14,1.41,.29,2.3-.83-1.46,0-2.45-.1-3.42,.02-1.86,.23-1.77-.93-1.76-2.19,0-1.24-.14-2.3,1.75-2.21Z"/><path class="cls-3" d="M935.34,734.29c-.63-.55-.68-1.58-.83-2.49-.41-2.49-.73-5.04-1.72-7.38-.27,.06-.53,.12-.8,.18,.87,4.02,1.74,8.05,2.65,12.27,1.21-.76,2.29-1.2,.7-2.57Z"/><path class="cls-3" d="M854.28,724.57c-1.1,3.13-.25,6.35-.43,9.52-.06,.06-.11,.14-.18,.17-.06,.02-.19,.01-.22-.03-.72-1.09-1.43-2.19-2.15-3.28-.81-1.66-1.64-3.29-3.04-4.56-.02-.79-.23-1.5-1-1.84-.34-.15-.65,.1-.65,.5-.01,3.82,0,7.65,0,11.47,.29,0,.57,0,.86-.01,0-2.45-.06-4.9,.04-7.35,.03-.67-.7-1.74,.66-2.02,.34,1.78,1.7,2.97,2.58,4.44,.83,1.38,1.66,2.76,2.49,4.14,.11,.58,.34,1.02,1.05,.85,1.05-2.62,.33-5.35,.43-8.03,.05-1.3,.62-2.76-.44-3.97Z"/><path class="cls-3" d="M944.26,724.38c-.72,3.07-1.43,6.15-2.15,9.22-.04,.15-.04,.34-.13,.45-.19,.24-.34,.18-.38-.12-.09-.54-.17-1.08-.27-1.61-1.42,1.27-.28,2.61-.06,3.91,.03,.18,.52,.36,.81,.39,.44,.04,.51-.37,.53-.69,.03-.58,0-1.16-.02-1.74,1.4-3.08,1.93-6.35,2.46-9.61-.27-.06-.53-.13-.8-.19Z"/><path class="cls-3" d="M941.35,732.3s-.01,0-.02,0c0,0,0,0,0,0h.01Z"/><path class="cls-3" d="M941.33,732.31c-.62-2.1-1.24-4.21-1.86-6.31-.04-.67-.02-1.48-.9-1.52-.97-.04-.65,.99-.94,1.51-.4,.75,.31,1.14,.63,1.64-.09-.51,.26-.7,.63-.88,.37,1.61,.78,3.21,1.08,4.83,.17,.92,.58,1.09,1.35,.72Z"/><path class="cls-3" d="M937.06,728.16c-.52,1.98-1.01,3.97-1.51,5.96,1.99-1.77,1.7-4.33,2.71-6.41-.43,.08-1.03-.23-1.21,.45Z"/><path class="cls-3" d="M941.33,732.32s0,0,0,0c0,0,0-.01,.01-.02,0,0-.02,.02-.02,.01Z"/><path class="cls-3" d="M938.28,727.67s-.01,.03-.02,.04c.02,0,.04,0,.06,0h0s-.03-.04-.04-.06c0,0,0,.01,0,.02,0,0,0,0,0,0Z"/><path class="cls-3" d="M1027.9,726.79c-.08-.53-.04-1.09-.54-1.46,0-.56-.22-.93-.83-.84-.91,.14-.58,.96-.77,1.5l-1.42,3.05c-.73,2.49-1.47,4.97-2.21,7.46,1.45-.99,1.69-2.45,2.16-3.8,1.51-.05,3.01-.1,4.52-.15,1.08,1.17,.57,3.25,2.85,4.52-1.11-3.07-2.01-5.54-2.9-8.02-.16-.8-.29-1.61-.85-2.25Zm.78,4.63c-.19,.05-.38,.07-.57,.1-.97,.16-1.94,.13-2.92,.03-.14-.01-.28-.03-.42-.04,.12-.49,.24-.98,.35-1.48,.04-.13,.09-.26,.14-.4,.42-1.19,1-2.33,1.03-3.63,0,0,0,0,0,0,.15-.05,.29-.05,.44,0,.03,.06,.05,.13,.08,.19,.15,.35,.29,.71,.44,1.06,.03,.08,.07,.17,.1,.25,.23,.6,.46,1.2,.69,1.8,.05,.12,.1,.25,.14,.37,.16,.58,.32,1.16,.47,1.74Z"/></g></g></svg>